<svg viewBox="0 0 328 115" fill="none" xmlns="http://www.w3.org/2000/svg" preserveAspectRatio="none">
<path d="M74.3015 25.3003C97.8015 25.4003 121.302 25.7003 144.802 26.1003C168.202 26.5003 191.702 27.4003 215.102 28.4003C238.502 29.4003 262.002 30.3003 285.402 30.5003C296.802 30.6003 308.202 30.9003 319.502 30.9003C321.902 30.9003 324.302 30.867 326.702 30.8003C326.902 24.4003 326.902 18.0003 326.602 11.6003C326.502 9.20031 326.102 6.0003 324.302 3.9003C324.035 3.5003 323.735 3.16697 323.402 2.9003C320.602 0.600304 315.902 0.800305 312.102 0.800305C294.235 0.933638 276.368 1.0003 258.502 1.0003C238.235 1.0003 218.002 1.0003 197.802 1.0003C157.502 1.0003 117.302 1.00031 77.0016 1.10031C60.3016 1.10031 43.7016 1.1003 27.0016 1.2003C21.4016 1.3003 15.4016 0.000305057 9.90155 1.30031C3.20155 2.90031 2.40154 9.00031 2.30154 13.5003C2.16821 17.4336 2.10156 21.3336 2.10156 25.2003C26.1016 25.2003 50.2015 25.2003 74.3015 25.3003Z" fill="#9C5C26"/>
<path fill-rule="evenodd" clip-rule="evenodd" d="M318.505 31.4009C311.805 31.4009 305.005 31.3009 298.405 31.2009C294.071 31.1342 289.738 31.1009 285.405 31.1009C262.405 30.9009 240.005 30.0009 215.105 29.0009C192.605 28.0009 168.405 27.1009 144.705 26.7009C123.505 26.3009 100.505 26.0009 74.3047 25.9009C50.8047 25.8009 27.7047 25.7009 2.10471 25.7009H1.30469V25.2009C1.37135 21.3342 1.47137 17.4342 1.60471 13.5009C1.70471 10.3009 1.90471 2.60087 9.70471 0.800869C13.4047 -0.0991315 17.4047 0.200868 21.3047 0.400868C23.3047 0.600868 25.1047 0.700868 27.0047 0.700868C44.0047 0.500868 61.1047 0.500868 77.0047 0.500868C108.405 0.434202 139.805 0.434202 171.205 0.500868H258.505C274.305 0.500868 291.405 0.400868 312.105 0.200868H312.805C316.505 0.200868 321.105 0.200868 323.905 2.50087C324.305 2.8342 324.671 3.20087 325.005 3.60087C326.405 5.40087 327.205 8.00087 327.305 11.6009C327.605 17.9009 327.605 24.3009 327.405 30.8009V31.4009H326.705C324.305 31.4009 321.905 31.4009 319.505 31.4009C319.171 31.4009 318.838 31.4009 318.505 31.4009ZM74.3047 24.7009C100.505 24.9009 123.505 25.1009 144.805 25.5009C168.505 26.0009 192.605 26.9009 215.205 27.8009C240.005 28.8009 262.505 29.7009 285.405 29.9009C289.805 29.9675 294.171 30.0342 298.505 30.1009C305.405 30.2009 312.505 30.3009 319.505 30.3009C321.638 30.3009 323.805 30.2675 326.005 30.2009C326.205 24.0009 326.105 17.7009 325.905 11.6009C325.705 8.20087 325.005 5.80087 323.705 4.20087C323.438 3.86753 323.138 3.56754 322.805 3.30087C320.405 1.30087 316.405 1.40087 312.805 1.40087H312.105C291.405 1.50087 274.305 1.60087 258.505 1.60087H171.205C139.805 1.60087 108.405 1.60087 77.0047 1.60087C61.1047 1.70087 44.0047 1.70087 27.0047 1.80087C25.1047 1.80087 23.1047 1.70087 21.2047 1.60087C17.4047 1.30087 13.6047 1.10087 10.1047 1.90087C4.10471 3.30087 3.2047 8.60087 3.0047 13.6009C2.93803 17.2675 2.87135 20.9342 2.80469 24.6009C28.1047 24.6009 51.1047 24.6009 74.3047 24.7009Z" fill="#775436"/>
<g style="mix-blend-mode:multiply">
<path d="M31.8031 1.90234C42.4031 2.50234 53.2031 2.30234 63.8031 2.30234C85.8031 2.30234 107.803 2.50234 129.803 2.60234C151.503 2.70234 173.303 2.40234 195.103 2.80234C205.903 2.90234 216.803 3.50234 227.603 3.40234C238.503 3.20234 249.203 2.50234 260.003 1.90234C270.503 1.40234 281.003 1.40234 291.503 0.902344C280.503 0.96901 269.503 1.00234 258.503 1.00234C238.236 1.00234 218.003 1.00234 197.803 1.00234C157.503 1.00234 117.303 1.00234 77.0031 1.10234C60.3031 1.10234 43.7031 1.10234 27.0031 1.20234C26.0698 1.26901 25.1365 1.26901 24.2031 1.20234C26.7031 1.40234 29.2031 1.70234 31.8031 1.90234Z" fill="#89511E"/>
</g>
<g style="mix-blend-mode:multiply">
<path d="M325.802 6.70047C316.802 6.30047 307.902 6.40047 298.902 6.50047C286.702 6.70047 274.502 6.80047 262.202 6.70047C240.002 6.50047 217.802 6.60047 195.502 6.90047C184.502 7.00047 173.602 7.20047 162.602 7.10047C151.402 6.90047 140.302 6.50047 129.102 6.20047C107.002 5.60047 84.9015 6.10047 62.8015 6.20047C42.9015 6.20047 23.0016 6.30047 3.20157 7.60047C2.50157 9.60047 2.40154 11.7005 2.30154 13.5005C2.16821 17.4338 2.10156 21.3338 2.10156 25.2005C26.1016 25.2005 50.2015 25.2005 74.3015 25.3005C97.8015 25.4005 121.302 25.7005 144.802 26.1005C168.202 26.5005 191.702 27.4005 215.102 28.4005C238.502 29.4005 262.002 30.3005 285.402 30.5005C296.802 30.6005 308.202 30.9005 319.502 30.9005C321.902 30.9005 324.302 30.8671 326.702 30.8005C326.902 24.4005 326.902 18.0005 326.602 11.6005C326.502 10.1005 326.402 8.30047 325.802 6.70047Z" fill="#89511E"/>
</g>
<path d="M324.304 11.5005C324.037 11.1672 323.737 10.8339 323.404 10.5005C320.604 8.20052 315.904 8.40052 312.104 8.40052C294.237 8.53385 276.37 8.60052 258.504 8.60052C238.237 8.66719 218.004 8.70052 197.804 8.70052C157.504 8.70052 117.304 8.60052 77.0038 8.70052C60.3038 8.70052 43.7038 8.70052 27.0038 8.90052C21.4038 8.90052 15.4038 7.70052 9.90378 8.90052C3.20378 10.5005 2.40377 16.6005 2.30377 21.2005C2.10377 28.5005 1.90379 35.8005 2.00379 43.2005C2.10379 44.9005 2.00379 46.6005 2.10379 48.3005C2.10379 49.1005 2.2038 50.0005 2.7038 50.7005C3.5038 52.0005 5.50379 52.7005 7.10379 53.3005C6.30379 53.6005 5.20377 53.6005 4.30377 53.8005C3.40377 54.0005 2.60379 54.5005 2.10379 55.1005C1.00379 56.3005 2.20379 56.8005 3.00379 57.6005C4.40379 59.2005 2.5038 62.2005 2.2038 63.8005C0.703798 71.1005 1.90377 79.1005 2.80377 86.4005C3.20377 89.4005 3.10377 94.2005 7.80377 95.1005C11.3038 95.7005 15.4038 94.5005 18.5038 96.1005C13.7038 97.2005 5.60378 96.2005 3.90378 100.601C3.40378 102.001 3.60378 103.501 3.90378 104.801C4.90378 110.601 4.9038 113.501 12.2038 113.501C66.1038 113.501 125.004 113.501 178.904 113.501C201.37 113.501 223.804 113.501 246.204 113.501C268.204 113.501 293.704 115.101 315.604 113.901C318.404 113.801 319.404 111.501 321.304 109.701C322.504 108.501 321.604 106.901 321.904 105.601C322.004 105.301 321.904 105.101 321.604 105.001C320.404 104.601 319.104 104.201 317.904 103.801C321.704 103.001 323.304 102.601 323.304 99.4005C323.104 87.9005 320.304 77.4005 322.704 65.8005C323.304 63.0005 319.704 63.1005 316.804 62.9005C318.504 62.6005 320.204 62.3005 321.804 61.7005C322.904 61.3005 323.904 60.7005 324.504 59.9005C325.104 59.0005 325.304 57.9005 325.404 56.9005C326.704 44.5005 327.204 31.7005 326.604 19.2005C326.504 16.9005 326.104 13.7005 324.304 11.5005Z" fill="#FECF8D"/>
<path fill-rule="evenodd" clip-rule="evenodd" d="M297.605 114.902C288.905 114.902 280.005 114.702 271.205 114.502C262.505 114.202 254.305 114.002 246.405 114.002C246.338 114.002 246.272 114.002 246.205 114.002L123.205 114.102C86.0049 114.102 48.0049 114.102 12.2049 114.102C4.70493 114.102 4.2049 111.002 3.3049 105.902L3.10492 104.902C2.90492 103.402 2.60493 101.902 3.20493 100.502C4.60493 97.0024 9.40492 96.5024 13.6049 96.2024C14.4049 96.0691 15.1716 95.9691 15.9049 95.9024C14.8049 95.8024 13.5049 95.8024 12.3049 95.8024C10.7049 95.9024 9.10492 95.9024 7.60492 95.6024C2.90492 94.7024 2.50493 90.5024 2.20493 87.5024C2.13826 87.1024 2.10492 86.7358 2.10492 86.4024L1.90491 85.1024C1.10491 78.3024 0.104916 70.6024 1.50492 63.8024C1.50492 63.3024 1.80492 62.7024 2.00492 62.0024C2.60492 60.6024 3.20491 58.9024 2.40491 58.0024C2.27158 57.8024 2.10491 57.6358 1.90491 57.5024C1.30491 56.9024 0.304916 56.1024 1.50492 54.8024C2.10492 54.1024 3.00492 53.5024 4.10492 53.3024C4.37159 53.2358 4.67158 53.1691 5.00492 53.1024C3.80492 52.6024 2.60492 52.0024 2.00492 51.0024C1.50492 50.2024 1.4049 49.2024 1.3049 48.3024C1.3049 47.2024 1.3049 46.1024 1.3049 45.0024C1.3049 44.4024 1.3049 43.8024 1.3049 43.2024C1.2049 35.6024 1.40492 28.1024 1.60492 21.2024C1.70492 17.9024 1.90493 10.2024 9.70493 8.40243C13.5049 7.50243 17.4049 7.80243 21.3049 8.00243C23.3049 8.20243 25.1049 8.30243 27.0049 8.30243C44.0049 8.20243 61.1049 8.10243 77.0049 8.10243C108.938 8.10243 140.872 8.10243 172.805 8.10243H258.505C274.505 8.10243 291.605 8.00243 312.105 7.90243H312.805C316.505 7.80243 321.105 7.80243 323.905 10.1024C324.305 10.4358 324.672 10.8024 325.005 11.2024C326.405 13.0024 327.205 15.6024 327.305 19.2024C327.905 31.6024 327.505 44.3024 326.105 56.9024C326.005 58.0024 325.805 59.1024 325.205 60.1024C324.605 61.0024 323.605 61.7024 322.205 62.2024C321.738 62.4024 321.238 62.5691 320.705 62.7024C321.605 62.9024 322.305 63.2024 322.905 63.7024C323.438 64.2358 323.605 64.9691 323.405 65.9024C321.805 73.5024 322.505 80.6024 323.205 88.1024C323.605 91.7024 323.905 95.5024 324.005 99.4024C324.005 102.402 322.505 103.302 320.105 103.902C320.105 103.902 320.138 103.902 320.205 103.902C320.738 104.102 321.305 104.302 321.905 104.502C322.505 104.702 322.805 105.202 322.705 105.702C322.505 106.102 322.605 106.602 322.605 107.102C322.705 108.102 322.805 109.102 321.905 110.002C321.405 110.502 320.905 111.002 320.505 111.502C319.305 112.902 318.105 114.402 315.705 114.502C309.905 114.802 303.805 114.902 297.605 114.902ZM246.405 112.902C254.305 112.902 262.505 113.102 271.305 113.302C286.205 113.702 301.705 114.102 315.605 113.302C317.205 113.202 318.205 112.202 319.305 110.802C319.705 110.302 320.205 109.802 320.705 109.302C321.305 108.802 321.205 108.002 321.205 107.202C321.105 106.702 321.105 106.102 321.205 105.502C320.672 105.302 320.138 105.136 319.605 105.002C318.938 104.802 318.272 104.569 317.605 104.302L315.805 103.602L317.705 103.202C321.305 102.502 322.605 102.202 322.505 99.4024C322.505 95.6024 322.105 91.8024 321.705 88.2024C321.005 80.6024 320.305 73.5024 322.005 65.8024C322.138 65.1358 322.038 64.6691 321.705 64.4024C321.005 63.7024 319.005 63.6024 317.305 63.5024L312.005 63.3024L317.605 62.2024C319.005 61.9024 320.305 61.7024 321.505 61.2024C322.638 60.7358 323.438 60.2024 323.905 59.6024C324.405 58.8024 324.605 57.8024 324.705 56.8024C326.005 44.3024 326.405 31.6024 325.905 19.3024C325.705 15.9024 325.005 13.4024 323.705 11.8024C323.438 11.4691 323.138 11.1691 322.805 10.9024C320.405 8.90243 316.405 9.00243 312.805 9.00243H312.105C291.605 9.20243 274.505 9.20243 258.505 9.20243H172.805C140.872 9.20243 108.938 9.23576 77.0049 9.30243C61.1049 9.30243 44.0049 9.30243 27.0049 9.40243C25.1049 9.50243 23.1049 9.30243 21.2049 9.20243C17.4049 8.90243 13.6049 8.70243 10.1049 9.50243C4.10492 10.9024 3.20492 16.2024 3.00492 21.2024C2.80492 28.2024 2.7049 35.6024 2.8049 43.2024C2.8049 43.8024 2.8049 44.4024 2.8049 45.0024C2.8049 46.1024 2.8049 47.2024 2.8049 48.3024C2.9049 49.1024 2.9049 49.9024 3.3049 50.5024C3.9049 51.4024 5.30493 52.0024 6.70493 52.5024C6.9716 52.6358 7.23825 52.7358 7.50492 52.8024L8.8049 53.4024L7.40491 53.8024C6.80491 54.0024 6.30493 54.1024 5.70493 54.2024C5.30493 54.2024 4.93826 54.2691 4.60492 54.4024C3.80492 54.6024 3.10493 54.9024 2.70493 55.4024C2.20493 56.0024 2.40492 56.1024 3.00492 56.7024C3.27158 56.9024 3.47159 57.1024 3.60492 57.3024C4.90492 58.7024 4.10491 60.7024 3.40491 62.4024C3.20491 63.0024 3.00491 63.5024 2.90491 63.9024C1.60491 70.6024 2.50491 78.3024 3.40491 85.0024L3.50492 86.3024C3.57158 86.6358 3.63826 87.0024 3.70493 87.4024C4.00493 90.2024 4.30492 93.8024 8.00492 94.5024C9.30492 94.7024 10.7049 94.7024 12.2049 94.7024C14.5049 94.6024 16.9049 94.6024 18.9049 95.6024L20.3049 96.2024L18.7049 96.6024C17.3049 97.0024 15.6049 97.1024 13.8049 97.3024C9.6049 97.7024 5.70492 98.0024 4.60492 100.802C4.10492 102.002 4.40492 103.402 4.60492 104.602L4.8049 105.802C5.6049 110.802 6.00493 113.002 12.2049 113.002C48.0049 113.002 86.0049 112.902 123.205 112.902H246.205C246.272 112.902 246.338 112.902 246.405 112.902Z" fill="#A1724D"/>
<g style="mix-blend-mode:multiply" opacity="0.5">
<path d="M261.106 111.099C250.006 110.299 239.006 109.399 227.906 108.599C216.806 107.799 205.906 107.599 194.806 108.299C183.706 108.999 172.606 109.899 161.506 110.299C150.306 110.599 139.106 110.299 127.906 109.899C105.706 108.999 83.5062 107.799 61.3062 108.899C42.6062 109.699 23.6063 111.399 4.90625 109.699C5.70625 112.299 7.40627 113.499 12.2063 113.499C66.1063 113.499 125.006 113.499 178.906 113.499C201.373 113.499 223.806 113.499 246.206 113.499C268.206 113.499 293.706 115.099 315.606 113.899C316.306 113.899 316.806 113.699 317.306 113.499C298.506 113.699 279.706 112.499 261.106 111.099Z" fill="#EBA748"/>
</g>
<g style="mix-blend-mode:screen">
<path d="M311.206 93.9024C306.706 93.7024 302.206 93.4024 297.806 93.3024C293.306 93.1024 288.806 93.1024 284.306 93.2024C277.306 93.2691 270.34 93.4691 263.406 93.8024C268.273 94.5357 273.206 95.1024 278.206 95.5024C284.106 96.0024 290.006 96.3024 296.006 96.6024C300.206 96.8024 304.506 97.2024 308.706 97.5024C313.506 97.8024 318.206 98.0024 323.006 98.0024C323.073 98.0024 323.14 98.0024 323.206 98.0024C323.14 96.6024 323.073 95.2357 323.006 93.9024C319.106 94.1024 315.106 94.1024 311.206 93.9024Z" fill="#EBA748"/>
</g>
<g style="mix-blend-mode:screen">
<path d="M265.406 64.1992C269.073 64.5326 272.74 64.8659 276.406 65.1992C282.473 65.7992 288.573 66.3326 294.706 66.7992C298.606 67.0992 302.506 67.6992 306.306 68.2992C310.706 68.8992 315.206 69.4992 319.806 69.5992C320.54 69.6659 321.306 69.6992 322.106 69.6992C322.24 68.4326 322.44 67.1659 322.706 65.8992C319.106 66.1659 315.473 66.2992 311.806 66.2992C296.306 66.3992 280.906 64.4992 265.406 64.1992Z" fill="#EBA748"/>
</g>
<g style="mix-blend-mode:screen">
<path d="M2.10312 55.099C1.83645 55.4323 1.70312 55.699 1.70312 55.899C3.63646 55.9657 5.56978 55.999 7.50311 55.999C12.8031 56.199 18.2031 56.299 23.5031 56.299C28.9031 56.299 34.2031 55.899 39.6031 55.399C45.0031 54.999 50.4031 54.599 55.9031 54.599C59.9031 54.599 64.0031 54.599 67.9031 53.899C63.9698 53.7657 60.0698 53.699 56.2031 53.699C47.0031 53.799 37.8031 54.499 28.6031 54.199C21.0031 53.999 13.5031 53.499 5.90311 53.599C5.40311 53.599 4.8031 53.699 4.3031 53.799C3.4031 53.999 2.60312 54.499 2.10312 55.099Z" fill="#EBA748"/>
</g>
<g style="mix-blend-mode:screen">
<path d="M16.1016 15.6016C11.8016 15.4016 7.50157 15.2016 3.20157 15.1016C2.9349 15.9016 2.7349 16.7349 2.60156 17.6016C5.80156 17.4016 8.90156 16.9016 12.0016 16.3016C13.3349 16.1016 14.7016 15.8682 16.1016 15.6016Z" fill="#EBA748"/>
</g>
<g style="mix-blend-mode:screen">
<path d="M254.102 16.8992C256.035 17.1659 258.002 17.3992 260.002 17.5992C268.802 18.3992 277.602 18.2992 286.402 17.8992C275.702 16.7992 264.902 16.5992 254.102 16.8992Z" fill="#EBA748"/>
</g>
<g style="mix-blend-mode:multiply" opacity="0.5">
<path d="M30.0016 54.2991C35.4016 54.4991 40.7016 54.4991 46.1016 54.2991C54.3016 54.0991 62.4016 53.5991 70.6016 53.2991C66.8016 52.8991 62.9682 52.5991 59.1016 52.3991C53.3016 52.0991 47.6016 51.8991 41.9016 51.7991C36.7016 51.6991 31.4016 51.5991 26.2016 51.7991C21.1016 51.8991 16.0016 52.1991 11.0016 52.1991C8.70156 52.1991 6.40156 52.1991 4.10156 51.9991C4.80156 52.3991 5.50154 52.6991 6.30154 52.9991C8.76821 53.0657 11.2682 53.1991 13.8015 53.3991C19.2015 53.6991 24.6016 54.0991 30.0016 54.2991Z" fill="#EBA748"/>
</g>
<g style="mix-blend-mode:multiply" opacity="0.5">
<path d="M286.405 62.6008C278.905 62.2008 271.405 62.2008 263.905 62.6008C256.405 63.0008 248.805 63.6008 241.305 64.2008C242.705 64.2008 244.071 64.2008 245.405 64.2008C253.471 64.2674 261.538 64.3674 269.605 64.5008C277.505 64.6008 285.305 64.8008 293.205 65.1008C303.005 65.5008 312.905 65.8008 322.805 65.4008C322.905 63.2008 319.905 63.1008 317.305 63.0008C313.805 63.2008 310.405 63.2008 307.005 63.2008C300.105 63.2008 293.205 62.9008 286.405 62.6008Z" fill="#EBA748"/>
</g>
<g style="mix-blend-mode:multiply" opacity="0.5">
<path d="M274.105 90.8992C269.305 91.2992 264.605 91.7992 259.905 92.0992C255.171 92.3659 250.438 92.5659 245.705 92.6992C230.705 93.0992 215.705 92.8992 200.805 93.4992C208.505 93.6992 216.205 93.6992 224.005 93.5992C234.505 93.3992 245.105 93.1992 255.705 93.1992C266.405 93.0992 277.005 93.4992 287.605 93.6992C297.805 93.9992 308.005 93.9992 318.205 94.1992C319.805 94.2659 321.405 94.2992 323.005 94.2992C322.938 92.7659 322.805 91.2326 322.605 89.6992C315.905 90.0992 309.205 90.1992 302.505 90.1992C293.005 90.2992 283.505 90.1992 274.105 90.8992Z" fill="#EBA748"/>
</g>
<g style="mix-blend-mode:multiply" opacity="0.5">
<path d="M125.108 73.4002C111.208 73.8002 97.3078 74.4002 83.5078 75.2002C90.5078 75.7002 97.6078 76.0002 104.708 76.1002C120.808 76.4002 136.908 76.0002 153.008 75.7002C166.708 75.5002 180.408 75.4002 194.008 74.9002C187.141 74.3668 180.241 73.9668 173.308 73.7002C157.308 73.1002 141.208 73.1002 125.108 73.4002Z" fill="#EBA748"/>
</g>
<g style="mix-blend-mode:multiply" opacity="0.5">
<path d="M190.802 33.4997C180.102 33.6997 169.302 33.9997 158.602 34.9997C160.202 35.1997 161.902 35.2997 163.402 35.2997C166.002 35.3664 168.568 35.3997 171.102 35.3997C183.102 35.3997 195.102 35.6997 207.102 35.3997C214.202 35.1997 221.302 34.8997 228.402 34.5997C227.535 34.533 226.668 34.4664 225.802 34.3997C214.202 33.7997 202.502 33.3997 190.802 33.4997Z" fill="#EBA748"/>
</g>
<g style="mix-blend-mode:multiply" opacity="0.5">
<path d="M78.3062 12.7005C89.4062 13.1005 100.506 13.0005 111.706 12.9005C122.506 12.7005 133.406 12.5005 144.206 12.9005C155.306 13.3005 166.306 14.3005 177.306 15.3005C188.406 16.2005 199.406 16.8005 210.506 16.6005C232.306 16.1005 254.006 13.7005 275.706 12.8005C292.106 12.1005 308.606 12.4005 325.106 12.6005C324.84 12.2005 324.573 11.8339 324.306 11.5005C324.04 11.1672 323.74 10.8339 323.406 10.5005C320.606 8.20052 315.906 8.40052 312.106 8.40052C294.24 8.53385 276.373 8.60052 258.506 8.60052C238.24 8.66719 218.006 8.70052 197.806 8.70052C157.506 8.70052 117.306 8.60052 77.0063 8.70052C60.3063 8.70052 43.7063 8.70052 27.0063 8.90052C21.4063 8.90052 15.4062 7.70052 9.90625 8.90052C9.37292 9.03385 8.87292 9.20052 8.40625 9.40052C31.7062 10.5005 54.9062 12.1005 78.3062 12.7005Z" fill="#EBA748"/>
</g>
<g style="mix-blend-mode:multiply" opacity="0.5">
<path d="M126.108 26.3017C119.608 26.0017 113.208 26.5017 106.808 26.6017C101.508 26.8017 96.3078 27.0017 91.0078 27.3017C92.4745 27.3684 93.9411 27.435 95.4078 27.5017C105.708 27.7017 115.908 26.9017 126.108 26.3017Z" fill="#EBA748"/>
</g>
<g style="mix-blend-mode:multiply" opacity="0.5">
<path d="M52.3078 84.3023C47.2078 84.2023 42.1078 83.8023 37.0078 84.3023C38.6078 84.8023 40.4078 85.1023 42.0078 85.3023C46.7078 85.8023 51.6078 85.6023 56.3078 85.7023C62.4078 85.7023 68.5078 85.0023 74.5078 84.3023C72.4078 84.0023 70.3078 83.9023 68.1078 83.9023C62.9078 83.9023 57.6078 84.4023 52.3078 84.3023Z" fill="#EBA748"/>
</g>
<g style="mix-blend-mode:multiply" opacity="0.5">
<path d="M246.805 45.5016C249.205 46.1016 251.705 46.5016 254.305 46.7016C264.005 47.6016 273.805 46.7016 283.405 45.2016C271.205 44.5016 258.905 44.2016 246.805 45.5016Z" fill="#EBA748"/>
</g>
<g style="mix-blend-mode:multiply" opacity="0.5">
<path d="M65.8047 43.0008C67.938 43.4674 70.1047 43.8008 72.3047 44.0008C80.7047 44.7008 89.2047 43.9008 97.5047 42.7008C87.0047 42.1008 76.3047 41.8008 65.8047 43.0008Z" fill="#EBA748"/>
</g>
<g style="mix-blend-mode:multiply" opacity="0.5">
<path d="M10.4016 32.8C13.9016 32.9 17.3016 32.9 20.7016 32.8C27.0016 32.5 33.4016 32.3 39.5016 31.2C36.8349 30.9333 34.1682 30.7 31.5016 30.5C21.7016 29.8 11.9016 29.5 2.10156 29C2.10156 30.2 2.10156 31.4 2.10156 32.6C4.80156 32.6 7.60155 32.7 10.4016 32.8Z" fill="#EBA748"/>
</g>
<g style="mix-blend-mode:multiply">
<path d="M301.502 34.6016C299.702 34.6682 297.902 34.7349 296.102 34.8016C298.768 35.2016 301.402 35.5682 304.002 35.9016C311.502 36.8016 319.102 37.4016 326.702 37.7016C326.702 36.9016 326.735 36.1016 326.802 35.3016C322.002 35.1016 317.202 34.8016 312.502 34.7016C308.802 34.7016 305.202 34.6016 301.502 34.6016Z" fill="#EBA748"/>
</g>
<g style="mix-blend-mode:multiply" opacity="0.5">
<path d="M4.60156 99.4026C9.66823 99.4693 14.7016 99.5693 19.7016 99.7026C33.6016 100.103 47.5016 100.503 61.4016 100.203C73.5016 99.9026 85.5015 99.0026 97.3015 97.0026C91.5682 96.8026 85.8016 96.6359 80.0016 96.5026C66.5349 96.1693 53.0682 96.0359 39.6016 96.1026C32.2016 96.1026 24.8016 96.1693 17.4016 96.3026C13.1016 97.0026 7.10156 96.7026 4.60156 99.4026Z" fill="#EBA748"/>
</g>
</svg>
