<svg width="266" height="100" viewBox="0 0 266 100" fill="none" xmlns="http://www.w3.org/2000/svg">
<path d="M130.484 70.3904C159.963 70.3904 183.86 68.7018 183.86 66.6188C183.86 64.5358 159.963 62.8472 130.484 62.8472C101.005 62.8472 77.1082 64.5358 77.1082 66.6188C77.1082 68.7018 101.005 70.3904 130.484 70.3904Z" fill="#157B73"/>
<mask id="mask0_27_17002" style="mask-type:luminance" maskUnits="userSpaceOnUse" x="101" y="0" width="61" height="76">
<path d="M101.983 68.4134C101.983 68.4134 119.205 -1.58771 130.21 0.0275292C141.215 1.64277 161.425 68.8292 161.425 68.8292C161.425 68.8292 141.243 83.3204 101.983 68.4134Z" fill="white"/>
</mask>
<g mask="url(#mask0_27_17002)">
<path d="M101.983 68.4134C101.983 68.4134 119.205 -1.58771 130.21 0.0275292C141.215 1.64277 161.425 68.8292 161.425 68.8292C161.425 68.8292 141.243 83.3204 101.983 68.4134Z" fill="#FF9D00"/>
<path d="M140.996 52.6756C135.067 55.3761 128.894 57.3394 122.695 59.1372C116.662 60.8861 110.357 62.4507 104.039 62.1356C103.895 62.1286 103.752 62.1144 103.608 62.105C102.576 66.0062 101.983 68.4135 101.983 68.4135C141.243 83.3204 161.425 68.8292 161.425 68.8292C161.425 68.8292 158.276 58.3599 153.787 45.5881C149.632 48.2003 145.43 50.6553 140.996 52.6756Z" fill="#FF9D00"/>
<path d="M115.848 34.0759C119.845 32.5325 123.728 30.226 127.232 27.5885C132.399 23.6979 137.015 18.7132 140.412 12.7763C136.729 5.54574 133.143 0.457413 130.21 0.0275466C124.538 -0.805099 117.216 17.3812 111.451 35.2054C112.949 35.0287 114.417 34.6283 115.848 34.0759Z" fill="#D4A562"/>
</g>
<mask id="mask1_27_17002" style="mask-type:luminance" maskUnits="userSpaceOnUse" x="101" y="0" width="61" height="76">
<path d="M101.983 68.4134C101.983 68.4134 119.205 -1.58771 130.21 0.0275292C141.215 1.64277 161.425 68.8292 161.425 68.8292C161.425 68.8292 141.243 83.3204 101.983 68.4134Z" fill="white"/>
</mask>
<g mask="url(#mask1_27_17002)">
<path d="M159.82 55.1545C154.204 57.1578 148.264 58.0111 142.475 58.6005C128.287 60.0456 113.941 58.4804 100.131 54.1246C98.9756 53.7601 98.4857 56.0337 99.6405 56.3976C113.634 60.8111 128.104 62.3386 142.475 60.9577C148.419 60.3866 154.548 59.4832 160.31 57.4275C161.454 57.0195 160.967 54.7453 159.82 55.1545Z" fill="#A9712D"/>
</g>
<mask id="mask2_27_17002" style="mask-type:luminance" maskUnits="userSpaceOnUse" x="101" y="0" width="61" height="76">
<path d="M101.983 68.4134C101.983 68.4134 119.205 -1.58771 130.21 0.0275292C141.215 1.64277 161.425 68.8292 161.425 68.8292C161.425 68.8292 141.243 83.3204 101.983 68.4134Z" fill="white"/>
</mask>
<g mask="url(#mask2_27_17002)">
<path d="M161.036 41.2185C155.42 43.2218 149.481 44.0751 143.691 44.6645C129.504 46.1096 115.158 44.5444 101.347 40.1886C100.192 39.8241 99.7017 42.0977 100.857 42.4616C114.85 46.8745 129.32 48.4026 143.691 47.0211C149.635 46.4499 155.764 45.5466 161.526 43.4909C162.67 43.0834 162.183 40.8093 161.036 41.2185Z" fill="#A9712D"/>
</g>
<mask id="mask3_27_17002" style="mask-type:luminance" maskUnits="userSpaceOnUse" x="101" y="0" width="61" height="76">
<path d="M101.983 68.4134C101.983 68.4134 119.205 -1.58771 130.21 0.0275292C141.215 1.64277 161.425 68.8292 161.425 68.8292C161.425 68.8292 141.243 83.3204 101.983 68.4134Z" fill="white"/>
</mask>
<g mask="url(#mask3_27_17002)">
<path d="M158.141 29.5364C152.525 31.5397 146.585 32.3929 140.796 32.9824C126.608 34.4274 112.262 32.8623 98.4519 28.5065C97.2966 28.142 96.8068 30.4155 97.9616 30.7795C111.955 35.193 126.425 36.7205 140.796 35.3396C146.74 34.7684 152.869 33.8651 158.631 31.8094C159.775 31.4013 159.288 29.1271 158.141 29.5364Z" fill="#A9712D"/>
</g>
<mask id="mask4_27_17002" style="mask-type:luminance" maskUnits="userSpaceOnUse" x="101" y="0" width="61" height="76">
<path d="M101.983 68.4134C101.983 68.4134 119.205 -1.58771 130.21 0.0275292C141.215 1.64277 161.425 68.8292 161.425 68.8292C161.425 68.8292 141.243 83.3204 101.983 68.4134Z" fill="white"/>
</mask>
<g mask="url(#mask4_27_17002)">
<path d="M114.379 16.9581C114.379 16.9581 130.859 24.3442 145.371 15.8581C145.371 15.8581 138.976 -4.25787 130.982 -4.57232C122.988 -4.88677 114.379 16.9581 114.379 16.9581Z" fill="#004E54"/>
</g>
<mask id="mask5_27_17002" style="mask-type:luminance" maskUnits="userSpaceOnUse" x="101" y="0" width="61" height="76">
<path d="M101.983 68.4134C101.983 68.4134 119.205 -1.58771 130.21 0.0275292C141.215 1.64277 161.425 68.8292 161.425 68.8292C161.425 68.8292 141.243 83.3204 101.983 68.4134Z" fill="white"/>
</mask>
<g mask="url(#mask5_27_17002)">
<path d="M116.958 26.3579C116.958 27.9043 117.939 29.1574 119.149 29.1574C120.359 29.1574 121.339 27.9043 121.339 26.3579C121.339 24.8122 120.359 23.5591 119.149 23.5591C117.938 23.5585 116.958 24.8116 116.958 26.3579Z" fill="#C40052"/>
</g>
<mask id="mask6_27_17002" style="mask-type:luminance" maskUnits="userSpaceOnUse" x="101" y="0" width="61" height="76">
<path d="M101.983 68.4134C101.983 68.4134 119.205 -1.58771 130.21 0.0275292C141.215 1.64277 161.425 68.8292 161.425 68.8292C161.425 68.8292 141.243 83.3204 101.983 68.4134Z" fill="white"/>
</mask>
<g mask="url(#mask6_27_17002)">
<path d="M128.122 27.9485C128.122 29.4942 129.102 30.7479 130.313 30.7479C131.522 30.7479 132.503 29.4948 132.503 27.9485C132.503 26.4022 131.522 25.1497 130.313 25.1497C129.103 25.1497 128.122 26.4022 128.122 27.9485Z" fill="#C40052"/>
</g>
<mask id="mask7_27_17002" style="mask-type:luminance" maskUnits="userSpaceOnUse" x="101" y="0" width="61" height="76">
<path d="M101.983 68.4134C101.983 68.4134 119.205 -1.58771 130.21 0.0275292C141.215 1.64277 161.425 68.8292 161.425 68.8292C161.425 68.8292 141.243 83.3204 101.983 68.4134Z" fill="white"/>
</mask>
<g mask="url(#mask7_27_17002)">
<path d="M139.421 25.8275C139.421 27.3733 140.402 28.6269 141.612 28.6269C142.822 28.6269 143.803 27.3733 143.803 25.8275C143.803 24.2812 142.822 23.0281 141.612 23.0281C140.402 23.0281 139.421 24.2818 139.421 25.8275Z" fill="#C40052"/>
</g>
<mask id="mask8_27_17002" style="mask-type:luminance" maskUnits="userSpaceOnUse" x="101" y="0" width="61" height="76">
<path d="M101.983 68.4134C101.983 68.4134 119.205 -1.58771 130.21 0.0275292C141.215 1.64277 161.425 68.8292 161.425 68.8292C161.425 68.8292 141.243 83.3204 101.983 68.4134Z" fill="white"/>
</mask>
<g mask="url(#mask8_27_17002)">
<path d="M134.763 27.0649C134.763 28.0901 135.414 28.921 136.216 28.921C137.018 28.921 137.669 28.0901 137.669 27.0649C137.669 26.0397 137.018 25.2083 136.216 25.2083C135.414 25.2083 134.763 26.0397 134.763 27.0649Z" fill="#C40052"/>
</g>
<mask id="mask9_27_17002" style="mask-type:luminance" maskUnits="userSpaceOnUse" x="101" y="0" width="61" height="76">
<path d="M101.983 68.4134C101.983 68.4134 119.205 -1.58771 130.21 0.0275292C141.215 1.64277 161.425 68.8292 161.425 68.8292C161.425 68.8292 141.243 83.3204 101.983 68.4134Z" fill="white"/>
</mask>
<g mask="url(#mask9_27_17002)">
<path d="M123.185 27.654C123.185 28.6792 123.836 29.5101 124.638 29.5101C125.44 29.5101 126.091 28.6786 126.091 27.654C126.091 26.6288 125.44 25.7974 124.638 25.7974C123.836 25.7974 123.185 26.6288 123.185 27.654Z" fill="#C40052"/>
</g>
<mask id="mask10_27_17002" style="mask-type:luminance" maskUnits="userSpaceOnUse" x="101" y="0" width="61" height="76">
<path d="M101.983 68.4134C101.983 68.4134 119.205 -1.58771 130.21 0.0275292C141.215 1.64277 161.425 68.8292 161.425 68.8292C161.425 68.8292 141.243 83.3204 101.983 68.4134Z" fill="white"/>
</mask>
<g mask="url(#mask10_27_17002)">
<path d="M111.857 41.71L114.993 36.4456L116.454 42.4761L111.857 41.71Z" fill="#EEEC5A"/>
</g>
<mask id="mask11_27_17002" style="mask-type:luminance" maskUnits="userSpaceOnUse" x="101" y="0" width="61" height="76">
<path d="M101.983 68.4134C101.983 68.4134 119.205 -1.58771 130.21 0.0275292C141.215 1.64277 161.425 68.8292 161.425 68.8292C161.425 68.8292 141.243 83.3204 101.983 68.4134Z" fill="white"/>
</mask>
<g mask="url(#mask11_27_17002)">
<path d="M119.556 43.3229L122.488 37.8701L124.176 43.8034L119.556 43.3229Z" fill="#EEEC5A"/>
</g>
<mask id="mask12_27_17002" style="mask-type:luminance" maskUnits="userSpaceOnUse" x="101" y="0" width="61" height="76">
<path d="M101.983 68.4134C101.983 68.4134 119.205 -1.58771 130.21 0.0275292C141.215 1.64277 161.425 68.8292 161.425 68.8292C161.425 68.8292 141.243 83.3204 101.983 68.4134Z" fill="white"/>
</mask>
<g mask="url(#mask12_27_17002)">
<path d="M128.118 44.0881L130.672 38.332L132.754 44.0569L128.118 44.0881Z" fill="#EEEC5A"/>
</g>
<mask id="mask13_27_17002" style="mask-type:luminance" maskUnits="userSpaceOnUse" x="101" y="0" width="61" height="76">
<path d="M101.983 68.4134C101.983 68.4134 119.205 -1.58771 130.21 0.0275292C141.215 1.64277 161.425 68.8292 161.425 68.8292C161.425 68.8292 141.243 83.3204 101.983 68.4134Z" fill="white"/>
</mask>
<g mask="url(#mask13_27_17002)">
<path d="M136.587 44.2278L138.595 38.2798L141.214 43.8686L136.587 44.2278Z" fill="#EEEC5A"/>
</g>
<mask id="mask14_27_17002" style="mask-type:luminance" maskUnits="userSpaceOnUse" x="101" y="0" width="61" height="76">
<path d="M101.983 68.4134C101.983 68.4134 119.205 -1.58771 130.21 0.0275292C141.215 1.64277 161.425 68.8292 161.425 68.8292C161.425 68.8292 141.243 83.3204 101.983 68.4134Z" fill="white"/>
</mask>
<g mask="url(#mask14_27_17002)">
<path d="M144.426 43.2673L146.054 37.4741L149.024 42.5171L144.426 43.2673Z" fill="#EEEC5A"/>
</g>
<mask id="mask15_27_17002" style="mask-type:luminance" maskUnits="userSpaceOnUse" x="101" y="0" width="61" height="76">
<path d="M101.983 68.4134C101.983 68.4134 119.205 -1.58771 130.21 0.0275292C141.215 1.64277 161.425 68.8292 161.425 68.8292C161.425 68.8292 141.243 83.3204 101.983 68.4134Z" fill="white"/>
</mask>
<g mask="url(#mask15_27_17002)">
<path d="M144.418 36.5474L142.79 42.3411L139.82 37.2982L144.418 36.5474Z" fill="#EEEC5A"/>
</g>
<mask id="mask16_27_17002" style="mask-type:luminance" maskUnits="userSpaceOnUse" x="101" y="0" width="61" height="76">
<path d="M101.983 68.4134C101.983 68.4134 119.205 -1.58771 130.21 0.0275292C141.215 1.64277 161.425 68.8292 161.425 68.8292C161.425 68.8292 141.243 83.3204 101.983 68.4134Z" fill="white"/>
</mask>
<g mask="url(#mask16_27_17002)">
<path d="M136.842 37.5054L134.658 42.9923L132.206 37.5136L136.842 37.5054Z" fill="#EEEC5A"/>
</g>
<mask id="mask17_27_17002" style="mask-type:luminance" maskUnits="userSpaceOnUse" x="101" y="0" width="61" height="76">
<path d="M101.983 68.4134C101.983 68.4134 119.205 -1.58771 130.21 0.0275292C141.215 1.64277 161.425 68.8292 161.425 68.8292C161.425 68.8292 141.243 83.3204 101.983 68.4134Z" fill="white"/>
</mask>
<g mask="url(#mask17_27_17002)">
<path d="M128.965 37.6479L126.557 42.9801L124.335 37.3435L128.965 37.6479Z" fill="#EEEC5A"/>
</g>
<mask id="mask18_27_17002" style="mask-type:luminance" maskUnits="userSpaceOnUse" x="101" y="0" width="61" height="76">
<path d="M101.983 68.4134C101.983 68.4134 119.205 -1.58771 130.21 0.0275292C141.215 1.64277 161.425 68.8292 161.425 68.8292C161.425 68.8292 141.243 83.3204 101.983 68.4134Z" fill="white"/>
</mask>
<g mask="url(#mask18_27_17002)">
<path d="M121.042 37.3628L118.285 42.4105L116.45 36.5508L121.042 37.3628Z" fill="#EEEC5A"/>
</g>
<mask id="mask19_27_17002" style="mask-type:luminance" maskUnits="userSpaceOnUse" x="101" y="0" width="61" height="76">
<path d="M101.983 68.4134C101.983 68.4134 119.205 -1.58771 130.21 0.0275292C141.215 1.64277 161.425 68.8292 161.425 68.8292C161.425 68.8292 141.243 83.3204 101.983 68.4134Z" fill="white"/>
</mask>
<g mask="url(#mask19_27_17002)">
<path d="M104.169 46.3459C104.661 46.5032 132.825 56.247 157.668 47.1321L158.898 52.7892C158.898 52.7892 129.504 62.0614 102.694 50.9037L104.169 46.3459Z" fill="#004E54"/>
</g>
<path d="M77.095 66.5796C77.095 66.5796 119.31 70.0374 133.545 70.0374C145.997 70.0374 183.846 66.5796 183.846 66.5796C183.846 66.5796 187.66 100.424 128.626 99.2683C72.4218 98.1677 77.095 66.5796 77.095 66.5796Z" fill="#FF9D00"/>
<path d="M104.782 95.6924C104.226 95.6924 103.566 95.6929 102.919 95.819C109.622 97.7728 118.045 99.0606 128.626 99.2673C141.674 99.5235 151.651 98.0678 159.278 95.647C158.824 95.6759 158.369 95.6924 157.912 95.6924C140.202 95.6924 122.492 94.2779 104.782 95.6924Z" fill="#FF9D00"/>
<path d="M183.848 66.5796C183.848 66.5796 145.999 70.0374 133.547 70.0374C119.311 70.0374 77.0965 66.5796 77.0965 66.5796C77.0965 66.5796 76.502 70.6015 78.29 75.8247C106.957 85.0986 136.822 83.3261 166.031 81.549C171.103 81.3688 176.282 80.4984 181.261 78.733C184.478 72.1726 183.848 66.5796 183.848 66.5796Z" fill="#004E54"/>
<path d="M132.809 89.5641H133.13C133.427 89.5641 133.669 89.2544 133.669 88.8757V83.0631C133.669 82.6845 133.427 82.3748 133.13 82.3748H132.809C132.513 82.3748 132.27 82.6845 132.27 83.0631V88.8757C132.27 89.2538 132.513 89.5641 132.809 89.5641Z" fill="#004E54"/>
<path d="M131.276 89.6818C131.276 90.8748 132.033 91.8429 132.967 91.8429C133.9 91.8429 134.658 90.8748 134.658 89.6818C134.658 88.4881 133.9 87.5212 132.967 87.5212C132.033 87.5207 131.276 88.4881 131.276 89.6818Z" fill="#004E54"/>
<path d="M122.852 89.2099H123.173C123.47 89.2099 123.712 88.9001 123.712 88.5215V82.7089C123.712 82.3303 123.47 82.0205 123.173 82.0205H122.852C122.556 82.0205 122.314 82.3303 122.314 82.7089V88.5215C122.313 88.9001 122.556 89.2099 122.852 89.2099Z" fill="#004E54"/>
<path d="M121.321 89.3278C121.321 90.5214 122.078 91.4889 123.012 91.4889C123.946 91.4889 124.703 90.5214 124.703 89.3278C124.703 88.1341 123.946 87.1672 123.012 87.1672C122.078 87.1672 121.321 88.1341 121.321 89.3278Z" fill="#004E54"/>
<path d="M111.241 88.2675H111.562C111.859 88.2675 112.101 87.9578 112.101 87.5791V81.7665C112.101 81.3873 111.859 81.0781 111.562 81.0781H111.241C110.945 81.0781 110.702 81.3879 110.702 81.7665V87.5791C110.702 87.9578 110.944 88.2675 111.241 88.2675Z" fill="#004E54"/>
<path d="M109.708 88.3852C109.708 89.5783 110.465 90.5458 111.399 90.5458C112.333 90.5458 113.09 89.5783 113.09 88.3852C113.09 87.1916 112.333 86.2241 111.399 86.2241C110.465 86.2241 109.708 87.1916 109.708 88.3852Z" fill="#004E54"/>
<path d="M100.747 86.9702H101.068C101.364 86.9702 101.606 86.6605 101.606 86.2819V80.4687C101.606 80.09 101.364 79.7803 101.068 79.7803H100.747C100.45 79.7803 100.207 80.09 100.207 80.4687V86.2819C100.207 86.6605 100.45 86.9702 100.747 86.9702Z" fill="#004E54"/>
<path d="M99.2146 87.0886C99.2146 88.2816 99.9717 89.2491 100.905 89.2491C101.839 89.2491 102.596 88.2816 102.596 87.0886C102.596 85.895 101.839 84.9275 100.905 84.9275C99.9717 84.9275 99.2146 85.895 99.2146 87.0886Z" fill="#004E54"/>
<path d="M93.3671 85.438H93.6887C93.985 85.438 94.2274 85.1283 94.2274 84.7496V78.9364C94.2274 78.5578 93.985 78.248 93.6887 78.248H93.3671C93.0708 78.248 92.8284 78.5578 92.8284 78.9364V84.7496C92.8284 85.1283 93.0708 85.438 93.3671 85.438Z" fill="#004E54"/>
<path d="M91.8356 85.5558C91.8356 86.7494 92.5927 87.7169 93.5268 87.7169C94.4605 87.7169 95.2176 86.7494 95.2176 85.5558C95.2176 84.3628 94.4605 83.3953 93.5268 83.3953C92.5927 83.3953 91.8356 84.3628 91.8356 85.5558Z" fill="#004E54"/>
<path d="M85.0663 83.7876H85.3875C85.6838 83.7876 85.9262 83.4779 85.9262 83.0992V77.286C85.9262 76.9074 85.6838 76.5977 85.3875 76.5977H85.0663C84.77 76.5977 84.5276 76.9074 84.5276 77.286V83.0992C84.5271 83.4779 84.77 83.7876 85.0663 83.7876Z" fill="#004E54"/>
<path d="M83.5348 83.9056C83.5348 85.0993 84.2919 86.0668 85.2256 86.0668C86.1596 86.0668 86.9168 85.0993 86.9168 83.9056C86.9168 82.7126 86.1596 81.7451 85.2256 81.7451C84.2919 81.7445 83.5348 82.712 83.5348 83.9056Z" fill="#004E54"/>
<path d="M79.0702 82.1377H79.3914C79.6877 82.1377 79.9301 81.828 79.9301 81.4493V75.6361C79.9301 75.2575 79.6877 74.9478 79.3914 74.9478H79.0702C78.7739 74.9478 78.5315 75.2575 78.5315 75.6361V81.4493C78.5315 81.828 78.7739 82.1377 79.0702 82.1377Z" fill="#004E54"/>
<path d="M77.5404 82.2565C77.5404 83.4501 78.2976 84.4176 79.2312 84.4176C80.1653 84.4176 80.9224 83.4501 80.9224 82.2565C80.9224 81.0634 80.1653 80.0959 79.2312 80.0959C78.2976 80.0954 77.5404 81.0629 77.5404 82.2565Z" fill="#004E54"/>
<path d="M142.77 89.2696H143.091C143.388 89.2696 143.63 88.9598 143.63 88.5812V82.768C143.63 82.3893 143.388 82.0796 143.091 82.0796H142.77C142.474 82.0796 142.231 82.3893 142.231 82.768V88.5812C142.231 88.9598 142.474 89.2696 142.77 89.2696Z" fill="#004E54"/>
<path d="M141.239 89.3871C141.239 90.5807 141.996 91.5476 142.929 91.5476C143.863 91.5476 144.621 90.5801 144.621 89.3871C144.621 88.1941 143.863 87.2266 142.929 87.2266C141.995 87.2266 141.239 88.1941 141.239 89.3871Z" fill="#004E54"/>
<path d="M153.291 88.9151H153.612C153.909 88.9151 154.151 88.6053 154.151 88.2267V82.4135C154.151 82.0348 153.909 81.7251 153.612 81.7251H153.291C152.995 81.7251 152.752 82.0348 152.752 82.4135V88.2267C152.752 88.6053 152.995 88.9151 153.291 88.9151Z" fill="#004E54"/>
<path d="M151.761 89.0331C151.761 90.2267 152.518 91.1936 153.452 91.1936C154.386 91.1936 155.143 90.2261 155.143 89.0331C155.143 87.8401 154.386 86.8726 153.452 86.8726C152.518 86.872 151.761 87.8395 151.761 89.0331Z" fill="#004E54"/>
<path d="M163.064 88.0894H163.386C163.682 88.0894 163.924 87.7796 163.924 87.401V81.5884C163.924 81.2097 163.682 80.8994 163.386 80.8994H163.064C162.768 80.8994 162.526 81.2092 162.526 81.5884V87.401C162.526 87.779 162.768 88.0894 163.064 88.0894Z" fill="#004E54"/>
<path d="M161.533 88.2075C161.533 89.4005 162.29 90.368 163.224 90.368C164.158 90.368 164.915 89.4005 164.915 88.2075C164.915 87.0139 164.158 86.0464 163.224 86.0464C162.29 86.0464 161.533 87.0139 161.533 88.2075Z" fill="#004E54"/>
<path d="M173.027 86.6755H173.348C173.645 86.6755 173.887 86.3657 173.887 85.9871V80.1745C173.887 79.7952 173.645 79.4861 173.348 79.4861H173.027C172.731 79.4861 172.488 79.7958 172.488 80.1745V85.9871C172.489 86.3657 172.731 86.6755 173.027 86.6755Z" fill="#004E54"/>
<path d="M171.496 86.7941C171.496 87.9877 172.253 88.9552 173.187 88.9552C174.121 88.9552 174.878 87.9877 174.878 86.7941C174.878 85.601 174.121 84.6335 173.187 84.6335C172.253 84.633 171.496 85.6004 171.496 86.7941Z" fill="#004E54"/>
<path d="M180.349 84.9872H180.67C180.967 84.9872 181.209 84.6775 181.209 84.2989V78.4862C181.209 78.1076 180.967 77.7979 180.67 77.7979H180.349C180.053 77.7979 179.81 78.1076 179.81 78.4862V84.2989C179.81 84.6769 180.053 84.9872 180.349 84.9872Z" fill="#004E54"/>
<path d="M178.817 85.1047C178.817 86.2977 179.575 87.2652 180.508 87.2652C181.442 87.2652 182.199 86.2977 182.199 85.1047C182.199 83.9111 181.442 82.9436 180.508 82.9436C179.575 82.9436 178.817 83.9111 178.817 85.1047Z" fill="#004E54"/>
<path opacity="0.19" d="M109.026 53.7328C109.026 53.7328 118.158 8.47196 124.891 9.76804C131.624 11.0647 123.549 45.6419 121.847 51.9645C117.881 66.6977 104.783 70.8232 109.026 53.7328Z" fill="white"/>
<path d="M223.006 55.1045C218.147 61.3057 213.287 67.507 208.426 73.7082C206.444 76.2364 211.906 78.4952 213.886 75.9688C218.745 69.7676 223.606 63.5664 228.466 57.3651C230.448 54.8369 224.985 52.5781 223.006 55.1045Z" fill="#004E54"/>
<path d="M233.684 73.2075C229.6 75.7803 225.518 78.3531 221.434 80.9259C218.381 82.8498 222.869 86.0068 225.904 84.0939C229.988 81.5211 234.07 78.9483 238.154 76.3764C241.208 74.4516 236.719 71.2946 233.684 73.2075Z" fill="#004E54"/>
<path d="M236.881 93.7724C245.983 90.9648 255.086 88.1581 264.19 85.3506C268.266 84.0937 264.745 79.8783 260.702 81.1242C251.6 83.9308 242.497 86.7384 233.393 89.546C229.317 90.8037 232.84 95.0183 236.881 93.7724Z" fill="#004E54"/>
<path d="M37.5353 56.3651C42.396 62.5664 47.2542 68.7676 52.115 74.9688C54.0945 77.4943 59.5564 75.2355 57.5756 72.7082C52.7149 66.507 47.8554 60.3057 42.9959 54.1045C41.0152 51.5781 35.5545 53.8369 37.5353 56.3651Z" fill="#004E54"/>
<path d="M27.8395 75.3765C31.9231 77.9492 36.0054 80.5211 40.089 83.0939C43.1257 85.0068 47.6139 81.8489 44.5605 79.9259C40.477 77.3531 36.3946 74.7813 32.311 72.2076C29.2756 70.2955 24.7874 73.4526 27.8395 75.3765Z" fill="#004E54"/>
<path d="M32.6061 88.546C23.5038 85.7393 14.4001 82.9317 5.29779 80.1242C1.25659 78.8783 -2.26437 83.0937 1.81152 84.3506C10.9151 87.1572 20.0175 89.9648 29.1198 92.7724C33.161 94.0183 36.682 89.8028 32.6061 88.546Z" fill="#004E54"/>
</svg>
