<svg width="243" height="416" viewBox="0 0 243 416" fill="none" xmlns="http://www.w3.org/2000/svg">
<mask id="mask0_634_105" style="mask-type:luminance" maskUnits="userSpaceOnUse" x="45" y="0" width="167" height="416">
<path d="M212 0H45V416H212V0Z" fill="white"/>
</mask>
<g mask="url(#mask0_634_105)">
<path d="M91 306V36H89V306H91Z" fill="#F89C4B"/>
<path d="M169 301V38H171V301H169Z" fill="#DE894F"/>
<path d="M167.016 302.899C167.016 302.899 207.859 290.862 210.821 299.33C213.33 306.495 171.577 315.22 171.577 315.22L167.016 302.899Z" fill="url(#paint0_linear_634_105)"/>
<path d="M211.633 299.135C208.57 290.381 166.352 302.824 166.352 302.824L166.482 303.176C171.348 301.803 207.148 291.979 209.791 299.527C212.023 305.911 175.82 313.931 170.858 314.999L171.066 315.561C171.066 315.56 214.225 306.541 211.633 299.135Z" fill="#FFD15A"/>
<path d="M158.996 300.51C158.996 300.51 189.399 274.233 195.492 281.574C200.648 287.787 168.078 311.105 168.078 311.105L158.996 300.51Z" fill="url(#paint1_linear_634_105)"/>
<path d="M161.74 298.592C168.375 293.109 189.821 276.174 194.74 282.101C198.858 287.063 177.863 303.41 170.765 308.709V309.431C178.872 303.342 200.377 286.404 196.045 281.182C190.85 274.923 168.519 292.361 160.938 298.592H161.74Z" fill="#FFD15A"/>
<path d="M152.902 303.942C152.902 303.942 158.097 267.985 168.542 271.066C177.38 273.677 168.211 308.254 168.211 308.254L152.902 303.942Z" fill="url(#paint2_linear_634_105)"/>
<path d="M168.721 270.681C158.074 267.52 152.652 304.202 152.652 304.202L162.048 306.864L153.769 304.228C153.769 304.228 158.613 268.816 168.413 272.076C176.336 274.713 168.866 305.832 168.184 308.603L168.258 308.624C168.258 308.624 177.73 273.356 168.721 270.681Z" fill="#FFD15A"/>
<path d="M140.034 304.627C140.034 304.627 136.017 268.695 146.987 270.005C156.268 271.114 156.058 306.345 156.058 306.345L140.034 304.627Z" fill="url(#paint3_linear_634_105)"/>
<path d="M146.996 269.567C135.764 268.226 139.881 305.017 139.881 305.017L140.454 305.078C139.86 298.907 137.527 269.566 146.936 270.801C154.821 271.837 155.788 300.29 155.906 306.735L156.289 306.775C156.288 306.775 156.499 270.702 146.996 269.567Z" fill="#FFD15A"/>
<path d="M165.84 310.041C165.84 310.041 208.847 308.447 208.892 317.297C208.931 324.786 166.146 322.979 166.146 322.979L165.84 310.041Z" fill="url(#paint4_linear_634_105)"/>
<path d="M165.102 309.841L165.11 310.203C172.686 310.025 208.132 309.606 208.174 317.251C208.208 323.718 172.967 323.026 165.408 322.804L165.419 323.228C165.419 323.228 209.698 325.098 209.655 317.349C209.608 308.19 165.102 309.841 165.102 309.841Z" fill="#FFD15A"/>
<path d="M205.018 300.421C204.442 299.147 201.868 298.536 199.268 299.056C196.67 299.575 195.031 301.03 195.607 302.303C196.184 303.576 198.758 304.188 201.357 303.668C203.955 303.149 205.593 301.694 205.018 300.421Z" fill="#954343"/>
<path d="M205.568 300.016C204.994 298.742 202.419 298.131 199.82 298.651C197.222 299.17 195.582 300.625 196.158 301.898C196.735 303.171 199.308 303.783 201.907 303.262C204.506 302.743 206.145 301.29 205.568 300.016Z" fill="#E0A60F"/>
<path d="M203.266 300.496C203.016 299.887 201.808 299.574 200.566 299.799C199.324 300.023 198.518 300.699 198.768 301.307C199.016 301.918 200.224 302.23 201.468 302.006C202.71 301.781 203.516 301.105 203.266 300.496Z" fill="#FF9758"/>
<path d="M203.261 300.496C203.011 299.887 201.803 299.574 200.561 299.799C199.747 299.945 199.13 300.287 198.863 300.676C199.166 300.506 199.547 300.368 199.988 300.289C201.229 300.064 202.439 300.376 202.687 300.986C202.774 301.196 202.727 301.413 202.588 301.617C203.14 301.309 203.422 300.889 203.261 300.496Z" fill="#5F3E3C"/>
<path d="M201.368 316.815C201.247 315.488 198.951 314.501 196.243 314.612C193.534 314.723 191.437 315.89 191.56 317.217C191.682 318.545 193.977 319.53 196.686 319.42C199.394 319.308 201.491 318.142 201.368 316.815Z" fill="#954343"/>
<path d="M202.052 316.502C201.931 315.176 199.634 314.189 196.927 314.3C194.217 314.411 192.121 315.577 192.243 316.905C192.365 318.232 194.661 319.218 197.369 319.107C200.078 318.996 202.175 317.83 202.052 316.502Z" fill="#E0A60F"/>
<path d="M199.631 316.624C199.6 315.992 198.53 315.505 197.244 315.535C195.959 315.564 194.941 316.1 194.973 316.73C195.005 317.362 196.074 317.85 197.362 317.82C198.648 317.791 199.666 317.255 199.631 316.624Z" fill="#FF9758"/>
<path d="M199.635 316.624C199.603 315.992 198.533 315.505 197.248 315.535C196.406 315.555 195.685 315.793 195.293 316.131C195.645 316.012 196.065 315.935 196.521 315.924C197.806 315.895 198.876 316.383 198.908 317.014C198.919 317.232 198.799 317.435 198.593 317.613C199.237 317.397 199.657 317.031 199.635 316.624Z" fill="#5F3E3C"/>
<path d="M189.655 285.517C188.098 284.683 185.453 285.146 183.754 286.552C182.055 287.955 181.942 289.771 183.504 290.604C185.063 291.438 187.705 290.975 189.405 289.57C191.103 288.165 191.216 286.35 189.655 285.517Z" fill="#954343"/>
<path d="M189.766 284.972C188.206 284.138 185.562 284.602 183.864 286.006C182.165 287.41 182.051 289.226 183.613 290.06C185.173 290.893 187.815 290.429 189.515 289.024C191.215 287.62 191.327 285.805 189.766 284.972Z" fill="#E0A60F"/>
<path d="M188.275 286.239C187.552 285.83 186.289 286.028 185.457 286.679C184.623 287.33 184.536 288.189 185.26 288.599C185.984 289.008 187.246 288.811 188.081 288.159C188.913 287.508 189.002 286.647 188.275 286.239Z" fill="#FF9758"/>
<path d="M188.272 286.239C187.549 285.83 186.286 286.028 185.454 286.679C184.908 287.105 184.689 287.62 184.802 288.04C184.905 287.786 185.103 287.529 185.398 287.298C186.23 286.647 187.493 286.45 188.218 286.859C188.468 286.999 188.614 287.196 188.673 287.418C188.867 286.955 188.741 286.503 188.272 286.239Z" fill="#5F3E3C"/>
<path d="M167.109 277.957C165.17 277.628 163.054 278.779 162.389 280.525C161.724 282.272 162.758 283.954 164.699 284.281C166.639 284.609 168.752 283.457 169.419 281.711C170.083 279.964 169.049 278.283 167.109 277.957Z" fill="#954343"/>
<path d="M166.863 277.435C164.922 277.106 162.808 278.258 162.144 280.005C161.477 281.751 162.511 283.433 164.453 283.759C166.394 284.087 168.507 282.937 169.173 281.189C169.84 279.443 168.805 277.761 166.863 277.435Z" fill="#E0A60F"/>
<path d="M166.308 278.996C165.393 278.824 164.369 279.351 164.02 280.174C163.669 280.996 164.129 281.803 165.042 281.975C165.957 282.147 166.982 281.619 167.332 280.796C167.681 279.974 167.224 279.167 166.308 278.996Z" fill="#FF9758"/>
<path d="M166.306 278.996C165.392 278.824 164.367 279.351 164.018 280.174C163.789 280.713 163.912 281.241 164.276 281.592C164.213 281.332 164.232 281.044 164.355 280.753C164.704 279.931 165.729 279.402 166.644 279.574C166.96 279.634 167.216 279.772 167.409 279.957C167.294 279.484 166.898 279.106 166.306 278.996Z" fill="#5F3E3C"/>
<path d="M146.767 276.307C144.766 276.272 143.091 277.708 143.029 279.509C142.967 281.311 144.538 282.797 146.54 282.829C148.541 282.862 150.215 281.427 150.277 279.625C150.339 277.825 148.767 276.339 146.767 276.307Z" fill="#954343"/>
<path d="M146.355 275.827C144.355 275.794 142.68 277.229 142.619 279.03C142.554 280.83 144.127 282.318 146.13 282.349C148.13 282.381 149.804 280.947 149.867 279.146C149.928 277.344 148.357 275.859 146.355 275.827Z" fill="#E0A60F"/>
<path d="M146.335 277.434C145.386 277.4 144.564 278.067 144.5 278.92C144.434 279.774 145.151 280.492 146.101 280.524C147.05 280.557 147.872 279.892 147.937 279.037C148.001 278.184 147.285 277.466 146.335 277.434Z" fill="#FF9758"/>
<path d="M146.335 277.434C145.386 277.4 144.564 278.067 144.5 278.92C144.456 279.479 144.754 279.976 145.227 280.264C145.079 280.02 144.999 279.737 145.021 279.435C145.087 278.581 145.908 277.915 146.858 277.947C147.185 277.959 147.481 278.056 147.731 278.208C147.461 277.763 146.948 277.454 146.335 277.434Z" fill="#5F3E3C"/>
<path d="M95.117 302.899C95.117 302.899 54.2743 290.862 51.3117 299.33C48.8042 306.495 90.5565 315.22 90.5565 315.22L95.117 302.899Z" fill="url(#paint5_linear_634_105)"/>
<path d="M50.4951 299.135C53.5583 290.381 95.7772 302.824 95.7772 302.824L95.6464 303.176C90.7804 301.803 54.9801 291.979 52.3392 299.527C50.1056 305.911 86.3103 313.931 91.2704 314.999L91.0629 315.561C91.0629 315.561 47.9027 306.541 50.4951 299.135Z" fill="#FFD15A"/>
<path d="M103.127 300.51C103.127 300.51 72.7247 274.233 66.6316 281.574C61.4754 287.787 94.0446 311.105 94.0446 311.105L103.127 300.51Z" fill="url(#paint6_linear_634_105)"/>
<path d="M100.38 298.592C93.7449 293.109 72.2976 276.174 67.3792 282.101C63.2615 287.063 84.2567 303.41 91.3541 308.709V309.431C83.2477 303.342 61.7416 286.404 66.0745 281.182C71.2703 274.923 93.5992 292.361 101.182 298.592H100.38Z" fill="#FFD15A"/>
<path d="M109.222 303.942C109.222 303.942 104.027 267.985 93.5824 271.066C84.7443 273.677 93.913 308.254 93.913 308.254L109.222 303.942Z" fill="url(#paint7_linear_634_105)"/>
<path d="M93.4034 270.681C104.051 267.52 109.471 304.202 109.471 304.202L100.076 306.864L108.354 304.228C108.354 304.228 103.512 268.816 93.7111 272.076C85.7875 274.713 93.2573 305.832 93.939 308.603L93.8653 308.623C93.8653 308.623 84.3941 273.356 93.4034 270.681Z" fill="#FFD15A"/>
<path d="M122.096 304.627C122.096 304.627 126.112 268.695 115.142 270.005C105.861 271.114 106.071 306.345 106.071 306.345L122.096 304.627Z" fill="url(#paint8_linear_634_105)"/>
<path d="M115.136 269.567C126.367 268.226 122.251 305.017 122.251 305.017L121.679 305.078C122.272 298.907 124.605 269.566 115.196 270.801C107.311 271.837 106.344 300.29 106.226 306.735L105.844 306.775C105.844 306.775 105.633 270.702 115.136 269.567Z" fill="#FFD15A"/>
<path d="M96.2902 310.041C96.2902 310.041 53.283 308.447 53.2383 317.297C53.1983 324.786 95.9847 322.979 95.9847 322.979L96.2902 310.041Z" fill="url(#paint9_linear_634_105)"/>
<path d="M97.0179 309.841L97.0094 310.203C89.4331 310.025 53.9873 309.606 53.946 317.251C53.9115 323.718 89.1527 323.026 96.712 322.804L96.7013 323.228C96.7013 323.228 52.4223 325.098 52.4649 317.349C52.5109 308.19 97.0179 309.841 97.0179 309.841Z" fill="#FFD15A"/>
<path d="M57.1077 300.421C57.6821 299.147 60.2569 298.536 62.8561 299.056C65.454 299.575 67.0932 301.03 66.5175 302.303C65.941 303.576 63.3678 304.188 60.7678 303.668C58.1691 303.149 56.5312 301.694 57.1077 300.421Z" fill="#954343"/>
<path d="M56.5607 300.016C57.1351 298.742 59.71 298.13 62.3092 298.651C64.9075 299.17 66.5471 300.625 65.971 301.898C65.3945 303.171 62.8213 303.783 60.2213 303.263C57.6234 302.743 55.9842 301.289 56.5607 300.016Z" fill="#E0A60F"/>
<path d="M58.8584 300.496C59.1072 299.886 60.3156 299.574 61.5577 299.799C62.7998 300.023 63.6051 300.699 63.3558 301.307C63.1074 301.917 61.899 302.23 60.6552 302.006C59.4136 301.781 58.607 301.105 58.8584 300.496Z" fill="#FF9758"/>
<path d="M58.8696 300.496C59.1184 299.886 60.3268 299.574 61.5689 299.799C62.3827 299.945 63.0014 300.287 63.266 300.676C62.9635 300.505 62.5821 300.368 62.1424 300.289C60.9003 300.064 59.6915 300.376 59.4423 300.986C59.3558 301.196 59.4031 301.413 59.5424 301.617C58.9902 301.309 58.7077 300.889 58.8696 300.496Z" fill="#5F3E3C"/>
<path d="M60.7552 316.815C60.8749 315.488 63.1711 314.501 65.8802 314.612C68.5884 314.723 70.6861 315.89 70.5629 317.217C70.4411 318.545 68.1466 319.53 65.4371 319.42C62.7292 319.308 60.632 318.142 60.7552 316.815Z" fill="#954343"/>
<path d="M60.0715 316.502C60.1917 315.176 62.4888 314.189 65.197 314.3C67.9057 314.411 70.0029 315.577 69.8797 316.905C69.7583 318.232 67.4638 319.218 64.7539 319.107C62.0456 318.996 59.9488 317.83 60.0715 316.502Z" fill="#E0A60F"/>
<path d="M62.493 316.624C62.5249 315.992 63.5953 315.505 64.8808 315.535C66.1672 315.565 67.1843 316.1 67.151 316.73C67.1195 317.362 66.0504 317.85 64.7628 317.82C63.4764 317.791 62.4597 317.255 62.493 316.624Z" fill="#FF9758"/>
<path d="M62.493 316.624C62.525 315.992 63.5953 315.505 64.8808 315.535C65.7232 315.555 66.4437 315.793 66.8353 316.131C66.4833 316.012 66.0636 315.935 65.6077 315.924C64.3218 315.895 63.2519 316.383 63.2199 317.014C63.2084 317.232 63.3281 317.435 63.5352 317.613C62.891 317.397 62.4713 317.031 62.493 316.624Z" fill="#5F3E3C"/>
<path d="M72.4683 285.517C74.0265 284.683 76.6704 285.146 78.3697 286.552C80.069 287.956 80.1819 289.771 78.6207 290.604C77.0607 291.438 74.419 290.975 72.718 289.57C71.02 288.165 70.9071 286.35 72.4683 285.517Z" fill="#954343"/>
<path d="M72.36 284.972C73.9182 284.138 76.5625 284.602 78.2609 286.006C79.9606 287.41 80.0739 289.226 78.5123 290.06C76.9515 290.893 74.3102 290.429 72.6105 289.024C70.91 287.62 70.7975 285.805 72.36 284.972Z" fill="#E0A60F"/>
<path d="M73.8473 286.239C74.5716 285.83 75.8333 286.028 76.6659 286.679C77.4998 287.33 77.5871 288.19 76.8627 288.599C76.1388 289.008 74.8772 288.811 74.042 288.159C73.2103 287.508 73.1208 286.647 73.8473 286.239Z" fill="#FF9758"/>
<path d="M73.8514 286.239C74.5758 285.83 75.8374 286.028 76.67 286.679C77.2154 287.105 77.4344 287.62 77.3224 288.04C77.218 287.786 77.0207 287.529 76.7258 287.298C75.8941 286.647 74.6312 286.45 73.9064 286.859C73.6563 286.999 73.5101 287.196 73.4505 287.418C73.2574 286.955 73.3823 286.503 73.8514 286.239Z" fill="#5F3E3C"/>
<path d="M95.0235 277.957C96.9626 277.628 99.0782 278.779 99.7433 280.525C100.409 282.272 99.3743 283.954 97.433 284.281C95.493 284.609 93.38 283.457 92.7132 281.711C92.0485 279.964 93.0822 278.283 95.0235 277.957Z" fill="#954343"/>
<path d="M95.2623 277.435C97.2023 277.106 99.3166 278.258 99.9809 280.005C100.647 281.751 99.614 283.433 97.6723 283.759C95.731 284.087 93.618 282.937 92.9525 281.189C92.2857 279.443 93.3198 277.761 95.2623 277.435Z" fill="#E0A60F"/>
<path d="M95.8252 278.996C96.7396 278.824 97.7648 279.351 98.1129 280.174C98.4636 280.996 98.0047 281.803 97.0907 281.975C96.1759 282.147 95.1516 281.619 94.8009 280.796C94.4515 279.974 94.9087 279.167 95.8252 278.996Z" fill="#FF9758"/>
<path d="M95.825 278.996C96.7394 278.824 97.7645 279.351 98.1126 280.174C98.3423 280.713 98.2196 281.241 97.8544 281.592C97.9184 281.332 97.8996 281.044 97.776 280.753C97.4266 279.931 96.4023 279.402 95.4866 279.574C95.1705 279.634 94.9157 279.772 94.7227 279.957C94.8368 279.484 95.2335 279.106 95.825 278.996Z" fill="#5F3E3C"/>
<path d="M115.36 276.307C117.361 276.272 119.036 277.708 119.097 279.509C119.16 281.311 117.589 282.797 115.587 282.829C113.587 282.862 111.912 281.427 111.849 279.625C111.788 277.825 113.359 276.339 115.36 276.307Z" fill="#954343"/>
<path d="M115.767 275.827C117.768 275.794 119.442 277.229 119.504 279.03C119.568 280.83 117.995 282.318 115.993 282.349C113.992 282.381 112.318 280.947 112.256 279.146C112.193 277.344 113.765 275.859 115.767 275.827Z" fill="#E0A60F"/>
<path d="M115.798 277.434C116.746 277.4 117.569 278.067 117.632 278.92C117.697 279.774 116.981 280.492 116.031 280.524C115.082 280.557 114.259 279.892 114.195 279.037C114.131 278.184 114.847 277.466 115.798 277.434Z" fill="#FF9758"/>
<path d="M115.792 277.434C116.74 277.4 117.563 278.067 117.626 278.92C117.67 279.479 117.372 279.976 116.899 280.264C117.047 280.02 117.126 279.737 117.105 279.435C117.039 278.581 116.218 277.915 115.268 277.947C114.94 277.959 114.644 278.056 114.395 278.208C114.665 277.763 115.178 277.454 115.792 277.434Z" fill="#5F3E3C"/>
<path d="M179.885 386.67C179.885 389.882 176.473 392.489 172.263 392.489C168.053 392.489 164.641 389.882 164.641 386.67C164.641 383.455 168.053 380.85 172.263 380.85C176.473 380.851 179.885 383.456 179.885 386.67Z" fill="#FF9758"/>
<path d="M176.693 386.668C176.693 388.534 174.711 390.046 172.267 390.046C169.822 390.046 167.84 388.534 167.84 386.668C167.84 384.801 169.822 383.288 172.267 383.288C174.711 383.288 176.693 384.801 176.693 386.668Z" fill="#FFA352"/>
<path d="M172.018 384.322C174.463 384.322 176.445 385.835 176.445 387.703C176.445 387.72 176.44 387.733 176.438 387.75C176.589 387.409 176.69 387.05 176.69 386.67C176.69 384.803 174.708 383.29 172.264 383.29C169.841 383.29 167.877 384.778 167.844 386.622C168.437 385.288 170.072 384.322 172.018 384.322Z" fill="#975450"/>
<path d="M187.269 375.03C187.269 377.103 185.067 378.784 182.351 378.784C179.636 378.784 177.434 377.102 177.434 375.03C177.434 372.956 179.636 371.275 182.351 371.275C185.067 371.275 187.269 372.956 187.269 375.03Z" fill="#FF9758"/>
<path d="M185.781 375.032C185.781 376.48 184.244 377.654 182.346 377.654C180.447 377.654 178.91 376.48 178.91 375.032C178.91 373.582 180.447 372.408 182.346 372.408C184.244 372.408 185.781 373.582 185.781 375.032Z" fill="#FFA352"/>
<path d="M184.361 375.031C184.361 375.877 183.462 376.563 182.353 376.563C181.243 376.563 180.344 375.877 180.344 375.031C180.344 374.182 181.243 373.496 182.353 373.496C183.462 373.496 184.361 374.182 184.361 375.031Z" fill="#FF9758"/>
<path d="M83.7734 386.67C83.7734 389.882 87.186 392.489 91.3962 392.489C95.6056 392.489 99.019 389.882 99.019 386.67C99.019 383.455 95.606 380.85 91.3962 380.85C87.1856 380.851 83.7734 383.456 83.7734 386.67Z" fill="#FF9758"/>
<path d="M86.9648 386.668C86.9648 388.534 88.947 390.046 91.3915 390.046C93.836 390.046 95.819 388.534 95.819 386.668C95.819 384.801 93.836 383.288 91.3915 383.288C88.9475 383.288 86.9648 384.801 86.9648 386.668Z" fill="#FFA352"/>
<path d="M87.3334 387.419C87.3334 385.553 89.316 384.038 91.7605 384.038C93.4828 384.038 94.9592 384.798 95.6904 385.894C95.2315 384.402 93.4866 383.288 91.3915 383.288C88.947 383.288 86.9648 384.801 86.9648 386.668C86.9648 387.22 87.1536 387.732 87.4612 388.192C87.3845 387.942 87.3334 387.686 87.3334 387.419Z" fill="#975450"/>
<path d="M76.3984 375.03C76.3984 377.102 78.5996 378.784 81.3155 378.784C84.0319 378.784 86.2335 377.102 86.2335 375.03C86.2335 372.956 84.0319 371.275 81.3155 371.275C78.5996 371.275 76.3984 372.956 76.3984 375.03Z" fill="#FF9758"/>
<path d="M77.875 375.032C77.875 376.48 79.4128 377.654 81.3102 377.654C83.2084 377.654 84.7457 376.48 84.7457 375.032C84.7457 373.582 83.2084 372.408 81.3102 372.408C79.4128 372.408 77.875 373.582 77.875 375.032Z" fill="#FFA352"/>
<path d="M79.3008 375.031C79.3008 375.877 80.1998 376.563 81.3089 376.563C82.4185 376.563 83.3188 375.877 83.3188 375.031C83.3188 374.182 82.4185 373.496 81.3089 373.496C80.1998 373.496 79.3008 374.182 79.3008 375.031Z" fill="#FF9758"/>
<path d="M99.5477 389.225L90.0352 404.127C114.724 413.733 151.796 413.029 173.17 404.127L163.72 389.322C145.061 394.266 119.833 394.525 99.5477 389.225Z" fill="#FFA352"/>
<path d="M101.316 388.716L92.4688 402.75C115.432 411.797 149.912 411.133 169.79 402.75L161.001 388.808C143.648 393.464 120.183 393.707 101.316 388.716Z" fill="#FF9758"/>
<path d="M160.977 390.683L148.941 393.861C148.941 393.861 155.522 405.639 160.453 404.338C165.384 403.036 160.977 390.683 160.977 390.683Z" fill="#44302E"/>
<path d="M101.374 390.038L113.095 394.083C113.095 394.083 106.086 405.339 101.283 403.682C96.4804 402.025 101.374 390.038 101.374 390.038Z" fill="#44302E"/>
<path d="M123.977 394.055C123.977 394.055 124.866 407.883 130.485 407.975C136.104 408.067 137.69 394.281 137.69 394.281L123.977 394.055Z" fill="#44302E"/>
<path d="M136.293 394.847C136.293 394.847 139.964 408.282 145.503 407.416C151.042 406.553 149.813 392.736 149.813 392.736L136.293 394.847Z" fill="#44302E"/>
<path d="M124.351 394.45C124.351 394.45 120.682 407.886 115.142 407.019C109.603 406.155 110.831 392.338 110.831 392.338L124.351 394.45Z" fill="#44302E"/>
<path d="M160.099 390.652L148.414 393.687C148.414 393.687 154.803 404.933 159.59 403.689C164.379 402.446 160.099 390.652 160.099 390.652Z" fill="#FFA352"/>
<path d="M102.228 390.038L113.609 393.9C113.609 393.9 106.803 404.648 102.14 403.065C97.4763 401.482 102.228 390.038 102.228 390.038Z" fill="#FFA352"/>
<path d="M124.172 393.874C124.172 393.874 125.035 407.076 130.491 407.163C135.947 407.252 137.486 394.09 137.486 394.09L124.172 393.874Z" fill="#FFA352"/>
<path d="M136.133 394.627C136.133 394.627 139.698 407.455 145.076 406.629C150.455 405.804 149.261 392.611 149.261 392.611L136.133 394.627Z" fill="#FFA352"/>
<path d="M124.537 394.253C124.537 394.253 120.974 407.081 115.595 406.255C110.216 405.43 111.41 392.236 111.41 392.236L124.537 394.253Z" fill="#FFA352"/>
<path d="M142.621 403.66C142.621 404.437 143.447 405.068 144.465 405.068C145.483 405.068 146.309 404.437 146.309 403.66C146.309 402.881 145.483 402.252 144.465 402.252C143.447 402.252 142.621 402.881 142.621 403.66Z" fill="#FF9758"/>
<path d="M156.387 400.843C156.387 401.62 157.213 402.25 158.231 402.25C159.25 402.25 160.076 401.62 160.076 400.843C160.076 400.064 159.249 399.434 158.231 399.434C157.213 399.434 156.387 400.064 156.387 400.843Z" fill="#FF9758"/>
<path d="M128.723 404.597C128.723 405.374 129.548 406.005 130.567 406.005C131.585 406.005 132.411 405.374 132.411 404.597C132.411 403.819 131.585 403.189 130.567 403.189C129.548 403.189 128.723 403.819 128.723 404.597Z" fill="#FF9758"/>
<path d="M116.192 405.068C117.21 405.068 118.036 404.437 118.036 403.66C118.036 402.882 117.21 402.252 116.192 402.252C115.173 402.252 114.348 402.882 114.348 403.66C114.348 404.437 115.173 405.068 116.192 405.068Z" fill="#FF9758"/>
<path d="M101.316 400.372C101.316 401.15 102.143 401.78 103.161 401.78C104.179 401.78 105.005 401.15 105.005 400.372C105.005 399.595 104.178 398.965 103.161 398.965C102.143 398.965 101.316 399.595 101.316 400.372Z" fill="#FF9758"/>
<path d="M188.598 356.323C188.598 347.717 180.488 340.742 170.484 340.742C160.48 340.742 152.371 347.717 152.371 356.323C152.371 364.927 160.48 371.904 170.484 371.904C180.488 371.904 188.598 364.927 188.598 356.323Z" fill="#FFA352"/>
<path d="M184.329 356.321C184.329 349.743 178.13 344.412 170.484 344.412C162.839 344.412 156.641 349.743 156.641 356.321C156.641 362.897 162.839 368.228 170.484 368.228C178.13 368.228 184.329 362.897 184.329 356.321Z" fill="#FF9758"/>
<path d="M179.573 356.319C179.573 352.002 175.506 348.502 170.487 348.502C165.469 348.502 161.402 352.002 161.402 356.319C161.402 360.635 165.469 364.133 170.487 364.133C175.506 364.133 179.573 360.635 179.573 356.319Z" fill="#FFA352"/>
<path d="M174.533 356.319C174.533 354.397 172.722 352.839 170.489 352.839C168.255 352.839 166.445 354.397 166.445 356.319C166.445 358.239 168.255 359.796 170.489 359.796C172.722 359.796 174.533 358.239 174.533 356.319Z" fill="#FF9758"/>
<path d="M169.672 341.742C179.677 341.742 187.787 348.719 187.787 357.324C187.787 360.419 186.724 363.297 184.914 365.721C187.22 363.108 188.606 359.857 188.606 356.323C188.606 347.717 180.496 340.742 170.492 340.742C164.087 340.742 158.47 343.608 155.25 347.924C158.558 344.175 163.778 341.742 169.672 341.742Z" fill="#975450"/>
<path d="M169.987 349.378C175.006 349.378 179.073 352.877 179.073 357.194C179.073 358.236 178.831 359.229 178.399 360.14C179.14 359.009 179.565 357.707 179.565 356.318C179.565 352.001 175.497 348.501 170.479 348.501C166.674 348.501 163.42 350.516 162.066 353.371C163.625 350.989 166.586 349.378 169.987 349.378Z" fill="#975450"/>
<path d="M170.489 352.839C168.837 352.839 167.42 353.695 166.793 354.916C167.43 354.554 168.193 354.341 169.013 354.341C171.247 354.341 173.058 355.898 173.058 357.819C173.058 358.318 172.93 358.79 172.71 359.22C173.807 358.599 174.533 357.532 174.533 356.318C174.534 354.397 172.723 352.839 170.489 352.839Z" fill="#442D2B"/>
<path d="M170.48 344.412C166.784 344.412 163.435 345.665 160.953 347.696C163.102 346.513 165.65 345.819 168.391 345.819C176.036 345.819 182.234 351.15 182.234 357.727C182.234 361.125 180.572 364.182 177.918 366.352C181.766 364.236 184.325 360.539 184.325 356.321C184.325 349.743 178.126 344.412 170.48 344.412Z" fill="#442D2B"/>
<path d="M102.311 397.744H160.868L166.382 393.883L166.358 393.478L163.707 389.322C162.452 389.654 161.163 389.961 159.852 390.251L159.363 389.484C142.955 393.831 120.772 394.058 102.936 389.398L102.579 389.958C101.556 389.722 100.535 389.485 99.5341 389.224L96.8199 393.478L96.7969 393.883L102.311 397.744Z" fill="#B47442"/>
<path opacity="0.4" d="M167.335 371.65V340.991C167.193 341.011 167.047 341.022 166.907 341.047C166.818 341.063 166.728 341.083 166.64 341.099C166.207 341.18 165.782 341.275 165.362 341.381C165.221 341.418 165.081 341.452 164.941 341.491C164.486 341.617 164.037 341.757 163.598 341.913C163.438 341.97 163.283 342.033 163.127 342.093C162.817 342.212 162.511 342.338 162.211 342.473C162.041 342.548 161.869 342.621 161.701 342.7C161.331 342.877 160.972 343.067 160.619 343.266C160.412 343.382 160.211 343.504 160.011 343.626C159.819 343.743 159.632 343.866 159.446 343.989C159.091 344.226 158.749 344.472 158.415 344.73C158.28 344.834 158.144 344.936 158.012 345.044C157.792 345.225 157.577 345.41 157.368 345.6C157.278 345.681 157.193 345.764 157.106 345.847C156.725 346.208 156.365 346.582 156.023 346.972C155.954 347.051 155.883 347.131 155.815 347.211C155.621 347.444 155.431 347.678 155.25 347.92C155.25 347.921 155.249 347.921 155.249 347.921C155.249 347.921 155.249 347.921 155.25 347.921C154.805 348.516 154.409 349.14 154.059 349.785V362.844C156.504 367.397 161.419 370.754 167.335 371.65Z" fill="#442D2B"/>
<path d="M73.5195 356.323C73.5195 347.717 81.6289 340.742 91.6331 340.742C101.637 340.742 109.746 347.717 109.746 356.323C109.746 364.927 101.637 371.904 91.6331 371.904C81.6289 371.904 73.5195 364.927 73.5195 356.323Z" fill="#FFA352"/>
<path d="M77.7852 356.321C77.7852 349.743 83.9827 344.412 91.6293 344.412C99.2747 344.412 105.473 349.743 105.473 356.321C105.473 362.897 99.2747 368.228 91.6293 368.228C83.9831 368.228 77.7852 362.897 77.7852 356.321Z" fill="#FF9758"/>
<path d="M82.5547 356.319C82.5547 352.002 86.6222 348.502 91.6407 348.502C96.6583 348.502 100.726 352.002 100.726 356.319C100.726 360.635 96.6588 364.133 91.6407 364.133C86.6222 364.133 82.5547 360.635 82.5547 356.319Z" fill="#FFA352"/>
<path d="M87.5938 356.319C87.5938 354.397 89.4046 352.839 91.6386 352.839C93.8718 352.839 95.6823 354.397 95.6823 356.319C95.6823 358.239 93.8718 359.796 91.6386 359.796C89.4046 359.796 87.5938 358.239 87.5938 356.319Z" fill="#FF9758"/>
<path d="M92.4525 341.742C82.4479 341.742 74.3381 348.719 74.3381 357.324C74.3381 360.419 75.4007 363.297 77.2103 365.721C74.9043 363.108 73.5195 359.857 73.5195 356.323C73.5195 347.717 81.6289 340.742 91.6331 340.742C98.0377 340.742 103.654 343.608 106.874 347.924C103.566 344.175 98.3458 341.742 92.4525 341.742Z" fill="#975450"/>
<path d="M92.1324 349.378C87.1139 349.378 83.0464 352.877 83.0464 357.194C83.0464 358.236 83.2884 359.229 83.7192 360.14C82.9799 359.009 82.5547 357.707 82.5547 356.318C82.5547 352.001 86.6222 348.501 91.6407 348.501C95.4461 348.501 98.7006 350.516 100.053 353.371C98.4952 350.989 95.5347 349.378 92.1324 349.378Z" fill="#975450"/>
<path d="M91.6386 352.839C93.2902 352.839 94.7078 353.695 95.3346 354.916C94.6967 354.554 93.9348 354.34 93.1138 354.34C90.8798 354.34 89.0689 355.898 89.0689 357.819C89.0689 358.318 89.1971 358.79 89.4166 359.22C88.3198 358.599 87.5938 357.532 87.5938 356.318C87.5938 354.397 89.4046 352.839 91.6386 352.839Z" fill="#442D2B"/>
<path d="M91.6293 344.412C95.3253 344.412 98.6743 345.665 101.156 347.696C99.0071 346.513 96.4595 345.819 93.7193 345.819C86.0731 345.819 79.8747 351.15 79.8747 357.727C79.8747 361.125 81.5378 364.182 84.1902 366.352C80.3426 364.236 77.7852 360.539 77.7852 356.321C77.7852 349.743 83.9831 344.412 91.6293 344.412Z" fill="#442D2B"/>
<path opacity="0.4" d="M94.7891 371.65V340.991C94.9314 341.011 95.0775 341.022 95.2177 341.047C95.3068 341.063 95.3954 341.083 95.484 341.099C95.9165 341.18 96.3422 341.275 96.7619 341.381C96.9033 341.418 97.0431 341.452 97.1824 341.491C97.6388 341.617 98.0874 341.757 98.5272 341.914C98.6865 341.97 98.8412 342.034 98.998 342.093C99.3082 342.212 99.6133 342.339 99.9141 342.473C100.084 342.548 100.256 342.621 100.423 342.701C100.793 342.877 101.153 343.068 101.506 343.267C101.713 343.382 101.913 343.504 102.113 343.627C102.305 343.743 102.493 343.866 102.678 343.989C103.033 344.226 103.376 344.472 103.709 344.73C103.844 344.834 103.98 344.936 104.112 345.044C104.333 345.226 104.547 345.41 104.756 345.601C104.846 345.681 104.931 345.765 105.019 345.848C105.399 346.208 105.76 346.582 106.101 346.972C106.17 347.052 106.241 347.131 106.31 347.211C106.505 347.444 106.694 347.678 106.874 347.92C106.874 347.921 106.876 347.921 106.876 347.921C106.876 347.921 106.876 347.921 106.874 347.921C107.319 348.517 107.717 349.14 108.067 349.786V362.844C105.619 367.397 100.705 370.754 94.7891 371.65Z" fill="#442D2B"/>
<path d="M162.694 324.533H100.486L96.7969 390.505L102.311 394.366H160.868L166.382 390.505L162.694 324.533Z" fill="#FFA352"/>
<path d="M96.8016 390.423L96.7969 390.504L102.311 394.365H160.868L166.382 390.504L166.377 390.423H96.8016Z" fill="#FF7700"/>
<path d="M161.065 323.718L102.129 323.717L99.5078 390.36L104.594 392.425H158.6L163.685 390.36L161.065 323.718Z" fill="url(#paint10_radial_634_105)"/>
<path d="M161.065 323.718H160.484L163.03 389.796L158.047 391.861H105.146L100.164 389.796L102.709 323.717H102.129L99.5078 390.36L104.594 392.425H158.6L163.685 390.36L161.065 323.718Z" fill="#B47442"/>
<path d="M141.472 355.133L143.604 366.772L145.817 370.464L147.619 372.217L145.242 370.651L143.112 367.46L141.145 367.523L141.472 355.133Z" fill="#FFA352"/>
<path d="M120.812 367.251L127.125 375.924H136.223L142.369 367.251H120.812Z" fill="#FF9758"/>
<path d="M116.621 372.59L118.957 372.215L120.986 370.337L123.261 369.304L120.986 366.489L120.821 367.248L121.785 369.259L120.679 370.291L118.896 372.074L116.621 372.59Z" fill="#FF9758"/>
<path d="M124.174 328.928H100.938V344.493H124.174V328.928Z" fill="#FFA352"/>
<path d="M162.294 328.928H139.059V344.493H162.294V328.928Z" fill="#FFA352"/>
<path d="M139.911 327.285H123.271L120.812 367.248L125.462 372.151H137.72L142.369 367.248L139.911 327.285Z" fill="#FF7700"/>
<path d="M120.812 367.251L125.462 372.154H137.72L142.369 367.251H120.812Z" fill="#FFA352"/>
<path d="M117.697 341.804H106.398V356.634H117.697V341.804Z" fill="#442D2B"/>
<path d="M156.365 377.925H106.838L105.906 378.333V380.206L107.191 380.613H156.01L157.296 380.206V378.333L156.365 377.925Z" fill="#FF9758"/>
<path d="M149.96 382.226H113.23L112.539 382.866V385.811L113.491 386.451H149.698L150.651 385.811V382.866L149.96 382.226Z" fill="#FFA352"/>
<path d="M174.996 323.68H88.1992V334.619L92.38 338.72H170.815L174.996 334.619V323.68Z" fill="#E7D34F"/>
<path d="M174.997 323.68H88.1992V334.619H174.997V323.68Z" fill="#E0A60F"/>
<path d="M177.781 321.904H85.4102L88.1572 327.098H174.956L177.781 321.904Z" fill="#FFA352"/>
<path d="M145.201 321.466H117.988L122.455 341.287H140.734L145.201 321.466Z" fill="#FFA352"/>
<path d="M179.134 319.649H84.0586L86.8857 324.843H176.225L179.134 319.649Z" fill="#FF9758"/>
<path d="M188.024 303.944H75.1641V319.247L79.6704 322.716H183.518L188.024 319.247V303.944Z" fill="#FFD15A"/>
<path d="M188.024 303.944H75.1641V314.582H188.024V303.944Z" fill="#E0A60F"/>
<path d="M188.024 303.594H75.1641V305.674H188.024V303.594Z" fill="#FFD159"/>
<path d="M75.1641 319.246L79.6704 323.779H183.518L188.024 319.246H75.1641Z" fill="#FF7700"/>
<path d="M137.867 309.825H125.327L122.582 367.246L128.032 370.523H135.162L140.039 367.246L137.867 309.825Z" fill="#FFD15A"/>
<path d="M143.393 303.441H119.801L118.031 305.612L114.426 320.525L124.303 321.386L124.52 326.689H138.506L139.179 321.902L148.769 320.525L145.163 305.612L143.393 303.441Z" fill="#FF7700"/>
<path d="M149.96 380.6H113.23L112.539 381.239V384.184L113.491 384.823H149.698L150.651 384.184V381.239L149.96 380.6Z" fill="#E7D34F"/>
<path d="M156.436 341.804H145.137V356.634H156.436V341.804Z" fill="#FF9758"/>
<path d="M156.436 341.804H145.137V356.634H156.436V341.804Z" fill="#442D2B"/>
<path d="M154.832 344.246H146.934V355.885H154.832V344.246Z" fill="#622C0B"/>
<path d="M160.73 362.016H147.453V368.024H160.73V362.016Z" fill="#E7D34F"/>
<path d="M115.988 362.016H102.711V368.024H115.988V362.016Z" fill="#E7D34F"/>
<path d="M143.888 284.36H119.301L117.457 288.064V313.525L119.424 316.836H143.766L145.734 313.525V288.064L143.888 284.36Z" fill="#FFD159"/>
<path d="M134.113 303.422C128.297 304.742 122.487 304.775 117.457 303.763V313.524L119.424 316.835H143.766L145.733 313.524V298.669C142.559 300.734 138.614 302.4 134.113 303.422Z" fill="#FFD159"/>
<path d="M155.411 378.895H107.779L106.883 379.097V380.027L108.119 380.228H155.071L156.308 380.027V379.097L155.411 378.895Z" fill="#442D2B"/>
<path d="M154.816 356.259L157.301 357.979L156.352 356.108L154.816 356.259Z" fill="#442D2B"/>
<path d="M146.589 340.684L142.863 342.665L146.385 342.275L146.589 340.684Z" fill="#442D2B"/>
<path d="M141.402 287.677H121.802L120.332 290.625V310.886L121.9 313.521H141.305L142.872 310.886V290.625L141.402 287.677Z" fill="#FF7700"/>
<path d="M135.622 302.566V306.304L135.061 307.611H128.119L127.558 306.304V303.766C125.964 303.775 125.176 303.656 123.764 303.416L123.023 309.215L124.215 311.268H138.964L140.157 309.215L139.501 300.532C138.248 301.334 137.365 302.027 135.622 302.566Z" fill="#D76460"/>
<path d="M141.402 287.677H121.802L120.332 290.625V310.886L121.232 312.397L121.069 312.106V291.846L122.443 288.898H140.761L142.135 291.846V312.106L141.966 312.409L142.872 310.886V290.625L141.402 287.677Z" fill="#D76460"/>
<path d="M134.986 294.56H128.216L127.707 295.937V305.404L128.031 306.141V297.511L128.496 296.247H134.705L135.17 297.511V306.141L135.494 305.404V295.937L134.986 294.56Z" fill="#D76460"/>
<path d="M138.789 291.111H124.403L123.324 293.275V308.146L124.476 310.079H138.718L139.868 308.146V293.275L138.789 291.111ZM135.49 305.402L134.948 306.634H128.244L127.702 305.402V295.935L128.211 294.557H134.982L135.489 295.935L135.49 305.402Z" fill="#FFD159"/>
<path d="M140.033 367.247L138.435 362.576C138.435 362.576 138.271 358.447 138.271 358.26C138.271 358.072 135.566 351.189 135.566 351.189L139.09 357.509L139.747 361.2L140.811 361.763L140.156 367.396L140.033 367.247Z" fill="#FF7700"/>
<path d="M135.305 370.524L140.406 367.474L142.374 367.247L140.468 366.722L138.193 363.203L138.501 367.286L135.305 370.524Z" fill="#FFD15A"/>
<path d="M127.811 370.761L122.402 367.289L127.504 368.181L130.639 368.556L129.656 369.636L132.729 370.902L127.811 370.761Z" fill="#FFA352"/>
<path d="M125.043 325.98L127.747 328.279L130.145 330.016L130.453 331.987L131.558 328.843L129.715 327.482L132.542 325.229L125.043 325.98Z" fill="#FF7700"/>
<path d="M106.725 347.185L106.479 344.056L105.906 347.31L105.25 350.188L106.317 352.503L106.479 356.258L105.824 357.822V360.013L107.3 357.51L108.119 356.32L107.135 354.256L106.725 347.185Z" fill="#442D2B"/>
<path d="M116.279 346.329L116.393 342.993L117.443 346.463L118.585 349.534L117.252 352.002L117.302 356.007L118.342 357.676L118.505 360.012L116.238 357.343L114.992 356.074L116.227 353.872L116.279 346.329Z" fill="#442D2B"/>
<path d="M145.91 350.611L145.81 348.56L145.085 350.693L144.297 352.579L145.256 354.096L145.246 356.556L144.518 357.581L144.417 359.018L146.008 357.377L146.883 356.597L145.994 355.244L145.91 350.611Z" fill="#442D2B"/>
<path d="M101.802 378.503L102.171 373.435L100.941 369.493L99.7125 362.078L99.0977 373.81L100.941 375.218L101.802 378.503Z" fill="#FFA352"/>
<path d="M135.49 301.885V305.405L134.948 306.637H128.244L127.702 305.405V303.015C126.163 303.024 124.687 302.91 123.324 302.685V308.149L124.476 310.082H138.718L139.868 308.149V299.968C138.658 300.723 137.172 301.376 135.49 301.885Z" fill="#FFD159"/>
<path d="M166.387 390.505L159.176 392.427L160.733 390.611L157.537 390.048L154.586 389.111L154.669 385.856L155.324 388.923L157.783 389.674L160.241 389.798L161.881 390.3L163.683 390.362L164.997 388.36L166.387 390.505Z" fill="#FFA352"/>
<path d="M102.319 394.366L105.904 393.427L106.15 392.488L111.067 392.363L114.346 391.237L110.739 391.988L106.313 391.425L101.313 389.297L100.494 386.981L98.9366 385.48L98.6094 390.111L100.249 390.61L103.527 391.237L105.166 392.551L104.838 393.239L102.319 394.366Z" fill="#FFA352"/>
<path d="M150.651 381.288V381.239L149.96 380.6H113.23L112.539 381.239V381.288H150.651Z" fill="#C4AEAD"/>
<path d="M106.97 342.65L106.395 341.805L105.125 340.398L107.215 341.241L110.657 341.148L113.239 342.275L106.97 342.65Z" fill="#442D2B"/>
<path d="M116.499 341.336L118.584 342.047L119.969 343.885L117.689 342.782L113.933 342.905L111.117 341.434L116.499 341.336Z" fill="#442D2B"/>
<path d="M156.085 341.71L158.17 342.42L159.555 344.259L157.275 343.156L153.52 343.279L150.703 341.808L156.085 341.71Z" fill="#442D2B"/>
<path d="M116.386 342.993H107.684V355.445H116.386V342.993Z" fill="#622C0B"/>
<path d="M141.761 332.605L143.729 334.67L147.54 334.857L151.229 333.543L153.81 330.727L151.966 333.637L150.122 334.67L148.032 335.702L143.975 336.172L141.516 337.298L141.761 332.605Z" fill="#FFA352"/>
<path d="M142.214 334.168L142.624 335.858L141.641 336.296L142.214 334.168Z" fill="#E7D34F"/>
<path d="M122.048 331.979L121.475 327.787L121.147 331.479L119.918 332.605L117.786 334.295L114.918 334.857L121.802 338.549C121.885 338.361 121.147 335.671 121.147 335.671L121.967 334.107L122.048 331.979Z" fill="#E7D34F"/>
<path d="M121.149 331.477L119.94 334.199L118.771 336.076L118.956 337.578L117.911 335.888L118.403 334.95L117.604 334.574L114.899 334.762L111.457 332.838L115.453 334.434L117.173 333.871L118.655 333.546L119.632 332.603L119.94 329.224L121.149 331.477Z" fill="#FFA352"/>
</g>
<path d="M243 200H0V236.726L9.70261 245.049H233.298L243 236.726V200Z" fill="#FFD159"/>
<path d="M243 200H0V228.095H243V200Z" fill="#FFD159"/>
<path d="M0.174255 236.63L9.86993 246H233.305L243 236.63H0.174255Z" fill="#E0A60F"/>
<path d="M27.3545 226.848C26.8636 227.271 26.4108 227.482 25.9961 227.482C25.5898 227.482 25.2809 227.381 25.0693 227.178C24.8662 226.983 24.7646 226.725 24.7646 226.403C24.9593 226.31 25.1074 226.209 25.209 226.099C25.0651 225.667 24.9932 225.151 24.9932 224.55C24.9932 223.949 25.0947 223.348 25.2979 222.747C25.5094 222.138 25.8184 221.566 26.2246 221.033C26.9525 220.094 28.1755 219.112 29.8936 218.088C30.9176 217.402 31.6413 216.708 32.0645 216.006C32.5723 215.143 32.8262 214.051 32.8262 212.73C32.8262 210.259 31.984 209.023 30.2998 209.023C29.445 209.023 28.7214 209.32 28.1289 209.912C27.4941 210.547 27.1768 211.414 27.1768 212.515C27.1768 213.615 27.3926 214.436 27.8242 214.978C27.6296 215.138 27.4264 215.219 27.2148 215.219C27.0117 215.219 26.8001 215.181 26.5801 215.104C26.36 215.02 26.1569 214.897 25.9707 214.736C25.5475 214.347 25.3359 213.89 25.3359 213.365C25.3359 212.832 25.4036 212.413 25.5391 212.108C25.0905 211.812 24.8662 211.427 24.8662 210.953C24.8662 210.479 25.027 210.073 25.3486 209.734C25.0778 209.387 24.9424 209.07 24.9424 208.782C24.9424 208.486 24.9805 208.236 25.0566 208.033C25.1413 207.822 25.2598 207.635 25.4121 207.475C25.7253 207.145 26.1061 206.979 26.5547 206.979C26.7747 206.979 26.9779 207.026 27.1641 207.119C27.0456 207.28 26.9863 207.449 26.9863 207.627C26.9863 207.855 27.1133 207.97 27.3672 207.97C27.5365 207.97 27.8496 207.894 28.3066 207.741C29.1445 207.462 30.0713 207.322 31.0869 207.322C32.1025 207.322 32.9193 207.386 33.5371 207.513C34.1634 207.64 34.7305 207.843 35.2383 208.122C36.2624 208.681 37.0664 209.599 37.6504 210.877C37.9212 211.495 38.3232 211.96 38.8564 212.273C38.3486 212.561 37.9255 213.128 37.5869 213.975C36.9691 215.481 35.9492 216.725 34.5273 217.707C34.0365 218.037 33.3975 218.397 32.6104 218.786C31.8232 219.167 31.1038 219.552 30.4521 219.941C29.8005 220.331 29.2715 220.695 28.8652 221.033C28.112 221.66 27.6549 222.307 27.4941 222.976C28.6706 223.179 29.9189 223.28 31.2393 223.28C32.5596 223.28 33.4821 223.242 34.0068 223.166C34.5316 223.081 34.9505 222.954 35.2637 222.785C35.8477 222.489 36.1396 222.007 36.1396 221.338C36.1396 221.092 36.0889 220.881 35.9873 220.703C36.0381 220.585 36.182 220.525 36.4189 220.525C36.6559 220.525 36.8633 220.572 37.041 220.665C37.2272 220.758 37.388 220.881 37.5234 221.033C37.8112 221.372 37.9551 221.799 37.9551 222.315C37.9551 222.832 37.7477 223.306 37.333 223.737C37.6546 223.949 37.8154 224.245 37.8154 224.626C37.8154 225.007 37.7054 225.307 37.4854 225.527C37.6038 225.722 37.6631 225.921 37.6631 226.124C37.6631 226.319 37.625 226.488 37.5488 226.632C37.4811 226.767 37.388 226.882 37.2695 226.975C37.0156 227.161 36.694 227.254 36.3047 227.254C35.9154 227.254 35.5514 227.169 35.2129 227C33.9857 227.169 32.7161 227.254 31.4043 227.254C30.1009 227.254 28.751 227.118 27.3545 226.848ZM33.042 209.201C33.6683 209.904 33.9814 211.004 33.9814 212.502C33.9814 213.966 33.863 214.982 33.626 215.549C33.9645 215.481 34.2565 215.126 34.502 214.482C34.5866 214.245 34.6501 214 34.6924 213.746C34.7432 213.492 34.7812 213.293 34.8066 213.149C34.8405 213.006 34.8913 212.879 34.959 212.769C35.0859 212.549 35.3102 212.383 35.6318 212.273C35.2933 212.163 35.0859 212.049 35.0098 211.931C34.9336 211.804 34.8786 211.681 34.8447 211.562L34.7178 211.118C34.5062 210.365 34.138 209.806 33.6133 209.442C33.4355 209.315 33.2451 209.235 33.042 209.201ZM35.708 224.22C34.8109 224.618 33.3805 224.816 31.417 224.816C29.4535 224.816 28.0993 224.651 27.3545 224.321C27.3206 224.372 27.3164 224.448 27.3418 224.55C27.3672 224.651 27.4137 224.744 27.4814 224.829C27.5492 224.914 27.7311 224.994 28.0273 225.07C28.332 225.146 28.679 225.206 29.0684 225.248C29.6608 225.324 30.304 225.362 30.998 225.362C31.6921 225.362 32.2591 225.354 32.6992 225.337C33.1478 225.32 33.5667 225.29 33.9561 225.248C34.8617 225.138 35.4033 224.965 35.5811 224.728C35.6911 224.584 35.7334 224.414 35.708 224.22ZM43.327 227.457C43.1239 227.55 42.9081 227.597 42.6796 227.597C42.4595 227.597 42.2479 227.546 42.0448 227.444C41.8501 227.351 41.6851 227.224 41.5497 227.063C41.2535 226.725 41.1054 226.357 41.1054 225.959C41.1054 225.553 41.2323 225.176 41.4862 224.829C41.1731 224.516 41.0165 224.114 41.0165 223.623C41.0165 223.132 41.2535 222.739 41.7274 222.442C41.5666 222.138 41.4862 221.799 41.4862 221.427C41.4862 221.054 41.5285 220.754 41.6132 220.525C41.7063 220.297 41.8374 220.094 42.0067 219.916C42.3622 219.544 42.815 219.357 43.3651 219.357C43.6021 219.357 43.8095 219.438 43.9872 219.599C43.5555 220.149 43.3397 220.961 43.3397 222.036C43.3397 223.72 43.9449 224.808 45.1552 225.299C45.536 225.451 45.9296 225.527 46.3358 225.527C46.7505 225.527 47.1399 225.468 47.5038 225.35C47.8762 225.231 48.2105 225.036 48.5067 224.766C49.1838 224.148 49.5223 223.225 49.5223 221.998V220.627C49.5223 219.721 49.3446 218.993 48.9891 218.443C48.6506 217.91 48.219 217.66 47.6942 217.694C46.3739 217.779 45.7138 217.424 45.7138 216.628C45.7138 216.306 45.828 216.04 46.0565 215.828C46.2343 215.947 46.4289 216.006 46.6405 216.006C46.8521 216.006 47.0044 215.985 47.0975 215.942L47.5292 215.752C48.0116 215.523 48.3882 215.155 48.6591 214.647C48.8114 214.36 48.8876 214 48.8876 213.568V212.451C48.8876 211.224 48.6252 210.318 48.1005 209.734C47.6858 209.26 47.1018 209.023 46.3485 209.023C45.1636 209.023 44.368 209.616 43.9618 210.801C43.8264 211.19 43.7587 211.588 43.7587 211.994C43.7587 212.4 43.7841 212.714 43.8348 212.934C43.8941 213.145 43.9618 213.323 44.038 213.467C44.148 213.695 44.2707 213.86 44.4061 213.962C44.2369 214.123 44.0168 214.203 43.746 214.203C43.4836 214.203 43.2382 214.161 43.0096 214.076C42.7811 213.992 42.5865 213.882 42.4257 213.746C42.0871 213.458 41.9179 213.154 41.9179 212.832C41.9179 212.502 41.9644 212.244 42.0575 212.058C41.6513 211.778 41.4481 211.406 41.4481 210.94C41.4481 210.475 41.6089 210.073 41.9305 209.734C41.6597 209.387 41.5243 209.07 41.5243 208.782C41.5243 208.486 41.5624 208.236 41.6386 208.033C41.7232 207.822 41.8374 207.635 41.9813 207.475C42.3029 207.145 42.688 206.979 43.1366 206.979C43.3567 206.979 43.5598 207.026 43.746 207.119C43.6275 207.305 43.5682 207.475 43.5682 207.627C43.5682 207.855 43.6952 207.97 43.9491 207.97C44.1184 207.97 44.4104 207.906 44.8251 207.779C45.7899 207.475 46.6786 207.322 47.4911 207.322C48.3036 207.322 49.0272 207.407 49.662 207.576C50.3052 207.737 50.8934 207.97 51.4266 208.274C52.5861 208.935 53.3055 209.789 53.5848 210.839C53.7541 211.423 54.1561 211.901 54.7909 212.273C54.1392 212.637 53.716 213.149 53.5214 213.81C53.1744 214.961 52.3703 215.815 51.1093 216.374C51.9556 216.696 52.675 217.132 53.2675 217.682C53.8684 218.223 54.2704 218.85 54.4735 219.561C54.6089 220.043 55.011 220.479 55.6796 220.868C55.0279 221.232 54.5878 221.786 54.3593 222.531C54.1392 223.276 53.7753 223.953 53.2675 224.562C52.7681 225.163 52.1884 225.663 51.5282 226.061C50.2164 226.856 48.7056 227.254 46.996 227.254C45.9296 227.254 44.9182 227.059 43.9618 226.67C43.801 226.602 43.6529 226.568 43.5175 226.568C43.272 226.568 43.1493 226.674 43.1493 226.886C43.1493 227.097 43.2085 227.288 43.327 227.457ZM49.8143 215.562C50.3137 215.477 50.648 214.702 50.8173 213.238C50.868 212.79 51.1727 212.468 51.7313 212.273C51.469 212.189 51.2447 212.024 51.0585 211.778C50.8807 211.524 50.7707 211.279 50.7284 211.042C50.6861 210.797 50.6226 210.576 50.538 210.382C50.4618 210.187 50.3729 210.014 50.2714 209.861C50.0513 209.54 49.8313 209.362 49.6112 209.328L49.7382 209.607C49.9413 210.031 50.0429 210.695 50.0429 211.601C50.0429 212.506 50.0386 213.12 50.0302 213.441C50.0302 213.763 50.0217 214.047 50.0048 214.292C49.9878 214.698 49.9244 215.121 49.8143 215.562ZM50.3221 224.448C50.593 224.397 50.7919 224.262 50.9188 224.042C51.122 223.695 51.2785 223.208 51.3886 222.582C51.5748 221.6 51.9006 221.029 52.3661 220.868C51.8414 220.707 51.5367 220.352 51.452 219.802C51.3589 219.26 51.1939 218.85 50.9569 218.57C50.5845 218.122 50.2671 217.876 50.0048 217.834C50.0386 217.91 50.0936 218.007 50.1698 218.126C50.246 218.244 50.3221 218.41 50.3983 218.621C50.5845 219.154 50.6776 219.776 50.6776 220.487C50.6776 221.198 50.6649 221.748 50.6395 222.138C50.6226 222.527 50.5972 222.878 50.5634 223.191C50.4957 223.801 50.4152 224.22 50.3221 224.448ZM59.5535 226.848C59.1642 227.118 58.7198 227.254 58.2205 227.254C57.7211 227.254 57.3572 227.14 57.1287 226.911C56.9086 226.674 56.7986 226.45 56.7986 226.238C56.7986 225.959 56.8451 225.756 56.9382 225.629C57.1244 225.773 57.3614 225.845 57.6492 225.845C58.1908 225.845 58.5421 225.582 58.7029 225.058V221.211C58.7029 220.822 58.6267 220.534 58.4744 220.348C58.2035 220.018 57.7634 219.704 57.1541 219.408C58.1866 218.934 58.7029 218.206 58.7029 217.225V215.892C58.7029 215.172 58.4574 214.783 57.9666 214.724C57.8227 214.707 57.6407 214.698 57.4207 214.698C57.2006 214.698 56.9975 214.77 56.8113 214.914C56.6928 214.753 56.6336 214.588 56.6336 214.419C56.6336 214.241 56.6759 214.047 56.7605 213.835C56.8536 213.615 56.9933 213.408 57.1795 213.213C57.6196 212.756 58.1316 212.527 58.7156 212.527C59.308 212.527 59.7989 212.62 60.1882 212.807C60.6537 212.282 61.1531 212.02 61.6863 212.02C62.5157 212.02 62.9304 212.477 62.9304 213.391V215.13C63.7768 213.048 65.1225 212.007 66.9675 212.007C67.797 212.007 68.4698 212.261 68.9861 212.769C69.5193 213.285 69.7859 214 69.7859 214.914V215.092C69.7859 215.151 69.7774 215.274 69.7605 215.46C69.7436 215.638 69.7478 215.82 69.7732 216.006C69.8071 216.192 69.8578 216.344 69.9255 216.463C70.0186 216.641 70.1922 216.78 70.4461 216.882C70.3868 217.11 70.2472 217.318 70.0271 217.504C69.8155 217.682 69.5785 217.771 69.3162 217.771H69.075C68.7449 218.185 68.2836 218.477 67.6912 218.646C67.5219 218.697 67.3357 218.723 67.1326 218.723C66.9379 218.723 66.7644 218.68 66.6121 218.596C66.4682 218.503 66.3878 218.405 66.3709 218.304C66.5317 218.228 66.6121 218.075 66.6121 217.847V217.783C66.5444 217.8 66.4851 217.809 66.4343 217.809H66.3074C66.0281 217.809 65.7742 217.703 65.5457 217.491C65.3256 217.28 65.1817 217.013 65.114 216.691C65.5711 216.708 65.9688 216.539 66.3074 216.184C66.6121 215.87 66.7644 215.549 66.7644 215.219C66.7644 214.44 66.4259 214.051 65.7488 214.051C65.1648 214.051 64.5766 214.516 63.9841 215.447C63.4255 216.302 63.0743 217.187 62.9304 218.101V224.969C63.0235 225.265 63.1674 225.485 63.3621 225.629C63.5567 225.773 63.8233 225.845 64.1619 225.845C64.5004 225.845 64.7628 225.773 64.949 225.629C65.0421 225.756 65.0886 225.942 65.0886 226.188C65.0886 226.433 64.9744 226.674 64.7459 226.911C64.5258 227.14 64.1492 227.254 63.616 227.254C63.0912 227.254 62.5877 227.11 62.1052 226.822C61.7667 227.11 61.3562 227.254 60.8738 227.254C60.3914 227.254 59.9513 227.118 59.5535 226.848ZM60.6453 220.83C60.6537 220.542 60.658 220.301 60.658 220.106C60.6664 219.912 60.6707 219.755 60.6707 219.637V219.294C60.6707 219.167 60.6664 219.006 60.658 218.812C60.658 218.608 60.6537 218.384 60.6453 218.139C60.6453 217.885 60.641 217.639 60.6326 217.402C60.5818 216.522 60.4845 215.959 60.3406 215.714C60.2052 215.46 60.0655 215.286 59.9216 215.193V216.019C59.9216 217.44 59.8878 218.278 59.8201 218.532C59.7608 218.778 59.6593 218.964 59.5154 219.091C59.38 219.209 59.1769 219.315 58.906 219.408C59.4138 219.586 59.7016 219.802 59.7693 220.056C59.8709 220.462 59.9216 221.376 59.9216 222.798V223.623C60.311 223.369 60.531 222.853 60.5818 222.074C60.6241 221.524 60.6453 221.109 60.6453 220.83ZM83.4352 227.254C82.5719 227.254 81.8991 226.788 81.4166 225.857C80.8157 226.551 80.0117 227.008 79.0045 227.229C78.7083 227.288 78.4163 227.317 78.1286 227.317C76.3512 227.317 74.9717 226.755 73.9899 225.629C73.0927 224.588 72.5892 223.115 72.4791 221.211C72.4622 220.839 72.3776 220.555 72.2252 220.36C71.9713 220.039 71.5397 219.73 70.9303 219.434C71.929 218.977 72.4495 218.274 72.4918 217.326C72.5342 216.378 72.6992 215.57 72.987 214.901C73.2832 214.224 73.6767 213.67 74.1676 213.238C75.1071 212.426 76.4189 212.02 78.1032 212.02C79.0257 212.02 79.8255 212.257 80.5026 212.73C80.7311 212.891 80.9258 213.077 81.0866 213.289V210.56C81.0866 209.595 80.693 209.112 79.9059 209.112C79.6181 209.112 79.3812 209.184 79.195 209.328C79.0765 209.167 79.0172 209.002 79.0172 208.833C79.0172 208.655 79.0595 208.486 79.1442 208.325C79.2373 208.164 79.3769 208.016 79.5631 207.881C79.9609 207.593 80.4645 207.449 81.0739 207.449C81.6832 207.449 82.1572 207.487 82.4957 207.563C82.9612 206.979 83.486 206.688 84.07 206.688C84.9417 206.688 85.3776 207.145 85.3776 208.059V217.745C85.3776 218.388 85.8939 218.947 86.9264 219.421C85.8939 219.886 85.3776 220.441 85.3776 221.084V224.893C85.623 225.527 85.9743 225.845 86.4313 225.845C86.7191 225.845 86.956 225.773 87.1422 225.629C87.2607 225.79 87.32 225.993 87.32 226.238C87.32 226.475 87.1972 226.704 86.9518 226.924C86.7148 227.144 86.3551 227.254 85.8727 227.254C85.3903 227.254 84.9417 227.118 84.527 226.848C84.1631 227.118 83.7991 227.254 83.4352 227.254ZM82.3053 223.636C82.7285 223.475 82.957 222.971 82.9909 222.125C82.9993 221.93 83.0036 221.693 83.0036 221.414C83.012 221.126 83.0205 220.809 83.0289 220.462C83.0374 220.115 83.0416 219.764 83.0416 219.408L83.067 218.393C83.067 218.062 83.067 217.775 83.067 217.529C83.0755 217.275 83.0797 217.076 83.0797 216.933V216.742C83.0797 216.717 83.0755 216.598 83.067 216.387C83.067 216.167 83.0628 215.9 83.0543 215.587C83.0543 215.265 83.0501 214.923 83.0416 214.559L83.0163 213.492C82.9993 212.714 82.9697 212.218 82.9274 212.007C82.8597 211.584 82.6523 211.292 82.3053 211.131V223.636ZM78.8014 213.873C77.4472 213.873 76.7702 214.868 76.7702 216.856V222.417C76.7702 223.966 77.2822 224.926 78.3063 225.299C78.5941 225.409 78.8776 225.464 79.1569 225.464C79.4446 225.464 79.7028 225.409 79.9313 225.299C80.1683 225.18 80.3714 225.028 80.5407 224.842C80.9046 224.427 81.0866 223.932 81.0866 223.356V216.856C81.0866 215.299 80.6126 214.355 79.6647 214.025C79.3854 213.924 79.0976 213.873 78.8014 213.873ZM74.7008 223.636C74.8193 223.543 74.8786 223.437 74.8786 223.318C74.8786 223.132 74.8405 222.895 74.7643 222.607C74.4173 221.279 74.2438 220.36 74.2438 219.853C74.2438 219.336 74.2607 218.93 74.2946 218.634C74.3284 218.338 74.375 218.046 74.4342 217.758C74.5442 217.148 74.6543 216.632 74.7643 216.209C74.8405 215.921 74.8786 215.727 74.8786 215.625C74.8786 215.422 74.8193 215.274 74.7008 215.181C74.3454 215.604 74.0745 216.175 73.8883 216.895C73.7021 217.614 73.5498 218.244 73.4313 218.786C73.389 219.006 73.1393 219.222 72.6823 219.434C73.1393 219.645 73.389 219.861 73.4313 220.081C73.7444 221.511 74.0026 222.417 74.2057 222.798C74.4088 223.179 74.5739 223.458 74.7008 223.636ZM89.8863 220.335C89.8185 220.216 89.7847 220.018 89.7847 219.738C89.7847 219.459 89.9201 219.18 90.1909 218.9C90.4702 218.621 90.8807 218.481 91.4224 218.481H97.3003C97.368 218.6 97.4019 218.799 97.4019 219.078C97.4019 219.357 97.2622 219.637 96.9829 219.916C96.7121 220.195 96.3058 220.335 95.7642 220.335H89.8863ZM103.777 226.848C103.286 227.271 102.833 227.482 102.418 227.482C102.012 227.482 101.703 227.381 101.492 227.178C101.288 226.983 101.187 226.725 101.187 226.403C101.382 226.31 101.53 226.209 101.631 226.099C101.487 225.667 101.415 225.151 101.415 224.55C101.415 223.949 101.517 223.348 101.72 222.747C101.932 222.138 102.241 221.566 102.647 221.033C103.375 220.094 104.598 219.112 106.316 218.088C107.34 217.402 108.064 216.708 108.487 216.006C108.995 215.143 109.248 214.051 109.248 212.73C109.248 210.259 108.406 209.023 106.722 209.023C105.867 209.023 105.144 209.32 104.551 209.912C103.916 210.547 103.599 211.414 103.599 212.515C103.599 213.615 103.815 214.436 104.246 214.978C104.052 215.138 103.849 215.219 103.637 215.219C103.434 215.219 103.222 215.181 103.002 215.104C102.782 215.02 102.579 214.897 102.393 214.736C101.97 214.347 101.758 213.89 101.758 213.365C101.758 212.832 101.826 212.413 101.961 212.108C101.513 211.812 101.288 211.427 101.288 210.953C101.288 210.479 101.449 210.073 101.771 209.734C101.5 209.387 101.365 209.07 101.365 208.782C101.365 208.486 101.403 208.236 101.479 208.033C101.564 207.822 101.682 207.635 101.834 207.475C102.148 207.145 102.528 206.979 102.977 206.979C103.197 206.979 103.4 207.026 103.586 207.119C103.468 207.28 103.409 207.449 103.409 207.627C103.409 207.855 103.536 207.97 103.789 207.97C103.959 207.97 104.272 207.894 104.729 207.741C105.567 207.462 106.494 207.322 107.509 207.322C108.525 207.322 109.342 207.386 109.959 207.513C110.586 207.64 111.153 207.843 111.661 208.122C112.685 208.681 113.489 209.599 114.073 210.877C114.343 211.495 114.746 211.96 115.279 212.273C114.771 212.561 114.348 213.128 114.009 213.975C113.391 215.481 112.371 216.725 110.95 217.707C110.459 218.037 109.82 218.397 109.033 218.786C108.246 219.167 107.526 219.552 106.874 219.941C106.223 220.331 105.694 220.695 105.287 221.033C104.534 221.66 104.077 222.307 103.916 222.976C105.093 223.179 106.341 223.28 107.662 223.28C108.982 223.28 109.904 223.242 110.429 223.166C110.954 223.081 111.373 222.954 111.686 222.785C112.27 222.489 112.562 222.007 112.562 221.338C112.562 221.092 112.511 220.881 112.41 220.703C112.46 220.585 112.604 220.525 112.841 220.525C113.078 220.525 113.286 220.572 113.463 220.665C113.649 220.758 113.81 220.881 113.946 221.033C114.233 221.372 114.377 221.799 114.377 222.315C114.377 222.832 114.17 223.306 113.755 223.737C114.077 223.949 114.238 224.245 114.238 224.626C114.238 225.007 114.128 225.307 113.908 225.527C114.026 225.722 114.085 225.921 114.085 226.124C114.085 226.319 114.047 226.488 113.971 226.632C113.903 226.767 113.81 226.882 113.692 226.975C113.438 227.161 113.116 227.254 112.727 227.254C112.338 227.254 111.974 227.169 111.635 227C110.408 227.169 109.138 227.254 107.827 227.254C106.523 227.254 105.173 227.118 103.777 226.848ZM109.464 209.201C110.091 209.904 110.404 211.004 110.404 212.502C110.404 213.966 110.285 214.982 110.048 215.549C110.387 215.481 110.679 215.126 110.924 214.482C111.009 214.245 111.072 214 111.115 213.746C111.165 213.492 111.204 213.293 111.229 213.149C111.263 213.006 111.314 212.879 111.381 212.769C111.508 212.549 111.732 212.383 112.054 212.273C111.716 212.163 111.508 212.049 111.432 211.931C111.356 211.804 111.301 211.681 111.267 211.562L111.14 211.118C110.928 210.365 110.56 209.806 110.036 209.442C109.858 209.315 109.667 209.235 109.464 209.201ZM112.13 224.22C111.233 224.618 109.803 224.816 107.839 224.816C105.876 224.816 104.522 224.651 103.777 224.321C103.743 224.372 103.739 224.448 103.764 224.55C103.789 224.651 103.836 224.744 103.904 224.829C103.971 224.914 104.153 224.994 104.45 225.07C104.754 225.146 105.101 225.206 105.491 225.248C106.083 225.324 106.726 225.362 107.42 225.362C108.114 225.362 108.681 225.354 109.121 225.337C109.57 225.32 109.989 225.29 110.378 225.248C111.284 225.138 111.826 224.965 112.003 224.728C112.113 224.584 112.156 224.414 112.13 224.22ZM119.889 227.457C119.457 227.652 119.081 227.673 118.759 227.521C118.437 227.377 118.2 227.224 118.048 227.063C117.71 226.716 117.54 226.336 117.54 225.921C117.54 225.506 117.676 225.138 117.947 224.816C117.616 224.444 117.451 224 117.451 223.483C117.451 222.967 117.68 222.565 118.137 222.277C118.078 222.066 118.048 221.778 118.048 221.414C118.048 221.05 118.09 220.754 118.175 220.525C118.268 220.297 118.395 220.094 118.556 219.916C118.92 219.544 119.377 219.357 119.927 219.357C120.164 219.357 120.371 219.438 120.549 219.599C120.117 220.149 119.902 220.961 119.902 222.036C119.902 223.128 120.266 223.995 120.993 224.639C121.679 225.231 122.551 225.527 123.609 225.527C124.827 225.527 125.665 224.867 126.122 223.547C126.283 223.056 126.364 222.455 126.364 221.744V219.967C126.364 218.215 125.928 217.047 125.056 216.463C124.768 216.26 124.353 216.158 123.812 216.158C123.279 216.158 122.8 216.205 122.377 216.298C121.954 216.382 121.603 216.48 121.324 216.59C121.044 216.7 120.807 216.801 120.613 216.895C120.426 216.979 120.227 217.021 120.016 217.021C119.034 217.021 118.56 216.564 118.594 215.65V209.1C118.628 208.245 118.81 207.703 119.14 207.475C119.275 207.373 119.5 207.322 119.813 207.322C120.134 207.322 120.409 207.492 120.638 207.83C121.772 207.492 122.855 207.322 123.888 207.322C124.929 207.322 126.148 207.415 127.544 207.602C128.01 207.415 128.412 207.322 128.75 207.322C129.089 207.322 129.334 207.348 129.487 207.398C129.639 207.441 129.779 207.508 129.906 207.602C130.168 207.805 130.299 208.046 130.299 208.325C130.299 208.596 130.206 208.854 130.02 209.1C130.308 209.311 130.451 209.612 130.451 210.001C130.451 210.39 130.316 210.699 130.045 210.928C130.198 211.131 130.274 211.368 130.274 211.639C130.274 211.901 130.24 212.117 130.172 212.286C130.104 212.455 130.007 212.604 129.88 212.73C129.601 213.035 129.267 213.188 128.877 213.188C128.505 213.188 128.293 213.077 128.242 212.857C128.352 212.739 128.408 212.544 128.408 212.273C128.408 211.994 128.319 211.787 128.141 211.651C127.972 211.507 127.697 211.381 127.316 211.271C126.495 211.034 125.39 210.915 124.002 210.915C122.623 210.915 121.476 211.08 120.562 211.41V215.473C121.704 214.796 123.126 214.457 124.827 214.457C127.544 214.457 129.415 215.308 130.439 217.009C130.769 217.567 130.985 218.075 131.086 218.532C131.196 218.989 131.298 219.294 131.391 219.446C131.484 219.59 131.59 219.721 131.708 219.84C131.869 220.026 132.098 220.204 132.394 220.373C131.683 220.771 131.26 221.283 131.124 221.909C130.693 223.898 129.922 225.29 128.814 226.086C127.73 226.865 126.105 227.254 123.939 227.254C122.618 227.254 121.484 227.059 120.536 226.67C120.367 226.602 120.215 226.568 120.079 226.568C119.834 226.568 119.711 226.674 119.711 226.886C119.711 227.097 119.77 227.288 119.889 227.457ZM120.663 209.76C121.273 209.43 122.441 209.265 124.167 209.265C125.894 209.265 127.155 209.464 127.95 209.861C127.976 209.607 127.917 209.409 127.773 209.265C127.637 209.112 127.273 208.981 126.681 208.871C126.088 208.753 125.458 208.693 124.789 208.693C124.129 208.693 123.604 208.706 123.215 208.731C122.834 208.757 122.483 208.795 122.161 208.846C121.467 208.939 121.032 209.066 120.854 209.227C120.685 209.379 120.621 209.557 120.663 209.76ZM126.783 216.818C127.316 217.775 127.582 218.955 127.582 220.36C127.582 222.273 127.421 223.551 127.1 224.194C127.396 224.135 127.616 223.983 127.76 223.737C127.997 223.314 128.175 222.777 128.293 222.125C128.412 221.465 128.556 221.025 128.725 220.805C128.894 220.576 129.076 220.428 129.271 220.36C129.025 220.284 128.822 220.123 128.661 219.878C128.501 219.632 128.374 219.277 128.281 218.812C128.187 218.346 127.993 217.91 127.697 217.504C127.409 217.098 127.104 216.869 126.783 216.818ZM142.336 225.146C142.497 224.977 142.624 224.766 142.717 224.512C142.81 224.249 142.857 223.979 142.857 223.699C142.857 223.411 142.84 223.149 142.806 222.912C142.865 222.785 143.026 222.688 143.288 222.62C143.551 222.544 143.724 222.506 143.809 222.506C144.13 222.506 144.388 222.629 144.583 222.874C144.778 223.111 144.875 223.445 144.875 223.877C144.875 224.3 144.748 224.719 144.494 225.134C144.249 225.549 143.919 225.917 143.504 226.238C142.582 226.958 141.507 227.317 140.279 227.317C137.944 227.317 136.395 226.433 135.633 224.664C135.354 224.012 135.214 223.196 135.214 222.214V220.665C135.214 220.267 134.778 219.848 133.906 219.408C134.778 218.909 135.214 218.236 135.214 217.39V215.892C135.214 214.927 134.82 214.444 134.033 214.444C133.746 214.444 133.509 214.516 133.322 214.66C133.204 214.499 133.145 214.334 133.145 214.165C133.145 213.987 133.174 213.797 133.234 213.594C133.301 213.382 133.416 213.192 133.576 213.022C133.983 212.582 134.613 212.43 135.468 212.565V212.159C135.468 211.271 135.692 210.488 136.141 209.811C136.539 209.201 136.89 208.896 137.194 208.896C137.508 208.896 137.749 209.002 137.918 209.214C138.062 208.545 138.252 208.063 138.489 207.767C138.726 207.47 139.065 207.322 139.505 207.322V212.616H143.631C143.699 212.752 143.733 212.98 143.733 213.302C143.733 213.615 143.61 213.869 143.364 214.063C143.119 214.25 142.823 214.343 142.476 214.343H139.505V222.938C139.505 224.41 139.839 225.273 140.508 225.527C140.703 225.595 140.91 225.629 141.13 225.629C141.359 225.629 141.574 225.591 141.777 225.515C141.989 225.43 142.175 225.307 142.336 225.146ZM136.433 223.636C136.831 223.382 137.055 222.853 137.106 222.049C137.139 221.473 137.156 221.025 137.156 220.703C137.165 220.382 137.169 220.123 137.169 219.929C137.178 219.726 137.182 219.569 137.182 219.459V218.951C137.182 218.706 137.178 218.393 137.169 218.012C137.169 217.622 137.165 217.203 137.156 216.755C137.156 216.298 137.148 215.862 137.131 215.447C137.106 214.449 137.068 213.839 137.017 213.619C136.915 213.128 136.721 212.79 136.433 212.604V216.564C136.433 217.741 136.412 218.363 136.369 218.431C136.335 218.498 136.306 218.579 136.28 218.672C136.204 218.926 135.916 219.137 135.417 219.307C135.925 219.484 136.213 219.7 136.28 219.954C136.382 220.36 136.433 221.312 136.433 222.811V223.636ZM148.394 226.848C148.004 227.118 147.56 227.254 147.061 227.254C146.57 227.254 146.202 227.144 145.956 226.924C145.719 226.704 145.601 226.492 145.601 226.289C145.601 226.01 145.66 225.79 145.778 225.629C145.965 225.773 146.202 225.845 146.489 225.845C146.98 225.845 147.331 225.561 147.543 224.994V221.084C147.543 220.661 147.463 220.373 147.302 220.221C147.107 220.018 146.671 219.751 145.994 219.421C146.587 219.15 146.963 218.934 147.124 218.773C147.403 218.494 147.543 218.151 147.543 217.745V210.56C147.543 209.595 147.149 209.112 146.362 209.112C146.075 209.112 145.838 209.184 145.651 209.328C145.533 209.167 145.474 209.002 145.474 208.833C145.474 208.655 145.516 208.486 145.601 208.325C145.694 208.164 145.829 208.016 146.007 207.881C146.413 207.593 146.921 207.449 147.53 207.449C148.14 207.449 148.614 207.487 148.952 207.563C149.418 206.979 149.942 206.688 150.526 206.688C151.398 206.688 151.834 207.145 151.834 208.059V214.317C152.655 212.785 153.996 212.02 155.858 212.02C157.991 212.02 159.35 212.963 159.934 214.851C160.12 215.451 160.213 216.133 160.213 216.895V217.745C160.213 218.143 160.302 218.431 160.48 218.608C160.742 218.871 161.169 219.137 161.762 219.408C161.119 219.721 160.721 219.963 160.568 220.132C160.331 220.394 160.213 220.712 160.213 221.084V225.058C160.374 225.582 160.725 225.845 161.267 225.845C161.554 225.845 161.791 225.773 161.978 225.629C162.071 225.756 162.117 225.942 162.117 226.188C162.117 226.433 162.003 226.674 161.774 226.911C161.554 227.14 161.199 227.254 160.708 227.254C160.217 227.254 159.764 227.118 159.35 226.848C158.969 227.118 158.537 227.254 158.055 227.254C157.581 227.254 157.166 227.127 156.811 226.873C156.481 227.127 156.108 227.254 155.693 227.254C155.287 227.254 154.961 227.148 154.716 226.937C154.47 226.725 154.348 226.42 154.348 226.022C154.348 225.836 154.411 225.688 154.538 225.578C154.733 225.73 154.927 225.807 155.122 225.807C155.495 225.807 155.761 225.599 155.922 225.185V217.618C155.922 215.968 155.52 215.016 154.716 214.762C154.462 214.677 154.187 214.635 153.891 214.635C153.01 214.635 152.397 215.1 152.05 216.031C151.94 216.319 151.868 216.632 151.834 216.971V225.185C151.995 225.599 152.261 225.807 152.634 225.807C152.828 225.807 153.023 225.73 153.218 225.578C153.345 225.688 153.408 225.891 153.408 226.188C153.408 226.475 153.286 226.725 153.04 226.937C152.795 227.148 152.465 227.254 152.05 227.254C151.635 227.254 151.263 227.127 150.933 226.873C150.586 227.127 150.175 227.254 149.701 227.254C149.227 227.254 148.791 227.118 148.394 226.848ZM148.736 223.623C149.117 223.378 149.342 222.84 149.409 222.011C149.435 221.647 149.452 221.241 149.46 220.792C149.468 220.343 149.473 220.026 149.473 219.84C149.481 219.645 149.485 219.501 149.485 219.408V218.266C149.485 217.952 149.485 217.597 149.485 217.199L149.46 215.955C149.443 213.712 149.405 212.464 149.346 212.21C149.227 211.677 149.024 211.317 148.736 211.131V215.409C148.736 217.161 148.715 218.139 148.673 218.342C148.639 218.536 148.609 218.68 148.584 218.773C148.508 219.036 148.22 219.252 147.721 219.421C148.229 219.599 148.516 219.81 148.584 220.056C148.686 220.462 148.736 221.376 148.736 222.798V223.623ZM157.128 223.636C157.551 223.475 157.788 222.921 157.839 221.973C157.881 221.025 157.902 220.157 157.902 219.37C157.902 218.575 157.877 217.927 157.826 217.428C157.775 216.928 157.691 216.535 157.572 216.247C157.462 215.951 157.318 215.731 157.141 215.587C156.963 215.435 156.747 215.295 156.493 215.168C156.815 215.93 157.001 216.624 157.052 217.25C157.103 217.876 157.128 218.481 157.128 219.065V223.636ZM176.86 226.86C176.42 227.123 175.912 227.254 175.337 227.254C174.77 227.254 174.27 227.118 173.839 226.848C173.407 227.118 173.005 227.254 172.633 227.254C172.269 227.254 171.968 227.22 171.731 227.152C171.494 227.093 171.291 227.008 171.122 226.898C170.749 226.678 170.563 226.403 170.563 226.073C170.563 225.904 170.61 225.756 170.703 225.629C170.889 225.773 171.126 225.845 171.414 225.845C172.167 225.845 172.688 225.523 172.975 224.88V218.659C172.975 218.278 172.899 217.995 172.747 217.809C172.485 217.495 172.044 217.187 171.427 216.882C172.002 216.619 172.374 216.387 172.544 216.184C172.832 215.854 172.975 215.481 172.975 215.066V209.709C172.688 209.057 172.167 208.731 171.414 208.731C171.067 208.731 170.8 208.803 170.614 208.947C170.521 208.82 170.474 208.676 170.474 208.516C170.474 208.346 170.525 208.19 170.627 208.046C170.737 207.902 170.885 207.779 171.071 207.678C171.469 207.441 171.922 207.322 172.429 207.322C172.946 207.322 173.415 207.462 173.839 207.741C174.279 207.462 174.782 207.322 175.349 207.322C175.925 207.322 176.445 207.492 176.911 207.83C177.85 207.492 178.968 207.322 180.262 207.322C181.083 207.322 181.786 207.407 182.37 207.576L183.462 207.881C183.597 207.915 183.728 207.932 183.855 207.932C184.092 207.932 184.211 207.762 184.211 207.424C184.211 207.339 184.181 207.195 184.122 206.992C184.359 206.95 184.659 206.929 185.023 206.929C185.387 206.929 185.696 207.051 185.95 207.297C186.204 207.534 186.331 207.889 186.331 208.363C186.331 208.829 186.238 209.188 186.052 209.442C186.305 209.832 186.432 210.289 186.432 210.813C186.432 211.338 186.263 211.791 185.925 212.172C186.035 212.443 186.09 212.718 186.09 212.997C186.09 213.268 186.052 213.509 185.975 213.721C185.899 213.932 185.802 214.11 185.683 214.254C185.446 214.542 185.163 214.686 184.833 214.686C184.537 214.686 184.253 214.614 183.982 214.47C184.092 214.241 184.147 213.97 184.147 213.657C184.147 213.336 184.13 213.069 184.096 212.857C184.071 212.637 184.029 212.409 183.97 212.172C183.851 211.639 183.652 211.114 183.373 210.598C182.814 209.557 181.938 209.036 180.745 209.036C179.264 209.036 178.231 209.421 177.647 210.191V216.057C177.918 216.209 178.168 216.285 178.396 216.285C178.625 216.285 178.811 216.281 178.955 216.272C179.099 216.264 179.243 216.251 179.387 216.234C179.75 216.192 180.026 216.124 180.212 216.031C180.576 215.862 180.758 215.481 180.758 214.889C180.758 214.288 180.669 213.839 180.491 213.543C180.626 213.424 180.838 213.365 181.126 213.365C181.693 213.365 182.103 213.657 182.357 214.241C182.45 214.453 182.497 214.677 182.497 214.914C182.497 215.143 182.446 215.401 182.345 215.688C182.692 216.086 182.865 216.56 182.865 217.11C182.865 217.652 182.692 218.122 182.345 218.52C182.446 218.807 182.497 219.07 182.497 219.307C182.497 219.535 182.45 219.755 182.357 219.967C182.264 220.178 182.15 220.348 182.014 220.475C181.752 220.712 181.456 220.83 181.126 220.83C180.889 220.83 180.677 220.762 180.491 220.627C180.669 220.331 180.758 219.984 180.758 219.586C180.758 218.799 180.542 218.312 180.11 218.126C179.746 217.982 179.31 217.91 178.803 217.91C178.303 217.91 177.918 217.986 177.647 218.139V224.842C177.969 225.51 178.574 225.845 179.463 225.845C179.75 225.845 179.987 225.773 180.174 225.629C180.267 225.756 180.313 225.904 180.313 226.073C180.313 226.234 180.262 226.386 180.161 226.53C180.068 226.674 179.932 226.797 179.755 226.898C179.374 227.135 178.917 227.254 178.384 227.254C177.859 227.254 177.351 227.123 176.86 226.86ZM174.194 223.636C174.617 223.475 174.854 222.921 174.905 221.973C174.947 221.025 174.969 219.713 174.969 218.037C174.969 216.361 174.964 215.248 174.956 214.698C174.956 214.14 174.952 213.691 174.943 213.353C174.918 212.354 174.82 211.753 174.651 211.55C174.49 211.338 174.338 211.199 174.194 211.131C174.194 214.076 174.143 215.752 174.042 216.158C173.923 216.497 173.636 216.738 173.179 216.882C173.686 217.06 173.974 217.275 174.042 217.529C174.143 217.936 174.194 219.421 174.194 221.985V223.636ZM199.307 223.166C199.494 222.811 199.836 222.633 200.336 222.633C200.674 222.633 200.937 222.772 201.123 223.052C201.275 223.272 201.351 223.543 201.351 223.864C201.351 224.177 201.271 224.495 201.11 224.816C200.949 225.138 200.729 225.43 200.45 225.692C200.171 225.955 199.849 226.188 199.485 226.391C199.13 226.594 198.749 226.763 198.342 226.898C197.505 227.178 196.633 227.317 195.727 227.317C194.822 227.317 193.971 227.169 193.175 226.873C192.388 226.568 191.711 226.145 191.144 225.604C190.036 224.537 189.358 223.073 189.113 221.211C189.054 220.796 188.956 220.5 188.821 220.322C188.567 220.009 188.148 219.709 187.564 219.421C188.3 219.091 188.77 218.562 188.973 217.834C189.033 217.631 189.079 217.428 189.113 217.225C189.325 215.735 190.078 214.465 191.373 213.416C192.625 212.4 194.026 211.893 195.575 211.893C197.183 211.893 198.575 212.46 199.752 213.594C200.97 214.762 201.58 216.196 201.58 217.897C201.58 217.957 201.576 218.016 201.567 218.075C201.567 218.134 201.571 218.189 201.58 218.24C201.597 218.35 201.664 218.414 201.783 218.431C201.935 218.625 202.011 218.833 202.011 219.053C202.011 219.561 201.741 219.861 201.199 219.954C201.063 219.979 200.852 220.013 200.564 220.056L193.404 221.198V222.417C193.404 223.399 193.7 224.177 194.293 224.753C194.851 225.303 195.558 225.578 196.413 225.578C197.318 225.578 198.046 225.392 198.596 225.02C199.113 224.664 199.371 224.199 199.371 223.623C199.371 223.488 199.35 223.335 199.307 223.166ZM197.086 219.065V215.511C197.086 214.952 196.976 214.542 196.756 214.279C196.366 213.831 195.981 213.606 195.6 213.606C195.219 213.606 194.902 213.666 194.648 213.784C194.394 213.894 194.174 214.072 193.988 214.317C193.599 214.834 193.404 215.638 193.404 216.729V219.662L197.086 219.065ZM198.965 218.748V218.354C198.965 216.78 198.833 215.828 198.571 215.498C198.452 215.354 198.321 215.248 198.177 215.181V218.875L198.965 218.748ZM191.335 223.636C191.453 223.543 191.512 223.437 191.512 223.318C191.512 223.132 191.474 222.895 191.398 222.607C191.051 221.279 190.878 220.356 190.878 219.84C190.878 219.315 190.895 218.909 190.928 218.621C190.962 218.325 191.009 218.029 191.068 217.732C191.17 217.157 191.28 216.649 191.398 216.209C191.474 215.921 191.512 215.727 191.512 215.625C191.512 215.422 191.453 215.274 191.335 215.181C190.979 215.604 190.708 216.171 190.522 216.882C190.336 217.593 190.184 218.219 190.065 218.761C190.023 218.989 189.773 219.209 189.316 219.421C189.773 219.632 190.023 219.844 190.065 220.056C190.378 221.486 190.636 222.396 190.84 222.785C191.043 223.174 191.208 223.458 191.335 223.636ZM209.58 226.111C208.657 226.873 207.718 227.254 206.761 227.254C205.906 227.254 205.382 227.144 205.187 226.924C205.373 226.695 205.475 226.353 205.492 225.896C205.509 225.438 205.517 225.011 205.517 224.613V221.084C205.517 220.712 205.437 220.441 205.276 220.271C205.047 220.009 204.612 219.721 203.968 219.408C204.561 219.137 204.937 218.922 205.098 218.761C205.378 218.481 205.517 218.143 205.517 217.745V210.56C205.517 209.595 205.124 209.112 204.336 209.112C204.049 209.112 203.812 209.184 203.626 209.328C203.507 209.167 203.448 209.002 203.448 208.833C203.448 208.655 203.49 208.486 203.575 208.325C203.668 208.164 203.803 208.016 203.981 207.881C204.387 207.593 204.895 207.449 205.504 207.449C206.114 207.449 206.592 207.487 206.939 207.563C207.447 206.979 207.967 206.688 208.501 206.688C209.372 206.688 209.808 207.145 209.808 208.059V213.492C210.46 212.84 211.332 212.388 212.423 212.134C212.753 212.058 213.181 212.02 213.706 212.02C214.23 212.02 214.78 212.096 215.356 212.248C215.932 212.4 216.431 212.671 216.854 213.061C217.7 213.839 218.221 215.227 218.416 217.225C218.5 218.266 219.016 219.002 219.964 219.434C219.364 219.73 218.983 219.979 218.822 220.183C218.602 220.47 218.466 220.813 218.416 221.211C218.17 223.251 217.645 224.757 216.841 225.73C215.961 226.788 214.687 227.317 213.02 227.317C212.165 227.317 211.285 227.085 210.379 226.619C210.083 226.475 209.817 226.306 209.58 226.111ZM208.589 211.131C208.242 211.292 208.031 211.596 207.955 212.045C207.862 212.604 207.815 213.526 207.815 214.812V216.768V217.174C207.823 217.631 207.832 218.253 207.84 219.04C207.849 219.819 207.857 220.42 207.866 220.843C207.883 221.757 207.908 222.337 207.942 222.582C207.976 222.827 208.052 223.052 208.17 223.255C208.297 223.45 208.437 223.576 208.589 223.636V211.131ZM209.808 222.976C209.808 223.661 210.041 224.249 210.506 224.74C210.947 225.223 211.446 225.464 212.004 225.464C213.418 225.464 214.125 224.448 214.125 222.417V216.856C214.125 215.265 213.756 214.322 213.02 214.025C212.783 213.924 212.516 213.873 212.22 213.873C211.137 213.873 210.405 214.394 210.024 215.435C209.88 215.815 209.808 216.289 209.808 216.856V222.976ZM215.343 223.636C215.766 223.475 215.999 222.921 216.042 221.973C216.092 221.025 216.118 220.322 216.118 219.865C216.118 219.4 216.114 219.015 216.105 218.71C216.105 218.397 216.101 218.075 216.092 217.745C216.058 216.509 215.961 215.79 215.8 215.587C215.64 215.384 215.487 215.248 215.343 215.181V223.636Z" fill="#60231A"/>
<defs>
<linearGradient id="paint0_linear_634_105" x1="188.973" y1="296.311" x2="188.973" y2="315.22" gradientUnits="userSpaceOnUse">
<stop stop-color="#FFA352"/>
<stop offset="1" stop-color="#AC5406"/>
</linearGradient>
<linearGradient id="paint1_linear_634_105" x1="177.521" y1="280.28" x2="177.521" y2="311.105" gradientUnits="userSpaceOnUse">
<stop stop-color="#FFA352"/>
<stop offset="1" stop-color="#AC5406"/>
</linearGradient>
<linearGradient id="paint2_linear_634_105" x1="162.644" y1="270.879" x2="162.644" y2="308.254" gradientUnits="userSpaceOnUse">
<stop stop-color="#FFA352"/>
<stop offset="1" stop-color="#AC5406"/>
</linearGradient>
<linearGradient id="paint3_linear_634_105" x1="147.688" y1="269.97" x2="147.688" y2="306.345" gradientUnits="userSpaceOnUse">
<stop stop-color="#FFA352"/>
<stop offset="1" stop-color="#AC5406"/>
</linearGradient>
<linearGradient id="paint4_linear_634_105" x1="187.366" y1="309.93" x2="187.366" y2="323.171" gradientUnits="userSpaceOnUse">
<stop stop-color="#FFA352"/>
<stop offset="1" stop-color="#AC5406"/>
</linearGradient>
<linearGradient id="paint5_linear_634_105" x1="73.1601" y1="296.311" x2="73.1601" y2="315.22" gradientUnits="userSpaceOnUse">
<stop stop-color="#FFA352"/>
<stop offset="1" stop-color="#AC5406"/>
</linearGradient>
<linearGradient id="paint6_linear_634_105" x1="84.6025" y1="280.28" x2="84.6025" y2="311.105" gradientUnits="userSpaceOnUse">
<stop stop-color="#FFA352"/>
<stop offset="1" stop-color="#AC5406"/>
</linearGradient>
<linearGradient id="paint7_linear_634_105" x1="99.4802" y1="270.879" x2="99.4802" y2="308.254" gradientUnits="userSpaceOnUse">
<stop stop-color="#FFA352"/>
<stop offset="1" stop-color="#AC5406"/>
</linearGradient>
<linearGradient id="paint8_linear_634_105" x1="114.442" y1="269.97" x2="114.442" y2="306.345" gradientUnits="userSpaceOnUse">
<stop stop-color="#FFA352"/>
<stop offset="1" stop-color="#AC5406"/>
</linearGradient>
<linearGradient id="paint9_linear_634_105" x1="74.7643" y1="309.93" x2="74.7643" y2="323.17" gradientUnits="userSpaceOnUse">
<stop stop-color="#FFA352"/>
<stop offset="1" stop-color="#AC5406"/>
</linearGradient>
<radialGradient id="paint10_radial_634_105" cx="0" cy="0" r="1" gradientUnits="userSpaceOnUse" gradientTransform="translate(131.596 358.071) rotate(90) scale(34.354 32.0886)">
<stop stop-color="#FFE330"/>
<stop offset="1" stop-color="#FF7700"/>
</radialGradient>
</defs>
</svg>
