<svg width="412" height="755" viewBox="0 0 412 755" fill="none" xmlns="http://www.w3.org/2000/svg">
<g clip-path="url(#clip0_1701_120)">
<rect width="412" height="755" fill="#072764"/>
<path d="M91.6484 17.5795L114.536 25.9067L137.423 17.5795" stroke="#E69724" stroke-width="3" stroke-miterlimit="10" stroke-linecap="round" stroke-linejoin="round"/>
<path d="M114.537 25.9067L91.6495 17.5795L68.7617 25.9067" stroke="#E69724" stroke-width="3" stroke-miterlimit="10" stroke-linecap="round" stroke-linejoin="round"/>
<path d="M45.7695 17.5795L68.6567 25.9067L91.5445 17.5795" stroke="#E69724" stroke-width="3" stroke-miterlimit="10" stroke-linecap="round" stroke-linejoin="round"/>
<path d="M183.148 17.5795L206.036 25.9067L228.923 17.5795" stroke="#E69724" stroke-width="3" stroke-miterlimit="10" stroke-linecap="round" stroke-linejoin="round"/>
<path d="M206.041 25.9067L183.153 17.5795L160.266 25.9067" stroke="#E69724" stroke-width="3" stroke-miterlimit="10" stroke-linecap="round" stroke-linejoin="round"/>
<path d="M137.273 17.5795L160.161 25.9067L183.048 17.5795" stroke="#E69724" stroke-width="3" stroke-miterlimit="10" stroke-linecap="round" stroke-linejoin="round"/>
<path d="M0 17.5795L22.8871 25.9067L45.775 17.5795" stroke="#E69724" stroke-width="3" stroke-miterlimit="10" stroke-linecap="round" stroke-linejoin="round"/>
<path d="M274.723 17.5795L297.61 25.9067L320.498 17.5795" stroke="#E69724" stroke-width="3" stroke-miterlimit="10" stroke-linecap="round" stroke-linejoin="round"/>
<path d="M297.611 25.9067L274.723 17.5795L251.836 25.9067" stroke="#E69724" stroke-width="3" stroke-miterlimit="10" stroke-linecap="round" stroke-linejoin="round"/>
<path d="M228.852 17.5795L251.739 25.9067L274.627 17.5795" stroke="#E69724" stroke-width="3" stroke-miterlimit="10" stroke-linecap="round" stroke-linejoin="round"/>
<path d="M366.227 17.5795L389.114 25.9067L412.002 17.5795" stroke="#E69724" stroke-width="3" stroke-miterlimit="10" stroke-linecap="round" stroke-linejoin="round"/>
<path d="M389.111 25.9067L366.224 17.5795L343.336 25.9067" stroke="#E69724" stroke-width="3" stroke-miterlimit="10" stroke-linecap="round" stroke-linejoin="round"/>
<path d="M320.352 17.5795L343.239 25.9067L366.127 17.5795" stroke="#E69724" stroke-width="3" stroke-miterlimit="10" stroke-linecap="round" stroke-linejoin="round"/>
<path d="M25.0759 18.0424C25.0759 16.2539 24.0997 14.804 22.8954 14.804C21.6911 14.804 20.7148 16.2539 20.7148 18.0424C20.7148 19.8309 21.6911 21.2808 22.8954 21.2808C24.0997 21.2808 25.0759 19.8309 25.0759 18.0424Z" fill="#FBF3D8"/>
<path d="M47.9705 26.3696C47.9705 24.5811 46.9942 23.1312 45.7899 23.1312C44.5856 23.1312 43.6094 24.5811 43.6094 26.3696C43.6094 28.158 44.5856 29.6079 45.7899 29.6079C46.9942 29.6079 47.9705 28.158 47.9705 26.3696Z" fill="#BAE178"/>
<path d="M93.7634 26.3696C93.7634 24.5811 92.7872 23.1312 91.5829 23.1312C90.3786 23.1312 89.4023 24.5811 89.4023 26.3696C89.4023 28.158 90.3786 29.6079 91.5829 29.6079C92.7872 29.6079 93.7634 28.158 93.7634 26.3696Z" fill="#BAE178"/>
<path d="M139.552 26.3696C139.552 24.5811 138.576 23.1312 137.372 23.1312C136.168 23.1312 135.191 24.5811 135.191 26.3696C135.191 28.158 136.168 29.6079 137.372 29.6079C138.576 29.6079 139.552 28.158 139.552 26.3696Z" fill="#BAE178"/>
<path d="M185.349 26.3696C185.349 24.5811 184.373 23.1312 183.169 23.1312C181.965 23.1312 180.988 24.5811 180.988 26.3696C180.988 28.158 181.965 29.6079 183.169 29.6079C184.373 29.6079 185.349 28.158 185.349 26.3696Z" fill="#BAE178"/>
<path d="M231.138 26.3696C231.138 24.5811 230.162 23.1312 228.958 23.1312C227.754 23.1312 226.777 24.5811 226.777 26.3696C226.777 28.158 227.754 29.6079 228.958 29.6079C230.162 29.6079 231.138 28.158 231.138 26.3696Z" fill="#BAE178"/>
<path d="M276.927 26.3696C276.927 24.5811 275.951 23.1312 274.747 23.1312C273.543 23.1312 272.566 24.5811 272.566 26.3696C272.566 28.158 273.543 29.6079 274.747 29.6079C275.951 29.6079 276.927 28.158 276.927 26.3696Z" fill="#BAE178"/>
<path d="M322.72 26.3696C322.72 24.5811 321.744 23.1312 320.54 23.1312C319.336 23.1312 318.359 24.5811 318.359 26.3696C318.359 28.158 319.336 29.6079 320.54 29.6079C321.744 29.6079 322.72 28.158 322.72 26.3696Z" fill="#BAE178"/>
<path d="M368.51 26.3696C368.51 24.5811 367.533 23.1312 366.329 23.1312C365.125 23.1312 364.148 24.5811 364.148 26.3696C364.148 28.158 365.125 29.6079 366.329 29.6079C367.533 29.6079 368.51 28.158 368.51 26.3696Z" fill="#BAE178"/>
<path d="M70.865 18.0424C70.865 16.2539 69.8887 14.804 68.6844 14.804C67.4802 14.804 66.5039 16.2539 66.5039 18.0424C66.5039 19.8309 67.4802 21.2808 68.6844 21.2808C69.8887 21.2808 70.865 19.8309 70.865 18.0424Z" fill="#FBF3D8"/>
<path d="M116.658 18.5048C116.658 16.7163 115.682 15.2664 114.477 15.2664C113.273 15.2664 112.297 16.7163 112.297 18.5048C112.297 20.2933 113.273 21.7432 114.477 21.7432C115.682 21.7432 116.658 20.2933 116.658 18.5048Z" fill="#FBF3D8"/>
<path d="M162.447 18.9677C162.447 17.1792 161.471 15.7293 160.266 15.7293C159.062 15.7293 158.086 17.1792 158.086 18.9677C158.086 20.7562 159.062 22.2061 160.266 22.2061C161.471 22.2061 162.447 20.7562 162.447 18.9677Z" fill="#FBF3D8"/>
<path d="M208.244 19.4301C208.244 17.6416 207.268 16.1917 206.063 16.1917C204.859 16.1917 203.883 17.6416 203.883 19.4301C203.883 21.2186 204.859 22.6685 206.063 22.6685C207.268 22.6685 208.244 21.2186 208.244 19.4301Z" fill="#FBF3D8"/>
<path d="M254.033 19.893C254.033 18.1045 253.057 16.6546 251.852 16.6546C250.648 16.6546 249.672 18.1045 249.672 19.893C249.672 21.6815 250.648 23.1313 251.852 23.1313C253.057 23.1313 254.033 21.6815 254.033 19.893Z" fill="#FBF3D8"/>
<path d="M299.826 20.3554C299.826 18.5669 298.85 17.117 297.645 17.117C296.441 17.117 295.465 18.5669 295.465 20.3554C295.465 22.1439 296.441 23.5938 297.645 23.5938C298.85 23.5938 299.826 22.1439 299.826 20.3554Z" fill="#FBF3D8"/>
<path d="M345.615 20.8183C345.615 19.0298 344.639 17.5799 343.434 17.5799C342.23 17.5799 341.254 19.0298 341.254 20.8183C341.254 22.6068 342.23 24.0566 343.434 24.0566C344.639 24.0566 345.615 22.6068 345.615 20.8183Z" fill="#FBF3D8"/>
<path d="M391.412 20.3554C391.412 18.5669 390.436 17.117 389.231 17.117C388.027 17.117 387.051 18.5669 387.051 20.3554C387.051 22.1439 388.027 23.5938 389.231 23.5938C390.436 23.5938 391.412 22.1439 391.412 20.3554Z" fill="#FBF3D8"/>
<path d="M413.004 44.4116V43.4863H0.00146484V44.4116H413.004Z" fill="#FBF3D8"/>
<path d="M413.004 693.925V693H0.00146484V693.925H413.004Z" fill="#FBF3D8"/>
<path d="M412 37.9349V35.1592H0V37.9349H412Z" fill="#BAE178"/>
<path d="M412 700.776V698H0V700.776H412Z" fill="#BAE178"/>
</g>
<defs>
<clipPath id="clip0_1701_120">
<rect width="412" height="755" fill="white"/>
</clipPath>
</defs>
</svg>
