<svg width="1512" height="574" viewBox="0 0 1512 574" fill="none" xmlns="http://www.w3.org/2000/svg">
<g clip-path="url(#clip0_1650_120)">
<rect width="1512" height="574" fill="#072764"/>
<path d="M336.242 25L420.211 43L504.182 25" stroke="#E69724" stroke-width="3" stroke-miterlimit="10" stroke-linecap="round" stroke-linejoin="round"/>
<path d="M420.213 43L336.245 25L252.273 43" stroke="#E69724" stroke-width="3" stroke-miterlimit="10" stroke-linecap="round" stroke-linejoin="round"/>
<path d="M167.941 25L251.91 43L335.881 25" stroke="#E69724" stroke-width="3" stroke-miterlimit="10" stroke-linecap="round" stroke-linejoin="round"/>
<path d="M671.941 25L755.913 43L839.881 25" stroke="#E69724" stroke-width="3" stroke-miterlimit="10" stroke-linecap="round" stroke-linejoin="round"/>
<path d="M755.911 43L671.94 25L587.969 43" stroke="#E69724" stroke-width="3" stroke-miterlimit="10" stroke-linecap="round" stroke-linejoin="round"/>
<path d="M503.637 25L587.608 43L671.576 25" stroke="#E69724" stroke-width="3" stroke-miterlimit="10" stroke-linecap="round" stroke-linejoin="round"/>
<path d="M0 25L83.9686 43L167.94 25" stroke="#E69724" stroke-width="3" stroke-miterlimit="10" stroke-linecap="round" stroke-linejoin="round"/>
<path d="M1007.91 25L1091.88 43L1175.85 25" stroke="#E69724" stroke-width="3" stroke-miterlimit="10" stroke-linecap="round" stroke-linejoin="round"/>
<path d="M1091.88 43L1007.91 25L923.941 43" stroke="#E69724" stroke-width="3" stroke-miterlimit="10" stroke-linecap="round" stroke-linejoin="round"/>
<path d="M839.609 25L923.578 43L1007.55 25" stroke="#E69724" stroke-width="3" stroke-miterlimit="10" stroke-linecap="round" stroke-linejoin="round"/>
<path d="M1343.61 25L1427.58 43L1511.55 25" stroke="#E69724" stroke-width="3" stroke-miterlimit="10" stroke-linecap="round" stroke-linejoin="round"/>
<path d="M1427.58 43L1343.61 25L1259.64 43" stroke="#E69724" stroke-width="3" stroke-miterlimit="10" stroke-linecap="round" stroke-linejoin="round"/>
<path d="M1175.31 25L1259.28 43L1343.25 25" stroke="#E69724" stroke-width="3" stroke-miterlimit="10" stroke-linecap="round" stroke-linejoin="round"/>
<path d="M92 26C92 22.134 88.4183 19 84 19C79.5817 19 76 22.134 76 26C76 29.866 79.5817 33 84 33C88.4183 33 92 29.866 92 26Z" fill="#FBF3D8"/>
<path d="M176 44C176 40.134 172.418 37 168 37C163.582 37 160 40.134 160 44C160 47.866 163.582 51 168 51C172.418 51 176 47.866 176 44Z" fill="#BAE178"/>
<path d="M344 44C344 40.134 340.418 37 336 37C331.582 37 328 40.134 328 44C328 47.866 331.582 51 336 51C340.418 51 344 47.866 344 44Z" fill="#BAE178"/>
<path d="M512 44C512 40.134 508.418 37 504 37C499.582 37 496 40.134 496 44C496 47.866 499.582 51 504 51C508.418 51 512 47.866 512 44Z" fill="#BAE178"/>
<path d="M680 44C680 40.134 676.418 37 672 37C667.582 37 664 40.134 664 44C664 47.866 667.582 51 672 51C676.418 51 680 47.866 680 44Z" fill="#BAE178"/>
<path d="M848 44C848 40.134 844.418 37 840 37C835.582 37 832 40.134 832 44C832 47.866 835.582 51 840 51C844.418 51 848 47.866 848 44Z" fill="#BAE178"/>
<path d="M1016 44C1016 40.134 1012.42 37 1008 37C1003.58 37 1000 40.134 1000 44C1000 47.866 1003.58 51 1008 51C1012.42 51 1016 47.866 1016 44Z" fill="#BAE178"/>
<path d="M1184 44C1184 40.134 1180.42 37 1176 37C1171.58 37 1168 40.134 1168 44C1168 47.866 1171.58 51 1176 51C1180.42 51 1184 47.866 1184 44Z" fill="#BAE178"/>
<path d="M1352 44C1352 40.134 1348.42 37 1344 37C1339.58 37 1336 40.134 1336 44C1336 47.866 1339.58 51 1344 51C1348.42 51 1352 47.866 1352 44Z" fill="#BAE178"/>
<path d="M260 26C260 22.134 256.418 19 252 19C247.582 19 244 22.134 244 26C244 29.866 247.582 33 252 33C256.418 33 260 29.866 260 26Z" fill="#FBF3D8"/>
<path d="M428 27C428 23.134 424.418 20 420 20C415.582 20 412 23.134 412 27C412 30.866 415.582 34 420 34C424.418 34 428 30.866 428 27Z" fill="#FBF3D8"/>
<path d="M596 28C596 24.134 592.418 21 588 21C583.582 21 580 24.134 580 28C580 31.866 583.582 35 588 35C592.418 35 596 31.866 596 28Z" fill="#FBF3D8"/>
<path d="M764 29C764 25.134 760.418 22 756 22C751.582 22 748 25.134 748 29C748 32.866 751.582 36 756 36C760.418 36 764 32.866 764 29Z" fill="#FBF3D8"/>
<path d="M932 30C932 26.134 928.418 23 924 23C919.582 23 916 26.134 916 30C916 33.866 919.582 37 924 37C928.418 37 932 33.866 932 30Z" fill="#FBF3D8"/>
<path d="M1100 31C1100 27.134 1096.42 24 1092 24C1087.58 24 1084 27.134 1084 31C1084 34.866 1087.58 38 1092 38C1096.42 38 1100 34.866 1100 31Z" fill="#FBF3D8"/>
<path d="M1268 32C1268 28.134 1264.42 25 1260 25C1255.58 25 1252 28.134 1252 32C1252 35.866 1255.58 39 1260 39C1264.42 39 1268 35.866 1268 32Z" fill="#FBF3D8"/>
<path d="M1436 31C1436 27.134 1432.42 24 1428 24C1423.58 24 1420 27.134 1420 31C1420 34.866 1423.58 38 1428 38C1432.42 38 1436 34.866 1436 31Z" fill="#FBF3D8"/>
<path d="M1541.98 69V66H-68.001V69H1541.98Z" fill="#BAE178"/>
<path d="M1531.98 499V496H-78.001V499H1531.98Z" fill="#BAE178"/>
<path d="M1511.98 80V77H-98.001V80H1511.98Z" fill="#FBF3D8"/>
<path d="M1511.98 488V485H-98.001V488H39.5H1511.98Z" fill="#FBF3D8"/>
</g>
<defs>
<clipPath id="clip0_1650_120">
<rect width="1512" height="574" fill="white"/>
</clipPath>
</defs>
</svg>
