<svg viewBox="0 0 1440 848" fill="none" xmlns="http://www.w3.org/2000/svg">
<g clip-path="url(#clip0_1939_86)">
<path d="M1.13815 490.953C0.279275 500.621 -0.923148 595.864 1.13815 899.494V960H1452.8C1536.63 886.659 1522.89 822.78 1420 383.944C1316.5 -57.5009 968.862 121.497 915.836 257.93C874.438 364.441 723.723 538.758 452.044 383.943C180.365 229.128 38.2405 390.777 1.13815 490.953Z" fill="#52A3C1" stroke="#52A3C1" stroke-opacity="0.3" stroke-width="84"/>
<path d="M64 428C118.275 372.134 268.46 291.328 435 415.031" stroke="white" stroke-opacity="0.77" stroke-width="24" stroke-linecap="round"/>
<path d="M984 244C1028.3 171.607 1158.94 58.1623 1335 231.038" stroke="white" stroke-opacity="0.77" stroke-width="24" stroke-linecap="round"/>
<path d="M583.5 462C637.667 485.833 768.5 504.5 858.5 388.5" stroke="white" stroke-opacity="0.77" stroke-width="24" stroke-linecap="round"/>
</g>
<defs>
<clipPath id="clip0_1939_86">
<rect width="1440" height="848" fill="white"/>
</clipPath>
</defs>
</svg>
