<svg width="24" height="24" viewBox="0 0 24 24" fill="none" xmlns="http://www.w3.org/2000/svg">
<path d="M16.34 5.46C16.1027 5.46 15.8707 5.53038 15.6733 5.66224C15.476 5.79409 15.3222 5.98151 15.2313 6.20078C15.1405 6.42005 15.1168 6.66133 15.1631 6.89411C15.2094 7.12689 15.3236 7.34071 15.4915 7.50853C15.6593 7.67635 15.8731 7.79064 16.1059 7.83694C16.3387 7.88324 16.5799 7.85948 16.7992 7.76866C17.0185 7.67783 17.2059 7.52402 17.3378 7.32668C17.4696 7.12935 17.54 6.89734 17.54 6.66C17.54 6.34174 17.4136 6.03652 17.1885 5.81147C16.9635 5.58643 16.6583 5.46 16.34 5.46ZM20.94 7.88C20.9206 7.0503 20.7652 6.2294 20.48 5.45C20.2257 4.78313 19.83 4.17928 19.32 3.68C18.8248 3.16743 18.2196 2.77418 17.55 2.53C16.7727 2.23616 15.9508 2.07721 15.12 2.06C14.06 2 13.72 2 11 2C8.28 2 7.94 2 6.88 2.06C6.04915 2.07721 5.22734 2.23616 4.45 2.53C3.78168 2.77665 3.17693 3.16956 2.68 3.68C2.16743 4.17518 1.77418 4.78044 1.53 5.45C1.23616 6.22734 1.07721 7.04915 1.06 7.88C1 8.94 1 9.28 1 12C1 14.72 1 15.06 1.06 16.12C1.07721 16.9508 1.23616 17.7727 1.53 18.55C1.77418 19.2196 2.16743 19.8248 2.68 20.32C3.17693 20.8304 3.78168 21.2234 4.45 21.47C5.22734 21.7638 6.04915 21.9228 6.88 21.94C7.94 22 8.28 22 11 22C13.72 22 14.06 22 15.12 21.94C15.9508 21.9228 16.7727 21.7638 17.55 21.47C18.2196 21.2258 18.8248 20.8326 19.32 20.32C19.8322 19.8226 20.2283 19.2182 20.48 18.55C20.7652 17.7706 20.9206 16.9497 20.94 16.12C20.94 15.06 21 14.72 21 12C21 9.28 21 8.94 20.94 7.88ZM19.14 16C19.1327 16.6348 19.0178 17.2637 18.8 17.86C18.6403 18.2952 18.3839 18.6884 18.05 19.01C17.7256 19.3405 17.3332 19.5964 16.9 19.76C16.3037 19.9778 15.6748 20.0927 15.04 20.1C14.04 20.15 13.67 20.16 11.04 20.16C8.41 20.16 8.04 20.16 7.04 20.1C6.38089 20.1123 5.72459 20.0109 5.1 19.8C4.68578 19.6281 4.31136 19.3728 4 19.05C3.66809 18.7287 3.41484 18.3352 3.26 17.9C3.01586 17.2952 2.88044 16.6519 2.86 16C2.86 15 2.8 14.63 2.8 12C2.8 9.37 2.8 9 2.86 8C2.86448 7.35106 2.98295 6.70795 3.21 6.1C3.38605 5.67791 3.65626 5.30166 4 5C4.30381 4.65617 4.67929 4.3831 5.1 4.2C5.70955 3.98004 6.352 3.86508 7 3.86C8 3.86 8.37 3.8 11 3.8C13.63 3.8 14 3.8 15 3.86C15.6348 3.86728 16.2637 3.98225 16.86 4.2C17.3144 4.36865 17.7223 4.64285 18.05 5C18.3777 5.30718 18.6338 5.68273 18.8 6.1C19.0223 6.70893 19.1373 7.35178 19.14 8C19.19 9 19.2 9.37 19.2 12C19.2 14.63 19.19 15 19.14 16ZM11 6.87C9.98581 6.87198 8.99496 7.17453 8.15265 7.73942C7.31035 8.30431 6.65438 9.1062 6.26763 10.0438C5.88089 10.9813 5.78072 12.0125 5.97979 13.0069C6.17886 14.0014 6.66824 14.9145 7.38608 15.631C8.10392 16.3474 9.01801 16.835 10.0129 17.0321C11.0077 17.2293 12.0387 17.1271 12.9755 16.7385C13.9123 16.35 14.7129 15.6924 15.2761 14.849C15.8394 14.0056 16.14 13.0142 16.14 12C16.1413 11.3251 16.0092 10.6566 15.7512 10.033C15.4933 9.40931 15.1146 8.84281 14.6369 8.36605C14.1592 7.88929 13.5919 7.51168 12.9678 7.25493C12.3436 6.99818 11.6749 6.86736 11 6.87ZM11 15.33C10.3414 15.33 9.69757 15.1347 9.14995 14.7688C8.60234 14.4029 8.17552 13.8828 7.92348 13.2743C7.67144 12.6659 7.6055 11.9963 7.73398 11.3503C7.86247 10.7044 8.17963 10.111 8.64533 9.64533C9.11104 9.17963 9.70439 8.86247 10.3503 8.73398C10.9963 8.6055 11.6659 8.67144 12.2743 8.92348C12.8828 9.17552 13.4029 9.60234 13.7688 10.15C14.1347 10.6976 14.33 11.3414 14.33 12C14.33 12.4373 14.2439 12.8703 14.0765 13.2743C13.9092 13.6784 13.6639 14.0454 13.3547 14.3547C13.0454 14.6639 12.6784 14.9092 12.2743 15.0765C11.8703 15.2439 11.4373 15.33 11 15.33Z" fill="#DEDCD8"/>
</svg>
