<svg width="24" height="24" viewBox="0 0 24 24" fill="none" xmlns="http://www.w3.org/2000/svg">
<path d="M19.41 2.00014H2.47C2.27958 1.9975 2.0905 2.03239 1.91357 2.10282C1.73663 2.17326 1.5753 2.27786 1.4388 2.41065C1.30229 2.54344 1.19328 2.70182 1.11799 2.87675C1.0427 3.05167 1.00261 3.23972 1 3.43014V20.5701C1.00261 20.7606 1.0427 20.9486 1.11799 21.1235C1.19328 21.2985 1.30229 21.4568 1.4388 21.5896C1.5753 21.7224 1.73663 21.827 1.91357 21.8975C2.0905 21.9679 2.27958 22.0028 2.47 22.0001H19.41C19.6004 22.0028 19.7895 21.9679 19.9664 21.8975C20.1434 21.827 20.3047 21.7224 20.4412 21.5896C20.5777 21.4568 20.6867 21.2985 20.762 21.1235C20.8373 20.9486 20.8774 20.7606 20.88 20.5701V3.43014C20.8774 3.23972 20.8373 3.05167 20.762 2.87675C20.6867 2.70182 20.5777 2.54344 20.4412 2.41065C20.3047 2.27786 20.1434 2.17326 19.9664 2.10282C19.7895 2.03239 19.6004 1.9975 19.41 2.00014ZM7.03 18.7401H4.03V9.74014H7.03V18.7401ZM5.53 8.48014C5.11626 8.48014 4.71947 8.31578 4.42691 8.02323C4.13436 7.73067 3.97 7.33388 3.97 6.92014C3.97 6.5064 4.13436 6.10961 4.42691 5.81705C4.71947 5.5245 5.11626 5.36014 5.53 5.36014C5.7497 5.33522 5.97218 5.35699 6.18288 5.42402C6.39357 5.49105 6.58774 5.60183 6.75266 5.7491C6.91757 5.89637 7.04953 6.07682 7.13987 6.27862C7.23022 6.48043 7.27692 6.69904 7.27692 6.92014C7.27692 7.14124 7.23022 7.35985 7.13987 7.56166C7.04953 7.76346 6.91757 7.94391 6.75266 8.09118C6.58774 8.23845 6.39357 8.34923 6.18288 8.41626C5.97218 8.48329 5.7497 8.50505 5.53 8.48014ZM17.85 18.7401H14.85V13.9101C14.85 12.7001 14.42 11.9101 13.33 11.9101C12.9927 11.9126 12.6642 12.0184 12.3888 12.2133C12.1135 12.4082 11.9045 12.6828 11.79 13.0001C11.7117 13.2352 11.6778 13.4827 11.69 13.7301V18.7301H8.69C8.69 18.7301 8.69 10.5501 8.69 9.73014H11.69V11.0001C11.9625 10.5272 12.3589 10.1377 12.8364 9.87334C13.314 9.60902 13.8546 9.47999 14.4 9.50014C16.4 9.50014 17.85 10.7901 17.85 13.5601V18.7401Z" fill="#DEDCD8"/>
</svg>
