<?xml version="1.0" encoding="utf-8"?>
<!-- Generator: Adobe Illustrator 27.5.0, SVG Export Plug-In . SVG Version: 6.00 Build 0)  -->
<svg version="1.1" xmlns="http://www.w3.org/2000/svg" xmlns:xlink="http://www.w3.org/1999/xlink" x="0px" y="0px"
	 viewBox="0 0 750 500" style="enable-background:new 0 0 750 500;" xml:space="preserve">
<g id="BACKGROUND">
	<rect style="fill:#F7F1E7;" width="750" height="500"/>
</g>
<g id="OBJECTS">
	<g>
		<defs>
			<rect id="SVGID_1_" width="750" height="500"/>
		</defs>
		<clipPath id="SVGID_00000124852677116166005040000005544292751126498715_">
			<use xlink:href="#SVGID_1_"  style="overflow:visible;"/>
		</clipPath>
		<g style="clip-path:url(#SVGID_00000124852677116166005040000005544292751126498715_);">
			<path style="fill:#E57F93;" d="M315,1179.794c-142.856-495.69-41.462-713.461,60.365-930.726
				C302.266,477.604,229.675,706.573,435,1179.794C394.999,1179.793,354.999,1179.793,315,1179.794z"/>
			<path style="fill:#DA4667;" d="M435-679.794c142.858,495.689,41.462,713.462-60.365,930.726
				C447.733,22.395,520.326-206.573,315-679.794C354.999-679.794,394.999-679.794,435-679.794z"/>
			<path style="fill:#DA4667;" d="M-554.794,190c495.689-142.857,713.461-41.462,930.726,60.365
				C147.396,177.266-81.573,104.675-554.794,310C-554.794,270-554.794,230-554.794,190z"/>
			<path style="fill:#F2D3C6;" d="M1304.794,310c-495.688,142.857-713.461,41.461-930.727-60.365
				c228.538,73.099,457.507,145.69,930.727-59.635C1304.794,230,1304.794,270,1304.794,310z"/>
			<path style="fill:#F2D3C6;" d="M-319.073,774.89C-199.033,622.058-80.814,497.508,34.635,415.9
				c115.604-84.006,228.439-125.069,341.282-166.302c-106.618,55.374-213.243,110.58-317.1,208.728
				c-104.011,95.75-205.252,234.442-304.672,401.415C-270.459,828.38-294.468,800.096-319.073,774.89z"/>
			<path style="fill:#E57F93;" d="M1069.072-274.889C949.033-122.058,830.814,2.492,715.364,84.1
				C599.76,168.105,486.926,209.169,374.083,250.401C480.7,195.027,587.326,139.821,691.182,41.673
				c104.011-95.75,205.252-234.442,304.672-401.416C1020.458-328.38,1044.467-300.096,1069.072-274.889z"/>
			<path style="fill:#E57F93;" d="M-149.89-444.073C2.942-324.033,127.492-205.814,209.1-90.364
				C293.105,25.24,334.17,138.075,375.401,250.917C320.027,144.3,264.822,37.674,166.673-66.181
				C70.923-170.192-67.769-271.434-234.743-370.854C-203.38-395.459-175.096-419.468-149.89-444.073z"/>
			<path style="fill:#DA4667;" d="M899.89,944.073c-152.832-120.04-277.381-238.259-358.988-353.708
				c-84.006-115.604-125.07-228.439-166.302-341.282c55.374,106.617,110.58,213.243,208.728,317.099
				c95.75,104.011,234.441,205.252,401.415,304.673C953.38,895.459,925.098,919.468,899.89,944.073z"/>
			<path style="fill:#F2D3C6;" d="M645.539,1117.298C508.92,927.567,433.938,768.148,399.547,628.694
				C364.34,488.839,369.727,368.95,374.98,248.999c10.256,119.658,20.368,239.264,72.428,373.157
				c50.609,133.4,143.168,281.089,284.813,445.5C702.198,1082.737,673.502,1099.152,645.539,1117.298z"/>
			<path style="fill:#DA4667;" d="M104.461-617.298c136.618,189.731,211.602,349.15,245.992,488.604
				C385.66,11.161,380.274,131.05,375.02,251.001c-10.256-119.658-20.367-239.263-72.428-373.158
				c-50.609-133.4-143.168-281.088-284.814-445.499C47.802-582.737,76.497-599.151,104.461-617.298z"/>
			<path style="fill:#E57F93;" d="M-492.298,520.539c189.731-136.618,349.15-211.602,488.604-245.992
				c139.855-35.207,259.744-29.821,379.695-24.567c-119.657,10.257-239.263,20.369-373.158,72.429
				c-133.4,50.61-281.088,143.168-445.5,284.813C-457.736,577.198-474.151,548.502-492.298,520.539z"/>
			<path style="fill:#DA4667;" d="M1242.298-20.539c-189.731,136.618-349.15,211.602-488.604,245.992
				C613.84,260.66,493.951,255.274,373.999,250.02c119.659-10.257,239.264-20.369,373.158-72.429
				c133.399-50.609,281.087-143.167,445.5-284.813C1207.736-77.198,1224.151-48.502,1242.298-20.539z"/>
			<path style="fill:#DA4667;" d="M-54.65,1032.029c43.755-212.563,104.234-376.04,179.001-497.567
				c74.273-122.978,162.834-204.009,251.344-285.184c-77.392,91.795-154.846,183.458-212.333,315.715
				c-57.89,131.44-95.813,303.472-103.425,537.141C20.142,1077.834-17.922,1054.268-54.65,1032.029z"/>
			<path style="fill:#F2D3C6;" d="M804.65-532.029c-43.755,212.563-104.234,376.039-179,497.567
				C551.376,88.517,462.815,169.547,374.306,250.722c77.392-91.795,154.845-183.458,212.332-315.715
				c57.89-131.44,95.814-303.473,103.426-537.141C729.857-577.834,767.922-554.267,804.65-532.029z"/>
			<path style="fill:#F2D3C6;" d="M-407.029-179.65C-194.465-135.894-30.99-75.416,90.538-0.649
				c122.978,74.273,204.009,162.834,285.184,251.343C283.928,173.302,192.264,95.849,60.007,38.361
				C-71.433-19.529-243.465-57.453-477.134-65.064C-452.834-104.859-429.267-142.921-407.029-179.65z"/>
			<path style="fill:#E57F93;" d="M1157.029,679.65c-212.563-43.756-376.039-104.234-497.567-179.001
				c-122.979-74.273-204.009-162.835-285.184-251.343c91.795,77.392,183.459,154.846,315.715,212.333
				c131.439,57.89,303.472,95.813,537.14,103.425C1202.834,604.859,1179.269,642.922,1157.029,679.65z"/>
			<path style="fill:#DA4667;" d="M493.728,1170.71C262.446,716.654,317.084,481.503,375.176,249.014
				c-13.383,119.302-26.886,238.533-0.849,380.646c25.513,141.81,90.565,306.503,222.176,509.718
				C562.216,1148.969,528.068,1159.417,493.728,1170.71z"/>
			<path style="fill:#E57F93;" d="M256.272-670.709c231.28,454.056,176.645,689.207,118.552,921.695
				c13.384-119.302,26.886-238.533,0.849-380.646c-25.514-141.81-90.566-306.503-222.176-509.719
				C187.784-648.969,221.932-659.417,256.272-670.709z"/>
			<path style="fill:#F2D3C6;" d="M-545.709,368.728c454.055-231.28,689.206-176.645,921.695-118.552
				c-119.303-13.383-238.533-26.886-380.647-0.848c-141.81,25.513-306.503,90.566-509.718,222.175
				C-523.969,437.217-534.417,403.068-545.709,368.728z"/>
			<path style="fill:#E57F93;" d="M1295.709,131.272C841.654,362.553,606.502,307.917,374.014,249.824
				c119.302,13.383,238.532,26.886,380.646,0.848c141.81-25.513,306.504-90.566,509.719-222.175
				C1273.971,62.784,1284.417,96.932,1295.709,131.272z"/>
			<path style="fill:#E57F93;" d="M-202.703,904.978C-115.297,727.813-23.712,582.115,73.56,479.256
				c96.971-105.115,199.628-167.39,302.262-229.829c-93.785,75.043-187.607,149.931-270.119,267.204
				C22.716,632.13-48.96,790.015-109.388,990.066C-141.871,959.347-172.662,930.828-202.703,904.978z"/>
			<path style="fill:#DA4667;" d="M952.703-404.979C865.296-227.813,773.711-82.114,676.439,20.744
				c-96.971,105.115-199.628,167.39-302.261,229.829c93.784-75.043,187.606-149.931,270.119-267.204
				c82.986-115.499,154.663-273.383,215.09-473.435C891.87-459.347,922.661-430.827,952.703-404.979z"/>
			<path style="fill:#DA4667;" d="M-279.979-327.703C-102.812-240.296,42.886-148.711,145.744-51.44
				c105.116,96.972,167.39,199.629,229.829,302.261C300.53,157.038,225.642,63.215,108.368-19.297
				C-7.13-102.283-165.014-173.96-365.066-234.388C-334.347-266.871-305.827-297.662-279.979-327.703z"/>
			<path style="fill:#F2D3C6;" d="M1029.978,827.703C852.813,740.296,707.114,648.711,604.256,551.44
				c-105.115-96.971-167.39-199.629-229.829-302.261c75.044,93.784,149.932,187.606,267.205,270.118
				c115.497,82.986,273.381,154.663,473.434,215.091C1084.348,766.871,1055.827,797.662,1029.978,827.703z"/>
			<path style="fill:#E57F93;" d="M775.314,1038.719c-143.367-152.056-244.566-292.864-303.38-422.362
				c-60.588-129.972-78.79-248.634-97.148-367.335c33.494,115.37,66.825,230.715,142.996,351.746
				c73.914,120.731,190.669,247.148,338.89,377.744C827.038,997.517,800.076,1017.273,775.314,1038.719z"/>
			<path style="fill:#F2D3C6;" d="M-25.314-538.719c143.367,152.057,244.566,292.865,303.38,422.363
				c60.588,129.971,78.79,248.634,97.149,367.334c-33.496-115.37-66.826-230.715-142.997-351.746
				C158.305-221.499,41.55-347.916-106.672-478.512C-77.038-497.517-50.077-517.272-25.314-538.719z"/>
			<path style="fill:#DA4667;" d="M-413.719,650.314C-261.662,506.948-120.855,405.748,8.644,346.935
				c129.972-60.588,248.634-78.792,367.334-97.15c-115.37,33.495-230.714,66.825-351.745,142.996
				c-120.731,73.914-247.148,190.668-377.745,338.89C-372.517,702.038-392.272,675.077-413.719,650.314z"/>
			<path style="fill:#F2D3C6;" d="M1163.719-150.314C1011.662-6.947,870.854,94.252,741.356,153.066
				c-129.972,60.588-248.634,78.791-367.334,97.149c115.369-33.495,230.715-66.825,351.746-142.996
				c120.731-73.914,247.147-190.668,377.744-338.89C1122.519-202.038,1142.271-175.077,1163.719-150.314z"/>
			<path style="fill:#F2D3C6;" d="M123.916,1131.485c-12.884-241.776,12.754-416.996,61.276-552.676
				C233.41,442.605,304.511,345.94,375.54,249.157c-116.745,209.275-230.832,422.01-126.01,920.658
				C206.809,1157.12,164.934,1144.233,123.916,1131.485z"/>
			<path style="fill:#E57F93;" d="M626.084-631.485c12.883,241.776-12.753,416.996-61.275,552.676
				C516.591,57.395,445.49,154.06,374.46,250.843c116.747-209.275,230.83-422.009,126.01-920.658
				C543.192-657.12,585.066-644.233,626.084-631.485z"/>
			<path style="fill:#E57F93;" d="M-506.485-1.084C-264.708-13.968-89.489,11.67,46.191,60.191
				C182.395,108.409,279.06,179.51,375.844,250.54C166.568,133.793-46.166,19.709-544.815,124.529
				C-532.12,81.809-519.233,39.934-506.485-1.084z"/>
			<path style="fill:#DA4667;" d="M1256.485,501.084c-241.776,12.884-416.996-12.754-552.676-61.276
				C567.604,391.59,470.94,320.489,374.157,249.46c209.276,116.746,422.009,230.831,920.658,126.01
				C1282.12,418.191,1269.233,460.066,1256.485,501.084z"/>
		</g>
	</g>
</g>
</svg>
