<?xml version="1.0" encoding="utf-8"?>
<!-- Generator: Adobe Illustrator 27.5.0, SVG Export Plug-In . SVG Version: 6.00 Build 0)  -->
<svg version="1.1" id="Layer_1" xmlns="http://www.w3.org/2000/svg" xmlns:xlink="http://www.w3.org/1999/xlink" x="0px" y="0px"
	 viewBox="0 0 500 500" style="enable-background:new 0 0 500 500;" xml:space="preserve">
<radialGradient id="SVGID_1_" cx="250" cy="250" r="250" gradientUnits="userSpaceOnUse">
	<stop  offset="0" style="stop-color:#F46D43"/>
	<stop  offset="1" style="stop-color:#FF931E"/>
</radialGradient>
<rect style="fill:url(#SVGID_1_);" width="500" height="500"/>
<path style="fill:#FDAE61;" d="M500,79.418V18.004L263.911,237.088c-0.673-0.725-1.397-1.399-2.175-2.011L449.514,0H394.52
	L259.342,233.467c-0.786-0.445-1.609-0.83-2.459-1.161L348.252,0h-41.136l-52.754,231.523c-0.897-0.211-1.816-0.363-2.758-0.442
	L268.801,0h-37.297l16.929,231.079c-0.948,0.078-1.873,0.228-2.777,0.439L193.21,0h-41.137l91.059,232.3
	c-0.851,0.33-1.674,0.714-2.46,1.158L105.798,0H50.855l187.471,235.031c-0.799,0.624-1.542,1.31-2.231,2.051L0,17.6v61.485
	l234.251,160.284c-0.522,0.772-0.97,1.596-1.376,2.443L0,129.199v43.396l231.878,71.689c-0.267,0.846-0.457,1.724-0.604,2.617
	L0,212.091v37.586l231.004,0.245c0,0.026-0.004,0.052-0.004,0.078c0,1.007,0.101,1.989,0.252,2.954L0,287.242v39.456l231.836-71.117
	c0.264,0.862,0.604,1.688,0.983,2.493L0,370.04v50.045l234.179-159.57c0.549,0.824,1.172,1.592,1.839,2.319L0,481.395V500h49.946
	l188.257-235.122c0.751,0.596,1.548,1.134,2.385,1.613L105.061,500h46.33l91.67-232.326c0.819,0.322,1.665,0.585,2.534,0.792
	L192.573,500h38.326l17.444-231.084C248.89,268.964,249.441,269,250,269c0.524,0,1.039-0.037,1.552-0.078L268.232,500h38.299
	l-52.134-231.532c0.851-0.202,1.68-0.46,2.482-0.772L347.656,500h46.241l-134.54-233.476c0.843-0.479,1.645-1.021,2.402-1.618
	L448.794,500H500v-17.219l-236.071-219.89c0.672-0.725,1.301-1.49,1.854-2.314L500,421.209v-50.185L267.172,258.091
	c0.375-0.794,0.715-1.607,0.978-2.457L500,327.603v-39.525L268.736,253.03c0.141-0.88,0.231-1.776,0.247-2.691L500,250.318v-37.943
	l-231.272,34.543c-0.146-0.895-0.335-1.774-0.602-2.622L500,172.902v-43.379L267.126,241.815c-0.405-0.845-0.85-1.666-1.37-2.436
	L500,79.418z"/>
</svg>
