<svg width="58" height="570" viewBox="0 0 58 570" fill="none" xmlns="http://www.w3.org/2000/svg">
<path d="M47 567H48V1H47V567Z" fill="#FBF3D8"/>
<path d="M54 567H58V0H54V567Z" fill="#BAE178"/>
<path d="M26 128.693L8 160.082L26 191.472" stroke="#039485" stroke-width="3" stroke-miterlimit="10" stroke-linecap="round" stroke-linejoin="round"/>
<path d="M8 160.083L26 128.694L8 97.304" stroke="#039485" stroke-width="3" stroke-miterlimit="10" stroke-linecap="round" stroke-linejoin="round"/>
<path d="M26 65.7793L8 97.1682L26 128.558" stroke="#039485" stroke-width="3" stroke-miterlimit="10" stroke-linecap="round" stroke-linejoin="round"/>
<path d="M26 254.183L8 285.573L26 316.962" stroke="#039485" stroke-width="3" stroke-miterlimit="10" stroke-linecap="round" stroke-linejoin="round"/>
<path d="M8 285.572L26 254.182L8 222.792" stroke="#039485" stroke-width="3" stroke-miterlimit="10" stroke-linecap="round" stroke-linejoin="round"/>
<path d="M26 191.268L8 222.658L26 254.047" stroke="#039485" stroke-width="3" stroke-miterlimit="10" stroke-linecap="round" stroke-linejoin="round"/>
<path d="M26 3L8 34.3889L26 65.7787" stroke="#039485" stroke-width="3" stroke-miterlimit="10" stroke-linecap="round" stroke-linejoin="round"/>
<path d="M26 379.773L8 411.163L26 442.553" stroke="#039485" stroke-width="3" stroke-miterlimit="10" stroke-linecap="round" stroke-linejoin="round"/>
<path d="M8 411.164L26 379.774L8 348.385" stroke="#039485" stroke-width="3" stroke-miterlimit="10" stroke-linecap="round" stroke-linejoin="round"/>
<path d="M26 316.86L8 348.249L26 379.639" stroke="#039485" stroke-width="3" stroke-miterlimit="10" stroke-linecap="round" stroke-linejoin="round"/>
<path d="M26 505.264L8 536.653L26 568.043" stroke="#039485" stroke-width="3" stroke-miterlimit="10" stroke-linecap="round" stroke-linejoin="round"/>
<path d="M8 536.654L26 505.265L8 473.875" stroke="#039485" stroke-width="3" stroke-miterlimit="10" stroke-linecap="round" stroke-linejoin="round"/>
<path d="M26 442.35L8 473.739L26 505.129" stroke="#039485" stroke-width="3" stroke-miterlimit="10" stroke-linecap="round" stroke-linejoin="round"/>
<path d="M25 37.3905C28.866 37.3905 32 36.0516 32 34.4C32 32.7483 28.866 31.4094 25 31.4094C21.134 31.4094 18 32.7483 18 34.4C18 36.0516 21.134 37.3905 25 37.3905Z" fill="#6E5B9F"/>
<path d="M7 68.7919C10.866 68.7919 14 67.453 14 65.8013C14 64.1497 10.866 62.8108 7 62.8108C3.13401 62.8108 0 64.1497 0 65.8013C0 67.453 3.13401 68.7919 7 68.7919Z" fill="#327E9D"/>
<path d="M7 131.593C10.866 131.593 14 130.254 14 128.602C14 126.95 10.866 125.612 7 125.612C3.13401 125.612 0 126.95 0 128.602C0 130.254 3.13401 131.593 7 131.593Z" fill="#327E9D"/>
<path d="M7 194.394C10.866 194.394 14 193.055 14 191.403C14 189.752 10.866 188.413 7 188.413C3.13401 188.413 0 189.752 0 191.403C0 193.055 3.13401 194.394 7 194.394Z" fill="#327E9D"/>
<path d="M7 257.195C10.866 257.195 14 255.856 14 254.205C14 252.553 10.866 251.214 7 251.214C3.13401 251.214 0 252.553 0 254.205C0 255.856 3.13401 257.195 7 257.195Z" fill="#327E9D"/>
<path d="M7 319.997C10.866 319.997 14 318.658 14 317.006C14 315.355 10.866 314.016 7 314.016C3.13401 314.016 0 315.355 0 317.006C0 318.658 3.13401 319.997 7 319.997Z" fill="#327E9D"/>
<path d="M7 382.798C10.866 382.798 14 381.459 14 379.808C14 378.156 10.866 376.817 7 376.817C3.13401 376.817 0 378.156 0 379.808C0 381.459 3.13401 382.798 7 382.798Z" fill="#327E9D"/>
<path d="M7 445.599C10.866 445.599 14 444.26 14 442.608C14 440.957 10.866 439.618 7 439.618C3.13401 439.618 0 440.957 0 442.608C0 444.26 3.13401 445.599 7 445.599Z" fill="#327E9D"/>
<path d="M7 508.4C10.866 508.4 14 507.061 14 505.41C14 503.758 10.866 502.419 7 502.419C3.13401 502.419 0 503.758 0 505.41C0 507.061 3.13401 508.4 7 508.4Z" fill="#327E9D"/>
<path d="M25 100.192C28.866 100.192 32 98.8533 32 97.2017C32 95.5501 28.866 94.2112 25 94.2112C21.134 94.2112 18 95.5501 18 97.2017C18 98.8533 21.134 100.192 25 100.192Z" fill="#6E5B9F"/>
<path d="M24 162.994C27.866 162.994 31 161.655 31 160.003C31 158.351 27.866 157.012 24 157.012C20.134 157.012 17 158.351 17 160.003C17 161.655 20.134 162.994 24 162.994Z" fill="#6E5B9F"/>
<path d="M23 225.795C26.866 225.795 30 224.456 30 222.804C30 221.152 26.866 219.813 23 219.813C19.134 219.813 16 221.152 16 222.804C16 224.456 19.134 225.795 23 225.795Z" fill="#6E5B9F"/>
<path d="M22 288.596C25.866 288.596 29 287.257 29 285.605C29 283.953 25.866 282.615 22 282.615C18.134 282.615 15 283.953 15 285.605C15 287.257 18.134 288.596 22 288.596Z" fill="#6E5B9F"/>
<path d="M21 351.397C24.866 351.397 28 350.058 28 348.407C28 346.755 24.866 345.416 21 345.416C17.134 345.416 14 346.755 14 348.407C14 350.058 17.134 351.397 21 351.397Z" fill="#6E5B9F"/>
<path d="M20 414.199C23.866 414.199 27 412.86 27 411.208C27 409.556 23.866 408.218 20 408.218C16.134 408.218 13 409.556 13 411.208C13 412.86 16.134 414.199 20 414.199Z" fill="#6E5B9F"/>
<path d="M19 477C22.866 477 26 475.661 26 474.009C26 472.357 22.866 471.019 19 471.019C15.134 471.019 12 472.357 12 474.009C12 475.661 15.134 477 19 477Z" fill="#6E5B9F"/>
<path d="M20 539.801C23.866 539.801 27 538.462 27 536.811C27 535.159 23.866 533.82 20 533.82C16.134 533.82 13 535.159 13 536.811C13 538.462 16.134 539.801 20 539.801Z" fill="#6E5B9F"/>
</svg>
