<svg width="61" height="571" viewBox="0 0 61 571" fill="none" xmlns="http://www.w3.org/2000/svg">
<path d="M2.38419e-07 568.043H4V0.00012207H2.38419e-07V568.043Z" fill="#BAE178"/>
<path d="M11 568.043H9V0H11V568.043Z" fill="#FBF3D8"/>
<path d="M55 129.693L37 161.082L55 192.472" stroke="#039485" stroke-width="3" stroke-miterlimit="10" stroke-linecap="round" stroke-linejoin="round"/>
<path d="M37 161.083L55 129.694L37 98.304" stroke="#039485" stroke-width="3" stroke-miterlimit="10" stroke-linecap="round" stroke-linejoin="round"/>
<path d="M55 66.7793L37 98.1682L55 129.558" stroke="#039485" stroke-width="3" stroke-miterlimit="10" stroke-linecap="round" stroke-linejoin="round"/>
<path d="M55 255.183L37 286.573L55 317.962" stroke="#039485" stroke-width="3" stroke-miterlimit="10" stroke-linecap="round" stroke-linejoin="round"/>
<path d="M37 286.572L55 255.182L37 223.792" stroke="#039485" stroke-width="3" stroke-miterlimit="10" stroke-linecap="round" stroke-linejoin="round"/>
<path d="M55 192.268L37 223.658L55 255.047" stroke="#039485" stroke-width="3" stroke-miterlimit="10" stroke-linecap="round" stroke-linejoin="round"/>
<path d="M55 4L37 35.3889L55 66.7787" stroke="#039485" stroke-width="3" stroke-miterlimit="10" stroke-linecap="round" stroke-linejoin="round"/>
<path d="M55 380.773L37 412.163L55 443.553" stroke="#039485" stroke-width="3" stroke-miterlimit="10" stroke-linecap="round" stroke-linejoin="round"/>
<path d="M37 412.164L55 380.774L37 349.385" stroke="#039485" stroke-width="3" stroke-miterlimit="10" stroke-linecap="round" stroke-linejoin="round"/>
<path d="M55 317.861L37 349.25L55 380.64" stroke="#039485" stroke-width="3" stroke-miterlimit="10" stroke-linecap="round" stroke-linejoin="round"/>
<path d="M55 506.264L37 537.653L55 569.043" stroke="#039485" stroke-width="3" stroke-miterlimit="10" stroke-linecap="round" stroke-linejoin="round"/>
<path d="M37 537.654L55 506.265L37 474.875" stroke="#039485" stroke-width="3" stroke-miterlimit="10" stroke-linecap="round" stroke-linejoin="round"/>
<path d="M55 443.35L37 474.739L55 506.129" stroke="#039485" stroke-width="3" stroke-miterlimit="10" stroke-linecap="round" stroke-linejoin="round"/>
<path d="M54 38.391C57.866 38.391 61 37.0521 61 35.4004C61 33.7488 57.866 32.4099 54 32.4099C50.134 32.4099 47 33.7488 47 35.4004C47 37.0521 50.134 38.391 54 38.391Z" fill="#327F9D"/>
<path d="M36 69.7924C39.866 69.7924 43 68.4534 43 66.8018C43 65.1502 39.866 63.8113 36 63.8113C32.134 63.8113 29 65.1502 29 66.8018C29 68.4534 32.134 69.7924 36 69.7924Z" fill="#77659C"/>
<path d="M36 132.593C39.866 132.593 43 131.254 43 129.603C43 127.951 39.866 126.612 36 126.612C32.134 126.612 29 127.951 29 129.603C29 131.254 32.134 132.593 36 132.593Z" fill="#77659C"/>
<path d="M36 195.395C39.866 195.395 43 194.056 43 192.404C43 190.753 39.866 189.414 36 189.414C32.134 189.414 29 190.753 29 192.404C29 194.056 32.134 195.395 36 195.395Z" fill="#77659C"/>
<path d="M36 258.196C39.866 258.196 43 256.857 43 255.205C43 253.554 39.866 252.215 36 252.215C32.134 252.215 29 253.554 29 255.205C29 256.857 32.134 258.196 36 258.196Z" fill="#77659C"/>
<path d="M36 320.997C39.866 320.997 43 319.658 43 318.007C43 316.355 39.866 315.016 36 315.016C32.134 315.016 29 316.355 29 318.007C29 319.658 32.134 320.997 36 320.997Z" fill="#77659C"/>
<path d="M36 383.798C39.866 383.798 43 382.46 43 380.808C43 379.156 39.866 377.817 36 377.817C32.134 377.817 29 379.156 29 380.808C29 382.46 32.134 383.798 36 383.798Z" fill="#77659C"/>
<path d="M36 446.599C39.866 446.599 43 445.261 43 443.609C43 441.957 39.866 440.618 36 440.618C32.134 440.618 29 441.957 29 443.609C29 445.261 32.134 446.599 36 446.599Z" fill="#77659C"/>
<path d="M36 509.401C39.866 509.401 43 508.062 43 506.41C43 504.759 39.866 503.42 36 503.42C32.134 503.42 29 504.759 29 506.41C29 508.062 32.134 509.401 36 509.401Z" fill="#77659C"/>
<path d="M54 101.193C57.866 101.193 61 99.8541 61 98.2025C61 96.5508 57.866 95.2119 54 95.2119C50.134 95.2119 47 96.5508 47 98.2025C47 99.8541 50.134 101.193 54 101.193Z" fill="#327F9D"/>
<path d="M53 163.994C56.866 163.994 60 162.656 60 161.004C60 159.352 56.866 158.013 53 158.013C49.134 158.013 46 159.352 46 161.004C46 162.656 49.134 163.994 53 163.994Z" fill="#327F9D"/>
<path d="M52 226.796C55.866 226.796 59 225.457 59 223.805C59 222.153 55.866 220.814 52 220.814C48.134 220.814 45 222.153 45 223.805C45 225.457 48.134 226.796 52 226.796Z" fill="#327F9D"/>
<path d="M51 289.596C54.866 289.596 58 288.257 58 286.606C58 284.954 54.866 283.615 51 283.615C47.134 283.615 44 284.954 44 286.606C44 288.257 47.134 289.596 51 289.596Z" fill="#327F9D"/>
<path d="M50 352.398C53.866 352.398 57 351.059 57 349.407C57 347.755 53.866 346.417 50 346.417C46.134 346.417 43 347.755 43 349.407C43 351.059 46.134 352.398 50 352.398Z" fill="#327F9D"/>
<path d="M49 415.199C52.866 415.199 56 413.86 56 412.209C56 410.557 52.866 409.218 49 409.218C45.134 409.218 42 410.557 42 412.209C42 413.86 45.134 415.199 49 415.199Z" fill="#327F9D"/>
<path d="M48 478C51.866 478 55 476.661 55 475.009C55 473.358 51.866 472.019 48 472.019C44.134 472.019 41 473.358 41 475.009C41 476.661 44.134 478 48 478Z" fill="#327F9D"/>
<path d="M49 540.802C52.866 540.802 56 539.463 56 537.811C56 536.16 52.866 534.821 49 534.821C45.134 534.821 42 536.16 42 537.811C42 539.463 45.134 540.802 49 540.802Z" fill="#327F9D"/>
</svg>
