<svg width="1278" height="45" viewBox="0 0 1278 45" fill="none" xmlns="http://www.w3.org/2000/svg">
<path d="M57.9608 0H0V39.838H0.0203219C0.0203219 39.8429 0.0190809 39.8478 0.0190809 39.8537C0.0190809 42.395 2.62169 44.4538 5.83177 44.4538C8.84997 44.4538 11.3293 42.6328 11.6165 40.3048C11.9037 42.6338 14.3831 44.4538 17.4013 44.4538C20.4195 44.4538 22.8989 42.6328 23.1874 40.3048C23.4733 42.6338 25.9527 44.4538 28.9708 44.4538C31.989 44.4538 34.4684 42.6328 34.7556 40.3048C35.0428 42.6338 37.5235 44.4538 40.5404 44.4538C43.5586 44.4538 46.0392 42.6328 46.3252 40.3048C46.6124 42.6338 49.0917 44.4538 52.1099 44.4538C55.32 44.4538 57.9239 42.394 57.9239 39.8537C57.9239 39.8488 57.9227 39.8439 57.9227 39.838H57.9621V0H57.9608ZM4.4021 38.2283C3.0042 38.2283 1.87066 37.3448 1.87066 36.255C1.87066 35.1652 3.0042 34.2817 4.4021 34.2817C5.8 34.2817 6.93358 35.1652 6.93358 36.255C6.93358 37.3448 5.8 38.2283 4.4021 38.2283ZM4.4021 6.43772C3.0042 6.43772 1.87066 5.55426 1.87066 4.46444C1.87066 3.37462 3.0042 2.49116 4.4021 2.49116C5.8 2.49116 6.93358 3.37462 6.93358 4.46444C6.93358 5.55328 5.8 6.43772 4.4021 6.43772ZM34.0834 2.49018C35.4825 2.49018 36.6148 3.37363 36.6148 4.46346C36.6148 5.55328 35.4813 6.43673 34.0834 6.43673C32.6842 6.43673 31.5519 5.55328 31.5519 4.46346C31.5506 3.37363 32.6842 2.49018 34.0834 2.49018ZM24.1888 2.49018C25.5879 2.49018 26.7202 3.37363 26.7202 4.46346C26.7202 5.55328 25.5867 6.43673 24.1888 6.43673C22.7896 6.43673 21.6573 5.55328 21.6573 4.46346C21.6573 3.37363 22.7909 2.49018 24.1888 2.49018ZM14.2954 2.49018C15.6946 2.49018 16.8269 3.37363 16.8269 4.46346C16.8269 5.55328 15.6933 6.43673 14.2954 6.43673C12.8963 6.43673 11.764 5.55328 11.764 4.46346C11.764 3.37363 12.8975 2.49018 14.2954 2.49018ZM14.2954 38.2283C12.8963 38.2283 11.764 37.3448 11.764 36.255C11.764 35.1652 12.8975 34.2817 14.2954 34.2817C15.6946 34.2817 16.8269 35.1652 16.8269 36.255C16.8269 37.3448 15.6946 38.2283 14.2954 38.2283ZM24.1888 38.2283C22.7896 38.2283 21.6573 37.3448 21.6573 36.255C21.6573 35.1652 22.7909 34.2817 24.1888 34.2817C25.5879 34.2817 26.7202 35.1652 26.7202 36.255C26.7215 37.3448 25.5879 38.2283 24.1888 38.2283ZM34.0834 38.2283C32.6842 38.2283 31.5519 37.3448 31.5519 36.255C31.5519 35.1652 32.6855 34.2817 34.0834 34.2817C35.4825 34.2817 36.6148 35.1652 36.6148 36.255C36.6148 37.3448 35.4813 38.2283 34.0834 38.2283ZM37.6861 23.752L38.6164 27.9806C38.9061 29.3043 37.1244 30.3146 35.5994 29.6896L30.7271 27.6927C30.121 27.4441 29.3979 27.4441 28.7917 27.6927L23.9193 29.6896C22.3944 30.3146 20.6114 29.3043 20.9024 27.9806L21.8327 23.752C21.9483 23.2263 21.7247 22.6897 21.2341 22.3173L17.292 19.322C16.0568 18.3845 16.738 16.7503 18.4434 16.5576L23.8901 15.9405C24.5675 15.8638 25.1533 15.5327 25.4558 15.0541L27.8919 11.2068C28.6544 10.002 30.858 10.002 31.6218 11.2068L34.0579 15.0541C34.3604 15.5327 34.945 15.8638 35.6223 15.9405L41.069 16.5576C42.7745 16.7512 43.4556 18.3845 42.2217 19.322L38.2796 22.3173C37.7942 22.6897 37.5705 23.2263 37.6861 23.752ZM43.9767 38.2283C42.5788 38.2283 41.4452 37.3448 41.4452 36.255C41.4452 35.1652 42.5801 34.2817 43.9767 34.2817C45.3759 34.2817 46.5082 35.1652 46.5082 36.255C46.5082 37.3448 45.3746 38.2283 43.9767 38.2283ZM43.9767 6.43772C42.5788 6.43772 41.4452 5.55426 41.4452 4.46444C41.4452 3.37462 42.5801 2.49116 43.9767 2.49116C45.3759 2.49116 46.5082 3.37462 46.5082 4.46444C46.5082 5.55328 45.3746 6.43772 43.9767 6.43772ZM53.87 38.2283C52.4721 38.2283 51.3385 37.3448 51.3385 36.255C51.3385 35.1652 52.4734 34.2817 53.87 34.2817C55.2692 34.2817 56.4027 35.1652 56.4027 36.255C56.4027 37.3448 55.2679 38.2283 53.87 38.2283ZM53.87 6.43772C52.4721 6.43772 51.3385 5.55426 51.3385 4.46444C51.3385 3.37462 52.4734 2.49116 53.87 2.49116C55.2692 2.49116 56.4027 3.37462 56.4027 4.46444C56.4027 5.55328 55.2679 6.43772 53.87 6.43772Z" fill="#004E54"/>
<path d="M249.997 0H192.038V39.838H192.058C192.058 39.8429 192.057 39.8478 192.057 39.8537C192.057 42.395 194.66 44.4538 197.87 44.4538C200.888 44.4538 203.367 42.6328 203.655 40.3048C203.942 42.6338 206.421 44.4538 209.439 44.4538C212.457 44.4538 214.937 42.6328 215.224 40.3048C215.511 42.6338 217.991 44.4538 221.009 44.4538C224.027 44.4538 226.506 42.6328 226.794 40.3048C227.081 42.6338 229.56 44.4538 232.578 44.4538C235.597 44.4538 238.076 42.6328 238.363 40.3048C238.649 42.6338 241.13 44.4538 244.148 44.4538C247.358 44.4538 249.961 42.394 249.961 39.8537C249.961 39.8488 249.959 39.8439 249.959 39.838H250V0H249.997ZM196.438 38.2283C195.04 38.2283 193.906 37.3448 193.906 36.255C193.906 35.1652 195.041 34.2817 196.438 34.2817C197.837 34.2817 198.969 35.1652 198.969 36.255C198.97 37.3448 197.837 38.2283 196.438 38.2283ZM196.438 6.43772C195.04 6.43772 193.906 5.55426 193.906 4.46444C193.906 3.37462 195.041 2.49116 196.438 2.49116C197.837 2.49116 198.969 3.37462 198.969 4.46444C198.97 5.55328 197.837 6.43772 196.438 6.43772ZM226.12 2.49018C227.519 2.49018 228.652 3.37363 228.652 4.46346C228.652 5.55328 227.518 6.43673 226.12 6.43673C224.721 6.43673 223.589 5.55328 223.589 4.46346C223.589 3.37363 224.721 2.49018 226.12 2.49018ZM216.227 2.49018C217.625 2.49018 218.758 3.37363 218.758 4.46346C218.758 5.55328 217.625 6.43673 216.227 6.43673C214.828 6.43673 213.694 5.55328 213.694 4.46346C213.694 3.37363 214.828 2.49018 216.227 2.49018ZM206.332 2.49018C207.731 2.49018 208.865 3.37363 208.865 4.46346C208.865 5.55328 207.73 6.43673 206.332 6.43673C204.934 6.43673 203.801 5.55328 203.801 4.46346C203.799 3.37363 204.934 2.49018 206.332 2.49018ZM206.332 38.2283C204.934 38.2283 203.801 37.3448 203.801 36.255C203.801 35.1652 204.935 34.2817 206.332 34.2817C207.731 34.2817 208.865 35.1652 208.865 36.255C208.865 37.3448 207.73 38.2283 206.332 38.2283ZM216.227 38.2283C214.828 38.2283 213.694 37.3448 213.694 36.255C213.694 35.1652 214.829 34.2817 216.227 34.2817C217.625 34.2817 218.758 35.1652 218.758 36.255C218.758 37.3448 217.623 38.2283 216.227 38.2283ZM226.12 38.2283C224.721 38.2283 223.589 37.3448 223.589 36.255C223.589 35.1652 224.722 34.2817 226.12 34.2817C227.519 34.2817 228.652 35.1652 228.652 36.255C228.652 37.3448 227.519 38.2283 226.12 38.2283ZM229.723 23.752L230.652 27.9806C230.943 29.3043 229.16 30.3146 227.635 29.6896L222.764 27.6927C222.156 27.4441 221.433 27.4441 220.828 27.6927L215.957 29.6896C214.431 30.3146 212.649 29.3043 212.939 27.9806L213.871 23.752C213.986 23.2263 213.763 22.6897 213.272 22.3173L209.33 19.322C208.096 18.3845 208.777 16.7503 210.483 16.5576L215.929 15.9405C216.607 15.8638 217.193 15.5327 217.495 15.0541L219.93 11.2068C220.694 10.002 222.897 10.002 223.66 11.2068L226.096 15.0541C226.398 15.5327 226.984 15.8638 227.662 15.9405L233.108 16.5576C234.814 16.7512 235.495 18.3845 234.26 19.322L230.318 22.3173C229.831 22.6897 229.606 23.2263 229.723 23.752ZM236.013 38.2283C234.614 38.2283 233.482 37.3448 233.482 36.255C233.482 35.1652 234.615 34.2817 236.013 34.2817C237.413 34.2817 238.545 35.1652 238.545 36.255C238.545 37.3448 237.413 38.2283 236.013 38.2283ZM236.013 6.43772C234.614 6.43772 233.482 5.55426 233.482 4.46444C233.482 3.37462 234.615 2.49116 236.013 2.49116C237.413 2.49116 238.545 3.37462 238.545 4.46444C238.545 5.55328 237.413 6.43772 236.013 6.43772ZM245.907 38.2283C244.508 38.2283 243.375 37.3448 243.375 36.255C243.375 35.1652 244.509 34.2817 245.907 34.2817C247.306 34.2817 248.438 35.1652 248.438 36.255C248.438 37.3448 247.306 38.2283 245.907 38.2283ZM245.907 6.43772C244.508 6.43772 243.375 5.55426 243.375 4.46444C243.375 3.37462 244.509 2.49116 245.907 2.49116C247.306 2.49116 248.438 3.37462 248.438 4.46444C248.438 5.55328 247.306 6.43772 245.907 6.43772Z" fill="#695397"/>
<path d="M122.226 0.546387H64.2664V40.3844H64.2868C64.2868 40.3893 64.2855 40.3942 64.2855 40.4001C64.2855 42.9404 66.8881 45.0001 70.0982 45.0001C73.1164 45.0001 75.5958 43.1792 75.883 40.8512C76.1702 43.1802 78.6496 45.0001 81.6678 45.0001C84.686 45.0001 87.1653 43.1792 87.4525 40.8512C87.7397 43.1802 90.2191 45.0001 93.2373 45.0001C96.2555 45.0001 98.7349 43.1792 99.0221 40.8512C99.3093 43.1802 101.789 45.0001 104.807 45.0001C107.825 45.0001 110.304 43.1792 110.592 40.8512C110.879 43.1802 113.358 45.0001 116.376 45.0001C119.586 45.0001 122.189 42.9404 122.189 40.4001C122.189 40.3952 122.188 40.3903 122.188 40.3844H122.228V0.546387H122.226ZM68.666 38.7757C67.2668 38.7757 66.1346 37.8922 66.1346 36.8014C66.1346 35.7116 67.2681 34.8281 68.666 34.8281C70.0652 34.8281 71.1975 35.7126 71.1975 36.8014C71.1987 37.8912 70.0652 38.7757 68.666 38.7757ZM68.666 6.9841C67.2668 6.9841 66.1346 6.10065 66.1346 5.01083C66.1346 3.921 67.2681 3.03755 68.666 3.03755C70.0652 3.03755 71.1975 3.921 71.1975 5.01083C71.1987 6.10065 70.0652 6.9841 68.666 6.9841ZM98.3485 3.03657C99.7464 3.03657 100.88 3.92002 100.88 5.00984C100.88 6.09967 99.7452 6.98312 98.3485 6.98312C96.9494 6.98312 95.8171 6.09967 95.8171 5.00984C95.8171 3.92002 96.9494 3.03657 98.3485 3.03657ZM88.4552 3.03657C89.8531 3.03657 90.9867 3.92002 90.9867 5.00984C90.9867 6.09967 89.8518 6.98312 88.4552 6.98312C87.056 6.98312 85.9237 6.09967 85.9237 5.00984C85.9225 3.92002 87.056 3.03657 88.4552 3.03657ZM78.5606 3.03657C79.9585 3.03657 81.0921 3.92002 81.0921 5.00984C81.0921 6.09967 79.9572 6.98312 78.5606 6.98312C77.1614 6.98312 76.0278 6.09967 76.0278 5.00984C76.0278 3.92002 77.1627 3.03657 78.5606 3.03657ZM78.5606 38.7757C77.1614 38.7757 76.0278 37.8922 76.0278 36.8014C76.0278 35.7116 77.1627 34.8281 78.5606 34.8281C79.9585 34.8281 81.0921 35.7126 81.0921 36.8014C81.0933 37.8912 79.9585 38.7757 78.5606 38.7757ZM88.4552 38.7757C87.056 38.7757 85.9237 37.8922 85.9237 36.8014C85.9237 35.7116 87.0573 34.8281 88.4552 34.8281C89.8531 34.8281 90.9867 35.7126 90.9867 36.8014C90.9867 37.8912 89.8518 38.7757 88.4552 38.7757ZM98.3485 38.7757C96.9494 38.7757 95.8171 37.8922 95.8171 36.8014C95.8171 35.7116 96.9506 34.8281 98.3485 34.8281C99.7464 34.8281 100.88 35.7126 100.88 36.8014C100.88 37.8912 99.7452 38.7757 98.3485 38.7757ZM101.95 24.2984L102.88 28.527C103.171 29.8507 101.388 30.8609 99.8633 30.2359L94.9923 28.2391C94.3848 27.9914 93.6618 27.9914 93.0568 28.2391L88.1858 30.2359C86.6595 30.8609 84.8766 29.8507 85.1676 28.527L86.0978 24.2984C86.2135 23.7727 85.9898 23.2361 85.4993 22.8637L81.5585 19.8684C80.3232 18.9309 81.0044 17.2966 82.7098 17.104L88.1565 16.4869C88.8339 16.4102 89.4185 16.0781 89.7209 15.6005L92.1571 11.7532C92.9209 10.5484 95.1245 10.5484 95.8869 11.7532L98.3231 15.6005C98.6255 16.0791 99.2114 16.4112 99.8887 16.4869L105.335 17.104C107.041 17.2976 107.722 18.9309 106.487 19.8684L102.545 22.8637C102.059 23.2361 101.834 23.7727 101.95 24.2984ZM108.242 38.7757C106.843 38.7757 105.71 37.8922 105.71 36.8014C105.71 35.7116 106.844 34.8281 108.242 34.8281C109.641 34.8281 110.773 35.7126 110.773 36.8014C110.773 37.8912 109.641 38.7757 108.242 38.7757ZM108.242 6.9841C106.843 6.9841 105.71 6.10065 105.71 5.01083C105.71 3.921 106.844 3.03755 108.242 3.03755C109.641 3.03755 110.773 3.921 110.773 5.01083C110.773 6.10065 109.641 6.9841 108.242 6.9841ZM118.135 38.7757C116.737 38.7757 115.604 37.8922 115.604 36.8014C115.604 35.7116 116.737 34.8281 118.135 34.8281C119.534 34.8281 120.667 35.7126 120.667 36.8014C120.667 37.8912 119.534 38.7757 118.135 38.7757ZM118.135 6.9841C116.737 6.9841 115.604 6.10065 115.604 5.01083C115.604 3.921 116.737 3.03755 118.135 3.03755C119.534 3.03755 120.667 3.921 120.667 5.01083C120.667 6.10065 119.534 6.9841 118.135 6.9841Z" fill="#C40052"/>
<path d="M185.797 0.546387H127.838V40.3844H127.858C127.858 40.3893 127.857 40.3942 127.857 40.4001C127.857 42.9404 130.461 45.0001 133.671 45.0001C136.689 45.0001 139.168 43.1792 139.456 40.8512C139.741 43.1802 142.222 45.0001 145.24 45.0001C148.259 45.0001 150.738 43.1792 151.025 40.8512C151.312 43.1802 153.792 45.0001 156.81 45.0001C159.828 45.0001 162.307 43.1792 162.595 40.8512C162.882 43.1802 165.361 45.0001 168.379 45.0001C171.396 45.0001 173.877 43.1792 174.164 40.8512C174.451 43.1802 176.931 45.0001 179.949 45.0001C183.159 45.0001 185.762 42.9404 185.762 40.4001C185.762 40.3952 185.76 40.3903 185.76 40.3844H185.8V0.546387H185.797ZM132.24 38.7757C130.842 38.7757 129.708 37.8922 129.708 36.8014C129.708 35.7116 130.842 34.8281 132.24 34.8281C133.639 34.8281 134.771 35.7126 134.771 36.8014C134.771 37.8912 133.638 38.7757 132.24 38.7757ZM132.24 6.9841C130.842 6.9841 129.708 6.10065 129.708 5.01083C129.708 3.921 130.842 3.03755 132.24 3.03755C133.639 3.03755 134.771 3.921 134.771 5.01083C134.771 6.10065 133.638 6.9841 132.24 6.9841ZM161.92 3.03657C163.319 3.03657 164.451 3.92002 164.451 5.00984C164.451 6.09967 163.318 6.98312 161.92 6.98312C160.522 6.98312 159.388 6.09967 159.388 5.00984C159.388 3.92002 160.523 3.03657 161.92 3.03657ZM152.026 3.03657C153.424 3.03657 154.558 3.92002 154.558 5.00984C154.558 6.09967 153.424 6.98312 152.026 6.98312C150.627 6.98312 149.495 6.09967 149.495 5.00984C149.495 3.92002 150.629 3.03657 152.026 3.03657ZM142.133 3.03657C143.532 3.03657 144.665 3.92002 144.665 5.00984C144.665 6.09967 143.531 6.98312 142.133 6.98312C140.734 6.98312 139.602 6.09967 139.602 5.00984C139.602 3.92002 140.734 3.03657 142.133 3.03657ZM142.133 38.7757C140.734 38.7757 139.602 37.8922 139.602 36.8014C139.602 35.7116 140.735 34.8281 142.133 34.8281C143.532 34.8281 144.665 35.7126 144.665 36.8014C144.665 37.8912 143.532 38.7757 142.133 38.7757ZM152.026 38.7757C150.627 38.7757 149.495 37.8922 149.495 36.8014C149.495 35.7116 150.629 34.8281 152.026 34.8281C153.424 34.8281 154.558 35.7126 154.558 36.8014C154.558 37.8912 153.426 38.7757 152.026 38.7757ZM161.92 38.7757C160.522 38.7757 159.388 37.8922 159.388 36.8014C159.388 35.7116 160.523 34.8281 161.92 34.8281C163.319 34.8281 164.451 35.7126 164.451 36.8014C164.453 37.8912 163.319 38.7757 161.92 38.7757ZM165.523 24.2984L166.453 28.527C166.744 29.8507 164.961 30.8609 163.436 30.2359L158.564 28.2391C157.957 27.9914 157.234 27.9914 156.629 28.2391L151.757 30.2359C150.232 30.8609 148.449 29.8507 148.74 28.527L149.67 24.2984C149.786 23.7727 149.562 23.2361 149.072 22.8637L145.13 19.8684C143.896 18.9309 144.576 17.2966 146.282 17.104L151.729 16.4869C152.405 16.4102 152.991 16.0781 153.294 15.6005L155.73 11.7532C156.493 10.5484 158.696 10.5484 159.458 11.7532L161.894 15.6005C162.197 16.0791 162.783 16.4112 163.459 16.4869L168.905 17.104C170.611 17.2976 171.292 18.9309 170.058 19.8684L166.117 22.8637C165.631 23.2361 165.407 23.7727 165.523 24.2984ZM171.813 38.7757C170.415 38.7757 169.282 37.8922 169.282 36.8014C169.282 35.7116 170.417 34.8281 171.813 34.8281C173.212 34.8281 174.346 35.7126 174.346 36.8014C174.347 37.8912 173.212 38.7757 171.813 38.7757ZM171.813 6.9841C170.415 6.9841 169.282 6.10065 169.282 5.01083C169.282 3.921 170.417 3.03755 171.813 3.03755C173.212 3.03755 174.346 3.921 174.346 5.01083C174.347 6.10065 173.212 6.9841 171.813 6.9841ZM181.709 38.7757C180.31 38.7757 179.176 37.8922 179.176 36.8014C179.176 35.7116 180.311 34.8281 181.709 34.8281C183.107 34.8281 184.24 35.7126 184.24 36.8014C184.24 37.8912 183.106 38.7757 181.709 38.7757ZM181.709 6.9841C180.31 6.9841 179.176 6.10065 179.176 5.01083C179.176 3.921 180.311 3.03755 181.709 3.03755C183.107 3.03755 184.24 3.921 184.24 5.01083C184.24 6.10065 183.106 6.9841 181.709 6.9841Z" fill="#EEEC5A"/>
<path d="M314.961 0H257V39.838H257.02C257.02 39.8429 257.019 39.8478 257.019 39.8537C257.019 42.395 259.622 44.4538 262.832 44.4538C265.85 44.4538 268.329 42.6328 268.617 40.3048C268.904 42.6338 271.383 44.4538 274.401 44.4538C277.42 44.4538 279.899 42.6328 280.187 40.3048C280.473 42.6338 282.953 44.4538 285.971 44.4538C288.989 44.4538 291.468 42.6328 291.756 40.3048C292.043 42.6338 294.523 44.4538 297.54 44.4538C300.559 44.4538 303.039 42.6328 303.325 40.3048C303.612 42.6338 306.092 44.4538 309.11 44.4538C312.32 44.4538 314.924 42.394 314.924 39.8537C314.924 39.8488 314.923 39.8439 314.923 39.838H314.962V0H314.961ZM261.402 38.2283C260.004 38.2283 258.871 37.3448 258.871 36.255C258.871 35.1652 260.004 34.2817 261.402 34.2817C262.8 34.2817 263.934 35.1652 263.934 36.255C263.934 37.3448 262.8 38.2283 261.402 38.2283ZM261.402 6.43772C260.004 6.43772 258.871 5.55426 258.871 4.46444C258.871 3.37462 260.004 2.49116 261.402 2.49116C262.8 2.49116 263.934 3.37462 263.934 4.46444C263.934 5.55328 262.8 6.43772 261.402 6.43772ZM291.083 2.49018C292.483 2.49018 293.615 3.37363 293.615 4.46346C293.615 5.55328 292.481 6.43673 291.083 6.43673C289.684 6.43673 288.552 5.55328 288.552 4.46346C288.551 3.37363 289.684 2.49018 291.083 2.49018ZM281.189 2.49018C282.588 2.49018 283.72 3.37363 283.72 4.46346C283.72 5.55328 282.587 6.43673 281.189 6.43673C279.79 6.43673 278.657 5.55328 278.657 4.46346C278.657 3.37363 279.791 2.49018 281.189 2.49018ZM271.295 2.49018C272.695 2.49018 273.827 3.37363 273.827 4.46346C273.827 5.55328 272.693 6.43673 271.295 6.43673C269.896 6.43673 268.764 5.55328 268.764 4.46346C268.764 3.37363 269.898 2.49018 271.295 2.49018ZM271.295 38.2283C269.896 38.2283 268.764 37.3448 268.764 36.255C268.764 35.1652 269.898 34.2817 271.295 34.2817C272.695 34.2817 273.827 35.1652 273.827 36.255C273.827 37.3448 272.695 38.2283 271.295 38.2283ZM281.189 38.2283C279.79 38.2283 278.657 37.3448 278.657 36.255C278.657 35.1652 279.791 34.2817 281.189 34.2817C282.588 34.2817 283.72 35.1652 283.72 36.255C283.722 37.3448 282.588 38.2283 281.189 38.2283ZM291.083 38.2283C289.684 38.2283 288.552 37.3448 288.552 36.255C288.552 35.1652 289.685 34.2817 291.083 34.2817C292.483 34.2817 293.615 35.1652 293.615 36.255C293.615 37.3448 292.481 38.2283 291.083 38.2283ZM294.686 23.752L295.616 27.9806C295.906 29.3043 294.124 30.3146 292.599 29.6896L287.727 27.6927C287.121 27.4441 286.398 27.4441 285.792 27.6927L280.919 29.6896C279.394 30.3146 277.611 29.3043 277.902 27.9806L278.833 23.752C278.948 23.2263 278.725 22.6897 278.234 22.3173L274.292 19.322C273.057 18.3845 273.738 16.7503 275.443 16.5576L280.89 15.9405C281.567 15.8638 282.153 15.5327 282.456 15.0541L284.892 11.2068C285.654 10.002 287.858 10.002 288.622 11.2068L291.058 15.0541C291.36 15.5327 291.945 15.8638 292.622 15.9405L298.069 16.5576C299.774 16.7512 300.456 18.3845 299.222 19.322L295.28 22.3173C294.794 22.6897 294.57 23.2263 294.686 23.752ZM300.977 38.2283C299.579 38.2283 298.445 37.3448 298.445 36.255C298.445 35.1652 299.58 34.2817 300.977 34.2817C302.376 34.2817 303.508 35.1652 303.508 36.255C303.508 37.3448 302.375 38.2283 300.977 38.2283ZM300.977 6.43772C299.579 6.43772 298.445 5.55426 298.445 4.46444C298.445 3.37462 299.58 2.49116 300.977 2.49116C302.376 2.49116 303.508 3.37462 303.508 4.46444C303.508 5.55328 302.375 6.43772 300.977 6.43772ZM310.87 38.2283C309.472 38.2283 308.339 37.3448 308.339 36.255C308.339 35.1652 309.473 34.2817 310.87 34.2817C312.269 34.2817 313.403 35.1652 313.403 36.255C313.403 37.3448 312.268 38.2283 310.87 38.2283ZM310.87 6.43772C309.472 6.43772 308.339 5.55426 308.339 4.46444C308.339 3.37462 309.473 2.49116 310.87 2.49116C312.269 2.49116 313.403 3.37462 313.403 4.46444C313.403 5.55328 312.268 6.43772 310.87 6.43772Z" fill="#004E54"/>
<path d="M506.997 0H449.038V39.838H449.058C449.058 39.8429 449.057 39.8478 449.057 39.8537C449.057 42.395 451.66 44.4538 454.87 44.4538C457.888 44.4538 460.367 42.6328 460.655 40.3048C460.942 42.6338 463.421 44.4538 466.439 44.4538C469.457 44.4538 471.937 42.6328 472.224 40.3048C472.511 42.6338 474.991 44.4538 478.009 44.4538C481.027 44.4538 483.506 42.6328 483.794 40.3048C484.081 42.6338 486.56 44.4538 489.578 44.4538C492.597 44.4538 495.076 42.6328 495.363 40.3048C495.649 42.6338 498.13 44.4538 501.148 44.4538C504.358 44.4538 506.961 42.394 506.961 39.8537C506.961 39.8488 506.959 39.8439 506.959 39.838H507V0H506.997ZM453.438 38.2283C452.04 38.2283 450.906 37.3448 450.906 36.255C450.906 35.1652 452.041 34.2817 453.438 34.2817C454.837 34.2817 455.969 35.1652 455.969 36.255C455.97 37.3448 454.837 38.2283 453.438 38.2283ZM453.438 6.43772C452.04 6.43772 450.906 5.55426 450.906 4.46444C450.906 3.37462 452.041 2.49116 453.438 2.49116C454.837 2.49116 455.969 3.37462 455.969 4.46444C455.97 5.55328 454.837 6.43772 453.438 6.43772ZM483.12 2.49018C484.519 2.49018 485.652 3.37363 485.652 4.46346C485.652 5.55328 484.518 6.43673 483.12 6.43673C481.721 6.43673 480.589 5.55328 480.589 4.46346C480.589 3.37363 481.721 2.49018 483.12 2.49018ZM473.227 2.49018C474.625 2.49018 475.758 3.37363 475.758 4.46346C475.758 5.55328 474.625 6.43673 473.227 6.43673C471.828 6.43673 470.694 5.55328 470.694 4.46346C470.694 3.37363 471.828 2.49018 473.227 2.49018ZM463.332 2.49018C464.731 2.49018 465.865 3.37363 465.865 4.46346C465.865 5.55328 464.73 6.43673 463.332 6.43673C461.934 6.43673 460.801 5.55328 460.801 4.46346C460.799 3.37363 461.934 2.49018 463.332 2.49018ZM463.332 38.2283C461.934 38.2283 460.801 37.3448 460.801 36.255C460.801 35.1652 461.935 34.2817 463.332 34.2817C464.731 34.2817 465.865 35.1652 465.865 36.255C465.865 37.3448 464.73 38.2283 463.332 38.2283ZM473.227 38.2283C471.828 38.2283 470.694 37.3448 470.694 36.255C470.694 35.1652 471.829 34.2817 473.227 34.2817C474.625 34.2817 475.758 35.1652 475.758 36.255C475.758 37.3448 474.623 38.2283 473.227 38.2283ZM483.12 38.2283C481.721 38.2283 480.589 37.3448 480.589 36.255C480.589 35.1652 481.722 34.2817 483.12 34.2817C484.519 34.2817 485.652 35.1652 485.652 36.255C485.652 37.3448 484.519 38.2283 483.12 38.2283ZM486.723 23.752L487.652 27.9806C487.943 29.3043 486.16 30.3146 484.635 29.6896L479.764 27.6927C479.156 27.4441 478.433 27.4441 477.828 27.6927L472.957 29.6896C471.431 30.3146 469.649 29.3043 469.939 27.9806L470.871 23.752C470.986 23.2263 470.763 22.6897 470.272 22.3173L466.33 19.322C465.096 18.3845 465.777 16.7503 467.483 16.5576L472.929 15.9405C473.607 15.8638 474.193 15.5327 474.495 15.0541L476.93 11.2068C477.694 10.002 479.897 10.002 480.66 11.2068L483.096 15.0541C483.398 15.5327 483.984 15.8638 484.662 15.9405L490.108 16.5576C491.814 16.7512 492.495 18.3845 491.26 19.322L487.318 22.3173C486.831 22.6897 486.606 23.2263 486.723 23.752ZM493.013 38.2283C491.614 38.2283 490.482 37.3448 490.482 36.255C490.482 35.1652 491.615 34.2817 493.013 34.2817C494.413 34.2817 495.545 35.1652 495.545 36.255C495.545 37.3448 494.413 38.2283 493.013 38.2283ZM493.013 6.43772C491.614 6.43772 490.482 5.55426 490.482 4.46444C490.482 3.37462 491.615 2.49116 493.013 2.49116C494.413 2.49116 495.545 3.37462 495.545 4.46444C495.545 5.55328 494.413 6.43772 493.013 6.43772ZM502.907 38.2283C501.508 38.2283 500.375 37.3448 500.375 36.255C500.375 35.1652 501.509 34.2817 502.907 34.2817C504.306 34.2817 505.438 35.1652 505.438 36.255C505.438 37.3448 504.306 38.2283 502.907 38.2283ZM502.907 6.43772C501.508 6.43772 500.375 5.55426 500.375 4.46444C500.375 3.37462 501.509 2.49116 502.907 2.49116C504.306 2.49116 505.438 3.37462 505.438 4.46444C505.438 5.55328 504.306 6.43772 502.907 6.43772Z" fill="#695397"/>
<path d="M379.226 0.546387H321.266V40.3844H321.287C321.287 40.3893 321.285 40.3942 321.285 40.4001C321.285 42.9404 323.888 45.0001 327.098 45.0001C330.116 45.0001 332.596 43.1792 332.883 40.8512C333.17 43.1802 335.65 45.0001 338.668 45.0001C341.686 45.0001 344.165 43.1792 344.453 40.8512C344.74 43.1802 347.219 45.0001 350.237 45.0001C353.255 45.0001 355.735 43.1792 356.022 40.8512C356.309 43.1802 358.789 45.0001 361.807 45.0001C364.825 45.0001 367.304 43.1792 367.592 40.8512C367.879 43.1802 370.358 45.0001 373.376 45.0001C376.586 45.0001 379.189 42.9404 379.189 40.4001C379.189 40.3952 379.188 40.3903 379.188 40.3844H379.228V0.546387H379.226ZM325.666 38.7757C324.267 38.7757 323.135 37.8922 323.135 36.8014C323.135 35.7116 324.268 34.8281 325.666 34.8281C327.065 34.8281 328.197 35.7126 328.197 36.8014C328.199 37.8912 327.065 38.7757 325.666 38.7757ZM325.666 6.9841C324.267 6.9841 323.135 6.10065 323.135 5.01083C323.135 3.921 324.268 3.03755 325.666 3.03755C327.065 3.03755 328.197 3.921 328.197 5.01083C328.199 6.10065 327.065 6.9841 325.666 6.9841ZM355.349 3.03657C356.746 3.03657 357.88 3.92002 357.88 5.00984C357.88 6.09967 356.745 6.98312 355.349 6.98312C353.949 6.98312 352.817 6.09967 352.817 5.00984C352.817 3.92002 353.949 3.03657 355.349 3.03657ZM345.455 3.03657C346.853 3.03657 347.987 3.92002 347.987 5.00984C347.987 6.09967 346.852 6.98312 345.455 6.98312C344.056 6.98312 342.924 6.09967 342.924 5.00984C342.922 3.92002 344.056 3.03657 345.455 3.03657ZM335.561 3.03657C336.959 3.03657 338.092 3.92002 338.092 5.00984C338.092 6.09967 336.957 6.98312 335.561 6.98312C334.161 6.98312 333.028 6.09967 333.028 5.00984C333.028 3.92002 334.163 3.03657 335.561 3.03657ZM335.561 38.7757C334.161 38.7757 333.028 37.8922 333.028 36.8014C333.028 35.7116 334.163 34.8281 335.561 34.8281C336.959 34.8281 338.092 35.7126 338.092 36.8014C338.093 37.8912 336.959 38.7757 335.561 38.7757ZM345.455 38.7757C344.056 38.7757 342.924 37.8922 342.924 36.8014C342.924 35.7116 344.057 34.8281 345.455 34.8281C346.853 34.8281 347.987 35.7126 347.987 36.8014C347.987 37.8912 346.852 38.7757 345.455 38.7757ZM355.349 38.7757C353.949 38.7757 352.817 37.8922 352.817 36.8014C352.817 35.7116 353.951 34.8281 355.349 34.8281C356.746 34.8281 357.88 35.7126 357.88 36.8014C357.88 37.8912 356.745 38.7757 355.349 38.7757ZM358.95 24.2984L359.88 28.527C360.171 29.8507 358.388 30.8609 356.863 30.2359L351.992 28.2391C351.385 27.9914 350.662 27.9914 350.057 28.2391L345.186 30.2359C343.66 30.8609 341.877 29.8507 342.168 28.527L343.098 24.2984C343.213 23.7727 342.99 23.2361 342.499 22.8637L338.558 19.8684C337.323 18.9309 338.004 17.2966 339.71 17.104L345.157 16.4869C345.834 16.4102 346.418 16.0781 346.721 15.6005L349.157 11.7532C349.921 10.5484 352.124 10.5484 352.887 11.7532L355.323 15.6005C355.626 16.0791 356.211 16.4112 356.889 16.4869L362.335 17.104C364.041 17.2976 364.722 18.9309 363.487 19.8684L359.545 22.8637C359.059 23.2361 358.834 23.7727 358.95 24.2984ZM365.242 38.7757C363.843 38.7757 362.71 37.8922 362.71 36.8014C362.71 35.7116 363.844 34.8281 365.242 34.8281C366.641 34.8281 367.773 35.7126 367.773 36.8014C367.773 37.8912 366.641 38.7757 365.242 38.7757ZM365.242 6.9841C363.843 6.9841 362.71 6.10065 362.71 5.01083C362.71 3.921 363.844 3.03755 365.242 3.03755C366.641 3.03755 367.773 3.921 367.773 5.01083C367.773 6.10065 366.641 6.9841 365.242 6.9841ZM375.135 38.7757C373.737 38.7757 372.604 37.8922 372.604 36.8014C372.604 35.7116 373.737 34.8281 375.135 34.8281C376.534 34.8281 377.667 35.7126 377.667 36.8014C377.667 37.8912 376.534 38.7757 375.135 38.7757ZM375.135 6.9841C373.737 6.9841 372.604 6.10065 372.604 5.01083C372.604 3.921 373.737 3.03755 375.135 3.03755C376.534 3.03755 377.667 3.921 377.667 5.01083C377.667 6.10065 376.534 6.9841 375.135 6.9841Z" fill="#C40052"/>
<path d="M442.797 0.546387H384.838V40.3844H384.858C384.858 40.3893 384.857 40.3942 384.857 40.4001C384.857 42.9404 387.461 45.0001 390.671 45.0001C393.689 45.0001 396.168 43.1792 396.456 40.8512C396.741 43.1802 399.222 45.0001 402.24 45.0001C405.259 45.0001 407.738 43.1792 408.025 40.8512C408.312 43.1802 410.792 45.0001 413.81 45.0001C416.828 45.0001 419.307 43.1792 419.595 40.8512C419.882 43.1802 422.361 45.0001 425.379 45.0001C428.396 45.0001 430.877 43.1792 431.164 40.8512C431.451 43.1802 433.931 45.0001 436.949 45.0001C440.159 45.0001 442.762 42.9404 442.762 40.4001C442.762 40.3952 442.76 40.3903 442.76 40.3844H442.8V0.546387H442.797ZM389.24 38.7757C387.842 38.7757 386.708 37.8922 386.708 36.8014C386.708 35.7116 387.842 34.8281 389.24 34.8281C390.639 34.8281 391.771 35.7126 391.771 36.8014C391.771 37.8912 390.638 38.7757 389.24 38.7757ZM389.24 6.9841C387.842 6.9841 386.708 6.10065 386.708 5.01083C386.708 3.921 387.842 3.03755 389.24 3.03755C390.639 3.03755 391.771 3.921 391.771 5.01083C391.771 6.10065 390.638 6.9841 389.24 6.9841ZM418.92 3.03657C420.319 3.03657 421.451 3.92002 421.451 5.00984C421.451 6.09967 420.318 6.98312 418.92 6.98312C417.522 6.98312 416.388 6.09967 416.388 5.00984C416.388 3.92002 417.523 3.03657 418.92 3.03657ZM409.026 3.03657C410.424 3.03657 411.558 3.92002 411.558 5.00984C411.558 6.09967 410.424 6.98312 409.026 6.98312C407.627 6.98312 406.495 6.09967 406.495 5.00984C406.495 3.92002 407.629 3.03657 409.026 3.03657ZM399.133 3.03657C400.532 3.03657 401.665 3.92002 401.665 5.00984C401.665 6.09967 400.531 6.98312 399.133 6.98312C397.734 6.98312 396.602 6.09967 396.602 5.00984C396.602 3.92002 397.734 3.03657 399.133 3.03657ZM399.133 38.7757C397.734 38.7757 396.602 37.8922 396.602 36.8014C396.602 35.7116 397.735 34.8281 399.133 34.8281C400.532 34.8281 401.665 35.7126 401.665 36.8014C401.665 37.8912 400.532 38.7757 399.133 38.7757ZM409.026 38.7757C407.627 38.7757 406.495 37.8922 406.495 36.8014C406.495 35.7116 407.629 34.8281 409.026 34.8281C410.424 34.8281 411.558 35.7126 411.558 36.8014C411.558 37.8912 410.426 38.7757 409.026 38.7757ZM418.92 38.7757C417.522 38.7757 416.388 37.8922 416.388 36.8014C416.388 35.7116 417.523 34.8281 418.92 34.8281C420.319 34.8281 421.451 35.7126 421.451 36.8014C421.453 37.8912 420.319 38.7757 418.92 38.7757ZM422.523 24.2984L423.453 28.527C423.744 29.8507 421.961 30.8609 420.436 30.2359L415.564 28.2391C414.957 27.9914 414.234 27.9914 413.629 28.2391L408.757 30.2359C407.232 30.8609 405.449 29.8507 405.74 28.527L406.67 24.2984C406.786 23.7727 406.562 23.2361 406.072 22.8637L402.13 19.8684C400.896 18.9309 401.576 17.2966 403.282 17.104L408.729 16.4869C409.405 16.4102 409.991 16.0781 410.294 15.6005L412.73 11.7532C413.493 10.5484 415.696 10.5484 416.458 11.7532L418.894 15.6005C419.197 16.0791 419.783 16.4112 420.459 16.4869L425.905 17.104C427.611 17.2976 428.292 18.9309 427.058 19.8684L423.117 22.8637C422.631 23.2361 422.407 23.7727 422.523 24.2984ZM428.813 38.7757C427.415 38.7757 426.282 37.8922 426.282 36.8014C426.282 35.7116 427.417 34.8281 428.813 34.8281C430.212 34.8281 431.346 35.7126 431.346 36.8014C431.347 37.8912 430.212 38.7757 428.813 38.7757ZM428.813 6.9841C427.415 6.9841 426.282 6.10065 426.282 5.01083C426.282 3.921 427.417 3.03755 428.813 3.03755C430.212 3.03755 431.346 3.921 431.346 5.01083C431.347 6.10065 430.212 6.9841 428.813 6.9841ZM438.709 38.7757C437.31 38.7757 436.176 37.8922 436.176 36.8014C436.176 35.7116 437.311 34.8281 438.709 34.8281C440.107 34.8281 441.24 35.7126 441.24 36.8014C441.24 37.8912 440.106 38.7757 438.709 38.7757ZM438.709 6.9841C437.31 6.9841 436.176 6.10065 436.176 5.01083C436.176 3.921 437.311 3.03755 438.709 3.03755C440.107 3.03755 441.24 3.921 441.24 5.01083C441.24 6.10065 440.106 6.9841 438.709 6.9841Z" fill="#EEEC5A"/>
<path d="M571.961 0H514V39.838H514.02C514.02 39.8429 514.019 39.8478 514.019 39.8537C514.019 42.395 516.622 44.4538 519.832 44.4538C522.85 44.4538 525.329 42.6328 525.617 40.3048C525.904 42.6338 528.383 44.4538 531.401 44.4538C534.42 44.4538 536.899 42.6328 537.187 40.3048C537.473 42.6338 539.953 44.4538 542.971 44.4538C545.989 44.4538 548.468 42.6328 548.756 40.3048C549.043 42.6338 551.523 44.4538 554.54 44.4538C557.559 44.4538 560.039 42.6328 560.325 40.3048C560.612 42.6338 563.092 44.4538 566.11 44.4538C569.32 44.4538 571.924 42.394 571.924 39.8537C571.924 39.8488 571.923 39.8439 571.923 39.838H571.962V0H571.961ZM518.402 38.2283C517.004 38.2283 515.871 37.3448 515.871 36.255C515.871 35.1652 517.004 34.2817 518.402 34.2817C519.8 34.2817 520.934 35.1652 520.934 36.255C520.934 37.3448 519.8 38.2283 518.402 38.2283ZM518.402 6.43772C517.004 6.43772 515.871 5.55426 515.871 4.46444C515.871 3.37462 517.004 2.49116 518.402 2.49116C519.8 2.49116 520.934 3.37462 520.934 4.46444C520.934 5.55328 519.8 6.43772 518.402 6.43772ZM548.083 2.49018C549.483 2.49018 550.615 3.37363 550.615 4.46346C550.615 5.55328 549.481 6.43673 548.083 6.43673C546.684 6.43673 545.552 5.55328 545.552 4.46346C545.551 3.37363 546.684 2.49018 548.083 2.49018ZM538.189 2.49018C539.588 2.49018 540.72 3.37363 540.72 4.46346C540.72 5.55328 539.587 6.43673 538.189 6.43673C536.79 6.43673 535.657 5.55328 535.657 4.46346C535.657 3.37363 536.791 2.49018 538.189 2.49018ZM528.295 2.49018C529.695 2.49018 530.827 3.37363 530.827 4.46346C530.827 5.55328 529.693 6.43673 528.295 6.43673C526.896 6.43673 525.764 5.55328 525.764 4.46346C525.764 3.37363 526.898 2.49018 528.295 2.49018ZM528.295 38.2283C526.896 38.2283 525.764 37.3448 525.764 36.255C525.764 35.1652 526.898 34.2817 528.295 34.2817C529.695 34.2817 530.827 35.1652 530.827 36.255C530.827 37.3448 529.695 38.2283 528.295 38.2283ZM538.189 38.2283C536.79 38.2283 535.657 37.3448 535.657 36.255C535.657 35.1652 536.791 34.2817 538.189 34.2817C539.588 34.2817 540.72 35.1652 540.72 36.255C540.722 37.3448 539.588 38.2283 538.189 38.2283ZM548.083 38.2283C546.684 38.2283 545.552 37.3448 545.552 36.255C545.552 35.1652 546.685 34.2817 548.083 34.2817C549.483 34.2817 550.615 35.1652 550.615 36.255C550.615 37.3448 549.481 38.2283 548.083 38.2283ZM551.686 23.752L552.616 27.9806C552.906 29.3043 551.124 30.3146 549.599 29.6896L544.727 27.6927C544.121 27.4441 543.398 27.4441 542.792 27.6927L537.919 29.6896C536.394 30.3146 534.611 29.3043 534.902 27.9806L535.833 23.752C535.948 23.2263 535.725 22.6897 535.234 22.3173L531.292 19.322C530.057 18.3845 530.738 16.7503 532.443 16.5576L537.89 15.9405C538.567 15.8638 539.153 15.5327 539.456 15.0541L541.892 11.2068C542.654 10.002 544.858 10.002 545.622 11.2068L548.058 15.0541C548.36 15.5327 548.945 15.8638 549.622 15.9405L555.069 16.5576C556.774 16.7512 557.456 18.3845 556.222 19.322L552.28 22.3173C551.794 22.6897 551.57 23.2263 551.686 23.752ZM557.977 38.2283C556.579 38.2283 555.445 37.3448 555.445 36.255C555.445 35.1652 556.58 34.2817 557.977 34.2817C559.376 34.2817 560.508 35.1652 560.508 36.255C560.508 37.3448 559.375 38.2283 557.977 38.2283ZM557.977 6.43772C556.579 6.43772 555.445 5.55426 555.445 4.46444C555.445 3.37462 556.58 2.49116 557.977 2.49116C559.376 2.49116 560.508 3.37462 560.508 4.46444C560.508 5.55328 559.375 6.43772 557.977 6.43772ZM567.87 38.2283C566.472 38.2283 565.339 37.3448 565.339 36.255C565.339 35.1652 566.473 34.2817 567.87 34.2817C569.269 34.2817 570.403 35.1652 570.403 36.255C570.403 37.3448 569.268 38.2283 567.87 38.2283ZM567.87 6.43772C566.472 6.43772 565.339 5.55426 565.339 4.46444C565.339 3.37462 566.473 2.49116 567.87 2.49116C569.269 2.49116 570.403 3.37462 570.403 4.46444C570.403 5.55328 569.268 6.43772 567.87 6.43772Z" fill="#004E54"/>
<path d="M763.997 0H706.038V39.838H706.058C706.058 39.8429 706.057 39.8478 706.057 39.8537C706.057 42.395 708.66 44.4538 711.87 44.4538C714.888 44.4538 717.367 42.6328 717.655 40.3048C717.942 42.6338 720.421 44.4538 723.439 44.4538C726.457 44.4538 728.937 42.6328 729.224 40.3048C729.511 42.6338 731.991 44.4538 735.009 44.4538C738.027 44.4538 740.506 42.6328 740.794 40.3048C741.081 42.6338 743.56 44.4538 746.578 44.4538C749.597 44.4538 752.076 42.6328 752.363 40.3048C752.649 42.6338 755.13 44.4538 758.148 44.4538C761.358 44.4538 763.961 42.394 763.961 39.8537C763.961 39.8488 763.959 39.8439 763.959 39.838H764V0H763.997ZM710.438 38.2283C709.04 38.2283 707.906 37.3448 707.906 36.255C707.906 35.1652 709.041 34.2817 710.438 34.2817C711.837 34.2817 712.969 35.1652 712.969 36.255C712.97 37.3448 711.837 38.2283 710.438 38.2283ZM710.438 6.43772C709.04 6.43772 707.906 5.55426 707.906 4.46444C707.906 3.37462 709.041 2.49116 710.438 2.49116C711.837 2.49116 712.969 3.37462 712.969 4.46444C712.97 5.55328 711.837 6.43772 710.438 6.43772ZM740.12 2.49018C741.519 2.49018 742.652 3.37363 742.652 4.46346C742.652 5.55328 741.518 6.43673 740.12 6.43673C738.721 6.43673 737.589 5.55328 737.589 4.46346C737.589 3.37363 738.721 2.49018 740.12 2.49018ZM730.227 2.49018C731.625 2.49018 732.758 3.37363 732.758 4.46346C732.758 5.55328 731.625 6.43673 730.227 6.43673C728.828 6.43673 727.694 5.55328 727.694 4.46346C727.694 3.37363 728.828 2.49018 730.227 2.49018ZM720.332 2.49018C721.731 2.49018 722.865 3.37363 722.865 4.46346C722.865 5.55328 721.73 6.43673 720.332 6.43673C718.934 6.43673 717.801 5.55328 717.801 4.46346C717.799 3.37363 718.934 2.49018 720.332 2.49018ZM720.332 38.2283C718.934 38.2283 717.801 37.3448 717.801 36.255C717.801 35.1652 718.935 34.2817 720.332 34.2817C721.731 34.2817 722.865 35.1652 722.865 36.255C722.865 37.3448 721.73 38.2283 720.332 38.2283ZM730.227 38.2283C728.828 38.2283 727.694 37.3448 727.694 36.255C727.694 35.1652 728.829 34.2817 730.227 34.2817C731.625 34.2817 732.758 35.1652 732.758 36.255C732.758 37.3448 731.623 38.2283 730.227 38.2283ZM740.12 38.2283C738.721 38.2283 737.589 37.3448 737.589 36.255C737.589 35.1652 738.722 34.2817 740.12 34.2817C741.519 34.2817 742.652 35.1652 742.652 36.255C742.652 37.3448 741.519 38.2283 740.12 38.2283ZM743.723 23.752L744.652 27.9806C744.943 29.3043 743.16 30.3146 741.635 29.6896L736.764 27.6927C736.156 27.4441 735.433 27.4441 734.828 27.6927L729.957 29.6896C728.431 30.3146 726.649 29.3043 726.939 27.9806L727.871 23.752C727.986 23.2263 727.763 22.6897 727.272 22.3173L723.33 19.322C722.096 18.3845 722.777 16.7503 724.483 16.5576L729.929 15.9405C730.607 15.8638 731.193 15.5327 731.495 15.0541L733.93 11.2068C734.694 10.002 736.897 10.002 737.66 11.2068L740.096 15.0541C740.398 15.5327 740.984 15.8638 741.662 15.9405L747.108 16.5576C748.814 16.7512 749.495 18.3845 748.26 19.322L744.318 22.3173C743.831 22.6897 743.606 23.2263 743.723 23.752ZM750.013 38.2283C748.614 38.2283 747.482 37.3448 747.482 36.255C747.482 35.1652 748.615 34.2817 750.013 34.2817C751.413 34.2817 752.545 35.1652 752.545 36.255C752.545 37.3448 751.413 38.2283 750.013 38.2283ZM750.013 6.43772C748.614 6.43772 747.482 5.55426 747.482 4.46444C747.482 3.37462 748.615 2.49116 750.013 2.49116C751.413 2.49116 752.545 3.37462 752.545 4.46444C752.545 5.55328 751.413 6.43772 750.013 6.43772ZM759.907 38.2283C758.508 38.2283 757.375 37.3448 757.375 36.255C757.375 35.1652 758.509 34.2817 759.907 34.2817C761.306 34.2817 762.438 35.1652 762.438 36.255C762.438 37.3448 761.306 38.2283 759.907 38.2283ZM759.907 6.43772C758.508 6.43772 757.375 5.55426 757.375 4.46444C757.375 3.37462 758.509 2.49116 759.907 2.49116C761.306 2.49116 762.438 3.37462 762.438 4.46444C762.438 5.55328 761.306 6.43772 759.907 6.43772Z" fill="#695397"/>
<path d="M636.226 0.546387H578.266V40.3844H578.287C578.287 40.3893 578.286 40.3942 578.286 40.4001C578.286 42.9404 580.888 45.0001 584.098 45.0001C587.116 45.0001 589.596 43.1792 589.883 40.8512C590.17 43.1802 592.65 45.0001 595.668 45.0001C598.686 45.0001 601.165 43.1792 601.453 40.8512C601.74 43.1802 604.219 45.0001 607.237 45.0001C610.256 45.0001 612.735 43.1792 613.022 40.8512C613.309 43.1802 615.789 45.0001 618.807 45.0001C621.825 45.0001 624.304 43.1792 624.592 40.8512C624.879 43.1802 627.358 45.0001 630.376 45.0001C633.586 45.0001 636.189 42.9404 636.189 40.4001C636.189 40.3952 636.188 40.3903 636.188 40.3844H636.229V0.546387H636.226ZM582.666 38.7757C581.267 38.7757 580.135 37.8922 580.135 36.8014C580.135 35.7116 581.268 34.8281 582.666 34.8281C584.065 34.8281 585.197 35.7126 585.197 36.8014C585.199 37.8912 584.065 38.7757 582.666 38.7757ZM582.666 6.9841C581.267 6.9841 580.135 6.10065 580.135 5.01083C580.135 3.921 581.268 3.03755 582.666 3.03755C584.065 3.03755 585.197 3.921 585.197 5.01083C585.199 6.10065 584.065 6.9841 582.666 6.9841ZM612.349 3.03657C613.746 3.03657 614.88 3.92002 614.88 5.00984C614.88 6.09967 613.745 6.98312 612.349 6.98312C610.949 6.98312 609.817 6.09967 609.817 5.00984C609.817 3.92002 610.949 3.03657 612.349 3.03657ZM602.455 3.03657C603.853 3.03657 604.987 3.92002 604.987 5.00984C604.987 6.09967 603.852 6.98312 602.455 6.98312C601.056 6.98312 599.924 6.09967 599.924 5.00984C599.922 3.92002 601.056 3.03657 602.455 3.03657ZM592.561 3.03657C593.959 3.03657 595.092 3.92002 595.092 5.00984C595.092 6.09967 593.957 6.98312 592.561 6.98312C591.161 6.98312 590.028 6.09967 590.028 5.00984C590.028 3.92002 591.163 3.03657 592.561 3.03657ZM592.561 38.7757C591.161 38.7757 590.028 37.8922 590.028 36.8014C590.028 35.7116 591.163 34.8281 592.561 34.8281C593.959 34.8281 595.092 35.7126 595.092 36.8014C595.093 37.8912 593.959 38.7757 592.561 38.7757ZM602.455 38.7757C601.056 38.7757 599.924 37.8922 599.924 36.8014C599.924 35.7116 601.057 34.8281 602.455 34.8281C603.853 34.8281 604.987 35.7126 604.987 36.8014C604.987 37.8912 603.852 38.7757 602.455 38.7757ZM612.349 38.7757C610.949 38.7757 609.817 37.8922 609.817 36.8014C609.817 35.7116 610.951 34.8281 612.349 34.8281C613.746 34.8281 614.88 35.7126 614.88 36.8014C614.88 37.8912 613.745 38.7757 612.349 38.7757ZM615.95 24.2984L616.88 28.527C617.171 29.8507 615.388 30.8609 613.863 30.2359L608.992 28.2391C608.385 27.9914 607.662 27.9914 607.057 28.2391L602.186 30.2359C600.66 30.8609 598.877 29.8507 599.168 28.527L600.098 24.2984C600.214 23.7727 599.99 23.2361 599.499 22.8637L595.559 19.8684C594.323 18.9309 595.004 17.2966 596.71 17.104L602.157 16.4869C602.834 16.4102 603.419 16.0781 603.721 15.6005L606.157 11.7532C606.921 10.5484 609.124 10.5484 609.887 11.7532L612.323 15.6005C612.626 16.0791 613.211 16.4112 613.889 16.4869L619.336 17.104C621.041 17.2976 621.722 18.9309 620.487 19.8684L616.545 22.8637C616.059 23.2361 615.834 23.7727 615.95 24.2984ZM622.242 38.7757C620.843 38.7757 619.71 37.8922 619.71 36.8014C619.71 35.7116 620.844 34.8281 622.242 34.8281C623.641 34.8281 624.773 35.7126 624.773 36.8014C624.773 37.8912 623.641 38.7757 622.242 38.7757ZM622.242 6.9841C620.843 6.9841 619.71 6.10065 619.71 5.01083C619.71 3.921 620.844 3.03755 622.242 3.03755C623.641 3.03755 624.773 3.921 624.773 5.01083C624.773 6.10065 623.641 6.9841 622.242 6.9841ZM632.135 38.7757C630.737 38.7757 629.604 37.8922 629.604 36.8014C629.604 35.7116 630.737 34.8281 632.135 34.8281C633.534 34.8281 634.667 35.7126 634.667 36.8014C634.667 37.8912 633.534 38.7757 632.135 38.7757ZM632.135 6.9841C630.737 6.9841 629.604 6.10065 629.604 5.01083C629.604 3.921 630.737 3.03755 632.135 3.03755C633.534 3.03755 634.667 3.921 634.667 5.01083C634.667 6.10065 633.534 6.9841 632.135 6.9841Z" fill="#C40052"/>
<path d="M699.797 0.546387H641.838V40.3844H641.858C641.858 40.3893 641.857 40.3942 641.857 40.4001C641.857 42.9404 644.461 45.0001 647.671 45.0001C650.689 45.0001 653.168 43.1792 653.456 40.8512C653.742 43.1802 656.222 45.0001 659.24 45.0001C662.259 45.0001 664.738 43.1792 665.025 40.8512C665.312 43.1802 667.792 45.0001 670.81 45.0001C673.828 45.0001 676.307 43.1792 676.595 40.8512C676.882 43.1802 679.361 45.0001 682.379 45.0001C685.396 45.0001 687.877 43.1792 688.164 40.8512C688.451 43.1802 690.931 45.0001 693.949 45.0001C697.159 45.0001 699.762 42.9404 699.762 40.4001C699.762 40.3952 699.76 40.3903 699.76 40.3844H699.8V0.546387H699.797ZM646.24 38.7757C644.842 38.7757 643.708 37.8922 643.708 36.8014C643.708 35.7116 644.842 34.8281 646.24 34.8281C647.639 34.8281 648.771 35.7126 648.771 36.8014C648.771 37.8912 647.638 38.7757 646.24 38.7757ZM646.24 6.9841C644.842 6.9841 643.708 6.10065 643.708 5.01083C643.708 3.921 644.842 3.03755 646.24 3.03755C647.639 3.03755 648.771 3.921 648.771 5.01083C648.771 6.10065 647.638 6.9841 646.24 6.9841ZM675.92 3.03657C677.319 3.03657 678.451 3.92002 678.451 5.00984C678.451 6.09967 677.318 6.98312 675.92 6.98312C674.522 6.98312 673.388 6.09967 673.388 5.00984C673.388 3.92002 674.523 3.03657 675.92 3.03657ZM666.027 3.03657C667.424 3.03657 668.558 3.92002 668.558 5.00984C668.558 6.09967 667.424 6.98312 666.027 6.98312C664.627 6.98312 663.495 6.09967 663.495 5.00984C663.495 3.92002 664.629 3.03657 666.027 3.03657ZM656.133 3.03657C657.532 3.03657 658.665 3.92002 658.665 5.00984C658.665 6.09967 657.531 6.98312 656.133 6.98312C654.734 6.98312 653.602 6.09967 653.602 5.00984C653.602 3.92002 654.734 3.03657 656.133 3.03657ZM656.133 38.7757C654.734 38.7757 653.602 37.8922 653.602 36.8014C653.602 35.7116 654.735 34.8281 656.133 34.8281C657.532 34.8281 658.665 35.7126 658.665 36.8014C658.665 37.8912 657.532 38.7757 656.133 38.7757ZM666.027 38.7757C664.627 38.7757 663.495 37.8922 663.495 36.8014C663.495 35.7116 664.629 34.8281 666.027 34.8281C667.424 34.8281 668.558 35.7126 668.558 36.8014C668.558 37.8912 667.426 38.7757 666.027 38.7757ZM675.92 38.7757C674.522 38.7757 673.388 37.8922 673.388 36.8014C673.388 35.7116 674.523 34.8281 675.92 34.8281C677.319 34.8281 678.451 35.7126 678.451 36.8014C678.453 37.8912 677.319 38.7757 675.92 38.7757ZM679.523 24.2984L680.453 28.527C680.744 29.8507 678.961 30.8609 677.436 30.2359L672.564 28.2391C671.957 27.9914 671.234 27.9914 670.629 28.2391L665.757 30.2359C664.232 30.8609 662.449 29.8507 662.74 28.527L663.67 24.2984C663.786 23.7727 663.562 23.2361 663.072 22.8637L659.13 19.8684C657.896 18.9309 658.576 17.2966 660.282 17.104L665.729 16.4869C666.405 16.4102 666.991 16.0781 667.294 15.6005L669.73 11.7532C670.493 10.5484 672.696 10.5484 673.458 11.7532L675.894 15.6005C676.197 16.0791 676.783 16.4112 677.459 16.4869L682.906 17.104C684.611 17.2976 685.292 18.9309 684.058 19.8684L680.117 22.8637C679.631 23.2361 679.407 23.7727 679.523 24.2984ZM685.813 38.7757C684.415 38.7757 683.282 37.8922 683.282 36.8014C683.282 35.7116 684.417 34.8281 685.813 34.8281C687.212 34.8281 688.346 35.7126 688.346 36.8014C688.347 37.8912 687.212 38.7757 685.813 38.7757ZM685.813 6.9841C684.415 6.9841 683.282 6.10065 683.282 5.01083C683.282 3.921 684.417 3.03755 685.813 3.03755C687.212 3.03755 688.346 3.921 688.346 5.01083C688.347 6.10065 687.212 6.9841 685.813 6.9841ZM695.709 38.7757C694.31 38.7757 693.176 37.8922 693.176 36.8014C693.176 35.7116 694.311 34.8281 695.709 34.8281C697.107 34.8281 698.241 35.7126 698.241 36.8014C698.241 37.8912 697.106 38.7757 695.709 38.7757ZM695.709 6.9841C694.31 6.9841 693.176 6.10065 693.176 5.01083C693.176 3.921 694.311 3.03755 695.709 3.03755C697.107 3.03755 698.241 3.921 698.241 5.01083C698.241 6.10065 697.106 6.9841 695.709 6.9841Z" fill="#EEEC5A"/>
<path d="M828.961 0H771V39.838H771.02C771.02 39.8429 771.019 39.8478 771.019 39.8537C771.019 42.395 773.622 44.4538 776.832 44.4538C779.85 44.4538 782.329 42.6328 782.617 40.3048C782.904 42.6338 785.383 44.4538 788.401 44.4538C791.42 44.4538 793.899 42.6328 794.187 40.3048C794.473 42.6338 796.953 44.4538 799.971 44.4538C802.989 44.4538 805.468 42.6328 805.756 40.3048C806.043 42.6338 808.523 44.4538 811.54 44.4538C814.559 44.4538 817.039 42.6328 817.325 40.3048C817.612 42.6338 820.092 44.4538 823.11 44.4538C826.32 44.4538 828.924 42.394 828.924 39.8537C828.924 39.8488 828.923 39.8439 828.923 39.838H828.962V0H828.961ZM775.402 38.2283C774.004 38.2283 772.871 37.3448 772.871 36.255C772.871 35.1652 774.004 34.2817 775.402 34.2817C776.8 34.2817 777.934 35.1652 777.934 36.255C777.934 37.3448 776.8 38.2283 775.402 38.2283ZM775.402 6.43772C774.004 6.43772 772.871 5.55426 772.871 4.46444C772.871 3.37462 774.004 2.49116 775.402 2.49116C776.8 2.49116 777.934 3.37462 777.934 4.46444C777.934 5.55328 776.8 6.43772 775.402 6.43772ZM805.083 2.49018C806.483 2.49018 807.615 3.37363 807.615 4.46346C807.615 5.55328 806.481 6.43673 805.083 6.43673C803.684 6.43673 802.552 5.55328 802.552 4.46346C802.551 3.37363 803.684 2.49018 805.083 2.49018ZM795.189 2.49018C796.588 2.49018 797.72 3.37363 797.72 4.46346C797.72 5.55328 796.587 6.43673 795.189 6.43673C793.79 6.43673 792.657 5.55328 792.657 4.46346C792.657 3.37363 793.791 2.49018 795.189 2.49018ZM785.295 2.49018C786.695 2.49018 787.827 3.37363 787.827 4.46346C787.827 5.55328 786.693 6.43673 785.295 6.43673C783.896 6.43673 782.764 5.55328 782.764 4.46346C782.764 3.37363 783.898 2.49018 785.295 2.49018ZM785.295 38.2283C783.896 38.2283 782.764 37.3448 782.764 36.255C782.764 35.1652 783.898 34.2817 785.295 34.2817C786.695 34.2817 787.827 35.1652 787.827 36.255C787.827 37.3448 786.695 38.2283 785.295 38.2283ZM795.189 38.2283C793.79 38.2283 792.657 37.3448 792.657 36.255C792.657 35.1652 793.791 34.2817 795.189 34.2817C796.588 34.2817 797.72 35.1652 797.72 36.255C797.722 37.3448 796.588 38.2283 795.189 38.2283ZM805.083 38.2283C803.684 38.2283 802.552 37.3448 802.552 36.255C802.552 35.1652 803.685 34.2817 805.083 34.2817C806.483 34.2817 807.615 35.1652 807.615 36.255C807.615 37.3448 806.481 38.2283 805.083 38.2283ZM808.686 23.752L809.616 27.9806C809.906 29.3043 808.124 30.3146 806.599 29.6896L801.727 27.6927C801.121 27.4441 800.398 27.4441 799.792 27.6927L794.919 29.6896C793.394 30.3146 791.611 29.3043 791.902 27.9806L792.833 23.752C792.948 23.2263 792.725 22.6897 792.234 22.3173L788.292 19.322C787.057 18.3845 787.738 16.7503 789.443 16.5576L794.89 15.9405C795.567 15.8638 796.153 15.5327 796.456 15.0541L798.892 11.2068C799.654 10.002 801.858 10.002 802.622 11.2068L805.058 15.0541C805.36 15.5327 805.945 15.8638 806.622 15.9405L812.069 16.5576C813.774 16.7512 814.456 18.3845 813.222 19.322L809.28 22.3173C808.794 22.6897 808.57 23.2263 808.686 23.752ZM814.977 38.2283C813.579 38.2283 812.445 37.3448 812.445 36.255C812.445 35.1652 813.58 34.2817 814.977 34.2817C816.376 34.2817 817.508 35.1652 817.508 36.255C817.508 37.3448 816.375 38.2283 814.977 38.2283ZM814.977 6.43772C813.579 6.43772 812.445 5.55426 812.445 4.46444C812.445 3.37462 813.58 2.49116 814.977 2.49116C816.376 2.49116 817.508 3.37462 817.508 4.46444C817.508 5.55328 816.375 6.43772 814.977 6.43772ZM824.87 38.2283C823.472 38.2283 822.339 37.3448 822.339 36.255C822.339 35.1652 823.473 34.2817 824.87 34.2817C826.269 34.2817 827.403 35.1652 827.403 36.255C827.403 37.3448 826.268 38.2283 824.87 38.2283ZM824.87 6.43772C823.472 6.43772 822.339 5.55426 822.339 4.46444C822.339 3.37462 823.473 2.49116 824.87 2.49116C826.269 2.49116 827.403 3.37462 827.403 4.46444C827.403 5.55328 826.268 6.43772 824.87 6.43772Z" fill="#004E54"/>
<path d="M1021 0H963.038V39.838H963.058C963.058 39.8429 963.057 39.8478 963.057 39.8537C963.057 42.395 965.66 44.4538 968.87 44.4538C971.888 44.4538 974.367 42.6328 974.655 40.3048C974.942 42.6338 977.421 44.4538 980.439 44.4538C983.457 44.4538 985.937 42.6328 986.224 40.3048C986.511 42.6338 988.991 44.4538 992.009 44.4538C995.027 44.4538 997.506 42.6328 997.794 40.3048C998.081 42.6338 1000.56 44.4538 1003.58 44.4538C1006.6 44.4538 1009.08 42.6328 1009.36 40.3048C1009.65 42.6338 1012.13 44.4538 1015.15 44.4538C1018.36 44.4538 1020.96 42.394 1020.96 39.8537C1020.96 39.8488 1020.96 39.8439 1020.96 39.838H1021V0H1021ZM967.438 38.2283C966.04 38.2283 964.906 37.3448 964.906 36.255C964.906 35.1652 966.041 34.2817 967.438 34.2817C968.837 34.2817 969.969 35.1652 969.969 36.255C969.97 37.3448 968.837 38.2283 967.438 38.2283ZM967.438 6.43772C966.04 6.43772 964.906 5.55426 964.906 4.46444C964.906 3.37462 966.041 2.49116 967.438 2.49116C968.837 2.49116 969.969 3.37462 969.969 4.46444C969.97 5.55328 968.837 6.43772 967.438 6.43772ZM997.12 2.49018C998.519 2.49018 999.652 3.37363 999.652 4.46346C999.652 5.55328 998.518 6.43673 997.12 6.43673C995.721 6.43673 994.589 5.55328 994.589 4.46346C994.589 3.37363 995.721 2.49018 997.12 2.49018ZM987.227 2.49018C988.625 2.49018 989.758 3.37363 989.758 4.46346C989.758 5.55328 988.625 6.43673 987.227 6.43673C985.828 6.43673 984.694 5.55328 984.694 4.46346C984.694 3.37363 985.828 2.49018 987.227 2.49018ZM977.332 2.49018C978.731 2.49018 979.865 3.37363 979.865 4.46346C979.865 5.55328 978.73 6.43673 977.332 6.43673C975.934 6.43673 974.801 5.55328 974.801 4.46346C974.799 3.37363 975.934 2.49018 977.332 2.49018ZM977.332 38.2283C975.934 38.2283 974.801 37.3448 974.801 36.255C974.801 35.1652 975.935 34.2817 977.332 34.2817C978.731 34.2817 979.865 35.1652 979.865 36.255C979.865 37.3448 978.73 38.2283 977.332 38.2283ZM987.227 38.2283C985.828 38.2283 984.694 37.3448 984.694 36.255C984.694 35.1652 985.829 34.2817 987.227 34.2817C988.625 34.2817 989.758 35.1652 989.758 36.255C989.758 37.3448 988.623 38.2283 987.227 38.2283ZM997.12 38.2283C995.721 38.2283 994.589 37.3448 994.589 36.255C994.589 35.1652 995.722 34.2817 997.12 34.2817C998.519 34.2817 999.652 35.1652 999.652 36.255C999.652 37.3448 998.519 38.2283 997.12 38.2283ZM1000.72 23.752L1001.65 27.9806C1001.94 29.3043 1000.16 30.3146 998.635 29.6896L993.764 27.6927C993.156 27.4441 992.433 27.4441 991.828 27.6927L986.957 29.6896C985.431 30.3146 983.649 29.3043 983.939 27.9806L984.871 23.752C984.986 23.2263 984.763 22.6897 984.272 22.3173L980.33 19.322C979.096 18.3845 979.777 16.7503 981.483 16.5576L986.929 15.9405C987.607 15.8638 988.193 15.5327 988.495 15.0541L990.93 11.2068C991.694 10.002 993.897 10.002 994.66 11.2068L997.096 15.0541C997.398 15.5327 997.984 15.8638 998.662 15.9405L1004.11 16.5576C1005.81 16.7512 1006.49 18.3845 1005.26 19.322L1001.32 22.3173C1000.83 22.6897 1000.61 23.2263 1000.72 23.752ZM1007.01 38.2283C1005.61 38.2283 1004.48 37.3448 1004.48 36.255C1004.48 35.1652 1005.62 34.2817 1007.01 34.2817C1008.41 34.2817 1009.54 35.1652 1009.54 36.255C1009.54 37.3448 1008.41 38.2283 1007.01 38.2283ZM1007.01 6.43772C1005.61 6.43772 1004.48 5.55426 1004.48 4.46444C1004.48 3.37462 1005.62 2.49116 1007.01 2.49116C1008.41 2.49116 1009.54 3.37462 1009.54 4.46444C1009.54 5.55328 1008.41 6.43772 1007.01 6.43772ZM1016.91 38.2283C1015.51 38.2283 1014.38 37.3448 1014.38 36.255C1014.38 35.1652 1015.51 34.2817 1016.91 34.2817C1018.31 34.2817 1019.44 35.1652 1019.44 36.255C1019.44 37.3448 1018.31 38.2283 1016.91 38.2283ZM1016.91 6.43772C1015.51 6.43772 1014.38 5.55426 1014.38 4.46444C1014.38 3.37462 1015.51 2.49116 1016.91 2.49116C1018.31 2.49116 1019.44 3.37462 1019.44 4.46444C1019.44 5.55328 1018.31 6.43772 1016.91 6.43772Z" fill="#695397"/>
<path d="M893.226 0.546387H835.266V40.3844H835.287C835.287 40.3893 835.286 40.3942 835.286 40.4001C835.286 42.9404 837.888 45.0001 841.098 45.0001C844.116 45.0001 846.596 43.1792 846.883 40.8512C847.17 43.1802 849.65 45.0001 852.668 45.0001C855.686 45.0001 858.165 43.1792 858.453 40.8512C858.74 43.1802 861.219 45.0001 864.237 45.0001C867.256 45.0001 869.735 43.1792 870.022 40.8512C870.309 43.1802 872.789 45.0001 875.807 45.0001C878.825 45.0001 881.304 43.1792 881.592 40.8512C881.879 43.1802 884.358 45.0001 887.376 45.0001C890.586 45.0001 893.189 42.9404 893.189 40.4001C893.189 40.3952 893.188 40.3903 893.188 40.3844H893.229V0.546387H893.226ZM839.666 38.7757C838.267 38.7757 837.135 37.8922 837.135 36.8014C837.135 35.7116 838.268 34.8281 839.666 34.8281C841.065 34.8281 842.197 35.7126 842.197 36.8014C842.199 37.8912 841.065 38.7757 839.666 38.7757ZM839.666 6.9841C838.267 6.9841 837.135 6.10065 837.135 5.01083C837.135 3.921 838.268 3.03755 839.666 3.03755C841.065 3.03755 842.197 3.921 842.197 5.01083C842.199 6.10065 841.065 6.9841 839.666 6.9841ZM869.349 3.03657C870.746 3.03657 871.88 3.92002 871.88 5.00984C871.88 6.09967 870.745 6.98312 869.349 6.98312C867.949 6.98312 866.817 6.09967 866.817 5.00984C866.817 3.92002 867.949 3.03657 869.349 3.03657ZM859.455 3.03657C860.853 3.03657 861.987 3.92002 861.987 5.00984C861.987 6.09967 860.852 6.98312 859.455 6.98312C858.056 6.98312 856.924 6.09967 856.924 5.00984C856.922 3.92002 858.056 3.03657 859.455 3.03657ZM849.561 3.03657C850.959 3.03657 852.092 3.92002 852.092 5.00984C852.092 6.09967 850.957 6.98312 849.561 6.98312C848.161 6.98312 847.028 6.09967 847.028 5.00984C847.028 3.92002 848.163 3.03657 849.561 3.03657ZM849.561 38.7757C848.161 38.7757 847.028 37.8922 847.028 36.8014C847.028 35.7116 848.163 34.8281 849.561 34.8281C850.959 34.8281 852.092 35.7126 852.092 36.8014C852.093 37.8912 850.959 38.7757 849.561 38.7757ZM859.455 38.7757C858.056 38.7757 856.924 37.8922 856.924 36.8014C856.924 35.7116 858.057 34.8281 859.455 34.8281C860.853 34.8281 861.987 35.7126 861.987 36.8014C861.987 37.8912 860.852 38.7757 859.455 38.7757ZM869.349 38.7757C867.949 38.7757 866.817 37.8922 866.817 36.8014C866.817 35.7116 867.951 34.8281 869.349 34.8281C870.746 34.8281 871.88 35.7126 871.88 36.8014C871.88 37.8912 870.745 38.7757 869.349 38.7757ZM872.95 24.2984L873.88 28.527C874.171 29.8507 872.388 30.8609 870.863 30.2359L865.992 28.2391C865.385 27.9914 864.662 27.9914 864.057 28.2391L859.186 30.2359C857.66 30.8609 855.877 29.8507 856.168 28.527L857.098 24.2984C857.214 23.7727 856.99 23.2361 856.499 22.8637L852.559 19.8684C851.323 18.9309 852.004 17.2966 853.71 17.104L859.157 16.4869C859.834 16.4102 860.419 16.0781 860.721 15.6005L863.157 11.7532C863.921 10.5484 866.124 10.5484 866.887 11.7532L869.323 15.6005C869.626 16.0791 870.211 16.4112 870.889 16.4869L876.336 17.104C878.041 17.2976 878.722 18.9309 877.487 19.8684L873.545 22.8637C873.059 23.2361 872.834 23.7727 872.95 24.2984ZM879.242 38.7757C877.843 38.7757 876.71 37.8922 876.71 36.8014C876.71 35.7116 877.844 34.8281 879.242 34.8281C880.641 34.8281 881.773 35.7126 881.773 36.8014C881.773 37.8912 880.641 38.7757 879.242 38.7757ZM879.242 6.9841C877.843 6.9841 876.71 6.10065 876.71 5.01083C876.71 3.921 877.844 3.03755 879.242 3.03755C880.641 3.03755 881.773 3.921 881.773 5.01083C881.773 6.10065 880.641 6.9841 879.242 6.9841ZM889.135 38.7757C887.737 38.7757 886.604 37.8922 886.604 36.8014C886.604 35.7116 887.737 34.8281 889.135 34.8281C890.534 34.8281 891.667 35.7126 891.667 36.8014C891.667 37.8912 890.534 38.7757 889.135 38.7757ZM889.135 6.9841C887.737 6.9841 886.604 6.10065 886.604 5.01083C886.604 3.921 887.737 3.03755 889.135 3.03755C890.534 3.03755 891.667 3.921 891.667 5.01083C891.667 6.10065 890.534 6.9841 889.135 6.9841Z" fill="#C40052"/>
<path d="M956.797 0.546387H898.838V40.3844H898.858C898.858 40.3893 898.857 40.3942 898.857 40.4001C898.857 42.9404 901.461 45.0001 904.671 45.0001C907.689 45.0001 910.168 43.1792 910.456 40.8512C910.742 43.1802 913.222 45.0001 916.24 45.0001C919.259 45.0001 921.738 43.1792 922.025 40.8512C922.312 43.1802 924.792 45.0001 927.81 45.0001C930.828 45.0001 933.307 43.1792 933.595 40.8512C933.882 43.1802 936.361 45.0001 939.379 45.0001C942.396 45.0001 944.877 43.1792 945.164 40.8512C945.451 43.1802 947.931 45.0001 950.949 45.0001C954.159 45.0001 956.762 42.9404 956.762 40.4001C956.762 40.3952 956.76 40.3903 956.76 40.3844H956.8V0.546387H956.797ZM903.24 38.7757C901.842 38.7757 900.708 37.8922 900.708 36.8014C900.708 35.7116 901.842 34.8281 903.24 34.8281C904.639 34.8281 905.771 35.7126 905.771 36.8014C905.771 37.8912 904.638 38.7757 903.24 38.7757ZM903.24 6.9841C901.842 6.9841 900.708 6.10065 900.708 5.01083C900.708 3.921 901.842 3.03755 903.24 3.03755C904.639 3.03755 905.771 3.921 905.771 5.01083C905.771 6.10065 904.638 6.9841 903.24 6.9841ZM932.92 3.03657C934.319 3.03657 935.451 3.92002 935.451 5.00984C935.451 6.09967 934.318 6.98312 932.92 6.98312C931.522 6.98312 930.388 6.09967 930.388 5.00984C930.388 3.92002 931.523 3.03657 932.92 3.03657ZM923.027 3.03657C924.424 3.03657 925.558 3.92002 925.558 5.00984C925.558 6.09967 924.424 6.98312 923.027 6.98312C921.627 6.98312 920.495 6.09967 920.495 5.00984C920.495 3.92002 921.629 3.03657 923.027 3.03657ZM913.133 3.03657C914.532 3.03657 915.665 3.92002 915.665 5.00984C915.665 6.09967 914.531 6.98312 913.133 6.98312C911.734 6.98312 910.602 6.09967 910.602 5.00984C910.602 3.92002 911.734 3.03657 913.133 3.03657ZM913.133 38.7757C911.734 38.7757 910.602 37.8922 910.602 36.8014C910.602 35.7116 911.735 34.8281 913.133 34.8281C914.532 34.8281 915.665 35.7126 915.665 36.8014C915.665 37.8912 914.532 38.7757 913.133 38.7757ZM923.027 38.7757C921.627 38.7757 920.495 37.8922 920.495 36.8014C920.495 35.7116 921.629 34.8281 923.027 34.8281C924.424 34.8281 925.558 35.7126 925.558 36.8014C925.558 37.8912 924.426 38.7757 923.027 38.7757ZM932.92 38.7757C931.522 38.7757 930.388 37.8922 930.388 36.8014C930.388 35.7116 931.523 34.8281 932.92 34.8281C934.319 34.8281 935.451 35.7126 935.451 36.8014C935.453 37.8912 934.319 38.7757 932.92 38.7757ZM936.523 24.2984L937.453 28.527C937.744 29.8507 935.961 30.8609 934.436 30.2359L929.564 28.2391C928.957 27.9914 928.234 27.9914 927.629 28.2391L922.757 30.2359C921.232 30.8609 919.449 29.8507 919.74 28.527L920.67 24.2984C920.786 23.7727 920.562 23.2361 920.072 22.8637L916.13 19.8684C914.896 18.9309 915.576 17.2966 917.282 17.104L922.729 16.4869C923.405 16.4102 923.991 16.0781 924.294 15.6005L926.73 11.7532C927.493 10.5484 929.696 10.5484 930.458 11.7532L932.894 15.6005C933.197 16.0791 933.783 16.4112 934.459 16.4869L939.906 17.104C941.611 17.2976 942.292 18.9309 941.058 19.8684L937.117 22.8637C936.631 23.2361 936.407 23.7727 936.523 24.2984ZM942.813 38.7757C941.415 38.7757 940.282 37.8922 940.282 36.8014C940.282 35.7116 941.417 34.8281 942.813 34.8281C944.212 34.8281 945.346 35.7126 945.346 36.8014C945.347 37.8912 944.212 38.7757 942.813 38.7757ZM942.813 6.9841C941.415 6.9841 940.282 6.10065 940.282 5.01083C940.282 3.921 941.417 3.03755 942.813 3.03755C944.212 3.03755 945.346 3.921 945.346 5.01083C945.347 6.10065 944.212 6.9841 942.813 6.9841ZM952.709 38.7757C951.31 38.7757 950.176 37.8922 950.176 36.8014C950.176 35.7116 951.311 34.8281 952.709 34.8281C954.107 34.8281 955.241 35.7126 955.241 36.8014C955.241 37.8912 954.106 38.7757 952.709 38.7757ZM952.709 6.9841C951.31 6.9841 950.176 6.10065 950.176 5.01083C950.176 3.921 951.311 3.03755 952.709 3.03755C954.107 3.03755 955.241 3.921 955.241 5.01083C955.241 6.10065 954.106 6.9841 952.709 6.9841Z" fill="#EEEC5A"/>
<path d="M1085.96 0H1028V39.838H1028.02C1028.02 39.8429 1028.02 39.8478 1028.02 39.8537C1028.02 42.395 1030.62 44.4538 1033.83 44.4538C1036.85 44.4538 1039.33 42.6328 1039.62 40.3048C1039.9 42.6338 1042.38 44.4538 1045.4 44.4538C1048.42 44.4538 1050.9 42.6328 1051.19 40.3048C1051.47 42.6338 1053.95 44.4538 1056.97 44.4538C1059.99 44.4538 1062.47 42.6328 1062.76 40.3048C1063.04 42.6338 1065.52 44.4538 1068.54 44.4538C1071.56 44.4538 1074.04 42.6328 1074.33 40.3048C1074.61 42.6338 1077.09 44.4538 1080.11 44.4538C1083.32 44.4538 1085.92 42.394 1085.92 39.8537C1085.92 39.8488 1085.92 39.8439 1085.92 39.838H1085.96V0H1085.96ZM1032.4 38.2283C1031 38.2283 1029.87 37.3448 1029.87 36.255C1029.87 35.1652 1031 34.2817 1032.4 34.2817C1033.8 34.2817 1034.93 35.1652 1034.93 36.255C1034.93 37.3448 1033.8 38.2283 1032.4 38.2283ZM1032.4 6.43772C1031 6.43772 1029.87 5.55426 1029.87 4.46444C1029.87 3.37462 1031 2.49116 1032.4 2.49116C1033.8 2.49116 1034.93 3.37462 1034.93 4.46444C1034.93 5.55328 1033.8 6.43772 1032.4 6.43772ZM1062.08 2.49018C1063.48 2.49018 1064.61 3.37363 1064.61 4.46346C1064.61 5.55328 1063.48 6.43673 1062.08 6.43673C1060.68 6.43673 1059.55 5.55328 1059.55 4.46346C1059.55 3.37363 1060.68 2.49018 1062.08 2.49018ZM1052.19 2.49018C1053.59 2.49018 1054.72 3.37363 1054.72 4.46346C1054.72 5.55328 1053.59 6.43673 1052.19 6.43673C1050.79 6.43673 1049.66 5.55328 1049.66 4.46346C1049.66 3.37363 1050.79 2.49018 1052.19 2.49018ZM1042.3 2.49018C1043.69 2.49018 1044.83 3.37363 1044.83 4.46346C1044.83 5.55328 1043.69 6.43673 1042.3 6.43673C1040.9 6.43673 1039.76 5.55328 1039.76 4.46346C1039.76 3.37363 1040.9 2.49018 1042.3 2.49018ZM1042.3 38.2283C1040.9 38.2283 1039.76 37.3448 1039.76 36.255C1039.76 35.1652 1040.9 34.2817 1042.3 34.2817C1043.69 34.2817 1044.83 35.1652 1044.83 36.255C1044.83 37.3448 1043.69 38.2283 1042.3 38.2283ZM1052.19 38.2283C1050.79 38.2283 1049.66 37.3448 1049.66 36.255C1049.66 35.1652 1050.79 34.2817 1052.19 34.2817C1053.59 34.2817 1054.72 35.1652 1054.72 36.255C1054.72 37.3448 1053.59 38.2283 1052.19 38.2283ZM1062.08 38.2283C1060.68 38.2283 1059.55 37.3448 1059.55 36.255C1059.55 35.1652 1060.69 34.2817 1062.08 34.2817C1063.48 34.2817 1064.61 35.1652 1064.61 36.255C1064.61 37.3448 1063.48 38.2283 1062.08 38.2283ZM1065.69 23.752L1066.62 27.9806C1066.91 29.3043 1065.12 30.3146 1063.6 29.6896L1058.73 27.6927C1058.12 27.4441 1057.4 27.4441 1056.79 27.6927L1051.92 29.6896C1050.39 30.3146 1048.61 29.3043 1048.9 27.9806L1049.83 23.752C1049.95 23.2263 1049.72 22.6897 1049.23 22.3173L1045.29 19.322C1044.06 18.3845 1044.74 16.7503 1046.44 16.5576L1051.89 15.9405C1052.57 15.8638 1053.15 15.5327 1053.46 15.0541L1055.89 11.2068C1056.65 10.002 1058.86 10.002 1059.62 11.2068L1062.06 15.0541C1062.36 15.5327 1062.94 15.8638 1063.62 15.9405L1069.07 16.5576C1070.77 16.7512 1071.46 18.3845 1070.22 19.322L1066.28 22.3173C1065.79 22.6897 1065.57 23.2263 1065.69 23.752ZM1071.98 38.2283C1070.58 38.2283 1069.45 37.3448 1069.45 36.255C1069.45 35.1652 1070.58 34.2817 1071.98 34.2817C1073.38 34.2817 1074.51 35.1652 1074.51 36.255C1074.51 37.3448 1073.37 38.2283 1071.98 38.2283ZM1071.98 6.43772C1070.58 6.43772 1069.45 5.55426 1069.45 4.46444C1069.45 3.37462 1070.58 2.49116 1071.98 2.49116C1073.38 2.49116 1074.51 3.37462 1074.51 4.46444C1074.51 5.55328 1073.37 6.43772 1071.98 6.43772ZM1081.87 38.2283C1080.47 38.2283 1079.34 37.3448 1079.34 36.255C1079.34 35.1652 1080.47 34.2817 1081.87 34.2817C1083.27 34.2817 1084.4 35.1652 1084.4 36.255C1084.4 37.3448 1083.27 38.2283 1081.87 38.2283ZM1081.87 6.43772C1080.47 6.43772 1079.34 5.55426 1079.34 4.46444C1079.34 3.37462 1080.47 2.49116 1081.87 2.49116C1083.27 2.49116 1084.4 3.37462 1084.4 4.46444C1084.4 5.55328 1083.27 6.43772 1081.87 6.43772Z" fill="#004E54"/>
<path d="M1278 0H1220.04V39.838H1220.06C1220.06 39.8429 1220.06 39.8478 1220.06 39.8537C1220.06 42.395 1222.66 44.4538 1225.87 44.4538C1228.89 44.4538 1231.37 42.6328 1231.65 40.3048C1231.94 42.6338 1234.42 44.4538 1237.44 44.4538C1240.46 44.4538 1242.94 42.6328 1243.22 40.3048C1243.51 42.6338 1245.99 44.4538 1249.01 44.4538C1252.03 44.4538 1254.51 42.6328 1254.79 40.3048C1255.08 42.6338 1257.56 44.4538 1260.58 44.4538C1263.6 44.4538 1266.08 42.6328 1266.36 40.3048C1266.65 42.6338 1269.13 44.4538 1272.15 44.4538C1275.36 44.4538 1277.96 42.394 1277.96 39.8537C1277.96 39.8488 1277.96 39.8439 1277.96 39.838H1278V0H1278ZM1224.44 38.2283C1223.04 38.2283 1221.91 37.3448 1221.91 36.255C1221.91 35.1652 1223.04 34.2817 1224.44 34.2817C1225.84 34.2817 1226.97 35.1652 1226.97 36.255C1226.97 37.3448 1225.84 38.2283 1224.44 38.2283ZM1224.44 6.43772C1223.04 6.43772 1221.91 5.55426 1221.91 4.46444C1221.91 3.37462 1223.04 2.49116 1224.44 2.49116C1225.84 2.49116 1226.97 3.37462 1226.97 4.46444C1226.97 5.55328 1225.84 6.43772 1224.44 6.43772ZM1254.12 2.49018C1255.52 2.49018 1256.65 3.37363 1256.65 4.46346C1256.65 5.55328 1255.52 6.43673 1254.12 6.43673C1252.72 6.43673 1251.59 5.55328 1251.59 4.46346C1251.59 3.37363 1252.72 2.49018 1254.12 2.49018ZM1244.23 2.49018C1245.62 2.49018 1246.76 3.37363 1246.76 4.46346C1246.76 5.55328 1245.62 6.43673 1244.23 6.43673C1242.83 6.43673 1241.69 5.55328 1241.69 4.46346C1241.69 3.37363 1242.83 2.49018 1244.23 2.49018ZM1234.33 2.49018C1235.73 2.49018 1236.86 3.37363 1236.86 4.46346C1236.86 5.55328 1235.73 6.43673 1234.33 6.43673C1232.93 6.43673 1231.8 5.55328 1231.8 4.46346C1231.8 3.37363 1232.93 2.49018 1234.33 2.49018ZM1234.33 38.2283C1232.93 38.2283 1231.8 37.3448 1231.8 36.255C1231.8 35.1652 1232.94 34.2817 1234.33 34.2817C1235.73 34.2817 1236.86 35.1652 1236.86 36.255C1236.86 37.3448 1235.73 38.2283 1234.33 38.2283ZM1244.23 38.2283C1242.83 38.2283 1241.69 37.3448 1241.69 36.255C1241.69 35.1652 1242.83 34.2817 1244.23 34.2817C1245.62 34.2817 1246.76 35.1652 1246.76 36.255C1246.76 37.3448 1245.62 38.2283 1244.23 38.2283ZM1254.12 38.2283C1252.72 38.2283 1251.59 37.3448 1251.59 36.255C1251.59 35.1652 1252.72 34.2817 1254.12 34.2817C1255.52 34.2817 1256.65 35.1652 1256.65 36.255C1256.65 37.3448 1255.52 38.2283 1254.12 38.2283ZM1257.72 23.752L1258.65 27.9806C1258.94 29.3043 1257.16 30.3146 1255.63 29.6896L1250.76 27.6927C1250.16 27.4441 1249.43 27.4441 1248.83 27.6927L1243.96 29.6896C1242.43 30.3146 1240.65 29.3043 1240.94 27.9806L1241.87 23.752C1241.99 23.2263 1241.76 22.6897 1241.27 22.3173L1237.33 19.322C1236.1 18.3845 1236.78 16.7503 1238.48 16.5576L1243.93 15.9405C1244.61 15.8638 1245.19 15.5327 1245.49 15.0541L1247.93 11.2068C1248.69 10.002 1250.9 10.002 1251.66 11.2068L1254.1 15.0541C1254.4 15.5327 1254.98 15.8638 1255.66 15.9405L1261.11 16.5576C1262.81 16.7512 1263.49 18.3845 1262.26 19.322L1258.32 22.3173C1257.83 22.6897 1257.61 23.2263 1257.72 23.752ZM1264.01 38.2283C1262.61 38.2283 1261.48 37.3448 1261.48 36.255C1261.48 35.1652 1262.62 34.2817 1264.01 34.2817C1265.41 34.2817 1266.54 35.1652 1266.54 36.255C1266.54 37.3448 1265.41 38.2283 1264.01 38.2283ZM1264.01 6.43772C1262.61 6.43772 1261.48 5.55426 1261.48 4.46444C1261.48 3.37462 1262.62 2.49116 1264.01 2.49116C1265.41 2.49116 1266.54 3.37462 1266.54 4.46444C1266.54 5.55328 1265.41 6.43772 1264.01 6.43772ZM1273.91 38.2283C1272.51 38.2283 1271.38 37.3448 1271.38 36.255C1271.38 35.1652 1272.51 34.2817 1273.91 34.2817C1275.31 34.2817 1276.44 35.1652 1276.44 36.255C1276.44 37.3448 1275.31 38.2283 1273.91 38.2283ZM1273.91 6.43772C1272.51 6.43772 1271.38 5.55426 1271.38 4.46444C1271.38 3.37462 1272.51 2.49116 1273.91 2.49116C1275.31 2.49116 1276.44 3.37462 1276.44 4.46444C1276.44 5.55328 1275.31 6.43772 1273.91 6.43772Z" fill="#695397"/>
<path d="M1150.23 0.546387H1092.27V40.3844H1092.29C1092.29 40.3893 1092.29 40.3942 1092.29 40.4001C1092.29 42.9404 1094.89 45.0001 1098.1 45.0001C1101.12 45.0001 1103.6 43.1792 1103.88 40.8512C1104.17 43.1802 1106.65 45.0001 1109.67 45.0001C1112.69 45.0001 1115.17 43.1792 1115.45 40.8512C1115.74 43.1802 1118.22 45.0001 1121.24 45.0001C1124.26 45.0001 1126.73 43.1792 1127.02 40.8512C1127.31 43.1802 1129.79 45.0001 1132.81 45.0001C1135.83 45.0001 1138.3 43.1792 1138.59 40.8512C1138.88 43.1802 1141.36 45.0001 1144.38 45.0001C1147.59 45.0001 1150.19 42.9404 1150.19 40.4001C1150.19 40.3952 1150.19 40.3903 1150.19 40.3844H1150.23V0.546387H1150.23ZM1096.67 38.7757C1095.27 38.7757 1094.13 37.8922 1094.13 36.8014C1094.13 35.7116 1095.27 34.8281 1096.67 34.8281C1098.07 34.8281 1099.2 35.7126 1099.2 36.8014C1099.2 37.8912 1098.07 38.7757 1096.67 38.7757ZM1096.67 6.9841C1095.27 6.9841 1094.13 6.10065 1094.13 5.01083C1094.13 3.921 1095.27 3.03755 1096.67 3.03755C1098.07 3.03755 1099.2 3.921 1099.2 5.01083C1099.2 6.10065 1098.07 6.9841 1096.67 6.9841ZM1126.35 3.03657C1127.75 3.03657 1128.88 3.92002 1128.88 5.00984C1128.88 6.09967 1127.75 6.98312 1126.35 6.98312C1124.95 6.98312 1123.82 6.09967 1123.82 5.00984C1123.82 3.92002 1124.95 3.03657 1126.35 3.03657ZM1116.46 3.03657C1117.85 3.03657 1118.99 3.92002 1118.99 5.00984C1118.99 6.09967 1117.85 6.98312 1116.46 6.98312C1115.06 6.98312 1113.92 6.09967 1113.92 5.00984C1113.92 3.92002 1115.06 3.03657 1116.46 3.03657ZM1106.56 3.03657C1107.96 3.03657 1109.09 3.92002 1109.09 5.00984C1109.09 6.09967 1107.96 6.98312 1106.56 6.98312C1105.16 6.98312 1104.03 6.09967 1104.03 5.00984C1104.03 3.92002 1105.16 3.03657 1106.56 3.03657ZM1106.56 38.7757C1105.16 38.7757 1104.03 37.8922 1104.03 36.8014C1104.03 35.7116 1105.16 34.8281 1106.56 34.8281C1107.96 34.8281 1109.09 35.7126 1109.09 36.8014C1109.09 37.8912 1107.96 38.7757 1106.56 38.7757ZM1116.46 38.7757C1115.06 38.7757 1113.92 37.8922 1113.92 36.8014C1113.92 35.7116 1115.06 34.8281 1116.46 34.8281C1117.85 34.8281 1118.99 35.7126 1118.99 36.8014C1118.99 37.8912 1117.85 38.7757 1116.46 38.7757ZM1126.35 38.7757C1124.95 38.7757 1123.82 37.8922 1123.82 36.8014C1123.82 35.7116 1124.95 34.8281 1126.35 34.8281C1127.75 34.8281 1128.88 35.7126 1128.88 36.8014C1128.88 37.8912 1127.75 38.7757 1126.35 38.7757ZM1129.95 24.2984L1130.88 28.527C1131.17 29.8507 1129.39 30.8609 1127.86 30.2359L1122.99 28.2391C1122.38 27.9914 1121.66 27.9914 1121.06 28.2391L1116.19 30.2359C1114.66 30.8609 1112.88 29.8507 1113.17 28.527L1114.1 24.2984C1114.21 23.7727 1113.99 23.2361 1113.5 22.8637L1109.56 19.8684C1108.32 18.9309 1109 17.2966 1110.71 17.104L1116.16 16.4869C1116.83 16.4102 1117.42 16.0781 1117.72 15.6005L1120.16 11.7532C1120.92 10.5484 1123.12 10.5484 1123.89 11.7532L1126.32 15.6005C1126.63 16.0791 1127.21 16.4112 1127.89 16.4869L1133.34 17.104C1135.04 17.2976 1135.72 18.9309 1134.49 19.8684L1130.54 22.8637C1130.06 23.2361 1129.83 23.7727 1129.95 24.2984ZM1136.24 38.7757C1134.84 38.7757 1133.71 37.8922 1133.71 36.8014C1133.71 35.7116 1134.84 34.8281 1136.24 34.8281C1137.64 34.8281 1138.77 35.7126 1138.77 36.8014C1138.77 37.8912 1137.64 38.7757 1136.24 38.7757ZM1136.24 6.9841C1134.84 6.9841 1133.71 6.10065 1133.71 5.01083C1133.71 3.921 1134.84 3.03755 1136.24 3.03755C1137.64 3.03755 1138.77 3.921 1138.77 5.01083C1138.77 6.10065 1137.64 6.9841 1136.24 6.9841ZM1146.14 38.7757C1144.74 38.7757 1143.6 37.8922 1143.6 36.8014C1143.6 35.7116 1144.74 34.8281 1146.14 34.8281C1147.53 34.8281 1148.67 35.7126 1148.67 36.8014C1148.67 37.8912 1147.53 38.7757 1146.14 38.7757ZM1146.14 6.9841C1144.74 6.9841 1143.6 6.10065 1143.6 5.01083C1143.6 3.921 1144.74 3.03755 1146.14 3.03755C1147.53 3.03755 1148.67 3.921 1148.67 5.01083C1148.67 6.10065 1147.53 6.9841 1146.14 6.9841Z" fill="#C40052"/>
<path d="M1213.8 0.546387H1155.84V40.3844H1155.86C1155.86 40.3893 1155.86 40.3942 1155.86 40.4001C1155.86 42.9404 1158.46 45.0001 1161.67 45.0001C1164.69 45.0001 1167.17 43.1792 1167.46 40.8512C1167.74 43.1802 1170.22 45.0001 1173.24 45.0001C1176.26 45.0001 1178.74 43.1792 1179.03 40.8512C1179.31 43.1802 1181.79 45.0001 1184.81 45.0001C1187.83 45.0001 1190.31 43.1792 1190.59 40.8512C1190.88 43.1802 1193.36 45.0001 1196.38 45.0001C1199.4 45.0001 1201.88 43.1792 1202.16 40.8512C1202.45 43.1802 1204.93 45.0001 1207.95 45.0001C1211.16 45.0001 1213.76 42.9404 1213.76 40.4001C1213.76 40.3952 1213.76 40.3903 1213.76 40.3844H1213.8V0.546387H1213.8ZM1160.24 38.7757C1158.84 38.7757 1157.71 37.8922 1157.71 36.8014C1157.71 35.7116 1158.84 34.8281 1160.24 34.8281C1161.64 34.8281 1162.77 35.7126 1162.77 36.8014C1162.77 37.8912 1161.64 38.7757 1160.24 38.7757ZM1160.24 6.9841C1158.84 6.9841 1157.71 6.10065 1157.71 5.01083C1157.71 3.921 1158.84 3.03755 1160.24 3.03755C1161.64 3.03755 1162.77 3.921 1162.77 5.01083C1162.77 6.10065 1161.64 6.9841 1160.24 6.9841ZM1189.92 3.03657C1191.32 3.03657 1192.45 3.92002 1192.45 5.00984C1192.45 6.09967 1191.32 6.98312 1189.92 6.98312C1188.52 6.98312 1187.39 6.09967 1187.39 5.00984C1187.39 3.92002 1188.52 3.03657 1189.92 3.03657ZM1180.03 3.03657C1181.42 3.03657 1182.56 3.92002 1182.56 5.00984C1182.56 6.09967 1181.42 6.98312 1180.03 6.98312C1178.63 6.98312 1177.5 6.09967 1177.5 5.00984C1177.5 3.92002 1178.63 3.03657 1180.03 3.03657ZM1170.13 3.03657C1171.53 3.03657 1172.66 3.92002 1172.66 5.00984C1172.66 6.09967 1171.53 6.98312 1170.13 6.98312C1168.73 6.98312 1167.6 6.09967 1167.6 5.00984C1167.6 3.92002 1168.73 3.03657 1170.13 3.03657ZM1170.13 38.7757C1168.73 38.7757 1167.6 37.8922 1167.6 36.8014C1167.6 35.7116 1168.74 34.8281 1170.13 34.8281C1171.53 34.8281 1172.66 35.7126 1172.66 36.8014C1172.66 37.8912 1171.53 38.7757 1170.13 38.7757ZM1180.03 38.7757C1178.63 38.7757 1177.5 37.8922 1177.5 36.8014C1177.5 35.7116 1178.63 34.8281 1180.03 34.8281C1181.42 34.8281 1182.56 35.7126 1182.56 36.8014C1182.56 37.8912 1181.43 38.7757 1180.03 38.7757ZM1189.92 38.7757C1188.52 38.7757 1187.39 37.8922 1187.39 36.8014C1187.39 35.7116 1188.52 34.8281 1189.92 34.8281C1191.32 34.8281 1192.45 35.7126 1192.45 36.8014C1192.45 37.8912 1191.32 38.7757 1189.92 38.7757ZM1193.52 24.2984L1194.45 28.527C1194.74 29.8507 1192.96 30.8609 1191.44 30.2359L1186.56 28.2391C1185.96 27.9914 1185.23 27.9914 1184.63 28.2391L1179.76 30.2359C1178.23 30.8609 1176.45 29.8507 1176.74 28.527L1177.67 24.2984C1177.79 23.7727 1177.56 23.2361 1177.07 22.8637L1173.13 19.8684C1171.9 18.9309 1172.58 17.2966 1174.28 17.104L1179.73 16.4869C1180.41 16.4102 1180.99 16.0781 1181.29 15.6005L1183.73 11.7532C1184.49 10.5484 1186.7 10.5484 1187.46 11.7532L1189.89 15.6005C1190.2 16.0791 1190.78 16.4112 1191.46 16.4869L1196.91 17.104C1198.61 17.2976 1199.29 18.9309 1198.06 19.8684L1194.12 22.8637C1193.63 23.2361 1193.41 23.7727 1193.52 24.2984ZM1199.81 38.7757C1198.42 38.7757 1197.28 37.8922 1197.28 36.8014C1197.28 35.7116 1198.42 34.8281 1199.81 34.8281C1201.21 34.8281 1202.35 35.7126 1202.35 36.8014C1202.35 37.8912 1201.21 38.7757 1199.81 38.7757ZM1199.81 6.9841C1198.42 6.9841 1197.28 6.10065 1197.28 5.01083C1197.28 3.921 1198.42 3.03755 1199.81 3.03755C1201.21 3.03755 1202.35 3.921 1202.35 5.01083C1202.35 6.10065 1201.21 6.9841 1199.81 6.9841ZM1209.71 38.7757C1208.31 38.7757 1207.18 37.8922 1207.18 36.8014C1207.18 35.7116 1208.31 34.8281 1209.71 34.8281C1211.11 34.8281 1212.24 35.7126 1212.24 36.8014C1212.24 37.8912 1211.11 38.7757 1209.71 38.7757ZM1209.71 6.9841C1208.31 6.9841 1207.18 6.10065 1207.18 5.01083C1207.18 3.921 1208.31 3.03755 1209.71 3.03755C1211.11 3.03755 1212.24 3.921 1212.24 5.01083C1212.24 6.10065 1211.11 6.9841 1209.71 6.9841Z" fill="#EEEC5A"/>
</svg>
