<svg viewBox="0 0 512 512" fill="none" xmlns="http://www.w3.org/2000/svg">
<g clip-path="url(#clip0_1968_129)">
<path d="M349.066 266.377C414.513 266.377 467.568 213.322 467.568 147.874C467.568 82.4267 414.513 29.3711 349.066 29.3711C283.618 29.3711 230.562 82.4267 230.562 147.874C230.562 213.322 283.618 266.377 349.066 266.377Z" fill="#F4B2B0"/>
<path d="M326.845 430.52H155.016V482.632H326.845V430.52Z" fill="#F4B2B0"/>
<path d="M506.519 238.814C503.053 236.001 498.505 234.902 494.134 235.822L441.64 246.88V243.7C466.74 219.442 482.375 185.45 482.375 147.871C482.375 74.3607 422.57 14.5547 349.059 14.5547C294.651 14.5547 247.76 47.3207 227.059 94.1517C221.193 84.8297 214.058 76.2517 205.76 68.6867C183.076 48.0047 153.665 36.6157 122.946 36.6157C55.153 36.6157 0 91.7677 0 159.562C0 195.522 15.521 227.923 40.211 250.425V338.464C40.211 346.645 46.844 353.277 55.024 353.277C63.204 353.277 69.837 346.645 69.837 338.464V270.433C85.922 278.17 103.936 282.51 122.947 282.51C131.127 282.51 137.76 275.878 137.76 267.697C137.76 259.516 131.127 252.884 122.947 252.884C71.49 252.884 29.626 211.02 29.626 159.563C29.626 108.106 71.49 66.2417 122.947 66.2417C171.061 66.2417 210.898 102.203 215.77 149.949C216.884 222.505 276.243 281.188 349.059 281.188C371.814 281.188 393.252 275.452 412.014 265.359V365.374V415.715H326.84H155.01H69.837V403.912C69.837 395.731 63.204 389.099 55.024 389.099C46.844 389.099 40.211 395.731 40.211 403.912V430.528C40.211 438.709 46.844 445.341 55.024 445.341H140.198V482.635C140.198 490.816 146.831 497.448 155.011 497.448H326.84C335.02 497.448 341.653 490.816 341.653 482.635V445.342H426.827C435.007 445.342 441.64 438.71 441.64 430.529V383.633L494.134 394.691C495.149 394.904 496.171 395.009 497.188 395.009C500.555 395.009 503.858 393.86 506.52 391.7C509.988 388.887 512.001 384.661 512.001 380.196V250.319C512 245.853 509.987 241.627 506.519 238.814ZM312.027 467.822H169.823V445.341H312.026V467.822H312.027ZM245.369 147.872C245.369 90.6967 291.884 44.1817 349.059 44.1817C406.234 44.1817 452.749 90.6967 452.749 147.872C452.749 205.047 406.234 251.562 349.059 251.562C291.884 251.562 245.369 205.047 245.369 147.872ZM482.374 361.937L441.639 353.356V277.157L482.374 268.576V361.937Z" fill="#B3404A"/>
<path d="M326.837 374.753C318.657 374.753 312.024 368.121 312.024 359.94V322.646H169.821V359.94C169.821 368.121 163.188 374.753 155.008 374.753C146.828 374.753 140.195 368.121 140.195 359.94V307.833C140.195 299.652 146.828 293.02 155.008 293.02H326.837C335.017 293.02 341.65 299.652 341.65 307.833V359.94C341.65 368.121 335.019 374.753 326.837 374.753Z" fill="#B3404A"/>
</g>
<defs>
<clipPath id="clip0_1968_129">
<rect width="512" height="512" fill="white"/>
</clipPath>
</defs>
</svg>
