<svg width="40" height="40" viewBox="0 0 40 40" fill="none" xmlns="http://www.w3.org/2000/svg">
<g clip-path="url(#clip0_548_1064)">
<path d="M20 0C8.95536 0 0 8.95536 0 20C0 31.0446 8.95536 40 20 40C31.0446 40 40 31.0446 40 20C40 8.95536 31.0446 0 20 0ZM20 36.6071C10.8304 36.6071 3.39286 29.1696 3.39286 20C3.39286 10.8304 10.8304 3.39286 20 3.39286C29.1696 3.39286 36.6071 10.8304 36.6071 20C36.6071 29.1696 29.1696 36.6071 20 36.6071Z" fill="#46270F"/>
<path d="M20 3.39285C10.8304 3.39285 3.39286 10.8304 3.39286 20C3.39286 29.1696 10.8304 36.6071 20 36.6071C29.1696 36.6071 36.6071 29.1696 36.6071 20C36.6071 10.8304 29.1696 3.39285 20 3.39285ZM27.6696 26.9241C27.7232 26.9911 27.7545 27.0714 27.7545 27.1562C27.7545 27.3571 27.5938 27.5134 27.3973 27.5134L24.4509 27.5L20.0179 22.2143L15.5848 27.5045L12.6339 27.5179C12.4375 27.5179 12.2768 27.3571 12.2768 27.1607C12.2768 27.0759 12.308 26.9955 12.3616 26.9286L18.1696 20.0134L12.3616 13.0937C12.3077 13.0283 12.2777 12.9464 12.2768 12.8616C12.2768 12.6607 12.4375 12.5045 12.6339 12.5045L15.5848 12.5179L20.0179 17.8036L24.4554 12.5134L27.4018 12.5C27.5982 12.5 27.7589 12.6607 27.7589 12.8571C27.7589 12.942 27.7321 13.0268 27.6786 13.0893L21.8705 20.0089L27.6696 26.9241Z" fill="#F6A856"/>
<path d="M27.7589 12.8571C27.7589 12.6607 27.5982 12.5 27.4018 12.5L24.4554 12.5134L20.0179 17.8036L15.5848 12.5179L12.6339 12.5045C12.4375 12.5045 12.2768 12.6607 12.2768 12.8616C12.2768 12.9464 12.308 13.0268 12.3616 13.0937L18.1696 20.0134L12.3616 26.9286C12.3077 26.994 12.2777 27.0759 12.2768 27.1607C12.2768 27.3571 12.4375 27.5179 12.6339 27.5179L15.5848 27.5045L20.0179 22.2143L24.4509 27.5L27.3973 27.5134C27.5938 27.5134 27.7545 27.3571 27.7545 27.1563C27.7545 27.0714 27.7232 26.9911 27.6696 26.9241L21.8705 20.0089L27.6786 13.0893C27.7321 13.0268 27.7589 12.942 27.7589 12.8571Z" fill="black"/>
</g>
<defs>
<clipPath id="clip0_548_1064">
<rect width="40" height="40" fill="white"/>
</clipPath>
</defs>
</svg>
