<svg width="77" height="64" viewBox="0 0 77 64" fill="none" xmlns="http://www.w3.org/2000/svg">
<path d="M38.1883 54.4492L38.5289 59.7804C38.5289 59.7804 32.9284 60.4003 32.5103 61.2683C32.0923 62.1364 37.5093 61.2683 37.5093 61.2683C37.5093 61.2683 34.2705 63.004 35.3337 63.748C36.397 64.492 39.1199 61.6401 39.1199 61.6401C39.1199 61.6401 38.8737 64.1194 39.8527 63.9958C40.8318 63.8721 40.8462 60.0285 40.8462 60.0285L39.3981 54.4492" fill="#0CC345"/>
<path d="M44.3884 54.4492L44.0479 59.7804C44.0479 59.7804 49.6484 60.4003 50.0665 61.2683C50.4845 62.1364 45.0679 61.2683 45.0679 61.2683C45.0679 61.2683 48.3062 63.004 47.2434 63.748C46.1802 64.492 43.4573 61.6401 43.4573 61.6401C43.4573 61.6401 43.7035 64.1194 42.7244 63.9958C41.7454 63.8721 41.731 60.0285 41.731 60.0285L43.1791 54.4492" fill="#0CC345"/>
<path d="M60.1543 41.5681C60.1543 41.5681 63.5773 21.1577 67.1562 21.3055C70.7351 21.4532 61.8658 41.5681 61.8658 41.5681H60.1543Z" fill="#FDD43B"/>
<path d="M61.1885 40.7C61.1885 40.7 63.7104 23.8648 66.3464 23.9737C68.9832 24.0825 61.1885 40.7 61.1885 40.7Z" fill="#8D32AD"/>
<path d="M60.4019 42.2162C60.4019 42.2162 73.0109 25.378 76.1479 27.0222C79.285 28.6664 61.9353 42.9394 61.9353 42.9394L60.4019 42.2162Z" fill="#FDD43B"/>
<path d="M61.7344 41.8753C61.7344 41.8753 71.8644 27.859 74.1751 29.0703C76.4858 30.2816 61.7344 41.8753 61.7344 41.8753Z" fill="#8D32AD"/>
<path d="M60.9414 42.7927C60.9414 42.7927 79.643 32.2485 81.8111 34.9592C83.9793 37.67 62.0358 44.044 62.0358 44.044L60.9414 42.7927Z" fill="#FDD43B"/>
<path d="M62.3052 42.9946C62.3052 42.9946 77.5382 34.0769 79.1351 36.0737C80.7321 38.0701 62.3052 42.9946 62.3052 42.9946Z" fill="#8D32AD"/>
<path d="M59.4347 49.408C59.2395 49.568 59.0326 49.7283 58.8106 49.892C57.4777 50.8749 55.7008 51.8725 53.648 52.7531C48.9143 54.7844 42.7255 56.1897 37.1223 55.3413C33.6564 54.8173 30.4126 53.4264 27.8849 50.7908C26.7242 49.5858 25.7171 48.1223 24.9052 46.3606C23.8634 44.1035 23.228 41.8757 22.8945 39.717C21.8488 32.8735 23.8751 26.7213 25.8702 22.6259C27.4442 19.386 28.9991 17.431 28.9991 17.431C28.9991 17.431 25.2574 15.7383 18.3178 15.7383C11.4281 15.7383 0.176099 17.7369 0 17.7658C0.172203 17.4929 11.3592 -0.333715 32.3773 0.00475946C32.6072 0.00846269 32.8332 0.0158686 33.0514 0.0340144C42.3157 0.569131 45.4562 9.1384 47.1031 18.1846C47.578 20.7947 47.9263 23.4484 48.2672 25.9603C49.0943 32.138 49.8451 37.4529 52.1737 39.2001C52.7445 39.6334 53.4107 39.8481 54.1996 39.8044C54.2838 39.8044 54.3683 39.797 54.4525 39.7863C64.7773 38.5816 66.0221 43.9946 59.4347 49.408Z" fill="#35D8FD"/>
<path d="M28.9991 17.4315C28.9991 17.4315 25.2574 15.7387 18.3178 15.7387C14.9899 15.7387 10.6431 16.2046 7.01982 16.689C3.14018 17.2097 0.0915561 17.7518 0 17.7666C0.145321 17.5411 7.99265 5.02902 22.8602 1.14508C25.767 0.380732 28.9383 -0.048842 32.3773 0.00559544C32.6072 0.00929867 32.8332 0.016706 33.0514 0.0348518C37.1722 8.73114 28.9991 17.4315 28.9991 17.4315Z" fill="#FDD43B"/>
<path d="M41.6956 11.9429C43.2623 10.4538 43.2623 8.0394 41.6956 6.55026C40.1289 5.06113 37.5889 5.06112 36.0222 6.55026C34.4556 8.0394 34.4556 10.4538 36.0222 11.9429C37.5889 13.432 40.1289 13.432 41.6956 11.9429Z" fill="white"/>
<path d="M41.6611 9.67844C41.912 8.20852 40.8619 6.82351 39.3154 6.58495C37.769 6.34639 36.3119 7.34462 36.0609 8.81454C35.8099 10.2845 36.8601 11.6695 38.4065 11.908C39.953 12.1466 41.4101 11.1484 41.6611 9.67844Z" fill="#8D32AD"/>
<path d="M40.1162 9.24642C40.1162 9.90634 39.5537 10.4411 38.8594 10.4411C38.1651 10.4411 37.6025 9.90634 37.6025 9.24642C37.6025 8.58651 38.1651 8.05176 38.8594 8.05176C39.5537 8.05176 40.1162 8.58651 40.1162 9.24642Z" fill="#00044C"/>
<path d="M38.2964 7.49537C38.2964 7.95124 37.9076 8.32082 37.428 8.32082C36.9484 8.32082 36.5596 7.95124 36.5596 7.49537C36.5596 7.0395 36.9484 6.66992 37.428 6.66992C37.9076 6.66992 38.2964 7.0395 38.2964 7.49537Z" fill="white"/>
<path d="M37.8725 14.3438C37.8725 15.1378 37.1954 15.7814 36.3601 15.7814C35.5248 15.7814 34.8477 15.1378 34.8477 14.3438C34.8477 13.5499 35.5248 12.9062 36.3601 12.9062C37.1954 12.9062 37.8725 13.5499 37.8725 14.3438Z" fill="#E31C61"/>
<path d="M22.8602 1.14551C16.8892 5.08796 10.5321 12.3611 7.01982 16.6894C3.14018 17.2101 0.0915561 17.7523 0 17.7671C0.145321 17.5412 7.99265 5.02945 22.8602 1.14551Z" fill="#8D32AD"/>
<path d="M6.53001 13.625C6.53001 14.022 6.19144 14.3438 5.77379 14.3438C5.35614 14.3438 5.01758 14.022 5.01758 13.625C5.01758 13.2281 5.35614 12.9062 5.77379 12.9062C6.19144 12.9062 6.53001 13.2281 6.53001 13.625Z" fill="#0CC345"/>
<path d="M8.48864 11.5621C8.90628 11.5621 9.24485 11.2403 9.24485 10.8433C9.24485 10.4463 8.90628 10.1245 8.48864 10.1245C8.07099 10.1245 7.73242 10.4463 7.73242 10.8433C7.73242 11.2403 8.07099 11.5621 8.48864 11.5621Z" fill="#0CC345"/>
<path d="M14.5121 6.66953C14.9297 6.66953 15.2683 6.34771 15.2683 5.95073C15.2683 5.55375 14.9297 5.23193 14.5121 5.23193C14.0944 5.23193 13.7559 5.55375 13.7559 5.95073C13.7559 6.34771 14.0944 6.66953 14.5121 6.66953Z" fill="#0CC345"/>
<path d="M12.1863 8.31987C12.1863 8.71686 11.8477 9.03867 11.43 9.03867C11.0124 9.03867 10.6738 8.71686 10.6738 8.31987C10.6738 7.92289 11.0124 7.60107 11.43 7.60107C11.8477 7.60107 12.1863 7.92289 12.1863 8.31987Z" fill="#0CC345"/>
<path d="M13.7559 13.3195C13.7559 13.3195 15.8776 8.11905 18.0411 8.32014C20.2045 8.52122 13.7559 13.3195 13.7559 13.3195Z" fill="#0CC345"/>
<path d="M15.4961 13.3201C15.4961 13.3201 20.1199 10.9007 20.6712 12.2717C21.2228 13.6426 15.4961 13.3201 15.4961 13.3201Z" fill="#0CC345"/>
<path d="M20.332 9.69078C20.332 9.69078 22.7074 1.94918 29.7066 3.27975C26.1858 9.89223 20.332 9.69078 20.332 9.69078Z" fill="#0CC345"/>
<path d="M22.2783 8.32752C22.2783 8.32752 23.6672 3.80143 27.7592 4.57911C25.701 8.44528 22.2783 8.32752 22.2783 8.32752Z" fill="#10A206"/>
<path d="M48.2669 25.9602C43.7553 30.8855 34.0698 39.7607 22.8945 39.717C21.8488 32.8734 23.8751 26.7212 25.8703 22.6258C30.692 22.9899 40.3011 22.9754 47.1027 18.1846C47.5776 20.7946 47.926 23.4487 48.2669 25.9602Z" fill="#0560CD"/>
<path d="M30.3714 30.0858C30.3714 30.0858 29.727 25.8945 28.8765 26.2356C28.026 26.5766 29.7196 30.3913 29.7196 30.3913C29.7196 30.3913 26.438 28.3408 26.0176 29.3722C25.5863 30.4306 29.5361 30.9368 29.5361 30.9368C29.5361 30.9368 25.372 31.7711 25.9459 32.788C26.5198 33.8046 29.81 31.3867 29.81 31.3867C29.81 31.3867 27.7926 34.2975 28.8063 34.8693C29.8201 35.441 30.3714 31.5256 30.3714 31.5256C30.3714 31.5256 32.1055 34.9059 33.2077 34.0775C34.1945 33.3358 31.0275 31.2227 31.0275 31.2227C31.0275 31.2227 34.8545 31.7234 34.8479 30.9364C34.8413 30.1495 31.1693 30.4135 31.1693 30.4135C31.1693 30.4135 33.7936 28.2127 32.9544 27.4628C32.1152 26.7129 30.3714 30.0858 30.3714 30.0858Z" fill="#F80793"/>
<path d="M30.371 31.9355C31.0654 31.9355 31.6282 31.4004 31.6282 30.7404C31.6282 30.0804 31.0654 29.5454 30.371 29.5454C29.6767 29.5454 29.1138 30.0804 29.1138 30.7404C29.1138 31.4004 29.6767 31.9355 30.371 31.9355Z" fill="#FDD43B"/>
<path d="M40.9967 26.5979C40.9967 26.5979 42.5781 24.1001 41.9692 23.9286C41.3602 23.7572 40.5097 26.4902 40.5097 26.4902C40.5097 26.4902 39.7048 24.0379 39.0074 24.4123C38.2921 24.7963 40.1614 26.7042 40.1614 26.7042C40.1614 26.7042 37.5624 25.421 37.4011 26.2002C37.2398 26.9794 40.101 27.0571 40.101 27.0571C40.101 27.0571 37.691 27.7696 37.968 28.4943C38.245 29.2191 40.336 27.3641 40.336 27.3641C40.336 27.3641 39.7068 29.8827 40.6737 29.899C41.5394 29.9138 40.8241 27.4752 40.8241 27.4752C40.8241 27.4752 42.6311 29.3291 42.9887 28.9076C43.3464 28.4862 41.271 27.1034 41.271 27.1034C41.271 27.1034 43.6783 27.0208 43.5759 26.2735C43.4734 25.5262 40.9967 26.5979 40.9967 26.5979Z" fill="#F80793"/>
<path d="M41.3651 27.4672C41.6682 27.1157 41.614 26.5977 41.2447 26.3095C40.8749 26.0214 40.3299 26.0729 40.0268 26.424C39.7237 26.7754 39.7778 27.2935 40.1472 27.5816C40.5169 27.8697 41.0619 27.8186 41.3651 27.4672Z" fill="#FDD43B"/>
<path d="M30.8402 20.9764C30.8402 21.4297 30.4537 21.7967 29.9772 21.7967C29.5004 21.7967 29.1143 21.4293 29.1143 20.9764C29.1143 20.5235 29.5007 20.1558 29.9772 20.1558C30.4537 20.1561 30.8402 20.5235 30.8402 20.9764Z" fill="#FDD43B"/>
<path d="M27.8277 41.5202C28.3045 41.5202 28.6911 41.1528 28.6911 40.6995C28.6911 40.2463 28.3045 39.8789 27.8277 39.8789C27.3509 39.8789 26.9644 40.2463 26.9644 40.6995C26.9644 41.1528 27.3509 41.5202 27.8277 41.5202Z" fill="#FDD43B"/>
<path d="M35.0754 20.6806C35.0754 21.1339 34.689 21.5013 34.2121 21.5013C33.7352 21.5013 33.3491 21.1339 33.3491 20.6806C33.3491 20.2273 33.7356 19.8604 34.2121 19.8604C34.689 19.8604 35.0754 20.2273 35.0754 20.6806Z" fill="#FDD43B"/>
<path d="M33.9491 39.7176C33.9491 40.1709 33.5626 40.5379 33.0861 40.5379C32.6092 40.5379 32.2231 40.1705 32.2231 39.7176C32.2231 39.2647 32.6096 38.897 33.0861 38.897C33.5626 38.897 33.9491 39.2643 33.9491 39.7176Z" fill="#FDD43B"/>
<path d="M38.2571 37.7957C38.2571 38.249 37.8706 38.616 37.3937 38.616C36.9169 38.616 36.5308 38.2486 36.5308 37.7957C36.5308 37.3428 36.9172 36.9751 37.3937 36.9751C37.8702 36.9751 38.2571 37.3425 38.2571 37.7957Z" fill="#FDD43B"/>
<path d="M41.3497 35.7463C41.8265 35.7463 42.213 35.3788 42.213 34.9256C42.213 34.4724 41.8265 34.105 41.3497 34.105C40.8729 34.105 40.4863 34.4724 40.4863 34.9256C40.4863 35.3788 40.8729 35.7463 41.3497 35.7463Z" fill="#FDD43B"/>
<path d="M45.3453 32.381C45.8221 32.381 46.2086 32.0136 46.2086 31.5604C46.2086 31.1072 45.8221 30.7397 45.3453 30.7397C44.8685 30.7397 44.4819 31.1072 44.4819 31.5604C44.4819 32.0136 44.8685 32.381 45.3453 32.381Z" fill="#FDD43B"/>
<path d="M38.9646 19.8593C38.9646 20.3126 38.5781 20.6796 38.1016 20.6796C37.6252 20.6796 37.2383 20.3122 37.2383 19.8593C37.2383 19.4064 37.6248 19.0391 38.1016 19.0391C38.5785 19.0391 38.9646 19.4061 38.9646 19.8593Z" fill="#FDD43B"/>
<path d="M43.2879 18.5867C43.2879 19.04 42.9015 19.407 42.425 19.407C41.9481 19.407 41.562 19.0397 41.562 18.5867C41.562 18.1338 41.9485 17.7661 42.425 17.7661C42.9015 17.7665 43.2879 18.1338 43.2879 18.5867Z" fill="#FDD43B"/>
<path d="M33.0859 50.1021C33.0859 50.1021 39.701 50.5865 43.5787 47.6809C47.4563 44.7757 47.9219 38.6017 42.2127 40.0545C36.5035 41.5073 33.0859 50.1021 33.0859 50.1021Z" fill="#FDD43B"/>
<path d="M31.6285 49.133C31.6285 49.133 32.691 43.0278 30.8404 42.9934C28.9894 42.9593 27.9 46.7122 31.6285 49.133Z" fill="#FDD43B"/>
<path d="M36.5757 51.5478C36.5757 51.5478 44.5048 49.28 44.4573 52.6547C44.4102 56.0295 36.5757 51.5478 36.5757 51.5478Z" fill="#FDD43B"/>
<path d="M35.0752 48.5278C35.0752 48.5278 41.6275 39.883 43.5782 42.2446C45.841 44.9839 35.0752 48.5278 35.0752 48.5278Z" fill="#F80793"/>
<path d="M39.5132 51.83C39.5132 51.83 42.9639 51.2919 42.9202 52.4066C42.877 53.5217 39.5132 51.83 39.5132 51.83Z" fill="#F80793"/>
<path d="M30.8054 47.4733C30.8054 47.4733 29.3467 44.4781 30.3698 44.3259C31.3929 44.1734 30.8054 47.4733 30.8054 47.4733Z" fill="#F80793"/>
<path d="M29.3632 48.8434C29.3632 48.8434 27.7705 45.5946 26.9644 46.5082C26.1587 47.4221 29.3632 48.8434 29.3632 48.8434Z" fill="#0560CD"/>
<path d="M33.0861 46.0635C33.0861 46.0635 32.6213 42.1433 34.2237 42.2451C35.8258 42.3462 33.0861 46.0635 33.0861 46.0635Z" fill="#0560CD"/>
<path d="M42.2129 49.5038C42.2129 49.5038 46.2304 47.1685 46.5293 48.9961C46.8281 50.8236 42.2129 49.5038 42.2129 49.5038Z" fill="#0560CD"/>
<path d="M37.1222 55.3422C33.6563 54.8182 30.4125 53.4272 27.8848 50.7917C30.033 50.2347 34.9276 49.6888 37.1222 55.3422Z" fill="#F80793"/>
<path d="M58.8105 49.8913C57.4777 50.8741 55.7008 51.8718 53.648 52.7524C50.7143 47.9656 51.3731 42.4393 52.1737 39.1997C52.7445 39.633 53.4107 39.8478 54.1996 39.8041C54.544 43.2844 56.6771 46.9791 58.8105 49.8913Z" fill="#F80793"/>
<path d="M53.3573 42.5223C53.6344 42.5223 53.8591 42.3088 53.8591 42.0453C53.8591 41.7819 53.6344 41.5684 53.3573 41.5684C53.0801 41.5684 52.8555 41.7819 52.8555 42.0453C52.8555 42.3088 53.0801 42.5223 53.3573 42.5223Z" fill="#8D32AD"/>
<path d="M55.152 46.9543C55.152 47.3694 54.7978 47.706 54.3611 47.706C53.9244 47.706 53.5698 47.3694 53.5698 46.9543C53.5698 46.5391 53.924 46.2021 54.3611 46.2021C54.7978 46.2021 55.152 46.5388 55.152 46.9543Z" fill="#8D32AD"/>
<path d="M54.5373 44.3855C54.5373 44.7413 54.2338 45.0302 53.859 45.0302C53.4846 45.0302 53.1807 44.7417 53.1807 44.3855C53.1807 44.0296 53.4842 43.7407 53.859 43.7407C54.2334 43.7407 54.5373 44.0292 54.5373 44.3855Z" fill="#8D32AD"/>
<path d="M56.296 49.5307C56.296 50.0499 55.853 50.4706 55.3072 50.4706C54.7609 50.4706 54.3184 50.0499 54.3184 49.5307C54.3184 49.0115 54.7613 48.5908 55.3072 48.5908C55.853 48.5908 56.296 49.0115 56.296 49.5307Z" fill="#8D32AD"/>
<path d="M37.8726 3.83649C37.8726 3.83649 42.785 3.53171 45.3451 6.6702C48.0064 2.39149 40.897 -1.57281 37.8726 3.83649Z" fill="#8D32AD"/>
</svg>
