<svg width="45" height="37" viewBox="0 0 45 37" fill="none" xmlns="http://www.w3.org/2000/svg">
<path d="M13.707 10.6235C14.1917 11.7991 14.3322 13.1596 14.6684 14.4191C15.742 18.4377 18.9813 21.3068 22.8125 21.6337C28.1917 22.0924 33.6236 17.9901 39.1323 16.6109C40.4965 16.2694 42.0545 16.1591 42.9122 17.1944C43.0371 17.3454 43.1459 17.5259 43.1633 17.7434C43.2257 18.5313 42.245 18.9652 41.5302 19.1996C38.1914 20.2929 35.8467 23.979 32.9656 26.4213C28.1519 30.5007 21.7414 30.901 16.8896 28.5616C12.0376 26.2228 8.56929 21.5301 6.08697 16.3421C5.78359 15.7084 5.40611 15.0319 5.52887 14.2589C6.09584 10.6882 8.16423 10.4865 9.72759 9.50829C11.5915 8.34117 12.807 8.42893 13.707 10.6235Z" fill="#FF0224"/>
<path d="M6.73954 13.9579C9.22187 19.1459 12.6904 23.838 17.5422 26.1774C22.394 28.5168 28.8049 28.1167 33.6185 24.0365C36.4997 21.595 38.8442 17.9081 42.183 16.8148C42.2492 16.7929 42.3185 16.769 42.3885 16.7435C42.5814 16.8602 42.7581 17.0078 42.9114 17.1926C43.0363 17.3436 43.1451 17.5241 43.1625 17.7416C43.2249 18.5295 42.2442 18.9634 41.5294 19.1978C38.1906 20.2911 35.8459 23.9772 32.9649 26.4195C28.1511 30.4989 21.7407 30.8992 16.8886 28.5604C12.0368 26.221 8.56827 21.5289 6.08594 16.3408C5.78256 15.7071 5.40509 15.0307 5.52784 14.2577C5.66257 13.4084 5.88431 12.7542 6.16184 12.2306C6.17905 12.8587 6.48383 13.4239 6.73954 13.9579Z" fill="#DB021F"/>
<path d="M33.6185 24.0372C28.8047 28.1166 22.3943 28.5169 17.5422 26.1781C12.6904 23.8387 9.22188 19.1466 6.73955 13.9586C6.48385 13.4246 6.17886 12.8586 6.16186 12.2313C7.05167 10.5524 8.53481 10.2537 9.72658 9.50776C11.5912 8.3403 12.8065 8.42861 13.7064 10.6231C14.1911 11.7987 14.3309 13.1596 14.6679 14.4188C15.7414 18.4374 18.9807 21.3065 22.8119 21.6334C28.1911 22.0921 33.623 17.9897 39.1317 16.6106C40.2519 16.3301 41.5022 16.2069 42.3887 16.7449C42.3187 16.7704 42.2494 16.7943 42.1832 16.8163C38.8442 17.9088 36.4997 21.5957 33.6185 24.0372Z" fill="#FF0224"/>
<path d="M10.1204 7.2333C10.2989 7.86923 10.562 8.60333 10.1855 9.22456C9.88708 9.71689 9.32482 9.88093 8.82898 9.99638C8.49421 10.0739 8.10213 10.1336 7.90087 9.87106C7.6194 9.50313 7.93886 8.88373 8.10985 8.36969C8.30499 7.7847 8.29399 7.17625 8.31436 6.58085C8.35157 5.48106 8.5049 4.36609 8.76965 3.2665C8.95612 2.49129 8.90914 1.15332 9.44571 0.571297C9.92667 0.0497483 10.6584 0.58806 11.1729 0.886899C10.2594 3.18385 9.43144 4.78147 10.1204 7.2333Z" fill="#00A73E"/>
<path d="M9.4454 0.569123C9.39472 0.754311 9.74022 0.975473 10.2168 1.06284C10.6937 1.14967 11.1217 1.07045 11.1726 0.884722C11.2233 0.699534 10.8778 0.478376 10.4012 0.391006C9.92431 0.30418 9.49677 0.383589 9.4454 0.569123Z" fill="#00C449"/>
<path d="M7.8338 9.17876C7.8338 9.17876 5.72732 10.8176 5.16303 11.7721C4.59875 12.7267 4.47845 13.7179 4.47845 13.7179C4.47845 13.7179 6.87519 11.9032 7.57443 11.1549C7.84639 10.8635 8.36265 10.388 8.36265 10.388C8.36265 10.388 7.6433 11.4874 7.45073 11.8812C7.22253 12.3475 6.67255 14.4419 6.67255 14.4419C6.67255 14.4419 8.64473 12.7607 9.19047 12.0634C9.67041 11.4502 10.2172 9.87522 10.2172 9.87522C10.2172 9.87522 12.3242 9.90737 13.6599 9.44655C14.9952 8.98552 15.3754 8.70227 15.3754 8.70227C15.3754 8.70227 14.428 8.26479 12.9414 8.07047C11.8835 7.93218 10.0101 8.42696 10.0101 8.42696L7.8338 9.17876Z" fill="#00A73E"/>
<path d="M19.5247 23.551C18.3512 23.2913 17.2054 22.9145 16.1842 22.2994C13.4951 20.6795 11.828 17.3491 11.8778 13.6981C12.9924 13.8937 13.2092 15.4492 13.5217 16.6455C14.2173 19.3062 16.2884 21.1011 18.6194 21.9735C20.9504 22.8459 23.5463 22.9193 26.104 22.9852C27.2507 23.0149 29.8438 22.1288 31.0082 21.9615C31.8713 21.8375 32.6228 21.7221 32.1637 22.1587C27.9531 23.884 23.5997 24.4524 19.5247 23.551Z" fill="#F7F8F4"/>
<path d="M9.63658 1.29543C8.88944 3.87226 8.67261 6.37672 8.52057 8.98245C8.62068 9.03461 8.74014 9.04893 8.858 9.02278C8.76797 7.33357 9.01086 5.58755 9.30392 3.86082C9.39545 3.32058 9.49529 2.77158 9.72247 2.26119C9.80892 2.0675 10.1125 1.66608 10.1131 1.46621C10.1135 1.27864 9.67061 1.1623 9.63658 1.29543Z" fill="#008C34"/>
</svg>
