<svg width="30" height="31" viewBox="0 0 30 31" fill="none" xmlns="http://www.w3.org/2000/svg">
<path d="M11.8344 1.49164C12.376 0.845251 13.0506 0.256041 13.876 0.0662683C14.7817 -0.142565 15.7426 0.164887 16.5202 0.670397C19.0682 2.32532 19.7822 5.79925 19.2683 8.77264C18.6547 12.3178 14.6042 15.6948 11.5456 12.3377C8.98427 9.52676 9.55011 4.21725 11.8344 1.49164Z" fill="#FFA600"/>
<path d="M28.2864 11.0164C28.925 11.5683 29.5026 12.2512 29.6742 13.0733C29.8617 13.9749 29.5268 14.918 28.9978 15.6746C27.2626 18.1549 23.737 18.7731 20.747 18.1889C17.1829 17.4919 13.8757 13.3973 17.3428 10.4554C20.2457 7.99332 25.5919 8.68695 28.2864 11.0164Z" fill="#FFA600"/>
<path d="M12.411 11.9661C13.0497 12.518 13.6273 13.2009 13.7989 14.0229C13.9864 14.9246 13.6515 15.8676 13.1225 16.6243C11.3873 19.1046 7.86168 19.7228 4.87174 19.1394C1.30675 18.4424 -1.99961 14.3478 1.46745 11.4059C4.36949 8.94217 9.71657 9.63579 12.411 11.9661Z" fill="#FFA600"/>
<path d="M11.2801 17.9048C12.0895 17.6529 12.9785 17.5211 13.7762 17.8054C14.6509 18.117 15.2896 18.8918 15.6654 19.7338C16.8975 22.4933 15.5926 25.7941 13.5292 28.015C11.07 30.6627 5.81583 31.3207 5.08928 26.8581C4.48158 23.1207 7.86744 18.9664 11.2801 17.9048Z" fill="#FFA600"/>
<path d="M14.8052 21.8538C14.5239 21.0615 14.3607 20.1864 14.621 19.3867C14.9065 18.5108 15.6665 17.8528 16.5035 17.4525C19.2482 16.1399 22.624 17.3208 24.9351 19.2873C27.6907 21.6317 28.5319 26.8078 24.0512 27.6779C20.3004 28.4055 15.9921 25.1951 14.8052 21.8538Z" fill="#FFA600"/>
<path d="M10.5761 16.4795C10.4405 18.6623 12.0996 20.8177 14.2608 21.2677C16.4229 21.7177 18.8177 20.405 19.5811 18.3523C19.7694 17.8452 19.8674 17.3024 19.8305 16.7629C19.6933 14.7168 17.2951 12.3525 15.2268 12.0824C12.9165 11.7816 10.7059 14.3961 10.5761 16.4795Z" fill="#FF0624"/>
<path d="M15.5072 15.9851C15.493 16.0862 15.4787 16.1873 15.4637 16.2884C15.4946 16.6207 15.9056 16.8436 16.2195 16.721C16.5334 16.5983 16.6883 16.1997 16.5728 15.8865C16.4572 15.5724 16.1157 15.3685 15.7784 15.3727C15.4411 15.3768 15.1221 15.5683 14.9221 15.8376C14.6316 16.2296 14.5915 16.7881 14.8225 17.2174C15.0535 17.6466 15.5449 17.9242 16.0354 17.9035C16.294 17.8928 16.5443 17.8066 16.7736 17.6889C17.3922 17.3723 17.912 16.7152 17.7789 16.0381C17.6509 15.3892 16.998 14.9857 16.3769 14.7429C16.1492 14.6534 15.9098 14.5738 15.6646 14.5871C15.4126 14.6003 15.1765 14.7122 14.9581 14.8373C14.0449 15.3611 13.253 16.3406 13.4497 17.3674C13.5903 18.0999 14.2315 18.6817 14.9606 18.8723C15.6888 19.0629 16.479 18.9029 17.1453 18.5532C17.4458 18.3958 17.7287 18.1985 17.9581 17.9499C18.8194 17.0185 18.7315 15.4265 17.8576 14.5058C16.9837 13.586 15.4888 13.3705 14.3261 13.8901C13.1635 14.4097 12.3582 15.5757 12.1515 16.8221C12.0669 17.3317 12.077 17.872 12.2921 18.3427C12.5675 18.9452 13.1367 19.3571 13.6816 19.7399" stroke="#FFA600" stroke-width="0.3704" stroke-miterlimit="10" stroke-linecap="round" stroke-linejoin="round"/>
<path d="M14.4312 2.12402C14.1751 2.28645 13.9441 2.48784 13.7491 2.71905C13.6093 2.88396 13.4845 3.07374 13.4628 3.28754C13.4176 3.74747 13.8453 4.10215 14.2278 4.36568C14.6095 4.62921 14.9904 4.89274 15.3721 5.15627C15.65 5.34853 15.9496 5.57227 16.0166 5.90043C16.0777 6.20208 15.9162 6.51203 15.6876 6.72087C15.4591 6.92887 15.1712 7.05814 14.895 7.19902C14.535 7.38217 14.1784 7.59846 13.9391 7.92083C13.6997 8.24319 13.5992 8.69482 13.785 9.05116C13.97 9.40668 14.3735 9.57989 14.7058 9.80696C15.0381 10.034 15.3394 10.4434 15.1729 10.808" stroke="#00712E" stroke-width="0.3704" stroke-miterlimit="10"/>
<path d="M14.8896 3.33987C14.9859 3.41943 15.129 3.43849 15.2429 3.38628C15.2864 3.36556 15.3249 3.33656 15.3617 3.30424C15.494 3.18822 15.5886 3.00924 15.4572 2.85676C15.3776 2.76477 15.2194 2.69017 15.0964 2.70011C14.7992 2.72414 14.662 3.15093 14.8896 3.33987Z" fill="#00712E"/>
<path d="M15.0532 8.74905C15.1495 8.82861 15.2926 8.84767 15.4065 8.79546C15.45 8.77474 15.4885 8.74574 15.5245 8.71342C15.6568 8.5974 15.7513 8.41839 15.6199 8.26591C15.5404 8.17393 15.3822 8.09935 15.2592 8.10929C14.9628 8.13415 14.8256 8.56011 15.0532 8.74905Z" fill="#00712E"/>
<path d="M12.4854 5.36786C12.4369 5.5278 12.4938 5.71428 12.6244 5.82119C12.7181 5.89826 12.8437 5.93223 12.9651 5.92725C13.0864 5.92228 13.2045 5.88002 13.3083 5.81704C13.4028 5.75986 13.4882 5.68361 13.5409 5.58665C13.5928 5.48969 13.6087 5.37035 13.5669 5.26842C13.5225 5.15903 13.4179 5.08279 13.3057 5.04301C13.186 5.00075 12.9969 4.956 12.8696 4.99744C12.7031 5.05131 12.5365 5.20046 12.4854 5.36786Z" fill="#00712E"/>
<path d="M12.268 21.6786C11.6888 21.5808 11.0869 21.6173 10.5244 21.7847C10.4072 21.8195 10.2859 21.8634 10.2047 21.9545C10.0507 22.1269 10.1025 22.407 10.2423 22.591C10.3821 22.775 10.588 22.8959 10.7672 23.0426C11.0015 23.234 11.1932 23.476 11.3263 23.747C11.4268 23.9525 11.4937 24.1937 11.4142 24.4092C11.3037 24.7083 10.9438 24.85 10.6232 24.8343C10.3018 24.8177 10.0021 24.6826 9.6949 24.5873C9.36092 24.4837 8.99847 24.4266 8.66198 24.5235C8.32632 24.6205 8.02749 24.9039 8.00155 25.2495C7.94379 26.0218 9.13575 26.4453 9.10227 27.2185C9.08553 27.6187 8.65863 27.9502 8.26187 27.8715" stroke="#00712E" stroke-width="0.3704" stroke-miterlimit="10"/>
<path d="M8.82818 23.4325C8.92445 23.512 9.06758 23.5311 9.18142 23.4781C9.22494 23.4574 9.26345 23.4283 9.30028 23.396C9.43253 23.28 9.52713 23.101 9.39571 22.9485C9.31619 22.8565 9.15799 22.782 9.03494 22.7919C8.73695 22.8176 8.59967 23.2435 8.82818 23.4325Z" fill="#00712E"/>
<path d="M10.0045 26.2165C9.95592 26.3764 10.0129 26.5629 10.1434 26.6698C10.2372 26.7469 10.3627 26.7808 10.4841 26.7759C10.6055 26.7709 10.7235 26.7286 10.8273 26.6656C10.9219 26.6085 11.0073 26.5322 11.06 26.4353C11.1119 26.3383 11.1278 26.219 11.086 26.1171C11.0416 26.0077 10.937 25.9314 10.8248 25.8916C10.7051 25.8494 10.5159 25.8046 10.3887 25.8461C10.2221 25.8999 10.0555 26.0491 10.0045 26.2165Z" fill="#00712E"/>
<path d="M12.1773 22.7673C12.1288 22.9272 12.1857 23.1137 12.3163 23.2206C12.41 23.2976 12.5356 23.3316 12.657 23.3267C12.7783 23.3217 12.8964 23.2794 13.0001 23.2164C13.0947 23.1592 13.1801 23.083 13.2329 22.9861C13.2848 22.8891 13.3007 22.7698 13.2588 22.6678C13.2144 22.5584 13.1098 22.4814 12.9976 22.4424C12.8779 22.4002 12.6888 22.3554 12.5615 22.3969C12.395 22.4499 12.2275 22.5999 12.1773 22.7673Z" fill="#00712E"/>
<path d="M2.17578 14.3087C2.42522 14.0278 2.71653 13.7825 3.03628 13.5828C3.24471 13.4535 3.4866 13.3391 3.72767 13.3847C4.10518 13.456 4.30023 13.872 4.37556 14.2441C4.4509 14.617 4.48018 15.0297 4.74218 15.3073C4.80998 15.3794 4.90626 15.4424 5.00419 15.4217C5.0586 15.4101 5.10463 15.3736 5.14732 15.338C5.43359 15.0968 5.68722 14.8134 6.00698 14.617C6.32673 14.4206 6.7419 14.3228 7.0784 14.4877C7.27594 14.6195 7.16209 15.2253 7.30104 15.5684C7.36801 15.7349 7.45674 15.9031 7.60824 16.0018C7.89117 16.1866 8.27536 16.0598 8.55912 15.8758C8.84288 15.6927 9.10822 15.4499 9.44304 15.3968" stroke="#00712E" stroke-width="0.3704" stroke-miterlimit="10"/>
<path d="M5.88768 16.372C5.98394 16.4515 6.12707 16.4706 6.24091 16.4175C6.28443 16.3968 6.32294 16.3678 6.35977 16.3355C6.49202 16.2195 6.58662 16.0405 6.4552 15.888C6.37568 15.796 6.21748 15.7214 6.09443 15.7314C5.79728 15.757 5.66 16.183 5.88768 16.372Z" fill="#00712E"/>
<path d="M2.69432 15.4589C2.79058 15.5384 2.93371 15.5575 3.04755 15.5044C3.09107 15.4837 3.1296 15.4547 3.16643 15.4224C3.29869 15.3064 3.39326 15.1274 3.26184 14.9749C3.18232 14.8829 3.02412 14.8083 2.90107 14.8183C2.60392 14.844 2.46664 15.2699 2.69432 15.4589Z" fill="#00712E"/>
<path d="M7.84481 14.1296C7.79626 14.2895 7.85319 14.476 7.98377 14.5829C8.07752 14.6599 8.20222 14.6939 8.32443 14.6889C8.4458 14.684 8.56384 14.6417 8.66847 14.5787C8.76306 14.5216 8.84842 14.4453 8.90116 14.3484C8.95305 14.2514 8.96896 14.1321 8.92711 14.0301C8.88275 13.9208 8.77813 13.8445 8.66597 13.8047C8.54627 13.7625 8.35707 13.7177 8.22984 13.7592C8.06243 13.813 7.89587 13.9622 7.84481 14.1296Z" fill="#00712E"/>
<path d="M4.63924 13.2373C4.59069 13.3973 4.64762 13.5837 4.7782 13.6906C4.87195 13.7677 4.99752 13.8017 5.11889 13.7967C5.24026 13.7917 5.35827 13.7495 5.46206 13.6865C5.55665 13.6293 5.64204 13.5531 5.69477 13.4561C5.74667 13.3592 5.76258 13.2398 5.72072 13.1379C5.67636 13.0285 5.57172 12.9514 5.45956 12.9117C5.33986 12.8694 5.15069 12.8247 5.02346 12.8661C4.85688 12.92 4.6903 13.07 4.63924 13.2373Z" fill="#00712E"/>
<path d="M18.3599 21.1293C18.5884 20.913 18.8504 20.715 19.1584 20.6453C19.4664 20.5766 19.828 20.666 20.003 20.9263C20.3746 21.4815 19.7134 22.3409 20.1386 22.858C20.3972 23.1721 20.8877 23.1314 21.287 23.0444C21.6662 22.9616 22.0521 22.8621 22.4363 22.9168C22.8205 22.9715 23.2064 23.2251 23.2758 23.603C23.3102 23.7903 23.2641 23.9825 23.2783 24.1723C23.3135 24.6712 23.7622 25.064 24.2477 25.2024C24.7332 25.3408 25.2504 25.2794 25.751 25.2165" stroke="#00712E" stroke-width="0.3704" stroke-miterlimit="10"/>
<path d="M21.4302 21.6123C21.5265 21.6919 21.6696 21.7109 21.7834 21.6587C21.827 21.638 21.8655 21.609 21.9014 21.5767C22.0337 21.4607 22.1283 21.2817 21.9969 21.1292C21.9173 21.0372 21.7591 20.9626 21.6361 20.9726C21.3398 20.9974 21.2025 21.4242 21.4302 21.6123Z" fill="#00712E"/>
<path d="M24.3242 24.1987C24.4205 24.2783 24.5636 24.2973 24.6775 24.2451C24.721 24.2244 24.7595 24.1954 24.7963 24.1631C24.9286 24.0471 25.0231 23.8681 24.8917 23.7156C24.8122 23.6236 24.654 23.5491 24.531 23.559C24.2338 23.5839 24.0965 24.0098 24.3242 24.1987Z" fill="#00712E"/>
<path d="M20.9117 24.4029C20.8632 24.5628 20.9201 24.7493 21.0507 24.8562C21.1444 24.9332 21.2691 24.9672 21.3913 24.9623C21.5127 24.9573 21.6307 24.915 21.7354 24.852C21.8299 24.7949 21.9153 24.7186 21.968 24.6217C22.0199 24.5247 22.0359 24.4054 21.994 24.3034C21.9496 24.194 21.845 24.1178 21.7329 24.0772C21.6132 24.0349 21.424 23.9902 21.2967 24.0316C21.1293 24.0863 20.9628 24.2355 20.9117 24.4029Z" fill="#00712E"/>
<path d="M19.8618 14.6509C19.8936 14.0095 20.4997 13.3631 21.1266 13.5297C21.6272 13.6631 21.9126 14.2267 22.409 14.375C22.9874 14.5474 23.549 14.0974 23.9901 13.6888C24.4321 13.2803 25.0222 12.851 25.5856 13.0681C25.9388 13.204 26.1606 13.5637 26.5046 13.7203C27.1333 14.0079 27.8288 13.5289 28.3512 13.0789" stroke="#00712E" stroke-width="0.3704" stroke-miterlimit="10"/>
<path d="M26.5879 12.5311C26.6842 12.6107 26.8273 12.6297 26.9411 12.5767C26.9847 12.556 27.0232 12.527 27.0592 12.4947C27.1914 12.3786 27.286 12.1997 27.1546 12.0472C27.0751 11.9552 26.9169 11.8806 26.7938 11.8905C26.4975 11.9162 26.3602 12.3422 26.5879 12.5311Z" fill="#00712E"/>
<path d="M20.9985 15.1533C21.0948 15.2329 21.2379 15.252 21.3518 15.1998C21.3953 15.179 21.4338 15.15 21.4706 15.1177C21.6029 15.0017 21.6975 14.8227 21.566 14.6702C21.4865 14.5782 21.3283 14.5036 21.2053 14.5136C20.9081 14.5376 20.7708 14.9644 20.9985 15.1533Z" fill="#00712E"/>
<path d="M24.3624 15.1075C24.3138 15.2674 24.3708 15.4539 24.5013 15.5608C24.5951 15.6378 24.7206 15.6718 24.842 15.6669C24.9634 15.6619 25.0814 15.6196 25.1852 15.5566C25.2798 15.4994 25.3652 15.4232 25.4179 15.3263C25.4698 15.2293 25.4857 15.11 25.4438 15.008C25.3995 14.8986 25.2949 14.8216 25.1827 14.7818C25.063 14.7395 24.8738 14.6948 24.7466 14.7362C24.58 14.7901 24.4134 14.9401 24.3624 15.1075Z" fill="#00712E"/>
<path d="M22.3004 12.1807C22.2518 12.3406 22.3087 12.5271 22.4393 12.634C22.5331 12.7111 22.6586 12.745 22.78 12.7401C22.9014 12.7351 23.0194 12.6928 23.124 12.6299C23.2186 12.5727 23.304 12.4965 23.3567 12.3995C23.4086 12.3025 23.4245 12.1832 23.3827 12.0813C23.3383 11.9719 23.2337 11.8956 23.1215 11.855C23.0018 11.8128 22.8126 11.768 22.6854 11.8095C22.518 11.8633 22.3506 12.0133 22.3004 12.1807Z" fill="#00712E"/>
</svg>
