<svg width="15" height="21" viewBox="0 0 15 21" fill="none" xmlns="http://www.w3.org/2000/svg">
<path d="M2.86065 20.9588C2.39569 20.9595 1.94509 20.8419 1.58707 20.6266C1.38557 20.5053 1.21901 20.3564 1.09692 20.1883C0.974836 20.0203 0.899622 19.8364 0.875592 19.6472C0.851561 19.458 0.879186 19.2672 0.956883 19.0858C1.03458 18.9044 1.16082 18.7358 1.32838 18.5899L10.2434 10.8475L1.64678 3.09059C1.48148 2.94283 1.35804 2.77282 1.28355 2.59033C1.20906 2.40783 1.18499 2.21645 1.21273 2.02718C1.24047 1.83792 1.31947 1.65449 1.44518 1.48746C1.57089 1.32042 1.74085 1.17307 1.94527 1.05387C2.15116 0.922366 2.39228 0.823177 2.65348 0.762525C2.91469 0.701872 3.19035 0.681066 3.46316 0.701412C3.73597 0.721757 4.00004 0.782815 4.2388 0.880753C4.47756 0.978692 4.68585 1.1114 4.85061 1.27054L14.4621 9.93743C14.7548 10.1959 14.9148 10.5201 14.9148 10.8547C14.9148 11.1893 14.7548 11.5135 14.4621 11.7719L4.51232 20.4388C4.31269 20.6136 4.0591 20.7518 3.77213 20.8421C3.48516 20.9325 3.17289 20.9725 2.86065 20.9588Z" fill="#FFFEFE"/>
</svg>
