<svg width="48" height="46" viewBox="0 0 48 46" fill="none" xmlns="http://www.w3.org/2000/svg">
<path d="M42.1602 13.3272C41.8147 12.7572 41.3198 12.2821 40.7239 11.9484C40.128 11.6147 39.4515 11.4338 38.7602 11.4232H13.1602L12.0002 7.12006C11.883 6.70467 11.6216 6.3393 11.2584 6.08345C10.8952 5.8276 10.4518 5.69635 10.0002 5.71108H6.00024C5.46981 5.71108 4.9611 5.91168 4.58603 6.26876C4.21096 6.62583 4.00024 7.11013 4.00024 7.61511C4.00024 8.12009 4.21096 8.60439 4.58603 8.96147C4.9611 9.31854 5.46981 9.51914 6.00024 9.51914H8.48024L14.0002 29.0545C14.1174 29.4699 14.3789 29.8353 14.7421 30.0911C15.1053 30.347 15.5487 30.4782 16.0002 30.4635H34.0002C34.3696 30.4624 34.7314 30.364 35.0456 30.1792C35.3598 29.9944 35.614 29.7303 35.7802 29.4163L42.3402 16.9258C42.6246 16.3585 42.7569 15.7329 42.7255 15.105C42.6941 14.477 42.4999 13.8663 42.1602 13.3272ZM32.7602 26.6554H17.5202L14.2602 15.2312H38.7602L32.7602 26.6554Z" fill="#FFF4F7"/>
<path d="M15.0002 39.9848C16.6571 39.9848 18.0002 38.7061 18.0002 37.1288C18.0002 35.5514 16.6571 34.2727 15.0002 34.2727C13.3434 34.2727 12.0002 35.5514 12.0002 37.1288C12.0002 38.7061 13.3434 39.9848 15.0002 39.9848Z" fill="#FFF4F7"/>
<path d="M35 39.9848C36.6569 39.9848 38 38.7061 38 37.1288C38 35.5514 36.6569 34.2727 35 34.2727C33.3431 34.2727 32 35.5514 32 37.1288C32 38.7061 33.3431 39.9848 35 39.9848Z" fill="#FFF4F7"/>
</svg>
