<svg width="1092" height="181" viewBox="0 0 1092 181" fill="none" xmlns="http://www.w3.org/2000/svg">
<path d="M0 82.001H1083V106.001H0V82.001Z" fill="#FEC15B"/>
<path d="M391.545 104.05L380.027 82.2539L400.789 82.2596L391.545 104.05Z" fill="#2E7D32"/>
<path d="M412.379 104.049L400.87 82.249L421.627 82.2697L412.379 104.049Z" fill="#D60100"/>
<path d="M370.699 103.995L359.182 82.1992L379.944 82.2049L370.699 103.995Z" fill="#F2E487"/>
<path d="M349.933 103.979L338.428 82.1904L359.181 82.2L349.933 103.979Z" fill="#D60100"/>
<path d="M329.179 103.971L317.661 82.1748L338.427 82.1915L329.179 103.971Z" fill="#2E7D32"/>
<path d="M308.615 103.954L297.098 82.1582L317.864 82.1749L308.615 103.954Z" fill="#F2E487"/>
<path d="M287.852 103.947L276.343 82.1475L297.096 82.1571L287.852 103.947Z" fill="#D60100"/>
<path d="M267.095 103.927L255.581 82.1426L276.343 82.1482L267.095 103.927Z" fill="#2E7D32"/>
<path d="M246.331 103.923L234.822 82.123L255.579 82.1437L246.331 103.923Z" fill="#F2E487"/>
<path d="M225.578 103.913L214.061 82.1172L234.823 82.1229L225.578 103.913Z" fill="#D60100"/>
<path d="M204.805 105.444L192.499 82.4766L213.801 82.4968L204.805 105.444Z" fill="#2E7D32"/>
<path d="M183.497 105.412L171.2 82.4404L192.498 82.4764L183.497 105.412Z" fill="#F2E487"/>
<path d="M162.205 105.386L149.898 82.4189L171.201 82.4392L162.205 105.386Z" fill="#D60100"/>
<path d="M140.896 105.355L128.604 82.3955L149.897 82.4198L140.896 105.355Z" fill="#2E7D32"/>
<path d="M119.603 105.332L107.297 82.3652L128.603 82.3971L119.603 105.332Z" fill="#F2E487"/>
<path d="M98.5046 105.299L86.1982 82.332L107.505 82.3639L98.5046 105.299Z" fill="#D60100"/>
<path d="M77.2015 105.28L64.9043 82.3086L86.1975 82.3329L77.2015 105.28Z" fill="#2E7D32"/>
<path d="M55.9037 105.244L43.6016 82.2881L64.9039 82.3083L55.9037 105.244Z" fill="#F2E487"/>
<path d="M34.6019 105.224L22.3047 82.2529L43.6021 82.2889L34.6019 105.224Z" fill="#D60100"/>
<path d="M13.3064 105.2L1 82.2324L22.3024 82.2526L13.3064 105.2Z" fill="#2E7D32"/>
<path d="M769.485 104.172L757.967 82.376L778.729 82.3817L769.485 104.172Z" fill="#2E7D32"/>
<path d="M790.318 104.171L778.81 82.3711L799.566 82.3917L790.318 104.171Z" fill="#D60100"/>
<path d="M748.639 104.117L737.121 82.3213L757.883 82.327L748.639 104.117Z" fill="#F2E487"/>
<path d="M727.872 104.101L716.367 82.3125L737.12 82.3221L727.872 104.101Z" fill="#D60100"/>
<path d="M707.118 104.093L695.601 82.2969L716.367 82.3136L707.118 104.093Z" fill="#2E7D32"/>
<path d="M686.555 104.076L675.037 82.2803L695.803 82.297L686.555 104.076Z" fill="#F2E487"/>
<path d="M665.791 104.069L654.282 82.2695L675.035 82.2791L665.791 104.069Z" fill="#D60100"/>
<path d="M645.034 104.049L633.521 82.2646L654.283 82.2703L645.034 104.049Z" fill="#2E7D32"/>
<path d="M624.27 104.045L612.762 82.2451L633.519 82.2658L624.27 104.045Z" fill="#F2E487"/>
<path d="M603.518 104.035L592 82.2393L612.762 82.2449L603.518 104.035Z" fill="#D60100"/>
<path d="M582.204 104.926L569.897 81.959L591.2 81.9792L582.204 104.926Z" fill="#2E7D32"/>
<path d="M560.896 104.894L548.599 81.9229L569.896 81.9588L560.896 104.894Z" fill="#F2E487"/>
<path d="M539.603 104.869L527.297 81.9014L548.599 81.9216L539.603 104.869Z" fill="#D60100"/>
<path d="M518.295 104.838L506.002 81.8779L527.295 81.9023L518.295 104.838Z" fill="#2E7D32"/>
<path d="M497.002 104.815L484.695 81.8477L506.002 81.8795L497.002 104.815Z" fill="#F2E487"/>
<path d="M475.903 104.782L463.597 81.8145L484.903 81.8463L475.903 104.782Z" fill="#D60100"/>
<path d="M454.6 104.762L442.303 81.791L463.596 81.8154L454.6 104.762Z" fill="#2E7D32"/>
<path d="M433.302 104.726L421 81.7705L442.302 81.7907L433.302 104.726Z" fill="#F2E487"/>
<path d="M955.723 104.34L944.205 82.5439L964.967 82.5496L955.723 104.34Z" fill="#2E7D32"/>
<path d="M976.557 104.339L965.048 82.5391L985.805 82.5597L976.557 104.339Z" fill="#D60100"/>
<path d="M934.877 104.285L923.359 82.4893L944.121 82.4949L934.877 104.285Z" fill="#F2E487"/>
<path d="M914.11 104.269L902.605 82.4805L923.359 82.4901L914.11 104.269Z" fill="#D60100"/>
<path d="M893.357 104.261L881.839 82.4648L902.605 82.4816L893.357 104.261Z" fill="#2E7D32"/>
<path d="M872.793 104.244L861.275 82.4482L882.041 82.465L872.793 104.244Z" fill="#F2E487"/>
<path d="M852.029 104.237L840.521 82.4375L861.274 82.4471L852.029 104.237Z" fill="#D60100"/>
<path d="M831.273 104.217L819.759 82.4326L840.521 82.4383L831.273 104.217Z" fill="#2E7D32"/>
<path d="M810.509 104.213L799 82.4131L819.757 82.4337L810.509 104.213Z" fill="#F2E487"/>
<path d="M1080.47 103.234L1067 82.6494L1083.51 82.425L1080.47 103.234Z" fill="#2E7D32"/>
<path d="M1059.79 104.244L1048.28 82.4482L1069.04 82.465L1059.79 104.244Z" fill="#F2E487"/>
<path d="M1039.03 104.237L1027.52 82.4375L1048.27 82.4471L1039.03 104.237Z" fill="#D60100"/>
<path d="M1018.27 104.217L1006.76 82.4326L1027.52 82.4383L1018.27 104.217Z" fill="#2E7D32"/>
<path d="M997.509 104.213L986 82.4131L1006.76 82.4337L997.509 104.213Z" fill="#F2E487"/>
</svg>
