<svg width="1091" height="181" viewBox="0 0 1091 181" fill="none" xmlns="http://www.w3.org/2000/svg">
<path d="M390.545 104.05L379.027 82.2539L399.789 82.2596L390.545 104.05Z" fill="#2E7D32"/>
<path d="M411.379 104.049L399.87 82.249L420.627 82.2697L411.379 104.049Z" fill="#D60100"/>
<path d="M369.699 103.995L358.182 82.1992L378.944 82.2049L369.699 103.995Z" fill="#F2E487"/>
<path d="M348.933 103.979L337.428 82.1904L358.181 82.2L348.933 103.979Z" fill="#D60100"/>
<path d="M328.179 103.971L316.661 82.1748L337.427 82.1915L328.179 103.971Z" fill="#2E7D32"/>
<path d="M307.615 103.954L296.098 82.1582L316.864 82.1749L307.615 103.954Z" fill="#F2E487"/>
<path d="M286.852 103.947L275.343 82.1475L296.096 82.1571L286.852 103.947Z" fill="#D60100"/>
<path d="M266.095 103.927L254.581 82.1426L275.343 82.1482L266.095 103.927Z" fill="#2E7D32"/>
<path d="M245.331 103.923L233.822 82.123L254.579 82.1437L245.331 103.923Z" fill="#F2E487"/>
<path d="M224.578 103.913L213.061 82.1172L233.823 82.1229L224.578 103.913Z" fill="#D60100"/>
<path d="M203.805 105.444L191.499 82.4766L212.801 82.4968L203.805 105.444Z" fill="#2E7D32"/>
<path d="M182.497 105.412L170.2 82.4404L191.498 82.4764L182.497 105.412Z" fill="#F2E487"/>
<path d="M161.205 105.386L148.898 82.4189L170.201 82.4392L161.205 105.386Z" fill="#D60100"/>
<path d="M139.896 105.355L127.604 82.3955L148.897 82.4198L139.896 105.355Z" fill="#2E7D32"/>
<path d="M118.603 105.332L106.297 82.3652L127.603 82.3971L118.603 105.332Z" fill="#F2E487"/>
<path d="M97.5046 105.299L85.1982 82.332L106.505 82.3639L97.5046 105.299Z" fill="#D60100"/>
<path d="M76.2015 105.28L63.9043 82.3086L85.1975 82.3329L76.2015 105.28Z" fill="#2E7D32"/>
<path d="M54.9037 105.244L42.6016 82.2881L63.9039 82.3083L54.9037 105.244Z" fill="#F2E487"/>
<path d="M33.6019 105.224L21.3047 82.2529L42.6021 82.2889L33.6019 105.224Z" fill="#D60100"/>
<path d="M12.3064 105.2L0 82.2324L21.3024 82.2526L12.3064 105.2Z" fill="#2E7D32"/>
<path d="M768.485 104.172L756.967 82.376L777.729 82.3817L768.485 104.172Z" fill="#2E7D32"/>
<path d="M789.318 104.171L777.81 82.3711L798.566 82.3917L789.318 104.171Z" fill="#D60100"/>
<path d="M747.639 104.117L736.121 82.3213L756.883 82.327L747.639 104.117Z" fill="#F2E487"/>
<path d="M726.872 104.101L715.367 82.3125L736.12 82.3221L726.872 104.101Z" fill="#D60100"/>
<path d="M706.118 104.093L694.601 82.2969L715.367 82.3136L706.118 104.093Z" fill="#2E7D32"/>
<path d="M685.555 104.076L674.037 82.2803L694.803 82.297L685.555 104.076Z" fill="#F2E487"/>
<path d="M664.791 104.069L653.282 82.2695L674.035 82.2791L664.791 104.069Z" fill="#D60100"/>
<path d="M644.034 104.049L632.521 82.2646L653.283 82.2703L644.034 104.049Z" fill="#2E7D32"/>
<path d="M623.27 104.045L611.762 82.2451L632.519 82.2658L623.27 104.045Z" fill="#F2E487"/>
<path d="M602.518 104.035L591 82.2393L611.762 82.2449L602.518 104.035Z" fill="#D60100"/>
<path d="M581.204 104.926L568.897 81.959L590.2 81.9792L581.204 104.926Z" fill="#2E7D32"/>
<path d="M559.896 104.894L547.599 81.9229L568.896 81.9588L559.896 104.894Z" fill="#F2E487"/>
<path d="M538.603 104.869L526.297 81.9014L547.599 81.9216L538.603 104.869Z" fill="#D60100"/>
<path d="M517.295 104.838L505.002 81.8779L526.295 81.9023L517.295 104.838Z" fill="#2E7D32"/>
<path d="M496.002 104.815L483.695 81.8477L505.002 81.8795L496.002 104.815Z" fill="#F2E487"/>
<path d="M474.903 104.782L462.597 81.8145L483.903 81.8463L474.903 104.782Z" fill="#D60100"/>
<path d="M453.6 104.762L441.303 81.791L462.596 81.8154L453.6 104.762Z" fill="#2E7D32"/>
<path d="M432.302 104.726L420 81.7705L441.302 81.7907L432.302 104.726Z" fill="#F2E487"/>
<path d="M954.723 104.34L943.205 82.5439L963.967 82.5496L954.723 104.34Z" fill="#2E7D32"/>
<path d="M975.557 104.339L964.048 82.5391L984.805 82.5597L975.557 104.339Z" fill="#D60100"/>
<path d="M933.877 104.285L922.359 82.4893L943.121 82.4949L933.877 104.285Z" fill="#F2E487"/>
<path d="M913.11 104.269L901.605 82.4805L922.359 82.4901L913.11 104.269Z" fill="#D60100"/>
<path d="M892.357 104.261L880.839 82.4648L901.605 82.4816L892.357 104.261Z" fill="#2E7D32"/>
<path d="M871.793 104.244L860.275 82.4482L881.041 82.465L871.793 104.244Z" fill="#F2E487"/>
<path d="M851.029 104.237L839.521 82.4375L860.274 82.4471L851.029 104.237Z" fill="#D60100"/>
<path d="M830.273 104.217L818.759 82.4326L839.521 82.4383L830.273 104.217Z" fill="#2E7D32"/>
<path d="M809.509 104.213L798 82.4131L818.757 82.4337L809.509 104.213Z" fill="#F2E487"/>
<path d="M1079.47 103.234L1066 82.6494L1082.51 82.425L1079.47 103.234Z" fill="#2E7D32"/>
<path d="M1058.79 104.244L1047.28 82.4482L1068.04 82.465L1058.79 104.244Z" fill="#F2E487"/>
<path d="M1038.03 104.237L1026.52 82.4375L1047.27 82.4471L1038.03 104.237Z" fill="#D60100"/>
<path d="M1017.27 104.217L1005.76 82.4326L1026.52 82.4383L1017.27 104.217Z" fill="#2E7D32"/>
<path d="M996.509 104.213L985 82.4131L1005.76 82.4337L996.509 104.213Z" fill="#F2E487"/>
</svg>
