<svg width="296" height="5" viewBox="0 0 296 5" fill="none" xmlns="http://www.w3.org/2000/svg">
<path d="M272.699 0.0396766C272.517 0.0460347 271.781 0.0306757 271.463 0.0333788C271.823 -0.0337255 273.359 0.0165885 272.699 0.0396766ZM240.033 4.91313C240.297 4.89652 240.562 4.87992 240.826 4.86331C240.075 4.8526 239.066 4.86486 238.369 4.84919C238.255 4.84655 238.551 4.79852 238.281 4.7964C238.011 4.79429 238.063 4.8599 237.671 4.86695C237.231 4.87466 235.216 4.82914 234.519 4.83031C231.909 4.83497 229.277 4.87268 226.662 4.84566C229.362 4.79688 226.642 4.74772 225.885 4.76883C225.718 4.77371 225.745 4.89569 223.036 4.86522C221.315 4.84588 222.905 4.67136 220.033 4.75898C222.241 4.88077 220.069 4.87242 218.338 4.87663C218.039 4.87737 215.629 4.85926 214.564 4.86476C214.2 4.86667 213.645 4.93061 213.161 4.93233C212.829 4.93347 212.577 4.89856 212.084 4.90039C209.782 4.90847 207.518 4.91139 205.211 4.89978C206.559 4.73548 204.154 4.82991 204.046 4.82207C203.496 4.77754 205.981 4.76462 204.998 4.73683C203.625 4.74204 202.252 4.74725 200.879 4.75246C202.006 4.77252 199.386 4.89086 198.904 4.83718C199.116 4.98224 192.645 4.71147 191.66 4.76001C191.455 4.77026 192.798 4.84184 189.682 4.80932C189.345 4.80571 189.473 4.76192 189.296 4.76602C189.19 4.76848 188.548 4.90766 187.865 4.83085C187.615 4.80281 189.212 4.71129 185.706 4.74834C187.102 4.88981 180.844 4.82546 179.693 4.79008C179.923 4.80908 180.153 4.82808 180.383 4.84709C179.245 4.79587 179.039 4.84403 178.783 4.84143C177.75 4.83099 176.329 4.7826 175.367 4.78711C174.24 4.79231 174.236 4.88037 172.923 4.84623C173.235 4.86563 173.546 4.88504 173.858 4.90444C172.951 4.89984 172.044 4.89524 171.137 4.89064C173.237 4.77389 170.684 4.88512 170.516 4.88765C170.248 4.89192 170.633 4.84416 170.185 4.85014C170.138 4.85112 170.205 4.89606 169.514 4.90117C168.069 4.91169 168.297 4.85517 167.691 4.85586C167.635 4.85615 167.829 4.89662 166.782 4.9063C163.452 4.93709 166.798 4.87527 166.926 4.86966C167.094 4.86226 165.952 4.69317 168.781 4.75291C167.831 4.7339 167.736 4.65904 167.629 4.65719C167.534 4.65567 165.888 4.66636 165.798 4.66895C164.989 4.69445 165.7 4.74555 165.543 4.75473C165.414 4.76213 163.431 4.69563 162.966 4.84957C162.018 4.70771 163.512 4.72058 165.103 4.69861C165.335 4.66946 163.588 4.6413 163.496 4.64138C161.243 4.64185 162.49 4.7585 161.998 4.83318C161.739 4.87225 160.821 4.79268 161.669 4.8973C159.623 4.90853 160.864 4.84775 160.732 4.83878C160.532 4.82561 159.817 4.85568 159.727 4.85169C159.595 4.84579 160.053 4.8095 159.534 4.79678C159.448 4.79493 158.613 4.85738 159.69 4.8871C158.251 4.87836 158.369 4.93154 157.881 4.82439C156.89 5.02727 157.162 4.70459 156.772 4.69326C155.734 4.6634 156.035 4.82259 155.98 4.83036C155.603 4.88015 152.73 4.82572 152.018 4.84873C152.299 4.73402 154.296 4.84727 154.742 4.82498C156.231 4.75083 152.644 4.76783 153.725 4.62365C153.272 4.66326 152.819 4.70287 152.366 4.74249C151.535 4.64992 152.714 4.60942 150.477 4.64347C150.111 4.72347 152.058 4.6307 151.668 4.69372C151.437 4.73071 150.141 4.73876 150.115 4.75826C150.089 4.78172 151.262 4.75381 151.077 4.78991C150.673 4.86781 146.398 4.79407 149.653 4.75128C148.745 4.75269 148.277 4.59785 147.49 4.64618C146.981 4.67755 149.845 4.8912 145.549 4.85236C145.457 4.77923 147.266 4.83061 147.313 4.82504C147.379 4.81693 147.052 4.65193 146.995 4.64379C146.795 4.61698 142.408 4.70575 141.481 4.62292C141.848 4.71827 138.166 4.64024 137.764 4.66934C137.658 4.67737 138.057 4.73576 137.943 4.74196C137.231 4.77883 135.305 4.6747 134.411 4.67208C133.411 4.66911 133.538 4.71956 133.482 4.71947C133.042 4.71669 133.394 4.68245 133.125 4.68257C132.719 4.68277 129.926 4.67603 129.786 4.68318C129.745 4.68541 130.201 4.74301 129.592 4.754C129.487 4.7559 129.554 4.68755 127.751 4.71724C125.58 4.75294 129.259 4.80209 128.356 4.87375C126.962 4.77196 127.007 4.87295 126.629 4.86505C126.498 4.86217 125.524 4.7764 124.466 4.78193C125.225 4.76792 125.985 4.75392 126.744 4.73991C125.998 4.72492 124.547 4.74369 123.932 4.72674C123.632 4.71849 123.88 4.64793 123.228 4.64989C123.089 4.65069 122.54 4.82259 124.248 4.74533C124.384 4.80667 123.572 4.76679 123.195 4.78418C123.138 4.78689 122.913 4.88942 122.432 4.82575C122.316 4.81009 123.575 4.51095 120.329 4.72767C120.224 4.73466 120.588 4.77207 120.485 4.77985C120.416 4.78511 119.587 4.77004 119.496 4.77536C119.402 4.78107 119.802 4.82191 119.691 4.82997C119.119 4.87147 118.369 4.70939 119.547 4.72164C119.154 4.70163 118.76 4.68163 118.366 4.66162C118.787 4.78379 117.747 4.69606 117.202 4.69988C113.709 4.72424 116.048 4.80352 115.448 4.84469C114.482 4.91081 115.22 4.70161 113.786 4.76458C113.653 4.77047 115.386 4.85908 112.002 4.8093C112.502 4.80579 113.001 4.80229 113.501 4.79879C113.213 4.68061 111.697 4.80706 111.58 4.80873C110.252 4.82508 111.15 4.78238 109.177 4.84343C109 4.84891 108.616 4.81977 108.24 4.83436C106.678 4.89445 110.301 4.87055 110.4 4.91839C110.447 4.94184 106.55 4.93628 106.416 4.92516C105.848 4.87586 108.183 4.90326 107.738 4.84203C107.576 4.82029 102.022 4.86547 100.908 4.84173C99.6218 4.8141 99.043 4.65389 99.0347 4.83397C98.672 4.65724 98.3514 4.77787 98.1869 4.77667C96.1986 4.76048 96.1949 4.7587 94.4898 4.77578C94.1133 4.77949 93.7954 4.72589 93.6622 4.73496C93.5847 4.74043 93.7296 4.79781 93.3499 4.81556C92.8225 4.83983 89.6527 4.78108 89.4172 4.74938C89.1816 4.71767 90.7558 4.7355 90.4737 4.68336C89.3342 4.67819 88.2416 4.6912 87.0946 4.6858C86.6182 4.68341 86.863 4.64688 86.6571 4.64617C86.5695 4.64573 84.9244 4.67803 84.994 4.69149C85.1573 4.72279 90.2374 4.70128 88.8997 4.7653C88.6416 4.77766 87.7298 4.69362 87.8747 4.79591C83.3362 4.77312 78.7977 4.75034 74.2591 4.72755C76.8668 4.6508 79.8013 4.71897 82.5327 4.71154C82.9071 4.71063 84.1726 4.72038 84.0188 4.66868C81.6961 4.65551 78.8086 4.68271 76.5784 4.64921C76.507 4.6481 76.7691 4.60162 76.5017 4.59429C76.002 4.58059 74.3748 4.65566 74.1013 4.63631C74.0545 4.6318 74.9805 4.57047 74.6989 4.53158C73.9761 4.43176 73.7926 4.653 73.1711 4.65044C72.6904 4.64836 69.461 4.54168 68.6566 4.60934C67.8013 4.68144 71.0367 4.65094 70.7977 4.70986C68.6086 4.76924 66.392 4.70624 64.3235 4.7138C64.2871 4.71399 64.6035 4.76011 64.142 4.76661C63.3388 4.77792 63.128 4.71247 62.7372 4.70204C62.3156 4.69093 60.8247 4.70044 60.6254 4.67659C60.5999 4.67346 60.902 4.6085 60.9479 4.60667C61.5973 4.57985 61.8279 4.66411 61.887 4.66518C62.109 4.66836 62.3272 4.63606 62.5297 4.63797C62.8632 4.64114 63.0468 4.67099 63.4869 4.67359C63.7907 4.67549 63.4976 4.61816 63.7903 4.62076C63.8977 4.62195 65.0566 4.7528 65.1647 4.61911C65.1982 4.57696 55.721 4.52369 54.7737 4.55748C55.5862 4.57348 56.3988 4.58948 57.2113 4.60548C55.5613 4.56651 53.5791 4.67349 53.4387 4.51549C47.3198 4.50312 41.2009 4.49075 35.0819 4.47838C33.9894 4.46502 34.5885 4.36342 32.7909 4.39314C33.2554 4.42544 33.7199 4.45775 34.1844 4.49006C33.2631 4.46745 29.1806 4.42348 28.5199 4.44449C28.4344 4.44724 28.3155 4.53915 27.2954 4.54714C26.3902 4.55419 26.2448 4.48535 25.7609 4.4722C25.3546 4.46136 24.8983 4.47944 24.7777 4.47565C24.6851 4.47261 24.6486 4.43051 24.426 4.42319C23.723 4.40055 24.2927 4.51905 23.595 4.38298C23.7648 4.37777 23.9348 4.37257 24.1046 4.36737C23.2563 4.34774 22.0975 4.28604 23.347 4.25543C23.5619 4.25015 23.3773 4.2909 23.5375 4.29082C29.8118 4.28268 24.8017 4.20394 22.6029 4.2674C22.0382 4.20709 18.8734 4.24423 18.7682 4.23234C18.622 4.21513 19.1636 4.16684 18.4537 4.12525C18.3044 4.11645 14.0729 4.15063 15.5966 4.07027C15.9111 4.05369 17.9398 4.0709 18.4289 4.06849C17.2783 3.94066 14.5808 4.12419 14.2774 4.11952C13.054 4.0997 16.6281 4.00844 13.8716 3.99382C11.7521 3.98261 13.7419 4.06785 12.9267 4.10439C12.4685 4.12489 10.07 4.031 10.135 4.15286C9.3117 4.16594 9.7935 4.10137 9.69194 4.09674C9.5925 4.09267 7.97367 4.1293 7.4482 4.10366C7.38443 4.10047 7.58518 4.03711 7.51925 4.03193C7.39105 4.02307 5.8299 4.03587 5.76711 4.04125C5.72716 4.04498 6.09942 4.1004 5.94633 4.11386C5.76807 4.12939 4.26579 4.11647 4.18293 4.13233C4.06594 4.15631 5.92058 4.14036 5.61142 4.2024C4.75655 4.18686 3.36373 4.22836 2.79942 4.27834C2.93773 4.26405 3.76657 4.26193 4.05433 4.26693C3.91887 4.35777 2.13901 4.3567 2.74753 4.28475C2.36083 4.32339 2.62482 4.34385 2.407 4.38031C2.3499 4.38954 1.8003 4.39149 1.6944 4.40723C1.68062 4.41036 2.24761 4.44458 2.1341 4.46304C1.92853 4.49639 0.262347 4.48904 0.126018 4.48031C-0.257664 4.45556 1.10074 4.42545 1.2141 4.38713C1.2302 4.38124 0.0748046 4.30627 0.0573317 4.29964C-0.0102509 4.22851 1.27545 4.27966 1.1285 4.21562C0.81056 4.20212 0.492575 4.18862 0.174637 4.17512C1.40119 4.11014 3.66999 4.14329 4.25512 4.06946C2.43679 4.09158 0.533759 4.08915 0.537836 3.923C0.539124 3.85302 1.32363 3.81193 1.29333 3.79414C1.17766 3.73049 0.0886101 3.79975 0.0485484 3.79639C0.0154712 3.79251 0.000308626 3.78874 0.00033593 3.78506C0.000335931 3.78506 0.000335932 3.78506 0.000335933 3.78505C0.00041349 3.74778 1.55278 3.7208 1.63049 3.70377C1.7611 3.67353 1.07029 3.54915 1.07133 3.52163C1.09535 3.5161 2.20094 3.48655 1.82792 3.43855C1.45058 3.39006 0.482935 3.38908 0.449019 3.38404C0.264255 3.35504 1.95674 3.32841 2.00728 3.31127C2.03393 3.3026 1.12496 3.24944 1.09853 3.23414C1.0759 3.21878 1.76669 3.1852 2.03892 3.1367C2.24191 3.10066 1.6509 3.0731 1.75484 3.06744C1.82908 3.06369 3.42831 3.06416 3.50698 3.05783C3.62405 3.04845 3.24949 3.00544 3.30406 2.99467C3.3814 2.97918 3.89776 2.99467 3.83063 2.97875C3.78004 2.96689 1.77808 2.81868 1.79106 2.77904C1.81396 2.71143 3.93408 2.86679 1.96141 2.60018C1.94761 2.59843 1.46737 2.61743 1.45401 2.61579C1.15766 2.56673 2.69721 2.49109 0.81479 2.50446C4.31644 2.41889 1.25062 2.40279 1.76874 2.28891C1.9689 2.24513 3.32629 2.22697 3.33262 2.2204C3.20068 2.16491 2.76827 2.208 2.62119 2.18079C2.54031 2.16559 3.75485 2.10679 3.48153 2.06871C3.34025 2.04908 2.05102 2.05619 1.99775 2.05236C1.48761 2.01628 2.11324 1.9773 2.0012 1.95165C1.92676 1.93445 1.14879 1.93316 1.12852 1.93006C1.09571 1.92362 2.15218 1.854 2.37219 1.82954C2.53946 1.81072 1.91163 1.78132 2.02835 1.77311C2.73167 1.72403 4.22771 1.84892 2.78609 1.67386C2.69798 1.66312 2.15273 1.66751 2.13664 1.66537C1.79964 1.61574 2.80374 1.61136 2.98344 1.57069C3.29189 1.5006 1.84861 1.53979 3.04888 1.49042C2.14854 1.44469 1.64676 1.44664 0.593183 1.45951C3.51048 1.42362 4.54023 1.24218 1.30136 1.24703C2.33171 1.24977 2.21736 1.14743 2.52476 1.1456C2.71588 1.14458 4.20973 1.24621 3.5249 1.01794C3.43897 0.989428 2.53147 1.02575 2.81575 0.967345C4.99369 0.982046 2.86199 0.930195 2.85974 0.922478C2.88799 0.787975 8.20976 0.897658 9.12416 0.882239C10.1852 0.864355 11.1283 0.758286 11.3589 0.758131C12.1178 0.758016 11.488 0.811885 11.6577 0.831655C11.8297 0.851243 13.9876 0.74796 14.0954 0.753612C14.5134 0.776316 14.0891 0.840119 14.1325 0.843334C14.6501 0.882362 17.5482 0.832171 18.3596 0.846921C18.3344 0.805557 16.7055 0.802421 17.7226 0.73589C18.907 0.658322 18.9746 0.840672 19.0056 0.848694C24.4319 0.846476 29.8582 0.844258 35.2845 0.842039C35.2169 0.745028 31.6692 0.818512 31.5885 0.80575C31.1146 0.730165 37.1077 0.731017 37.8428 0.765207C37.2843 0.744301 36.7258 0.723395 36.1674 0.702489C37.121 0.590864 39.2315 0.735587 40.6108 0.686218C41.0565 0.670215 40.2008 0.627242 40.2185 0.624301C40.7194 0.580936 41.523 0.614238 40.922 0.672457C42.1447 0.616617 41.966 0.678122 42.9042 0.682655C42.9525 0.682844 42.5497 0.63787 43.2921 0.619141C43.6399 0.610402 45.4949 0.610091 45.7433 0.5707C45.8455 0.554116 44.9045 0.379652 44.7883 0.529891C42.7707 0.456842 44.1436 0.598406 43.3597 0.595025C43.2395 0.594249 43.5161 0.510371 41.5422 0.55002C41.9183 0.398772 44.1912 0.51164 44.5809 0.493287C45.3844 0.455565 42.0732 0.377775 41.4656 0.495704C41.7495 0.377676 41.2308 0.479822 40.4926 0.475038C39.6847 0.46985 40.0368 0.43468 39.5996 0.434529C38.404 0.433758 38.8996 0.517008 37.914 0.442005C38.8748 0.674386 36.2266 0.472832 35.4549 0.412013C36.7105 0.400099 37.9663 0.388185 39.2219 0.376272C39.1502 0.364071 39.0783 0.35187 39.0066 0.339668C39.3373 0.341368 39.668 0.343068 39.9988 0.344767C39.9457 0.356471 39.8928 0.368175 39.8398 0.379878C41.5453 0.303661 41.9613 0.389113 42.1004 0.390051C43.8906 0.399807 45.9584 0.398885 47.7684 0.399001C48.0399 0.399019 47.8536 0.322948 49.8328 0.382335C50.4641 0.401247 49.868 0.460492 50.5837 0.451546C51.4789 0.290623 51.462 0.418913 51.7281 0.419092C52.4919 0.419003 52.9587 0.379117 53.0293 0.37869C53.9729 0.372388 55.355 0.378916 56.3915 0.372894C56.411 0.372286 55.8716 0.322917 56.5449 0.337478C56.7814 0.342678 58.902 0.553432 60.756 0.484505C60.2738 0.470307 59.7917 0.456108 59.3094 0.441909C59.8765 0.461761 63.8495 0.408241 62.878 0.351862C62.2826 0.317404 60.8287 0.453503 60.6693 0.322763C61.9914 0.361778 69.2933 0.302591 69.8618 0.332922C69.9405 0.33725 69.4566 0.37972 69.5652 0.385136C69.6493 0.389263 71.3219 0.37906 71.544 0.395334C71.6761 0.405003 70.937 0.431071 70.9971 0.44635C71.0497 0.457242 73.1385 0.475221 73.2578 0.422036C72.7448 0.443428 71.3031 0.424918 72.0593 0.380028C72.1565 0.374454 72.6605 0.408705 72.7786 0.401632C73.8749 0.336379 70.5989 0.352314 70.0918 0.351823C72.1497 0.283892 75.3326 0.363467 77.7171 0.319091C78.6806 0.363263 76.2886 0.386926 77.3788 0.423496C79.6403 0.499299 77.9806 0.362239 78.0508 0.356599C78.6125 0.311896 80.5257 0.551029 80.5268 0.368889C81.3466 0.396233 81.0813 0.419221 82.2383 0.395286C82.0861 0.382685 81.9339 0.370085 81.7817 0.357484C83.0664 0.251863 85.7851 0.517796 85.5813 0.538119C85.0333 0.592509 83.6175 0.507874 83.4966 0.509924C83.3175 0.512956 82.8227 0.697825 80.8638 0.532745C80.0617 0.656779 83.9686 0.616132 82.1908 0.700785C83.3914 0.68681 88.3305 0.772646 89.0415 0.718174C89.1263 0.711063 88.7312 0.587585 89.9514 0.65034C90.5307 0.680223 89.1339 0.681786 89.3989 0.709901C90.2145 0.796184 101.308 0.739945 103.415 0.73519C103.552 0.735041 103.501 0.773378 103.636 0.773014C104.049 0.771907 105.553 0.714608 106.292 0.732184C104.761 0.661367 107.735 0.655581 108.491 0.663319C109.639 0.675104 109.568 0.74257 110.064 0.75687C111.975 0.811995 114.937 0.651568 116.422 0.80116C116.341 0.652566 118.99 0.873786 120.195 0.874981C121.14 0.875961 122.509 0.7775 121.235 0.717715C122.865 0.724412 124.58 0.696533 126.109 0.687368C126.362 0.68583 126.014 0.729802 126.445 0.725791C126.484 0.725109 126.538 0.682043 126.909 0.67753C129.965 0.639719 128.478 0.731363 129.05 0.758212C129.37 0.773247 129.606 0.780717 129.779 0.783172C127.998 0.79175 125.943 0.808845 125.393 0.810118C125.862 0.905169 129.342 0.7915 130.361 0.816995C130.396 0.817922 130.273 0.870345 130.309 0.870713C130.31 0.870713 130.311 0.870713 130.311 0.870713C130.693 0.874695 133.126 0.855132 132.625 0.792681C132.491 0.775997 131.371 0.77613 130.043 0.781927C130.402 0.770171 130.134 0.711483 130.198 0.708973C130.967 0.679881 132.851 0.737016 133.519 0.744686C133.672 0.746368 133.661 0.708752 133.686 0.708659C134.294 0.717148 134.044 0.82458 134.668 0.713759C135.769 0.847522 132.605 0.733819 132.828 0.820741C132.999 0.887661 140.027 0.851077 140.006 0.745628C140.03 0.756904 140.127 0.770894 140.325 0.7868C140.764 0.822146 142.72 0.810899 143.058 0.791437C143.115 0.787607 143.092 0.685258 143.163 0.684306C143.339 0.681939 145.73 0.76197 146.623 0.70139C146.141 0.687089 145.659 0.672789 145.176 0.658489C148.088 0.657338 147.638 0.626918 146.668 0.596401C146.62 0.596129 146.572 0.592248 146.526 0.591836C145.774 0.569276 144.81 0.547571 144.795 0.539499C144.74 0.508695 149.681 0.491104 148.73 0.586144C148.598 0.599134 146.312 0.55706 147.444 0.624714C147.642 0.636566 149.11 0.617095 149.187 0.624557C149.703 0.67416 146.497 0.740412 146.889 0.810929C147.667 0.743687 148.666 0.778975 149.558 0.761553C149.964 0.753677 150.064 0.702352 150.114 0.701381C150.862 0.687917 150.442 0.741757 150.692 0.740393C150.826 0.739456 152.301 0.624811 152.023 0.782694C156.883 0.666131 153.367 0.666564 150.385 0.67572C151.328 0.618143 153.175 0.645784 154.004 0.632363C154.301 0.627491 154.125 0.574832 154.627 0.56425C155.661 0.542486 160.598 0.60255 161.884 0.616699C161.094 0.635381 161.325 0.692738 161.934 0.688719C162.544 0.684672 162.032 0.608134 162.151 0.599889C162.278 0.591354 165.139 0.627245 165.615 0.617278C163.461 0.645212 163.947 0.702386 165.775 0.70821C165.51 0.724714 165.246 0.741218 164.982 0.757722C166.053 0.734466 168.306 0.821548 168.925 0.795516C169.022 0.791333 168.673 0.743254 168.728 0.740905C169.271 0.720414 171.119 0.769312 171.205 0.752889C171.278 0.739217 170.489 0.698955 170.782 0.679071C170.843 0.674885 171.603 0.739846 172.351 0.723793C172.629 0.717886 172.462 0.672403 172.532 0.669758C173.115 0.64782 172.771 0.72447 173.836 0.712062C174.617 0.70288 175.199 0.627923 176.277 0.652635C172.735 0.557467 175.713 0.597083 177.194 0.568015C177.431 0.563378 177.228 0.480798 178.646 0.520886C175.628 0.670509 179.507 0.599749 180.3 0.601306C180.344 0.60181 180.359 0.656278 180.748 0.657116C180.781 0.657064 180.734 0.620259 181.095 0.61741C184.526 0.590489 182.332 0.63227 182.984 0.668512C183.261 0.683954 184.929 0.631751 185.379 0.630452C185.482 0.630313 185.434 0.668567 185.834 0.667034C186.541 0.664224 187.175 0.623448 187.642 0.620177C187.696 0.619985 187.698 0.680336 188.583 0.660683C188.832 0.655189 189.111 0.633734 188.758 0.616414C187.586 0.55945 185.363 0.658422 184.039 0.60158C182.832 0.549813 186.64 0.544578 186.838 0.544258C186.91 0.544062 186.167 0.574095 186.922 0.579957C187.567 0.584836 188.747 0.480491 189.708 0.503104C189.782 0.504781 190.55 0.593093 190.514 0.59825C190.482 0.602017 189.302 0.621309 189.474 0.646869C189.494 0.649781 190.244 0.64912 190.342 0.668154C190.462 0.691323 190.785 0.918769 190.945 0.924458C191.356 0.938512 191.088 0.886655 191.354 0.89024C191.924 0.897798 193.901 0.964891 193.966 0.886038C193.639 0.881387 193.312 0.876737 192.986 0.872087C194.803 0.863815 194.028 0.830322 194.286 0.81551C194.563 0.799488 194.485 0.868799 195.098 0.875254C195.231 0.876673 197.794 0.861975 197.747 0.832899C196.33 0.87931 196.855 0.793614 196.79 0.79209C196.542 0.786533 196.224 0.834604 195.891 0.833677C193.548 0.826369 195.911 0.750326 195.358 0.730876C195.168 0.724331 194.788 0.765376 194.707 0.763285C194.445 0.756516 194.441 0.70281 194.266 0.70717C193.857 0.717287 194.334 0.79324 194.302 0.797197C193.936 0.844788 192.505 0.785744 193.396 0.702976C192.861 0.673224 192.799 0.773726 192.375 0.733586C191.532 0.654108 192.795 0.674428 193.137 0.661188C194.365 0.613427 194.729 0.651966 196.466 0.638609C197.092 0.633896 197.834 0.585011 198.124 0.582305C198.307 0.580604 200.034 0.750296 200.085 0.484468C200.756 0.510129 201.809 0.685204 202.501 0.67713C203.122 0.669766 202.924 0.575743 202.982 0.572102C203.071 0.566377 203.822 0.57372 204.076 0.560406C204.374 0.544678 204.225 0.508797 204.697 0.494124C205.872 0.45771 205.842 0.553705 205.962 0.559931C207.364 0.63191 206.751 0.495431 207.062 0.48445C207.351 0.47436 211.41 0.526546 212.264 0.491916C211.916 0.511175 211.569 0.530433 211.221 0.549691C211.843 0.609509 212.503 0.511791 212.514 0.619158C212.641 0.445802 213.925 0.561556 214.31 0.557043C214.462 0.555186 214.45 0.525648 214.641 0.524358C215.384 0.519112 217.06 0.542474 217.463 0.527461C219.206 0.462819 214.748 0.355954 214.397 0.349506C215.1 0.351355 219.075 0.312174 217.248 0.229005C216.965 0.216173 216.465 0.293791 216.306 0.296842C215.233 0.316911 216.077 0.247319 215.993 0.240715C215.85 0.230056 215.143 0.297322 214.957 0.289334C214.894 0.286774 215.295 0.223791 214.271 0.222559C214.775 0.161491 217.653 0.210949 218.03 0.196585C218.165 0.191456 217.322 0.0611375 219.785 0.187576C219.756 0.175473 219.727 0.16337 219.699 0.151266C221.07 0.146158 222.442 0.14105 223.813 0.135942C223.664 0.163846 222.894 0.219935 223.864 0.207962C224.422 0.201032 224.009 0.138947 224.06 0.13714C224.561 0.119996 233.429 0.13987 235.148 0.132784C235.733 0.130482 237.362 0.0804096 237.486 0.0794709C238.229 0.0744065 240.86 0.106666 241.385 0.0995673C241.713 0.0950157 241.401 0.0431119 241.694 0.0455211C241.966 0.0478325 241.684 0.0980515 241.765 0.100144C242.435 0.118272 247.521 0.0519804 248.729 0.099211C247.991 0.085066 244.307 0.185681 244.381 0.221068C244.397 0.225919 245.292 0.264022 245.477 0.245384C245.782 0.288814 246.83 0.156406 247.399 0.182342C247.464 0.185288 247.21 0.259529 248.227 0.272909C248.577 0.27748 249.494 0.219546 250.418 0.284309C251.754 0.25303 258.781 0.348649 259.263 0.268863C259.277 0.264651 258.288 0.237282 258.956 0.204496C259.845 0.160916 259.047 0.307514 260.082 0.320061C260.239 0.32197 263.12 0.306882 263.215 0.297805C264.088 0.215491 261.569 0.182383 261.605 0.172823C261.693 0.148742 263.785 0.133989 263.87 0.139658C263.951 0.145557 262.244 0.254674 264.295 0.21317C264.06 0.20017 263.825 0.18717 263.59 0.17417C264.555 0.148723 264.646 0.224098 264.88 0.228682C265.606 0.243196 266.392 0.128622 267.556 0.269947C267.863 0.307453 267.352 0.349179 267.391 0.354804C267.761 0.405289 268.232 0.270105 268.788 0.370853C268.83 0.378368 267.536 0.43887 269.797 0.43882C269.641 0.429169 269.486 0.419519 269.33 0.409869C269.649 0.388264 271.938 0.375236 272.246 0.380308C273.146 0.395134 272.361 0.464582 273.265 0.456208C272.685 0.361185 275.435 0.348529 275.277 0.430391C275.661 0.32756 277.996 0.406648 279.094 0.408989C279.787 0.41039 281.2 0.365405 281.42 0.370631C281.689 0.377036 281.607 0.447169 282.091 0.462738C282.229 0.467178 283.671 0.415642 284.936 0.488117C285.181 0.502083 285.696 0.620986 285.24 0.650756C284.46 0.701699 282.984 0.606004 283.003 0.676288C283.025 0.751475 285.013 0.706579 285.548 0.716344C288.018 0.761507 286.592 0.841565 286.655 0.865786C286.82 0.924569 288.169 0.922622 288.226 0.927903C288.459 0.951364 287.503 0.997985 287.488 1.03387C287.471 1.08059 288.772 1.1648 288.476 1.18058C288.053 1.20298 286.857 1.13281 286.781 1.13617C285.795 1.18159 287.147 1.28941 287.52 1.34241C287.633 1.35872 287.182 1.38557 287.276 1.39035C288.706 1.46283 287.578 1.23861 288.529 1.25351C289.378 1.26679 288.286 1.33782 288.318 1.34173C288.36 1.34603 289.375 1.3498 289.533 1.37489C289.612 1.38745 286.974 1.52566 287.084 1.58752C287.926 1.57381 288.767 1.5601 289.609 1.5464C289.675 1.62705 288.464 1.56779 288.339 1.57611C288.087 1.59283 288.79 1.63358 288.76 1.65909C288.744 1.67531 287.919 1.73327 288.664 1.75706C288.92 1.76528 289.457 1.70867 290.39 1.76637C287.144 1.84045 289.394 1.88559 289.489 1.91416C289.583 1.94272 288.033 2.01011 289.914 1.99805C289.996 2.15502 289.874 2.04767 289.339 2.07531C288.684 2.10929 290.198 2.16084 287.805 2.12184C287.941 2.19532 289.864 2.18995 289.966 2.19581C290.054 2.20111 289.626 2.2373 289.779 2.24954C291.582 2.39139 290.343 2.32665 290.866 2.41729C290.912 2.42539 292.616 2.45886 291.319 2.47219C288.955 2.49641 287.967 2.39235 287.57 2.61505C289.318 2.71161 291.437 2.56769 291.968 2.56521C292.782 2.56163 291.939 2.60711 292.039 2.61983C292.074 2.62394 292.775 2.62013 292.785 2.62373C293.284 2.79351 289.664 2.62683 288.524 2.65647C288.829 2.68187 289.135 2.70728 289.44 2.73268C289.026 2.73374 288.611 2.73479 288.197 2.73584C290.171 2.78679 288.266 2.75519 287.774 2.89275C287.663 2.92366 288.961 2.87055 287.481 2.95656C288.572 2.97629 288.224 3.00441 289.212 2.96556C289.187 3.02068 286.963 3.08306 286.086 3.11142C289.185 3.17308 287.418 2.97106 290.096 3.07779C290.593 3.0095 289.314 3.0229 289.419 3.01163C289.793 2.97109 290.67 3.03532 291.728 2.89331C291.9 2.86999 291.171 2.79834 292.25 2.80171C292.369 2.80219 293.057 2.86342 293.047 2.86786C292.956 2.91587 292.276 2.89794 292.248 2.91798C292.221 2.93695 292.98 2.92548 292.983 2.93073C293.006 2.99087 292.35 2.95378 292.445 2.97259C292.651 3.01352 295.38 3.14269 291.818 3.1051C294.777 3.03685 292.197 3.03867 291.045 3.06489C290.751 3.07146 290.676 3.10739 290.258 3.11989C289.719 3.13608 289.089 3.1189 288.81 3.12552C288.51 3.13281 290.213 3.21756 287.75 3.19245C289.003 3.27679 291.218 3.18655 292.449 3.24574C294.934 3.36534 290.717 3.39145 290.278 3.4031C290.161 3.40626 290.553 3.45474 290.475 3.45772C290.347 3.46229 287.954 3.44008 287.718 3.48024C287.483 3.52037 288.595 3.47832 288.669 3.52014C288.719 3.54829 285.832 3.5985 287.395 3.61761C288.472 3.6307 290.457 3.51734 290.792 3.63897C289.208 3.64918 287.623 3.6594 286.039 3.66961C286.906 3.71582 287.773 3.76203 288.64 3.80824C286.862 3.82308 285.325 3.77096 283.636 3.83738C287.694 3.98533 282.319 3.95586 282.26 3.97392C282.24 3.98472 283.837 4.10496 284.094 4.12696C282.679 4.1734 278.378 4.19642 280.894 4.34485C280.437 4.31132 279.331 4.39428 279.346 4.40053C279.486 4.46619 281.899 4.42339 281.505 4.48274C281.049 4.55161 280.41 4.45829 279.709 4.46581C276.11 4.50501 277.097 4.84776 273.488 4.79384C273.56 4.80604 273.632 4.81824 273.704 4.83044C269.781 4.81136 265.859 4.79229 261.936 4.77321C260.401 4.87804 256.317 4.94217 254.311 4.93076C253.907 4.92854 251.924 4.87377 251.774 4.86415C251.497 4.84572 253.021 4.83854 252.332 4.80398C252.187 4.79689 248.829 4.7741 249.069 4.83266C249.445 4.83942 250.623 4.80987 250.816 4.82365C252.169 4.92204 241.818 4.84427 241.305 4.88402C241.534 4.90302 241.764 4.92202 241.993 4.94103C241.34 4.93173 240.686 4.92243 240.033 4.91313ZM270.051 0.205938C270.443 0.147127 271.425 0.191183 272.006 0.174632C272.808 0.151457 274.172 -0.0749913 273.584 0.151906C272.407 0.169917 271.229 0.187927 270.051 0.205938ZM252.836 0.119899C253.626 0.151397 253.013 0.278145 252.366 0.225537C252.294 0.219558 251.768 0.0775038 252.836 0.119899ZM261.116 0.179276C261.083 0.180956 260.401 0.177664 260.377 0.17568C259.765 0.124867 261.823 0.135079 261.116 0.179276ZM221.116 0.247884C221.986 0.242336 221.356 0.12722 220.815 0.174666C220.781 0.177678 221.059 0.248158 221.116 0.247884ZM221.735 0.25088C222.411 0.353955 223.772 0.144807 222.69 0.165951C222.585 0.168086 221.704 0.24586 221.735 0.25088ZM255.651 0.170002C255.563 0.209539 254.748 0.190525 254.4 0.181101C254.409 0.145011 255.31 0.17445 255.651 0.170002ZM234.995 0.182849C234.96 0.213928 237.792 0.211956 237.985 0.170983C237.538 0.188399 235.027 0.15492 234.995 0.182849ZM227.732 0.227145C227.804 0.232511 228.782 0.224255 228.754 0.19684C228.276 0.160913 227.409 0.202858 227.732 0.227145ZM213.298 0.226614C213.245 0.233507 213.977 0.407929 212.242 0.293241C211.987 0.276447 212.897 0.230775 212.806 0.224522C212.617 0.212329 212.467 0.206651 212.346 0.205642C213.155 0.191107 213.995 0.184227 214.076 0.194805C214.457 0.244759 213.322 0.223738 213.298 0.226614ZM205.72 0.357307C205.553 0.385783 204.49 0.370663 204.247 0.358966C204.206 0.356765 204.387 0.281946 203.908 0.287582C203.524 0.292235 204.098 0.368798 203.349 0.356605C202.592 0.344368 203.603 0.289675 203.537 0.285785C203.449 0.280685 202.277 0.315193 202.314 0.270635C202.341 0.23763 203.596 0.259832 203.906 0.252791C204.303 0.243741 203.822 0.188799 204.485 0.200551C204.903 0.207891 204.671 0.304602 204.759 0.309479C204.833 0.313409 206.292 0.257633 205.718 0.357002C205.719 0.357104 205.719 0.357206 205.72 0.357307ZM212.128 0.209934C212.189 0.206661 212.26 0.204918 212.346 0.205642C212.273 0.206961 212.2 0.208492 212.128 0.209934ZM267.769 0.248565C267.358 0.21878 268.577 0.180433 269.038 0.219457C269.046 0.250961 267.834 0.253201 267.769 0.248565ZM211.378 0.288741C210.177 0.264626 211.06 0.231233 212.128 0.209934C211.789 0.228165 211.781 0.296795 211.378 0.288741ZM245.477 0.245384C245.426 0.238177 245.394 0.226936 245.39 0.208464C245.523 0.228656 245.535 0.239506 245.477 0.245384ZM242.675 0.212676C241.715 0.269032 243.666 0.266585 243.654 0.226322C243.648 0.211122 242.714 0.210435 242.675 0.212676ZM220 0.242491C220.088 0.247989 218.723 0.418025 220.705 0.290342C219.647 0.270412 220.763 0.251808 220.746 0.23693C220.703 0.194167 218.926 0.235436 218.533 0.216987C218.225 0.293534 219.71 0.224375 219.998 0.242491C219.998 0.242491 219.999 0.242491 220 0.242491ZM192.063 0.317337C192.303 0.272477 193.067 0.286835 193.583 0.289428C193.342 0.334288 192.578 0.31993 192.063 0.317337ZM57.1988 0.323076C60.7302 0.281302 61.1876 0.463858 57.9565 0.39198C57.8932 0.39047 56.9844 0.341603 57.1988 0.323076ZM87.506 0.36765C87.8387 0.447203 86.7376 0.460099 86.0143 0.427296C85.8507 0.419919 85.2456 0.339363 85.9366 0.323539C85.9145 0.420003 86.983 0.456755 87.506 0.36765ZM210.699 0.339768C210.349 0.392873 209.273 0.355192 208.706 0.347272C209.052 0.303542 210.198 0.323202 210.699 0.339768ZM68.803 0.417249C69.1752 0.423242 69.4266 0.353981 69.3623 0.348226C69.0746 0.321828 68.3789 0.377872 68.803 0.417249ZM214.174 0.347695C214.223 0.379406 212.797 0.410063 212.698 0.331653C213.003 0.3373 214.139 0.327797 214.174 0.347695ZM193.035 0.341054C193.256 0.35716 192.109 0.386134 191.763 0.370162C191.791 0.336404 192.889 0.330585 193.035 0.341054ZM74.7957 0.39321C75.129 0.399194 75.9618 0.400953 76.054 0.372954C76.1686 0.337958 74.9474 0.349992 74.7957 0.39321ZM12.7763 0.459224C12.7343 0.446653 14.024 0.355914 14.5973 0.378795C15.6859 0.422576 12.8219 0.4681 12.7763 0.459224ZM65.2796 0.453274C64.2284 0.387519 65.3955 0.451186 65.3495 0.381853C64.6422 0.379419 62.8826 0.376158 64.0923 0.444225C64.3279 0.457393 64.9498 0.448815 65.2796 0.453274ZM66.2492 0.476381C66.3619 0.453909 67.1196 0.38303 66.4646 0.388162C66.1618 0.390642 65.6737 0.469367 66.2492 0.476381ZM20.767 0.42768C21.709 0.488979 17.3902 0.456434 17.2661 0.445696C17.2004 0.440024 17.1575 0.434675 17.133 0.430143C16.9744 0.449612 16.1586 0.453192 16.0642 0.403993C16.3088 0.408034 16.9766 0.403646 17.0541 0.409093C17.0876 0.411411 17.1125 0.413587 17.1296 0.4158C17.4175 0.373058 20.5864 0.416057 20.767 0.42768ZM27.9232 0.490209C26.8451 0.580862 26.6543 0.426917 26.7472 0.421953C27.9209 0.358834 27.1554 0.472447 27.1914 0.477762C27.2734 0.486603 28.1071 0.433843 27.9198 0.49021C27.9209 0.49021 27.9221 0.490209 27.9232 0.490209ZM22.2338 0.452878C22.1895 0.454888 21.2845 0.450206 21.2473 0.447779C20.5055 0.396103 23.0665 0.409123 22.2338 0.452878ZM200.008 0.465553C199.36 0.450307 199.996 0.393606 200.426 0.413939C200.462 0.415944 200.58 0.479023 200.008 0.465553ZM66.7667 0.461075C66.9169 0.471764 70.7601 0.511781 70.5292 0.426249C70.2029 0.436375 65.8345 0.392733 66.7667 0.461075ZM95.4876 0.479241C94.8098 0.478639 95.5488 0.397887 95.9104 0.427931C96.0445 0.439092 95.6584 0.479341 95.4876 0.479241ZM216.096 0.420768C216.8 0.376377 216.654 0.525099 216.044 0.47418C216.021 0.472187 216.069 0.422502 216.096 0.420768ZM90.0733 0.43334C92.4107 0.384231 91.857 0.640083 88.8183 0.554002C88.9135 0.5426 89.0085 0.531198 89.1036 0.519795C85.5963 0.481739 88.8638 0.501788 89.7227 0.487389C90.049 0.481917 89.7754 0.439243 90.0711 0.433035C90.0718 0.433136 90.0726 0.433238 90.0733 0.43334ZM99.0516 0.483803C101.302 0.66516 97.0053 0.547313 95.7728 0.571077C96.9677 0.495994 98.5233 0.507201 96.4076 0.430633C99.5011 0.415511 98.2132 0.487938 98.3368 0.493938C98.4829 0.500667 98.9556 0.476016 99.0516 0.483803ZM93.1142 0.485558C92.9841 0.490866 92.0038 0.453994 91.6507 0.460054C92.1445 0.397987 93.978 0.44946 93.1142 0.485558ZM35.4256 0.447417C35.3442 0.49602 35.1428 0.531833 34.3691 0.513739C34.6082 0.489299 35.1023 0.468253 35.4256 0.447417ZM270.795 0.461619C271.328 0.465055 272.389 0.483272 272.063 0.432207C272.028 0.427855 270.796 0.432941 270.795 0.461619ZM77.929 0.499439C78.0423 0.505403 80.9729 0.50915 79.9608 0.455614C79.6555 0.43947 76.989 0.446578 77.929 0.499439ZM62.7528 0.494702C62.9981 0.495188 63.9945 0.485944 64.0156 0.474446C64.0831 0.434706 62.86 0.456661 62.7528 0.494702ZM273.483 0.511123C273.553 0.516158 275.18 0.50708 275.001 0.483519C274.662 0.438962 273.242 0.493777 273.483 0.511123ZM197.65 0.579601C197.514 0.58141 197.334 0.528639 197.287 0.528057C197.177 0.527313 194.686 0.547841 195.638 0.479986C195.797 0.468614 199.38 0.494317 199.846 0.50097C200.026 0.573419 198.495 0.504622 198.123 0.512112C198.057 0.513534 198.015 0.574163 197.651 0.579296C197.651 0.579398 197.651 0.579499 197.65 0.579601ZM31.3948 0.499052C31.2849 0.545133 28.3571 0.575902 28.3911 0.520076C29.3923 0.513068 30.3935 0.50606 31.3948 0.499052ZM32.8819 0.506548C33.5066 0.539082 32.0436 0.549996 31.6123 0.535655C31.6078 0.504662 32.7909 0.50179 32.8819 0.506548ZM68.3057 0.666328C68.5999 0.655035 67.6952 0.587894 67.8976 0.574808C68.0273 0.566658 68.6846 0.591796 68.8943 0.570751C68.9537 0.564064 68.2832 0.500935 68.0893 0.503682C67.8138 0.507352 68.081 0.557056 67.7803 0.557423C66.7822 0.558582 65.8973 0.523195 64.9616 0.524106C64.877 0.524285 65.5324 0.559343 64.8116 0.558911C64.7002 0.558913 64.0311 0.506668 63.1689 0.514502C61.2646 0.676657 59.8666 0.517735 57.4501 0.57636C57.5413 0.591606 59.3484 0.632357 59.4548 0.63386C61.4746 0.660315 65.0931 0.662914 67.2086 0.66307C67.7514 0.663161 67.4878 0.628899 67.7216 0.627622C67.9064 0.626679 67.6867 0.690183 68.3057 0.666328ZM270.512 0.496741C270.766 0.560128 271.657 0.519914 272.226 0.523138C272.025 0.46596 271.068 0.510742 270.512 0.496741ZM46.0263 0.554499C46.3116 0.552026 47.1958 0.571045 47.2688 0.551946C47.363 0.527007 46.0867 0.511397 46.0263 0.554499ZM183.608 0.56286C183.581 0.564591 182.895 0.561259 182.869 0.559264C182.256 0.50843 184.314 0.518671 183.608 0.56286ZM167.195 0.552131C166.675 0.560005 166.15 0.579867 165.976 0.528436C166.307 0.536284 167.256 0.516292 167.195 0.552131ZM144.552 0.555696C144.659 0.623059 143.093 0.579571 142.797 0.573555C142.907 0.543602 144.473 0.507157 144.552 0.555696ZM35.5382 0.658903C34.5808 0.655004 34.7829 0.75704 34.1751 0.710908C34.0759 0.703111 33.7553 0.490632 34.8077 0.570159C34.9971 0.584455 34.2561 0.635024 35.5382 0.658903ZM88.3234 0.55191C88.0799 0.596503 87.3189 0.583343 86.8046 0.579819C86.9199 0.546695 87.9575 0.555123 88.3234 0.55191ZM276.422 0.561824C276.871 0.624706 278.946 0.577843 278.432 0.536313C278.359 0.530896 276.713 0.564176 276.422 0.561824ZM208.265 0.543243C207.411 0.592869 209.179 0.608058 209.737 0.559591C209.485 0.562786 208.322 0.539976 208.265 0.543243ZM149.991 0.591829C149.95 0.593864 149.045 0.589164 149.004 0.58673C148.263 0.535053 150.824 0.548074 149.991 0.591829ZM172.593 0.633435C172.267 0.67424 170.123 0.641532 169.642 0.600741C170.105 0.541076 172.997 0.58247 172.593 0.633435ZM39.4778 0.629555C38.7947 0.631729 38.1467 0.619228 37.5193 0.601655C37.6513 0.567312 39.4056 0.603918 39.4778 0.629555ZM146.668 0.596401C146.62 0.596129 146.572 0.592248 146.526 0.591836C146.574 0.593287 146.622 0.594944 146.668 0.596401ZM54.7655 0.652288C55.3379 0.665797 55.2191 0.602903 55.1839 0.600979C54.7532 0.580646 54.1175 0.637042 54.7655 0.652288ZM271.166 0.59007C271.364 0.64682 272.327 0.602703 272.881 0.616162C272.72 0.571342 271.612 0.584074 271.166 0.59007ZM101.462 0.599862C102.181 0.661349 99.2553 0.733113 98.6388 0.693504C98.5933 0.65548 101.357 0.591448 101.462 0.599862ZM210.915 0.628152C210.973 0.67263 212.201 0.618838 211.94 0.597846C211.775 0.584488 210.881 0.600519 210.915 0.628152ZM97.1674 0.667696C96.8926 0.681296 96.2518 0.637458 96.4774 0.610688C96.7671 0.576371 97.2385 0.663803 97.1674 0.667696ZM72.5033 0.705625C72.6236 0.71241 74.24 0.666607 73.5722 0.621296C73.1089 0.589807 73.0351 0.654114 72.9262 0.654315C72.8044 0.654121 70.2096 0.575665 72.5033 0.705625ZM117.849 0.637145C117.239 0.654304 116.502 0.634515 115.864 0.635798C116.124 0.608265 117.59 0.600631 117.849 0.637145ZM206.178 0.640481C206.326 0.658457 210.361 0.668928 208.068 0.61376C207.935 0.610643 205.728 0.58604 206.178 0.640481ZM35.5382 0.658903C35.659 0.659395 35.7983 0.661505 35.9599 0.665885C35.7995 0.664169 35.6598 0.661168 35.5382 0.658903ZM46.4119 0.664638C46.1914 0.697039 47.3019 0.705596 47.6296 0.688333C47.7305 0.648762 46.4422 0.660108 46.4119 0.664638ZM115.815 0.68097C115.447 0.699533 114.78 0.67982 114.325 0.68202C114.402 0.651911 115.656 0.650405 115.815 0.68097ZM141.641 0.71252C140.91 0.694696 140.012 0.703005 139.998 0.73983C139.983 0.734076 139.947 0.72797 139.888 0.721834C139.829 0.715759 139.047 0.732955 138.707 0.720414C136.672 0.64594 146.565 0.675856 140.831 0.780345C141.101 0.757737 141.371 0.735129 141.641 0.71252ZM175.494 0.719847C175.908 0.764633 177.069 0.708362 176.768 0.69074C176.558 0.678666 175.079 0.674757 175.494 0.719847ZM159.544 0.747835C159.668 0.755825 160.801 0.72433 160.831 0.700721C160.179 0.675905 158.98 0.710723 159.544 0.747835ZM178.68 0.772053C178.94 0.778793 179.272 0.706485 179.242 0.703335C178.977 0.676973 178.243 0.731849 178.68 0.772053ZM37.5214 0.853435C37.9085 0.874098 39.1424 0.821671 39.4111 0.773916C39.4611 0.78314 39.5959 0.795164 39.843 0.809584C39.8422 0.809584 39.8415 0.809584 39.8407 0.809584C40.1743 0.828834 50.1472 0.849 43.4578 0.757681C43.2483 0.754755 43.5344 0.797574 42.682 0.790101C42.6257 0.789557 42.5977 0.754578 42.4238 0.752892C42.0235 0.749231 39.8916 0.72741 39.463 0.7556C39.4593 0.749116 39.4317 0.742951 39.3728 0.737297C38.8473 0.686895 37.2211 0.837503 37.5214 0.853435ZM157.297 0.754447C157.525 0.767388 158.247 0.755015 158.322 0.724141C157.964 0.709044 156.768 0.724257 157.297 0.754447ZM206.303 0.767123C206.767 0.79247 207.945 0.744901 207.589 0.719703C207.371 0.704204 205.767 0.738024 206.303 0.767123ZM164.529 0.737315C161.864 0.701067 163.893 0.740322 163.485 0.785629C163.833 0.769525 164.181 0.75342 164.529 0.737315ZM25.1889 0.737659C25.6137 0.748037 25.1144 0.837405 24.6465 0.788979C24.4997 0.7736 24.9512 0.73202 25.1889 0.737659ZM6.00216 0.767159C6.36475 0.846331 4.59366 0.799953 5.28395 0.745555C5.31603 0.743721 5.97623 0.764147 6.00216 0.767159ZM19.4093 0.798301C19.6978 0.744345 19.8855 0.737932 20.698 0.751186C19.4951 0.766488 20.6108 0.814084 19.4093 0.798301ZM140.006 0.745628C140.001 0.743449 139.997 0.741838 139.998 0.73983C140.003 0.741812 140.005 0.743692 140.006 0.745628ZM181.185 0.757789C181.519 0.803443 182.454 0.799996 182.175 0.754037C182.148 0.749782 181.322 0.72402 181.185 0.757789ZM39.4111 0.773916C39.3669 0.765736 39.3894 0.760442 39.463 0.7556C39.4664 0.761703 39.4475 0.767468 39.4111 0.773916ZM176.166 0.795474C176.199 0.761386 174.776 0.748259 174.719 0.752267C173.902 0.811452 175.578 0.797579 176.166 0.795474ZM215.711 0.814191C215.784 0.810627 215.311 0.722684 215.021 0.757182C214.796 0.783949 215.436 0.827752 215.711 0.814191ZM16.6502 0.820523C16.1997 0.820504 15.5653 0.820601 15.4484 0.778821C15.7503 0.785209 16.6596 0.789856 16.6502 0.820523ZM6.69556 0.824472C7.22814 0.775292 8.44446 0.775322 9.22118 0.783349C9.23546 0.84802 7.19533 0.809219 6.69556 0.824472ZM36.2992 0.829435C36.3362 0.832062 37.466 0.851257 37.3117 0.807981C37.0863 0.744519 35.9804 0.805922 36.2992 0.829435ZM213.516 0.767694C213.011 0.797552 214.174 0.889071 214.707 0.818249C214.981 0.781982 213.602 0.762692 213.516 0.767694ZM184.104 0.817343C184.771 0.79223 183.119 0.747752 182.888 0.793037C183.195 0.796642 183.868 0.826234 184.104 0.817343ZM161.418 0.865164C163.519 0.995526 162.375 0.757467 162.002 0.778438C161.95 0.781432 161.367 0.862098 161.418 0.865164ZM281.636 0.822291C281.933 0.804124 280.824 0.738513 280.681 0.781787C280.592 0.808867 281.445 0.833869 281.636 0.822291ZM129.779 0.783172C129.868 0.782745 129.956 0.782308 130.043 0.781927C129.978 0.784064 129.892 0.784766 129.779 0.783172ZM190.157 0.991671C188.678 0.807479 188.833 0.949533 188.705 0.94877C188.427 0.946811 187.781 0.897029 187.258 0.905258C187.857 0.884451 188.457 0.863645 189.056 0.842838C188.583 0.829573 184.469 0.762091 184.383 0.791987C184.259 0.834562 185.554 0.821092 185.592 0.824838C185.646 0.830176 185.848 0.948495 185.968 0.952984C186.166 0.960158 189.606 0.962303 190.157 0.991671ZM165.812 0.844321C165.474 0.830283 165.378 0.783407 165.221 0.794629C165.168 0.798468 165.159 0.843188 164.976 0.854773C165.255 0.851289 165.533 0.847805 165.812 0.844321ZM192.805 0.825715C193.224 0.880322 191.347 0.85974 191.287 0.853624C190.966 0.816612 192.463 0.781105 192.805 0.825715ZM176.876 0.835084C176.945 0.838267 178.386 0.8552 178.374 0.824878C177.993 0.801796 176.066 0.795236 176.876 0.835084ZM164.751 0.857845C164.244 0.852675 163.287 0.807728 163.397 0.875057C163.397 0.875057 163.398 0.875057 163.399 0.875057C163.85 0.86932 164.3 0.863582 164.751 0.857845ZM211.787 0.910068C212.725 1.01723 212.281 0.881755 211.45 0.84723C211.198 0.895402 211.633 0.892631 211.787 0.910068ZM214.79 0.989757C215.052 1.00903 217.742 0.987644 217.332 0.930932C217.186 0.91072 215.639 0.961864 215.567 0.957947C215.459 0.952142 215.953 0.889319 215.128 0.901832C215.176 0.9231 214.701 0.983319 214.79 0.989757ZM212.564 0.978666C213.496 1.06014 213.706 0.909693 213.005 0.909348C212.73 0.909107 212.431 0.966909 212.564 0.978666ZM208.754 0.966191C209.089 0.980427 209.983 1.00116 210.6 0.95107C209.775 0.946872 208.95 0.942674 208.126 0.938475C208.031 0.966827 208.46 0.953679 208.756 0.966191C208.755 0.966191 208.755 0.966191 208.754 0.966191ZM1.09055 1.21043C1.83157 1.25302 0.124308 1.26952 0.0520854 1.25905C-0.162319 1.22428 0.759276 1.19141 1.09055 1.21043ZM287.423 2.18841C287.629 2.20539 287.764 2.26133 288.217 2.23198C287.761 2.19071 287.305 2.14945 286.85 2.10819C286.495 2.20286 287.198 2.16967 287.423 2.18841ZM289.164 2.53403C289.1 2.53633 289.451 2.68182 288.62 2.58474C288.057 2.51919 291.114 2.45498 291.666 2.51946C291.056 2.5495 289.719 2.51529 289.164 2.53403ZM294.518 3.16345C294.554 3.17506 293.392 3.19218 293.258 3.18402C292.552 3.14096 294.328 3.1013 294.518 3.16345ZM290.813 3.13602C291.358 3.16423 290.151 3.18255 289.792 3.16632C289.757 3.13924 290.729 3.13191 290.813 3.13602ZM8.59413 3.31739C9.18345 3.41624 9.71073 3.20328 8.80388 3.24626C8.76055 3.24828 8.56903 3.31255 8.59413 3.31739ZM293.383 3.31035C292.838 3.28214 294.045 3.26382 294.404 3.28005C294.438 3.3071 293.466 3.31448 293.383 3.31035ZM9.00892 3.55296C9.79162 3.62406 9.51611 3.38522 9.41831 3.37561C9.01544 3.33763 7.6338 3.4315 7.35154 3.45484C9.41943 3.4188 8.6404 3.51945 9.00892 3.55296ZM12.6193 3.40919C13.3454 3.38365 11.4896 3.33508 11.1355 3.4017C11.4964 3.39848 12.4127 3.41658 12.6193 3.40919ZM17.0266 3.4854C17.4171 3.49392 18.5783 3.5143 18.7731 3.4767C18.3468 3.48354 17.1914 3.44671 17.0266 3.4854ZM17.9105 3.59793C18.5208 3.64895 18.6673 3.50014 17.9635 3.54452C17.9363 3.54624 17.8881 3.5951 17.9105 3.59793ZM21.3415 3.65134C21.7418 3.71047 22.199 3.56633 21.5501 3.56251C21.3574 3.56164 21.2991 3.64456 21.3415 3.65134ZM9.98858 3.80984C10.5619 3.8352 11.3006 3.73194 10.0766 3.72071C10.5066 3.70491 10.9365 3.6891 11.3665 3.67329C9.76312 3.6156 9.88069 3.75869 9.42039 3.75282C8.77707 3.74447 8.82783 3.62637 8.95705 3.58928C8.42957 3.66168 6.18857 3.66304 4.89349 3.67693C6.03172 3.70719 7.87874 3.75966 9.00207 3.7788C9.32278 3.78434 9.63398 3.75192 9.90743 3.75552C10.3458 3.76146 9.95645 3.80813 9.98633 3.80984C9.98711 3.80984 9.98786 3.80984 9.98858 3.80984ZM25.8515 3.65307C27.0283 3.71999 26.2841 3.57534 25.6193 3.60121C25.5908 3.6032 25.8222 3.65143 25.8515 3.65307ZM294.943 3.74999C293.371 3.68964 294.514 3.60936 291.225 3.7314C292.606 3.64509 291.301 3.66941 291.571 3.63463C291.787 3.6071 292.598 3.62981 292.127 3.57445C292.746 3.63469 295.435 3.61777 295.555 3.62755C295.554 3.62755 295.553 3.62755 295.552 3.62755C295.624 3.63335 295.445 3.76918 294.943 3.74999ZM17.0321 3.86383C17.4245 4.03939 17.5785 3.76067 18.3501 3.90613C19.3776 3.69471 15.5122 3.90636 15.0444 3.7279C19.2419 3.74826 12.2712 3.55127 15.201 3.81822C12.7873 3.72145 14.41 3.85138 14.0374 3.88546C13.6388 3.92177 12.2734 3.88248 12.3427 3.94788C12.3435 3.94788 12.3442 3.94788 12.345 3.94788C13.1801 3.94322 14.0153 3.93857 14.8503 3.93392C14.033 3.7929 15.7395 3.83505 16.3183 3.94996C16.5562 3.92125 16.7942 3.89254 17.0321 3.86383ZM12.3057 3.73181C12.3879 3.73503 14.2044 3.71509 14.0871 3.68678C13.8445 3.66874 11.2666 3.69063 12.3057 3.73181ZM4.31167 3.76335C4.96377 3.76363 5.97226 3.79107 6.32763 3.73784C5.67535 3.73754 4.66673 3.71009 4.31167 3.76335ZM37.8943 3.7704C38.7257 3.72666 36.1661 3.71396 36.9066 3.7656C36.943 3.76803 37.8535 3.77244 37.8943 3.7704ZM18.9229 3.83711C19.768 3.8907 19.3688 3.71992 18.7425 3.76449C18.7063 3.76712 18.8838 3.83467 18.9229 3.83711ZM293.669 3.77086C293.612 3.81271 291.331 3.78352 290.927 3.78392C291.157 3.745 293.734 3.72288 293.669 3.77086ZM3.16376 3.92001C4.4614 4.07038 6.22242 3.89641 6.4155 3.90019C6.60751 3.90404 6.30631 3.96985 6.35006 3.97161C6.4499 3.97529 8.49485 3.96959 8.59381 3.965C8.6646 3.96142 8.29467 3.86902 8.71675 3.83986C7.89339 3.89246 4.1549 3.85994 3.96093 3.8702C3.81062 3.87839 4.94346 3.97536 3.16602 3.92001C3.1653 3.92001 3.16455 3.92001 3.16376 3.92001ZM6.89805 3.92029C6.38722 3.88159 7.8199 3.87661 8.1665 3.89088C8.93685 3.92281 6.9636 3.92487 6.89805 3.92029ZM10.3437 3.95569C10.5073 3.96436 11.9838 3.97212 12.1094 3.92898C11.4105 3.87308 9.97255 3.93547 10.3437 3.95569ZM26.7736 3.94841C27.1571 3.94285 28.2116 3.9759 28.2721 3.9382C27.8882 3.94373 26.8338 3.91071 26.7736 3.94841ZM285.886 4.10055C286.523 4.13204 285.047 4.14505 284.616 4.12996C284.593 4.10482 285.831 4.09785 285.886 4.10055ZM19.0659 4.19753C19.2929 4.20897 23.9252 4.17995 24.5749 4.16224C23.9393 4.13379 19.3487 4.13201 19.1404 4.14594C19.0796 4.15011 19.0369 4.19572 19.0659 4.19753ZM9.04804 4.21582C8.62332 4.27137 8.34625 4.20482 8.29263 4.20399C7.76748 4.19554 6.67825 4.20816 6.9171 4.15467C7.84388 4.17616 9.89365 4.10552 9.04804 4.21582ZM27.1028 4.19955C28.6757 4.17881 25.6544 4.1206 26.0508 4.17858C26.0764 4.18209 26.9401 4.20173 27.1028 4.19955ZM18.5484 4.21375C18.2015 4.25863 13.5679 4.22037 12.8241 4.22037C13.4904 4.13758 14.0273 4.20037 14.9224 4.19607C15.1639 4.19481 15.0994 4.1604 15.1253 4.16034C15.5435 4.15871 15.2305 4.19849 15.4884 4.19907C15.6511 4.19933 19.0367 4.15051 18.5484 4.21375ZM8.80563 4.2543C8.54658 4.28614 5.65338 4.29997 5.53698 4.29152C4.66632 4.22871 8.58077 4.24324 8.80563 4.2543ZM18.9734 4.28726C18.4752 4.38345 16.174 4.31927 17.749 4.27119C17.8994 4.26682 18.5363 4.30844 18.9734 4.28726ZM26.9347 4.29112C27.012 4.29394 28.6518 4.31301 28.6812 4.28242C28.4443 4.27055 26.054 4.2601 26.9347 4.29112ZM26.0845 4.39466C26.1241 4.39392 25.7396 4.33503 26.5085 4.34243C26.5726 4.34313 26.6921 4.40941 27.6585 4.38505C27.8546 4.38004 28.1586 4.33616 28.1366 4.33343C27.1302 4.22949 24.0992 4.42901 26.0845 4.39466ZM8.75259 4.30802C8.9085 4.33598 8.53244 4.41907 8.19332 4.37704C8.04798 4.35889 8.31923 4.30903 8.75259 4.30802ZM32.1347 4.31751C31.1815 4.36796 34.174 4.37721 34.3266 4.36431C34.2305 4.33294 32.2301 4.31258 32.1347 4.31751ZM284.394 4.4895C284.395 4.4895 284.395 4.4895 284.396 4.4895C283.594 4.47816 284.091 4.43621 284.053 4.4349C282.345 4.37351 282.798 4.46837 282.531 4.47959C281.958 4.50387 282.051 4.38845 281.085 4.43639C282.682 4.36558 281.228 4.39534 281.183 4.35428C281.004 4.18674 283.309 4.43255 284.105 4.39736C284.216 4.39248 283.397 4.33908 283.681 4.32384C284.605 4.27447 287.471 4.53286 284.394 4.4895ZM7.93175 4.38439C7.5598 4.43364 4.73812 4.38616 5.48619 4.34554C5.60652 4.33903 8.47854 4.3126 7.93175 4.38439ZM139.748 4.44515C139.07 4.4878 140.641 4.53773 140.933 4.50455C141.077 4.48803 140.046 4.42643 139.748 4.44515ZM150.768 4.62636C151.574 4.61764 152.423 4.43994 151.421 4.4676C151.314 4.47062 150.676 4.60173 150.768 4.62636ZM97.8521 4.53987C98.6936 4.60327 98.6435 4.48534 98.0258 4.48706C97.8077 4.48764 97.8256 4.53786 97.8521 4.53987ZM129.968 4.52172C130.052 4.52583 131.025 4.51821 130.989 4.49111C130.63 4.47488 129.423 4.49351 129.968 4.52172ZM97.5849 4.55668C98.0838 4.53538 97.2251 4.45016 96.6153 4.53357C96.925 4.52671 97.5336 4.55886 97.5849 4.55668ZM20.7119 4.54773C21.1297 4.49927 22.3116 4.5138 22.9906 4.50541C23.0637 4.56815 21.197 4.53632 20.7119 4.54773ZM147.347 4.55525C148.11 4.51096 146.476 4.47491 146.626 4.53334C146.646 4.53651 147.317 4.55714 147.347 4.55525ZM70.7042 4.56551C71.2587 4.52803 69.498 4.47786 69.9826 4.5436C70.0064 4.54628 70.6737 4.56759 70.7042 4.56551ZM63.0157 4.54453C63.4364 4.55712 65.2304 4.55307 64.5322 4.51662C64.4238 4.51102 63.0473 4.51025 63.0157 4.54453ZM282.484 4.52477C282.71 4.58919 281.395 4.57397 281.206 4.56272C281.132 4.55805 282.188 4.44094 282.484 4.52477ZM103.317 4.54945C103.752 4.54135 104.882 4.55657 105.081 4.52274C104.548 4.52979 103.174 4.48211 103.317 4.54945ZM143.869 4.55587C144.533 4.62584 145.668 4.61883 145.388 4.52735C144.134 4.53359 145.542 4.60958 143.869 4.55587ZM94.7808 4.63231C95.1299 4.63762 95.3975 4.54972 95.3581 4.54559C94.9798 4.50623 94.4339 4.59815 94.7808 4.63231ZM120.981 4.55762C121.001 4.59518 122.12 4.57803 121.971 4.55387C121.921 4.54576 120.964 4.52723 120.981 4.55762ZM35.3694 4.56778C35.8822 4.60201 34.3161 4.63566 33.8529 4.59569C33.6277 4.53805 35.3046 4.56385 35.3694 4.56778ZM85.0989 4.61121C85.0468 4.66695 86.7962 4.63528 86.1069 4.58915C85.9344 4.5776 85.1172 4.59258 85.0989 4.61121ZM68.3521 4.67956C69.5255 4.61299 64.5983 4.56625 65.8931 4.64895C65.9856 4.65485 68.2499 4.68518 68.3521 4.67956ZM60.3052 4.63878C60.5076 4.64608 60.4066 4.83336 59.5688 4.76122C59.4589 4.75187 59.9734 4.70232 59.8835 4.691C59.8306 4.68455 58.0089 4.65842 57.925 4.6628C57.8348 4.66777 57.941 4.72778 57.8494 4.73452C57.7462 4.74205 56.6249 4.68943 56.0376 4.68891C54.9309 4.68802 54.8113 4.73799 54.7206 4.73816C54.4561 4.73851 54.0118 4.70308 53.4759 4.70318C50.7743 4.70382 46.6425 4.74654 44.501 4.64081C46.4068 4.68317 48.223 4.63788 50.1193 4.62382C49.5639 4.72816 52.9092 4.54322 50.9525 4.66373C51.8534 4.63755 59.6416 4.61597 60.3029 4.63878C60.3036 4.63878 60.3044 4.63878 60.3052 4.63878ZM153.949 4.67856C153.453 4.74255 155.994 4.72793 156.209 4.65394C155.874 4.64371 154.01 4.67131 153.949 4.67856ZM142.229 4.83557C141.993 4.84663 141.769 4.97163 140.532 4.90836C140.531 4.90836 140.53 4.90836 140.529 4.90836C140.167 4.88988 140.579 4.85939 140.513 4.84854C140.489 4.84411 139.361 4.78204 140.298 4.77196C141.727 4.75649 140.432 4.86493 141.194 4.86618C141.287 4.86627 142.729 4.79849 142.645 4.78365C142.637 4.78192 142.203 4.79627 142.131 4.7901C141.861 4.76693 141.992 4.72788 141.954 4.72603C141.829 4.72128 139.549 4.78798 139.218 4.72994C139.11 4.71122 142.853 4.66769 142.998 4.67741C143.091 4.68354 143.052 4.79188 143.147 4.80253C143.196 4.80783 144.702 4.76709 144.897 4.77704C144.954 4.77991 144.997 4.78301 145.029 4.78557C144.801 4.75207 146.164 4.75436 146.123 4.79219C146.099 4.80705 145.161 4.79853 145.127 4.79594C145.112 4.79484 145.099 4.79332 145.088 4.79228C145.282 4.83311 142.105 4.83155 142.791 4.89228C141.87 4.92567 142.921 4.80309 142.229 4.83557ZM137.803 4.9028C137.898 4.8914 137.993 4.88 138.088 4.8686C136.476 4.89663 134.615 4.84195 132.758 4.84252C132.287 4.84259 132.829 4.91222 132.211 4.89324C131.717 4.87802 131.169 4.81344 131.438 4.799C131.504 4.7954 132.511 4.83741 133.015 4.83304C134.504 4.82012 134.128 4.76039 134.215 4.75877C134.311 4.75706 135.248 4.799 135.76 4.79709C137.046 4.79213 137.634 4.75539 139.391 4.80317C138.377 4.84264 138.933 4.92815 137.803 4.9028ZM77.7103 4.78095C77.649 4.81857 76.594 4.78529 76.2108 4.79085C76.271 4.75314 77.3268 4.78651 77.7103 4.78095ZM234.925 4.81562C235.249 4.75387 232.82 4.73881 233.46 4.79012C233.602 4.80151 234.619 4.81521 234.925 4.81562ZM224.014 4.77907C223.689 4.79616 224.997 4.84048 224.995 4.79271C224.993 4.77739 224.056 4.77684 224.014 4.77907ZM116.963 4.84395C116.902 4.84589 116.008 4.83222 115.98 4.82908C115.388 4.7636 118.329 4.80121 116.963 4.84395ZM210.75 4.85625C211.882 4.8157 208.474 4.79847 209.515 4.84996C209.567 4.85246 210.695 4.85822 210.75 4.85625ZM206.012 4.86797C206.283 4.86578 207.489 4.88576 207.505 4.86692C207.529 4.83653 206.149 4.8159 206.012 4.86797ZM94.545 4.8655C94.6758 4.93503 93.0862 4.88251 92.5335 4.89132C92.4023 4.82174 93.9926 4.87433 94.545 4.8655ZM104.579 4.91587C97.8771 4.97129 99.3545 4.82258 104.978 4.88196C104.986 4.92657 105.002 4.91238 104.579 4.91587ZM95.9972 4.9084C96.2408 4.86383 97.0018 4.87697 97.516 4.88049C97.4235 4.91147 96.3682 4.90036 95.9972 4.9084ZM237.817 4.91089C237.396 4.9672 235.535 4.89799 235.866 4.87474C235.943 4.86972 237.971 4.87992 237.817 4.91089ZM116.402 4.90351C116.558 4.97113 114.545 4.94372 114.391 4.92872C113.77 4.86836 116.239 4.91845 116.402 4.90351ZM85.0334 4.92587C84.678 4.97888 83.6687 4.95172 83.0197 4.95107C83.3152 4.90575 84.4826 4.92496 85.0334 4.92587ZM89.7193 4.96695C89.6785 4.96899 88.7732 4.96429 88.7327 4.96185C87.991 4.91018 90.5519 4.9232 89.7193 4.96695ZM285.505 4.99815C285.475 4.99986 284.79 4.99654 284.766 4.99455C284.154 4.94374 286.211 4.95395 285.505 4.99815Z" fill="white"/>
</svg>
