<svg width="369" height="140" viewBox="0 0 369 140" fill="none" xmlns="http://www.w3.org/2000/svg">
<path d="M0 90H366V64H0V90Z" fill="#FEC15B"/>
<path d="M338.277 80.4809L328.33 63.6221L346.26 63.6265L338.277 80.4809Z" fill="#2E7D32"/>
<path d="M356.269 80.48L346.33 63.6182L364.256 63.6341L356.269 80.48Z" fill="#D60100"/>
<path d="M320.275 80.4389L310.328 63.5801L328.258 63.5845L320.275 80.4389Z" fill="#F2E487"/>
<path d="M302.34 80.4266L292.404 63.5732L310.327 63.5807L302.34 80.4266Z" fill="#D60100"/>
<path d="M284.418 80.4194L274.471 63.5605L292.404 63.5735L284.418 80.4194Z" fill="#2E7D32"/>
<path d="M266.659 80.4067L256.712 63.5479L274.645 63.5608L266.659 80.4067Z" fill="#F2E487"/>
<path d="M248.727 80.4019L238.788 63.54L256.711 63.5475L248.727 80.4019Z" fill="#D60100"/>
<path d="M230.801 80.3864L220.857 63.5361L238.788 63.5405L230.801 80.3864Z" fill="#2E7D32"/>
<path d="M212.87 80.3824L202.931 63.5205L220.856 63.5365L212.87 80.3824Z" fill="#F2E487"/>
<path d="M194.947 80.3754L185 63.5166L202.93 63.521L194.947 80.3754Z" fill="#D60100"/>
<path d="M177.008 81.5589L166.38 63.7939L184.777 63.8096L177.008 81.5589Z" fill="#2E7D32"/>
<path d="M158.606 81.5347L147.986 63.7666L166.379 63.7944L158.606 81.5347Z" fill="#F2E487"/>
<path d="M140.218 81.5149L129.59 63.75L147.987 63.7656L140.218 81.5149Z" fill="#D60100"/>
<path d="M121.816 81.4906L111.199 63.7314L129.588 63.7503L121.816 81.4906Z" fill="#2E7D32"/>
<path d="M103.427 81.4729L92.7988 63.708L111.199 63.7327L103.427 81.4729Z" fill="#F2E487"/>
<path d="M85.206 81.4476L74.5781 63.6826L92.9786 63.7073L85.206 81.4476Z" fill="#D60100"/>
<path d="M66.8084 81.4322L56.1885 63.6641L74.5774 63.6829L66.8084 81.4322Z" fill="#2E7D32"/>
<path d="M48.4152 81.4044L37.791 63.6484L56.1879 63.6641L48.4152 81.4044Z" fill="#F2E487"/>
<path d="M30.0184 81.3892L19.3984 63.6211L37.791 63.6489L30.0184 81.3892Z" fill="#D60100"/>
<path d="M11.6279 81.3704L1 63.6055L19.3969 63.6211L11.6279 81.3704Z" fill="#2E7D32"/>
</svg>
