<svg width="385" height="131" viewBox="0 0 385 131" fill="none" xmlns="http://www.w3.org/2000/svg">
<path d="M384.055 0H0V130.194H384.055V0Z" fill="#F6A529"/>
<path d="M296.957 24.6187C296.957 24.6187 298.957 22.7733 295.254 21.3053C291.55 19.8372 281.58 19.3946 278.033 23.0212C274.486 26.6482 273.021 30.1712 275.408 32.5827C277.795 34.9944 284.049 35.8185 284.098 34.959C284.147 34.0992 280.663 34.6132 279.324 33.2032C277.985 31.7932 277.687 26.8604 281.332 25.873C284.977 24.8856 290.901 26.8937 292.588 27.1296C294.274 27.3658 298.296 27.3202 296.957 24.6187Z" fill="#D60100"/>
<path d="M297.183 24.3513C297.183 24.3513 295.632 24.426 295.343 24.988C295.055 25.5499 295.492 26.6875 296.468 26.9216C297.444 27.1557 297.898 27.551 299.015 28.4431C300.132 29.3351 301.811 31.9888 301.554 32.9725L302.669 32.7207C302.669 32.7207 301.782 28.5816 299.146 26.9159C299.146 26.9159 298.258 25.0544 297.183 24.3513Z" fill="#476C19"/>
<path d="M23.3377 88.6904C23.3377 88.6904 20.282 89.4661 22.6321 92.4402C24.9823 95.4144 33.684 100.253 39.3423 98.5573C45.0006 96.8616 48.7092 94.3333 48.1873 91.0933C47.6654 87.8533 42.5772 84.325 41.9506 85.0793C41.3238 85.8337 44.8178 86.9208 45.0719 88.7899C45.3259 90.6589 42.2544 95.2451 38.2947 94.514C34.3353 93.7828 30.347 89.333 28.9841 88.3688C27.6208 87.4049 23.9584 85.6556 23.3377 88.6904Z" fill="#D60100"/>
<path d="M22.9556 88.832C22.9556 88.832 24.4062 89.4548 25.0472 89.0759C25.6882 88.6971 26.0636 87.4751 25.341 86.8293C24.6184 86.1836 24.4768 85.6248 24.0722 84.322C23.6679 83.0191 23.9485 79.8759 24.8465 79.102L23.6695 78.8331C23.6695 78.8331 21.6678 82.9652 22.9196 85.6425C22.9196 85.6425 22.4613 87.7188 22.9556 88.832Z" fill="#476C19"/>
<path d="M357.052 32.786C357.052 33.6549 356.183 34.3592 355.111 34.3592C354.04 34.3592 353.171 33.6549 353.171 32.786C353.171 31.9171 354.04 31.2127 355.111 31.2127C356.183 31.2127 357.052 31.9171 357.052 32.786Z" fill="#D60100"/>
<path d="M355.107 24.7659C355.107 24.7659 352.656 24.92 352.816 26.2602C352.977 27.6005 355.107 30.7467 355.107 30.7467C355.107 30.7467 357.237 27.6002 357.398 26.2602C357.559 24.9198 355.107 24.7659 355.107 24.7659Z" fill="white"/>
<path d="M347.379 27.7849C347.379 27.7849 345.999 29.435 347.392 30.1688C348.784 30.9025 353.146 31.5139 353.146 31.5139C353.146 31.5139 351.44 28.2018 350.248 27.2644C349.056 26.327 347.379 27.7849 347.379 27.7849Z" fill="white"/>
<path d="M345.465 34.5701C345.465 34.5701 346.196 36.4738 347.771 36.0484C349.347 35.6229 352.656 33.2393 352.656 33.2393C352.656 33.2393 348.399 32.2556 346.752 32.4269C345.105 32.5982 345.465 34.5701 345.465 34.5701Z" fill="white"/>
<path d="M350.819 40.0119C350.819 40.0119 353.11 40.7355 353.682 39.4716C354.255 38.2077 354.019 34.6234 354.019 34.6234C354.019 34.6234 350.416 36.7089 349.554 37.8598C348.692 39.0107 350.819 40.0119 350.819 40.0119Z" fill="white"/>
<path d="M359.404 40.0119C359.404 40.0119 361.53 39.0107 360.668 37.8598C359.806 36.7089 356.203 34.6234 356.203 34.6234C356.203 34.6234 355.968 38.2077 356.54 39.4716C357.113 40.7355 359.404 40.0119 359.404 40.0119Z" fill="white"/>
<path d="M364.755 34.5701C364.755 34.5701 365.115 32.5979 363.468 32.4268C361.821 32.2558 357.563 33.2393 357.563 33.2393C357.563 33.2393 360.873 35.6231 362.448 36.0483C364.024 36.4738 364.755 34.5701 364.755 34.5701Z" fill="white"/>
<path d="M362.846 27.7849C362.846 27.7849 361.169 26.327 359.977 27.2644C358.785 28.2018 357.079 31.5139 357.079 31.5139C357.079 31.5139 361.441 30.9025 362.834 30.1688C364.226 29.435 362.846 27.7849 362.846 27.7849Z" fill="white"/>
<path d="M37.0045 27.2617C38.12 27.2617 39.0242 26.5285 39.0242 25.6241C39.0242 24.7197 38.12 23.9865 37.0045 23.9865C35.8891 23.9865 34.9849 24.7197 34.9849 25.6241C34.9849 26.5285 35.8891 27.2617 37.0045 27.2617Z" fill="#D60100"/>
<path d="M37.0047 17.2766C37.0047 17.2766 34.4529 17.437 34.6202 18.8319C34.7875 20.2268 37.0047 23.502 37.0047 23.502C37.0047 23.502 39.2219 20.2268 39.3892 18.8319C39.5565 17.4367 37.0047 17.2766 37.0047 17.2766Z" fill="white"/>
<path d="M28.9558 20.4193C28.9558 20.4193 27.5194 22.1368 28.969 22.9005C30.4183 23.6643 34.959 24.3009 34.959 24.3009C34.959 24.3009 33.1834 20.8534 31.9425 19.8774C30.7016 18.9018 28.9558 20.4193 28.9558 20.4193Z" fill="white"/>
<path d="M26.9664 27.4817C26.9664 27.4817 27.7272 29.4632 29.3673 29.0206C31.0074 28.5779 34.452 26.0964 34.452 26.0964C34.452 26.0964 30.0205 25.0726 28.3059 25.2507C26.5913 25.4288 26.9664 27.4817 26.9664 27.4817Z" fill="white"/>
<path d="M32.5408 33.146C32.5408 33.146 34.9256 33.8993 35.5213 32.5836C36.1171 31.2678 35.872 27.537 35.872 27.537C35.872 27.537 32.1217 29.7078 31.2247 30.9059C30.3278 32.1039 32.5408 33.146 32.5408 33.146Z" fill="white"/>
<path d="M41.4749 33.146C41.4749 33.146 43.6882 32.1039 42.791 30.9059C41.8937 29.7078 38.1437 27.537 38.1437 27.537C38.1437 27.537 37.8986 31.2678 38.4944 32.5836C39.0901 33.8993 41.4749 33.146 41.4749 33.146Z" fill="white"/>
<path d="M47.0403 27.4817C47.0403 27.4817 47.4154 25.4288 45.7008 25.2507C43.9862 25.0726 39.5547 26.0964 39.5547 26.0964C39.5547 26.0964 42.9993 28.5779 44.6394 29.0206C46.2798 29.463 47.0403 27.4817 47.0403 27.4817Z" fill="white"/>
<path d="M45.0585 20.4193C45.0585 20.4193 43.3128 18.9018 42.0722 19.8774C40.8313 20.8531 39.0557 24.3007 39.0557 24.3007C39.0557 24.3007 43.5963 23.6643 45.0457 22.9005C46.495 22.1368 45.0585 20.4193 45.0585 20.4193Z" fill="white"/>
<path d="M92.3068 26.8947L93.512 20.3892L94.4398 26.6794L97.3263 24.6551L95.4138 27.7482L102.353 28.2539L95.9171 29.0994L97.8899 31.1046L94.3573 29.3845L93.0171 35.2628L92.5393 29.7064L89.7427 32.1488L91.774 28.8663L84.7656 28.2844L90.7672 27.522L88.6229 25.0884L92.3068 26.8947Z" fill="white"/>
<path d="M350.211 95.1979L351.631 87.5323L352.724 94.944L356.125 92.5589L353.872 96.2035L362.048 96.7996L354.465 97.7955L356.789 100.158L352.627 98.1317L351.048 105.058L350.485 98.5106L347.19 101.389L349.583 97.5211L341.325 96.8352L348.397 95.9369L345.87 93.0695L350.211 95.1979Z" fill="white"/>
<path d="M317.334 50.7095L318.402 44.9487L319.223 50.5186L321.779 48.7261L320.086 51.4651L326.23 51.913L320.531 52.6616L322.278 54.4369L319.15 52.9139L317.964 58.1191L317.541 53.1988L315.064 55.3616L316.863 52.4551L310.657 51.9398L315.972 51.2646L314.073 49.1099L317.334 50.7095Z" fill="white"/>
<path d="M366.842 60.6675L367.473 57.2606L367.959 60.5548L369.471 59.4947L368.469 61.1146L372.103 61.3794L368.733 61.8221L369.766 62.8722L367.916 61.9716L367.214 65.0499L366.964 62.14L365.499 63.4191L366.563 61.7002L362.893 61.3953L366.036 60.9961L364.913 59.7218L366.842 60.6675Z" fill="white"/>
<path d="M47.8705 107.059L48.5019 103.652L48.9875 106.946L50.4991 105.886L49.4978 107.506L53.1315 107.771L49.7611 108.214L50.7942 109.264L48.9444 108.363L48.2424 111.441L47.9926 108.531L46.5278 109.811L47.5918 108.092L43.9214 107.787L47.0644 107.387L45.9414 106.113L47.8705 107.059Z" fill="white"/>
<path d="M18.1723 34.5087L19.0153 29.9579L19.6643 34.3579L21.6837 32.9419L20.3458 35.1058L25.1993 35.4594L20.6978 36.0507L22.0777 37.4534L19.6065 36.2502L18.6691 40.3622L18.3351 36.4754L16.3787 38.1838L17.7998 35.8877L12.8975 35.4807L17.0955 34.9474L15.5954 33.2453L18.1723 34.5087Z" fill="white"/>
<path d="M337.681 70.1732C339.41 70.1732 340.811 69.0369 340.811 67.6352C340.811 66.2335 339.41 65.0972 337.681 65.0972C335.952 65.0972 334.551 66.2335 334.551 67.6352C334.551 69.0369 335.952 70.1732 337.681 70.1732Z" fill="#D60100"/>
<path d="M14.1185 56.4396C15.8473 56.4396 17.2487 55.3033 17.2487 53.9016C17.2487 52.4999 15.8473 51.3636 14.1185 51.3636C12.3897 51.3636 10.9883 52.4999 10.9883 53.9016C10.9883 55.3033 12.3897 56.4396 14.1185 56.4396Z" fill="#D60100"/>
<path d="M336.668 105.447C336.934 104.273 335.975 103.147 334.527 102.932C333.08 102.717 331.691 103.494 331.425 104.668C331.16 105.841 332.118 106.968 333.566 107.183C335.014 107.398 336.403 106.621 336.668 105.447Z" fill="#476C19"/>
<path d="M66.4684 26.2332C67.9404 26.2332 69.1336 25.2657 69.1336 24.0722C69.1336 22.8788 67.9404 21.9113 66.4684 21.9113C64.9965 21.9113 63.8032 22.8788 63.8032 24.0722C63.8032 25.2657 64.9965 26.2332 66.4684 26.2332Z" fill="#476C19"/>
<path d="M366.313 88.3753L362.906 81.5118L365.55 80.9259L372.934 91.1602L368.46 92.1517L366.313 88.3753Z" fill="#476C19"/>
<path d="M105.004 107.148L96.4556 104.561L97.7039 102.583L112.005 105.061L109.892 108.408L105.004 107.148Z" fill="#476C19"/>
<path d="M293.589 81.4753L298.195 84.3981L299.897 79.5268L298.095 77.4971L293.589 81.4753Z" fill="#D60100"/>
<path d="M12.7627 107.062L17.3686 109.984L19.0706 105.113L17.2684 103.084L12.7627 107.062Z" fill="#D60100"/>
<path d="M27.4321 123.368L23.3208 120.041H27.4321H31.5434L27.4321 123.368Z" fill="#D60100"/>
<path d="M54.8638 123.368L50.7524 120.041H54.8638H58.9754L54.8638 123.368Z" fill="white"/>
<path d="M82.2954 123.368L78.1841 120.041H82.2954H86.4067L82.2954 123.368Z" fill="#D60100"/>
<path d="M109.727 123.368L105.615 120.041H109.727H113.838L109.727 123.368Z" fill="white"/>
<path d="M137.156 123.368L133.045 120.041H137.156H141.268L137.156 123.368Z" fill="#D60100"/>
<path d="M164.588 123.368L160.477 120.041H164.588H168.699L164.588 123.368Z" fill="white"/>
<path d="M192.018 123.368L187.906 120.041H192.018H196.129L192.018 123.368Z" fill="#D60100"/>
<path d="M219.453 123.368L215.342 120.041H219.453H223.565L219.453 123.368Z" fill="white"/>
<path d="M246.879 123.368L242.768 120.041H246.879H250.991L246.879 123.368Z" fill="#D60100"/>
<path d="M274.314 123.368L270.203 120.041H274.314H278.426L274.314 123.368Z" fill="white"/>
<path d="M301.748 123.368L297.637 120.041H301.748H305.86L301.748 123.368Z" fill="#D60100"/>
<path d="M329.172 123.368L325.061 120.041H329.172H333.283L329.172 123.368Z" fill="white"/>
<path d="M356.608 123.368L352.496 120.041H356.608H360.719L356.608 123.368Z" fill="#D60100"/>
<path d="M384.053 123.356V120.043H379.926L384.038 123.368L384.053 123.356Z" fill="white"/>
<path d="M0.00390625 123.356V120.043H4.13095L0.0193212 123.368L0.00390625 123.356Z" fill="white"/>
<path d="M13.7194 119.095L0.00390625 130.195H13.7194H27.4352L13.7194 119.095Z" fill="#476C19"/>
<path d="M13.7129 122.981L9.60156 126.308H13.7129H17.8245L13.7129 122.981Z" fill="#E8B22B"/>
<path d="M41.1475 119.094L27.4316 130.194H41.1475H54.8629L41.1475 119.094Z" fill="#D60100"/>
<path d="M41.1492 122.981L37.0376 126.308H41.1492H45.2605L41.1492 122.981Z" fill="#E8B22B"/>
<path d="M68.581 119.094L54.8652 130.194H68.581H82.2965L68.581 119.094Z" fill="#476C19"/>
<path d="M68.5809 122.981L64.4692 126.308H68.5809H72.6922L68.5809 122.981Z" fill="#E8B22B"/>
<path d="M96.0068 119.095L82.291 130.194H96.0068H109.722L96.0068 119.095Z" fill="#D60100"/>
<path d="M96.0081 122.981L91.8965 126.308H96.0081H100.119L96.0081 122.981Z" fill="#E8B22B"/>
<path d="M123.442 119.094L109.727 130.194H123.442H137.158L123.442 119.094Z" fill="#476C19"/>
<path d="M123.44 122.981L119.328 126.308H123.44H127.551L123.44 122.981Z" fill="#E8B22B"/>
<path d="M150.874 119.094L137.158 130.194H150.874H164.59L150.874 119.094Z" fill="#D60100"/>
<path d="M150.873 122.981L146.762 126.308H150.873H154.985L150.873 122.981Z" fill="#E8B22B"/>
<path d="M178.304 119.095L164.588 130.194H178.304H192.019L178.304 119.095Z" fill="#476C19"/>
<path d="M178.305 122.981L174.193 126.308H178.305H182.416L178.305 122.981Z" fill="#E8B22B"/>
<path d="M205.737 119.094L192.021 130.194H205.737H219.453L205.737 119.094Z" fill="#D60100"/>
<path d="M205.739 122.981L201.627 126.308H205.739H209.85L205.739 122.981Z" fill="#E8B22B"/>
<path d="M233.164 119.094L219.448 130.194H233.164H246.88L233.164 119.094Z" fill="#476C19"/>
<path d="M233.168 122.981L229.057 126.308H233.168H237.28L233.168 122.981Z" fill="#E8B22B"/>
<path d="M260.594 119.094L246.878 130.194H260.594H274.309L260.594 119.094Z" fill="#D60100"/>
<path d="M260.593 122.981L256.481 126.308H260.593H264.704L260.593 122.981Z" fill="#E8B22B"/>
<path d="M288.029 119.094L274.313 130.194H288.029H301.745L288.029 119.094Z" fill="#476C19"/>
<path d="M288.025 122.981L283.913 126.308H288.025H292.136L288.025 122.981Z" fill="#E8B22B"/>
<path d="M315.463 119.094L301.747 130.194H315.463H329.179L315.463 119.094Z" fill="#D60100"/>
<path d="M315.458 122.981L311.347 126.308H315.458H319.569L315.458 122.981Z" fill="#E8B22B"/>
<path d="M342.895 119.095L329.18 130.194H342.895H356.611L342.895 119.095Z" fill="#476C19"/>
<path d="M342.889 122.981L338.777 126.308H342.889H347L342.889 122.981Z" fill="#E8B22B"/>
<path d="M370.32 119.094L356.604 130.194H370.32H384.036L370.32 119.094Z" fill="#D60100"/>
<path d="M370.323 122.981L366.212 126.308H370.323H374.435L370.323 122.981Z" fill="#E8B22B"/>
<path d="M356.623 6.82654L360.735 10.1538H356.623H352.512L356.623 6.82654Z" fill="#D60100"/>
<path d="M329.188 6.82654L333.299 10.1538H329.188H325.076L329.188 6.82654Z" fill="white"/>
<path d="M301.758 6.82654L305.869 10.1538H301.758H297.646L301.758 6.82654Z" fill="#D60100"/>
<path d="M274.329 6.82654L278.441 10.1538H274.329H270.218L274.329 6.82654Z" fill="white"/>
<path d="M246.897 6.82654L251.009 10.1538H246.897H242.786L246.897 6.82654Z" fill="#D60100"/>
<path d="M219.466 6.82654L223.577 10.1538H219.466H215.354L219.466 6.82654Z" fill="white"/>
<path d="M192.034 6.82654L196.146 10.1538H192.034H187.923L192.034 6.82654Z" fill="#D60100"/>
<path d="M164.603 6.82654L168.714 10.1538H164.603H160.491L164.603 6.82654Z" fill="white"/>
<path d="M137.175 6.82654L141.286 10.1538H137.175H133.063L137.175 6.82654Z" fill="#D60100"/>
<path d="M109.743 6.82654L113.855 10.1538H109.743H105.632L109.743 6.82654Z" fill="white"/>
<path d="M82.3115 6.82654L86.4228 10.1538H82.3115H78.2002L82.3115 6.82654Z" fill="#D60100"/>
<path d="M54.8779 6.82654L58.9895 10.1538H54.8779H50.7666L54.8779 6.82654Z" fill="white"/>
<path d="M27.4463 6.82654L31.5579 10.1538H27.4463H23.335L27.4463 6.82654Z" fill="#D60100"/>
<path d="M0.00390625 6.83959V10.1525H4.13095L0.0193212 6.82709L0.00390625 6.83959Z" fill="white"/>
<path d="M384.053 6.83977V10.1527H379.926L384.038 6.82727L384.053 6.83977Z" fill="white"/>
<path d="M370.338 11.1012L384.053 0.00140381H370.338H356.622L370.338 11.1012Z" fill="#476C19"/>
<path d="M370.341 7.21505L374.452 3.88782H370.341H366.229L370.341 7.21505Z" fill="#E8B22B"/>
<path d="M342.91 11.1012L356.626 0.00134277H342.91H329.194L342.91 11.1012Z" fill="#D60100"/>
<path d="M342.91 7.21505L347.021 3.88782H342.91H338.799L342.91 7.21505Z" fill="#E8B22B"/>
<path d="M315.479 11.1012L329.194 0.00140381H315.479H301.763L315.479 11.1012Z" fill="#476C19"/>
<path d="M315.474 7.21505L319.585 3.88782H315.474H311.362L315.474 7.21505Z" fill="#E8B22B"/>
<path d="M288.045 11.1012L301.76 0.00140381H288.045H274.329L288.045 11.1012Z" fill="#D60100"/>
<path d="M288.044 7.21505L292.155 3.88782H288.044H283.933L288.044 7.21505Z" fill="#E8B22B"/>
<path d="M260.615 11.1012L274.331 0.00134277H260.615H246.899L260.615 11.1012Z" fill="#476C19"/>
<path d="M260.616 7.21505L264.727 3.88782H260.616H256.504L260.616 7.21505Z" fill="#E8B22B"/>
<path d="M233.18 11.1012L246.895 0.00140381H233.18H219.464L233.18 11.1012Z" fill="#D60100"/>
<path d="M233.184 7.21505L237.295 3.88782H233.184H229.072L233.184 7.21505Z" fill="#E8B22B"/>
<path d="M205.752 11.1012L219.467 0.00140381H205.752H192.036L205.752 11.1012Z" fill="#476C19"/>
<path d="M205.749 7.21505L209.861 3.88782H205.749H201.638L205.749 7.21505Z" fill="#E8B22B"/>
<path d="M178.318 11.1012L192.034 0.00134277H178.318H164.603L178.318 11.1012Z" fill="#D60100"/>
<path d="M178.319 7.21505L182.43 3.88782H178.319H174.207L178.319 7.21505Z" fill="#E8B22B"/>
<path d="M150.891 11.1012L164.606 0.00140381H150.891H137.175L150.891 11.1012Z" fill="#476C19"/>
<path d="M150.886 7.21505L154.997 3.88782H150.886H146.774L150.886 7.21505Z" fill="#E8B22B"/>
<path d="M123.462 11.1012L137.177 0.00140381H123.462H109.746L123.462 11.1012Z" fill="#D60100"/>
<path d="M123.459 7.21505L127.571 3.88782H123.459H119.348L123.459 7.21505Z" fill="#E8B22B"/>
<path d="M96.0259 11.1012L109.741 0.00140381H96.0259H82.3101L96.0259 11.1012Z" fill="#476C19"/>
<path d="M96.0276 7.21505L100.139 3.88782H96.0276H91.916L96.0276 7.21505Z" fill="#E8B22B"/>
<path d="M68.5942 11.1012L82.3097 0.00140381H68.5942H54.8784L68.5942 11.1012Z" fill="#D60100"/>
<path d="M68.5916 7.21505L72.7029 3.88782H68.5916H64.48L68.5916 7.21505Z" fill="#E8B22B"/>
<path d="M41.1626 11.1012L54.8781 0.00140381H41.1626H27.4468L41.1626 11.1012Z" fill="#476C19"/>
<path d="M41.1644 7.21505L45.2757 3.88782H41.1644H37.0527L41.1644 7.21505Z" fill="#E8B22B"/>
<path d="M13.7329 11.1012L27.4484 0.00140381H13.7329H0.0170898L13.7329 11.1012Z" fill="#D60100"/>
<path d="M13.7327 7.21505L17.844 3.88782H13.7327H9.62109L13.7327 7.21505Z" fill="#E8B22B"/>
<path opacity="0.8" d="M81.3688 51.5689C81.0006 51.2127 80.57 50.9009 80.1004 50.6464C79.8896 50.53 79.668 50.4265 79.4448 50.3369C78.4653 49.9395 77.387 49.7942 76.4183 50.0113C76.4065 50.0141 76.3947 50.0176 76.3829 50.0203C76.2478 50.0515 76.1139 50.09 75.9829 50.138C75.6442 50.2586 75.3249 50.4278 75.0336 50.6551C73.9555 51.4942 73.5275 52.8758 73.4406 54.1957C73.3551 55.5122 73.5538 56.8384 73.4594 58.1559C73.3264 60.0192 72.6243 61.5054 71.5779 62.7854C71.3949 63.009 71.1987 63.2248 70.996 63.4369C70.7967 50.0916 67.8612 34.3782 55.6298 31.4043C55.299 31.3234 54.9608 31.2513 54.6155 31.1905C54.5407 31.1768 54.4682 31.1651 54.3959 31.1533C52.753 30.8767 51.2389 30.8195 49.8518 30.9535C49.5958 30.9792 49.3425 31.0103 49.0926 31.0494C48.5084 31.1391 47.9485 31.2645 47.4149 31.425C47.1734 31.4953 46.9377 31.5751 46.707 31.6604C45.1081 32.2491 43.7375 33.1567 42.5898 34.3254C42.3471 34.5735 42.1146 34.8326 41.89 35.1028C41.5683 35.4934 41.265 35.9081 40.984 36.3445C36.9202 42.6264 37.1225 53.3924 41.0472 63.6013C39.8086 62.6166 38.7426 61.3895 37.9056 59.8209C37.0114 58.1411 36.4925 56.305 35.6084 54.622C34.7221 52.9374 33.3521 51.3409 31.4473 50.7835C30.9332 50.6328 30.4138 50.5698 29.9006 50.5826C29.6842 50.5853 29.4681 50.6042 29.2555 50.6348C27.8587 50.8368 26.5325 51.5675 25.4812 52.5796C25.2404 52.8094 25.0125 53.0558 24.8034 53.3143C24.3389 53.8828 23.9573 54.5086 23.6822 55.1604C21.5214 60.2687 24.3587 66.4148 29.1092 69.6722C33.8616 72.9293 42.3595 76.4301 48.2119 76.1594C50.5938 79.1227 53.3737 81.7721 56.5307 83.916L51.8809 85.0288L54.1669 89.7459L55.405 92.303L55.9809 93.4928L56.9317 95.4537L73.0418 92.2232L73.0466 89.011L73.0546 83.633L73.0594 79.9595L69.9448 80.705C70.1464 79.1904 70.3967 77.059 70.6039 74.521C70.6807 73.5784 70.7514 72.5782 70.8116 71.5348C71.0453 71.5013 71.2783 71.452 71.5077 71.3764C72.0975 71.181 72.701 70.916 73.3091 70.5928C76.7146 68.7823 80.242 65.1877 82.0639 62.3791C84.2102 59.0718 84.2661 54.3581 81.3688 51.5689Z" fill="#E8B22B"/>
<path d="M31.4697 74.8247C36.2221 78.0819 44.72 81.5827 50.5724 81.312C52.1842 81.2369 53.6165 80.4976 54.5917 79.4622C54.7923 79.2512 54.9758 79.026 55.1344 78.7915C56.6623 76.5492 56.2136 73.463 51.7105 72.3437C46.8943 71.1476 42.6519 69.445 40.2662 64.9732C39.3719 63.2935 38.853 61.4573 37.9689 59.7743C37.0826 58.0895 35.7126 56.4932 33.8081 55.9358C33.2939 55.7851 32.7745 55.7221 32.2614 55.7349C32.045 55.7375 31.8288 55.7565 31.6162 55.7871C30.2195 55.989 28.8933 56.7198 27.8419 57.7319C27.6011 57.9617 27.3733 58.2081 27.1642 58.4665C26.6996 59.0351 26.3181 59.6608 26.0432 60.3126C23.8817 65.4215 26.7192 71.5673 31.4697 74.8247Z" fill="#476C19"/>
<path d="M37.4968 69.9847C41.8367 74.0468 48.2101 76.2363 54.5449 75.8412L54.4988 75.2407C48.3447 75.6249 42.1561 73.5009 37.9469 69.5611C34.0233 65.8892 31.9345 60.7228 32.269 55.7346C32.0526 55.7373 31.8364 55.7563 31.6239 55.7869C31.3132 60.9156 33.4673 66.2138 37.4968 69.9847Z" fill="#547F20"/>
<path d="M29.4285 67.5286C31.3896 71.0821 34.5008 74.1048 38.4251 76.2726C43.2368 78.9312 49.0642 80.0691 54.5975 79.4617C54.7981 79.2507 54.9817 79.0255 55.1402 78.791C49.5603 79.543 43.6204 78.4465 38.7464 75.7548C34.9265 73.6459 31.9 70.7062 29.9957 67.2551C28.3345 64.2443 27.5969 60.9291 27.8475 57.7316C27.6068 57.9614 27.3789 58.2078 27.1698 58.4663C27.077 61.5301 27.8475 64.664 29.4285 67.5286Z" fill="#547F20"/>
<path opacity="0.1" d="M36.5729 63.6985C36.042 62.6994 35.7807 61.5938 35.2935 60.5754C34.8062 59.5571 34.0092 58.5767 32.8704 58.263C31.5631 57.9028 30.0994 58.5705 29.3736 59.6474C28.6478 60.724 28.5793 62.1114 28.9292 63.3491C29.2793 64.5868 30.0089 65.7007 30.8002 66.7455C31.7042 67.9395 32.7366 69.0993 34.1015 69.8058C35.4664 70.5124 37.2306 70.6865 38.5452 69.9162C39.6307 69.28 40.5016 67.5066 39.6605 66.3938C39.3434 65.9742 38.7417 65.8022 38.2991 65.5319C37.5451 65.0716 36.9746 64.4547 36.5729 63.6985Z" fill="white"/>
<path d="M84.4265 67.5318C82.6046 70.3405 79.077 73.9351 75.6718 75.7456C75.0637 76.0688 74.4599 76.3337 73.8704 76.5292C72.7975 76.8823 71.6481 76.7572 70.7124 76.3258C70.5203 76.2393 70.3351 76.1386 70.1624 76.0246C68.5139 74.9457 67.9057 72.8219 70.5139 70.9695C71.8211 70.0395 73.0162 69.0682 73.9406 67.9382C74.9867 66.6582 75.689 65.172 75.822 63.3086C75.9165 61.9911 75.7175 60.665 75.8032 59.3485C75.8901 58.0283 76.3184 56.6467 77.3963 55.8078C77.6879 55.5808 78.0069 55.4115 78.3455 55.2907C78.4879 55.2387 78.6336 55.1962 78.7807 55.1641C79.7497 54.947 80.8279 55.092 81.8077 55.4896C82.0309 55.5792 82.2525 55.6825 82.4634 55.7991C82.933 56.0536 83.3635 56.3654 83.7317 56.7216C86.6287 59.5104 86.5728 64.2241 84.4265 67.5318Z" fill="#476C19"/>
<path d="M79.0898 65.8814C77.4462 69.6117 73.9314 72.6295 69.6879 73.9536L69.543 73.5509C73.6654 72.265 77.0787 69.3362 78.673 65.7179C80.159 62.3455 80.0139 58.4576 78.3418 55.2904C78.4837 55.2382 78.63 55.1966 78.7775 55.1635C80.4753 58.428 80.6162 62.4183 79.0898 65.8814Z" fill="#547F20"/>
<path d="M83.6248 62.2681C83.3836 65.0723 82.2365 67.8199 80.3121 70.2109C78.9496 71.9041 77.2195 73.3514 75.2719 74.4606C73.846 75.2754 72.3017 75.9104 70.7037 76.3259C70.5116 76.2395 70.3264 76.1387 70.1538 76.0247C71.9129 75.6143 73.6078 74.933 75.1586 74.0309C77.0065 72.957 78.651 71.5706 79.9521 69.954C81.826 67.6263 82.9421 64.9553 83.1761 62.2302C83.381 59.8546 82.8939 57.5097 81.799 55.4895C82.0222 55.5791 82.2438 55.6824 82.4547 55.799C83.4077 57.7725 83.8198 60.0056 83.6248 62.2681Z" fill="#547F20"/>
<path opacity="0.1" d="M77.8588 61.5543C77.9133 60.7707 77.7614 59.9849 77.782 59.1999C77.8027 58.4148 78.0361 57.5768 78.6867 57.088C79.4336 56.527 80.582 56.5967 81.369 57.1171C82.1558 57.6376 82.605 58.5245 82.7377 59.4183C82.8705 60.3124 82.7196 61.2202 82.5089 62.0987C82.2679 63.1023 81.9333 64.1158 81.2499 64.9169C80.5665 65.7181 79.4676 66.272 78.3864 66.0983C77.4936 65.9548 76.4089 65.0165 76.6326 64.0812C76.7168 63.7285 77.0587 63.4664 77.2684 63.1797C77.6256 62.6917 77.8176 62.1474 77.8588 61.5543Z" fill="white"/>
<path opacity="0.4" d="M75.6664 75.7461C75.0583 76.0693 74.4546 76.3342 73.865 76.5297C72.7921 76.8828 71.6427 76.7577 70.707 76.3263C70.5149 76.2398 70.3297 76.1391 70.157 76.0251C68.5085 74.9462 67.9003 72.8224 70.5085 70.97C71.8157 70.04 73.0109 69.0687 73.9352 67.9387C74.0652 68.7247 74.2568 69.8158 74.485 70.9739C74.5156 71.1315 74.5464 71.2892 74.5792 71.4483C74.7573 72.3236 74.9545 73.2189 75.1621 74.0315C75.2003 74.1781 75.2381 74.3215 75.2754 74.4614C75.4032 74.9331 75.5335 75.3694 75.6664 75.7461Z" fill="#476C19"/>
<path d="M59.906 89.7322L71.9441 88.3407C71.9441 88.3407 72.5469 84.8503 72.9693 79.6743C74.0879 65.9689 73.9425 40.4348 57.9947 36.5574C57.6639 36.4765 57.3258 36.4046 56.9804 36.3436C56.9056 36.3299 56.8331 36.3183 56.7607 36.3064C55.1179 36.0298 53.6038 35.9726 52.2167 36.1067C51.9607 36.1323 51.7074 36.1634 51.4575 36.2026C50.8733 36.2922 50.3134 36.4176 49.7798 36.5782C49.5386 36.6484 49.3026 36.7283 49.0721 36.8135C47.4732 37.4022 46.1027 38.3098 44.955 39.4785C44.7123 39.7266 44.4797 39.9857 44.2552 40.2559C43.9335 40.6465 43.6302 41.0612 43.3491 41.4976C36.006 52.8489 42.585 78.8428 59.906 89.7322Z" fill="#476C19"/>
<path d="M68.3435 88.4571C68.3393 88.5667 68.3357 88.666 68.3315 88.7593L68.9756 88.6849C68.977 88.6182 68.9787 88.5512 68.982 88.4822C69.1193 84.5549 69.5378 72.6065 67.784 60.79C66.0588 49.1501 62.7743 41.0341 57.9913 36.5588C57.6605 36.4779 57.3223 36.406 56.977 36.345C56.9022 36.3313 56.8297 36.3197 56.7573 36.3078C65.199 43.2942 69.2885 61.4925 68.3435 88.4571Z" fill="#547F20"/>
<path d="M65.8141 89.0497L66.4477 88.9764C66.2089 86.5728 65.0754 75.8174 62.7774 64.504C59.8546 50.1348 56.3099 40.6135 52.2094 36.1077C51.9533 36.1333 51.7001 36.1644 51.4501 36.2036C61.2977 46.4203 65.3512 84.3779 65.8141 89.0497Z" fill="#547F20"/>
<path d="M63.4353 89.3249L64.1217 89.2456C53.5944 72.0035 50.2939 58.4434 49.3871 50.0529C48.6351 43.0964 49.3621 38.4667 49.7761 36.5793C49.5348 36.6495 49.2989 36.7294 49.0684 36.8146C48.635 38.9184 48.0316 43.4025 48.7453 50.0647C49.6496 58.4877 52.9446 72.0686 63.4353 89.3249Z" fill="#547F20"/>
<path d="M45.0162 54.3809C46.4654 63.2844 50.4599 76.5097 61.2324 89.5798L61.9695 89.4947C51.1142 76.4462 47.1004 63.207 45.6512 54.3196C44.5377 47.4957 44.7278 42.1447 44.9529 39.4795C44.7102 39.7276 44.4776 39.9867 44.2531 40.2569C44.0642 43.1523 44.0035 48.1651 45.0162 54.3809Z" fill="#547F20"/>
<path opacity="0.4" d="M59.9076 89.7321L71.9458 88.3407C71.9458 88.3407 72.5486 84.8503 72.9709 79.6742C64.534 78.9066 56.4895 73.9137 51.5506 67.2311C46.926 60.9765 44.6542 53.4847 43.7776 45.9975C43.6412 44.834 43.7265 42.9624 43.351 41.4973C36.0077 52.8488 42.5866 78.8427 59.9076 89.7321Z" fill="#476C19"/>
<path opacity="0.1" d="M67.9042 62.2857C70.682 61.1243 70.8612 55.8511 68.3045 50.5077C65.7477 45.1643 61.4232 41.7741 58.6454 42.9355C55.8676 44.0969 55.6884 49.3701 58.2451 54.7135C60.8019 60.0569 65.1264 63.4471 67.9042 62.2857Z" fill="white"/>
<path d="M75.4254 85.1128L75.4208 88.7862L75.4126 94.1643L75.408 97.3764L59.2979 100.607L58.3471 98.6457L57.771 97.456L56.5329 94.8989L54.2469 90.1818L72.0426 85.9226L75.4254 85.1128Z" fill="#D60100"/>
<path d="M75.4196 88.7856L75.4114 94.1637L57.7697 97.4554L56.5317 94.8983L75.4196 88.7856Z" fill="#E8B22B"/>
<path opacity="0.3" d="M75.4241 85.1133L75.4193 88.7868L75.4113 94.1648L75.4067 97.3769L59.2964 100.608L58.3456 98.6466C66.7918 96.5587 70.8487 88.6995 72.0413 85.9233L75.4241 85.1133Z" fill="#A40000"/>
<path d="M83.1828 57.2607C82.9059 58.9117 81.2413 60.1006 79.4029 59.8166C77.4382 59.513 76.1903 57.6603 76.7399 55.8677L79.3078 47.5078L80.6234 43.2268L82.696 43.547L82.9103 48.8733L83.2211 56.6534C83.2285 56.8603 83.2158 57.064 83.1828 57.2607Z" fill="#F6E6AE"/>
<path opacity="0.3" d="M82.9083 48.8735L79.3057 47.508L80.6214 43.2272L82.694 43.5474L82.9083 48.8735Z" fill="#A40000"/>
<path d="M91.5488 36.5251C91.6256 37.318 91.6015 38.116 91.4708 38.8917C91.3877 39.3945 91.2603 39.8785 91.0935 40.3433C90.8268 41.0888 90.4607 41.7831 90.0098 42.4154C89.9408 42.5169 89.8667 42.6167 89.7903 42.7146C89.6744 42.8627 89.5577 43.0044 89.4342 43.1469L89.4323 43.1492C88.929 43.718 88.3569 44.225 87.7218 44.6593C87.7218 44.6593 87.7218 44.6593 87.7196 44.6595C85.7593 45.9984 83.2467 46.6278 80.6544 46.2279C78.034 45.8226 75.8328 44.4407 74.4104 42.5433C74.3935 42.5213 74.3764 42.4973 74.3617 42.475C73.916 41.8704 73.5518 41.2194 73.2766 40.5298L73.2763 40.5277C73.2632 40.4988 73.2528 40.4739 73.2419 40.4447C73.1987 40.3324 73.1575 40.2176 73.1186 40.1025C72.9331 39.5591 72.8002 38.9965 72.7319 38.4177C72.6309 37.6341 72.6461 36.822 72.7827 36.0043C72.8576 35.5589 72.9677 35.1181 73.1092 34.6867C73.2771 34.1785 73.4884 33.6848 73.739 33.2082C74.002 32.7041 74.3092 32.2189 74.6522 31.76C74.7636 31.6145 74.8757 31.4713 74.9926 31.3317C75.45 30.7811 75.964 30.272 76.5226 29.8187C76.923 29.492 77.3464 29.1956 77.7879 28.9314C79.5709 27.865 81.657 27.3391 83.7682 27.6667C85.3224 27.9063 86.71 28.5781 87.8712 29.5325C88.4105 29.9785 88.9029 30.4865 89.3393 31.0402C89.6524 31.4366 89.9366 31.8576 90.1888 32.2977C90.3429 32.5624 90.4842 32.8329 90.6122 33.1092C90.6875 33.2698 90.7582 33.4313 90.8245 33.5953C91.0368 34.114 91.2073 34.6482 91.3329 35.1921C91.4353 35.6323 91.5107 36.0798 91.5488 36.5251Z" fill="#D80100"/>
<path d="M91.5471 36.5252C91.6239 37.3181 91.5998 38.1161 91.4691 38.8917C91.3861 39.3946 91.2587 39.8786 91.0918 40.3434C90.8251 41.0889 90.459 41.7831 90.0081 42.4155C89.2503 42.7965 88.3198 42.9126 87.5303 42.5932C86.7454 42.2754 86.1709 41.4729 86.2608 40.6845C86.1376 41.231 85.5798 41.6736 84.9784 41.6649C84.3192 41.6564 83.7173 41.1067 83.6872 40.4866C83.0683 41.4404 81.8184 41.9866 80.6395 41.8233C79.4625 41.6573 78.4262 40.7885 78.1181 39.7072C78.2039 40.0123 76.3112 40.483 76.0848 40.5157C75.2975 40.6327 74.4757 40.5649 73.7159 40.3288C73.5035 40.2622 73.302 40.1899 73.1169 40.1026C72.9314 39.5592 72.7985 38.9966 72.7302 38.4177C72.6292 37.6342 72.6444 36.8221 72.781 36.0044C72.8559 35.559 72.966 35.1182 73.1076 34.6868C73.2754 34.1786 73.4867 33.6849 73.7373 33.2083C74.0003 32.7042 74.3075 32.219 74.6505 31.7601C74.9733 31.6576 75.3282 31.6013 75.7183 31.602C77.3237 31.6077 78.7416 33.121 78.544 34.6191C79.0792 33.7795 80.1885 33.3013 81.2198 33.4646C82.2508 33.6258 83.1425 34.4177 83.3716 35.3777C83.2837 34.7057 84.1532 34.2141 84.8563 34.3564C85.5616 34.5008 86.0865 35.042 86.5404 35.5719C86.6118 34.1123 88.3216 33.0325 89.8538 33.2791C90.1959 33.333 90.5227 33.443 90.823 33.5951C91.0354 34.1138 91.2058 34.6481 91.3314 35.1919C91.4336 35.6324 91.509 36.0799 91.5471 36.5252Z" fill="#F6E6AE"/>
<path d="M89.4272 43.1494C88.9239 43.7183 88.3517 44.2253 87.7167 44.6596C87.7167 44.6596 87.7167 44.6596 87.7145 44.6598C81.8777 45.1411 76.9657 43.5687 74.3566 42.4755C73.9109 41.8709 73.5467 41.2199 73.2715 40.5303C74.5517 41.1926 81.3341 44.428 89.4272 43.1494Z" fill="#476C19"/>
<path d="M90.1846 32.2982C83.9862 32.7343 78.8713 30.8792 76.5184 29.8192C76.9189 29.4925 77.3423 29.1961 77.7837 28.9319C80.1173 29.8855 84.3446 31.2283 89.3351 31.0405C89.6482 31.4368 89.9324 31.8581 90.1846 32.2982Z" fill="#476C19"/>
<path d="M76.9117 35.7624C77.0144 36.5082 76.4553 37.1871 75.6628 37.2787C74.8703 37.3703 74.1446 36.8399 74.0419 36.0941C73.9392 35.3482 74.4983 34.6693 75.2908 34.5777C76.0831 34.4862 76.809 35.0165 76.9117 35.7624Z" fill="#476C19"/>
<path d="M82.9878 37.0862C83.0906 37.832 82.5314 38.5109 81.7389 38.6025C80.9464 38.6941 80.2208 38.1637 80.1181 37.4179C80.0154 36.672 80.5745 35.9931 81.367 35.9015C82.1595 35.8099 82.8852 36.3405 82.9878 37.0862Z" fill="#476C19"/>
<path d="M89.6499 37.4405C89.7527 38.1864 89.1935 38.8652 88.401 38.9568C87.6085 39.0484 86.8829 38.5181 86.7802 37.7722C86.6775 37.0263 87.2366 36.3475 88.0291 36.2559C88.8216 36.1643 89.5472 36.6946 89.6499 37.4405Z" fill="#476C19"/>
<path opacity="0.3" d="M91.4687 38.8926C91.3844 39.3949 91.2564 39.8784 91.0912 40.3442C90.7827 41.2075 90.3386 42.0037 89.7875 42.7156C87.7656 45.3254 84.2878 46.7897 80.6525 46.2281C78.0306 45.8229 75.83 44.4403 74.4069 42.5428C75.4542 42.6246 76.503 42.6588 77.5523 42.6152C80.0518 42.508 82.5803 41.9098 84.6015 40.5343C86.7259 39.0888 88.1752 36.7999 88.5222 34.3509C88.6666 33.3247 88.6172 32.2763 88.3898 31.2623C88.2854 30.7949 87.8694 30.0934 87.8675 29.5338C89.0333 30.493 89.967 31.7338 90.6081 33.1091C90.923 33.7791 91.1653 34.4777 91.3302 35.1922C91.4328 35.6335 91.5066 36.0803 91.5465 36.5259C91.6223 37.3184 91.5991 38.1158 91.4687 38.8926Z" fill="#A40000"/>
</svg>
