<svg width="385" height="131" viewBox="0 0 385 131" fill="none" xmlns="http://www.w3.org/2000/svg">
<path d="M384.055 0.00012207H0V130.194H384.055V0.00012207Z" fill="#2E7D32"/>
<path d="M296.961 24.6184C296.961 24.6184 298.961 22.773 295.258 21.3049C291.554 19.8368 281.584 19.3942 278.037 23.0209C274.49 26.6478 273.025 30.1709 275.412 32.5823C277.798 34.9941 284.052 35.8182 284.102 34.9587C284.151 34.0989 280.667 34.6129 279.328 33.2029C277.989 31.7929 277.691 26.86 281.336 25.8727C284.981 24.8853 290.904 26.8934 292.591 27.1293C294.278 27.3655 298.3 27.3199 296.961 24.6184Z" fill="#D60100"/>
<path d="M297.189 24.3517C297.189 24.3517 295.638 24.4264 295.349 24.9883C295.061 25.5503 295.498 26.6879 296.474 26.922C297.45 27.1561 297.903 27.5513 299.021 28.4434C300.138 29.3355 301.817 31.9891 301.56 32.9729L302.675 32.7211C302.675 32.7211 301.788 28.582 299.152 26.9163C299.152 26.9163 298.263 25.0547 297.189 24.3517Z" fill="#476C19"/>
<path d="M23.3396 88.6907C23.3396 88.6907 20.2839 89.4664 22.6341 92.4405C24.9842 95.4147 33.686 100.253 39.3442 98.5576C45.0025 96.8619 48.7111 94.3335 48.1892 91.0935C47.6674 87.8535 42.5791 84.3252 41.9526 85.0796C41.3257 85.8339 44.8198 86.9211 45.0738 88.7901C45.3278 90.6592 42.2564 95.2454 38.2967 94.5142C34.3373 93.7831 30.3489 89.3333 28.986 88.3691C27.6227 87.4051 23.9604 85.6558 23.3396 88.6907Z" fill="#D60100"/>
<path d="M22.9575 88.8322C22.9575 88.8322 24.4081 89.4551 25.0491 89.0762C25.6901 88.6974 26.0656 87.4753 25.343 86.8296C24.6204 86.1838 24.4788 85.625 24.0741 84.3223C23.6698 83.0193 23.9505 79.8762 24.8484 79.1023L23.6714 78.8333C23.6714 78.8333 21.6697 82.9654 22.9215 85.6427C22.9215 85.6427 22.4633 87.7191 22.9575 88.8322Z" fill="#476C19"/>
<path d="M357.054 32.7858C357.054 33.6547 356.185 34.3591 355.113 34.3591C354.042 34.3591 353.173 33.6547 353.173 32.7858C353.173 31.9169 354.042 31.2125 355.113 31.2125C356.185 31.2125 357.054 31.9169 357.054 32.7858Z" fill="#D60100"/>
<path d="M355.107 24.7663C355.107 24.7663 352.656 24.9204 352.816 26.2607C352.977 27.6009 355.107 30.7472 355.107 30.7472C355.107 30.7472 357.237 27.6006 357.398 26.2607C357.559 24.9202 355.107 24.7663 355.107 24.7663Z" fill="white"/>
<path d="M347.377 27.7851C347.377 27.7851 345.997 29.4352 347.39 30.169C348.782 30.9027 353.144 31.5141 353.144 31.5141C353.144 31.5141 351.438 28.202 350.246 27.2646C349.054 26.3272 347.377 27.7851 347.377 27.7851Z" fill="white"/>
<path d="M345.469 34.5706C345.469 34.5706 346.2 36.4743 347.775 36.0488C349.351 35.6233 352.66 33.2397 352.66 33.2397C352.66 33.2397 348.403 32.256 346.756 32.4273C345.109 32.5987 345.469 34.5706 345.469 34.5706Z" fill="white"/>
<path d="M350.82 40.012C350.82 40.012 353.111 40.7356 353.683 39.4717C354.256 38.2077 354.02 34.6235 354.02 34.6235C354.02 34.6235 350.417 36.7089 349.555 37.8598C348.693 39.0108 350.82 40.012 350.82 40.012Z" fill="white"/>
<path d="M359.403 40.0121C359.403 40.0121 361.529 39.0109 360.667 37.86C359.805 36.709 356.202 34.6236 356.202 34.6236C356.202 34.6236 355.967 38.2078 356.539 39.4718C357.112 40.7357 359.403 40.0121 359.403 40.0121Z" fill="white"/>
<path d="M364.757 34.5708C364.757 34.5708 365.117 32.5986 363.47 32.4275C361.823 32.2564 357.565 33.2399 357.565 33.2399C357.565 33.2399 360.875 35.6238 362.45 36.049C364.026 36.4745 364.757 34.5708 364.757 34.5708Z" fill="white"/>
<path d="M362.848 27.7851C362.848 27.7851 361.171 26.3272 359.979 27.2646C358.787 28.202 357.081 31.5141 357.081 31.5141C357.081 31.5141 361.443 30.9027 362.836 30.169C364.228 29.4352 362.848 27.7851 362.848 27.7851Z" fill="white"/>
<path d="M37.0099 27.2613C38.1254 27.2613 39.0296 26.5281 39.0296 25.6237C39.0296 24.7193 38.1254 23.9861 37.0099 23.9861C35.8945 23.9861 34.9902 24.7193 34.9902 25.6237C34.9902 26.5281 35.8945 27.2613 37.0099 27.2613Z" fill="#D60100"/>
<path d="M37.0101 17.2759C37.0101 17.2759 34.4582 17.4363 34.6256 18.8312C34.7929 20.2261 37.0101 23.5013 37.0101 23.5013C37.0101 23.5013 39.2273 20.2261 39.3946 18.8312C39.5619 17.4361 37.0101 17.2759 37.0101 17.2759Z" fill="white"/>
<path d="M28.9593 20.4189C28.9593 20.4189 27.5228 22.1364 28.9724 22.9001C30.4218 23.6638 34.9624 24.3005 34.9624 24.3005C34.9624 24.3005 33.1868 20.853 31.9459 19.877C30.705 18.9013 28.9593 20.4189 28.9593 20.4189Z" fill="white"/>
<path d="M26.9703 27.4811C26.9703 27.4811 27.7311 29.4627 29.3712 29.02C31.0113 28.5774 34.4559 26.0959 34.4559 26.0959C34.4559 26.0959 30.0244 25.072 28.3098 25.2501C26.5952 25.4282 26.9703 27.4811 26.9703 27.4811Z" fill="white"/>
<path d="M32.5403 33.1456C32.5403 33.1456 34.9251 33.8989 35.5208 32.5832C36.1166 31.2674 35.8715 27.5366 35.8715 27.5366C35.8715 27.5366 32.1212 29.7074 31.2242 30.9055C30.3273 32.1035 32.5403 33.1456 32.5403 33.1456Z" fill="white"/>
<path d="M41.4764 33.1456C41.4764 33.1456 43.6897 32.1035 42.7924 30.9055C41.8951 29.7074 38.1451 27.5366 38.1451 27.5366C38.1451 27.5366 37.9001 31.2674 38.4958 32.5832C39.0915 33.8989 41.4764 33.1456 41.4764 33.1456Z" fill="white"/>
<path d="M47.0495 27.4812C47.0495 27.4812 47.4246 25.4283 45.71 25.2502C43.9954 25.0721 39.564 26.096 39.564 26.096C39.564 26.096 43.0086 28.5775 44.6487 29.0201C46.2891 29.4625 47.0495 27.4812 47.0495 27.4812Z" fill="white"/>
<path d="M45.0639 20.4189C45.0639 20.4189 43.3181 18.9013 42.0776 19.877C40.8366 20.8527 39.061 24.3002 39.061 24.3002C39.061 24.3002 43.6017 23.6638 45.051 22.9001C46.5004 22.1364 45.0639 20.4189 45.0639 20.4189Z" fill="white"/>
<path d="M92.3068 26.8944L93.512 20.3889L94.4398 26.6791L97.3263 24.6548L95.4138 27.748L102.353 28.2536L95.9171 29.0991L97.8899 31.1044L94.3573 29.3842L93.0171 35.2625L92.5393 29.7061L89.7427 32.1485L91.774 28.8661L84.7656 28.2841L90.7672 27.5217L88.6229 25.0881L92.3068 26.8944Z" fill="white"/>
<path d="M350.212 95.1976L351.632 87.532L352.725 94.9437L356.126 92.5586L353.873 96.2032L362.049 96.7993L354.466 97.7953L356.79 100.158L352.628 98.1314L351.049 105.057L350.486 98.5103L347.191 101.388L349.584 97.5208L341.326 96.8349L348.398 95.9366L345.871 93.0692L350.212 95.1976Z" fill="white"/>
<path d="M284.878 52.4684L285.946 46.7076L286.767 52.2776L289.323 50.485L287.63 53.2241L293.774 53.6719L288.075 54.4206L289.822 56.1959L286.694 54.6729L285.508 59.878L285.085 54.9577L282.608 57.1205L284.407 54.2141L278.201 53.6988L283.515 53.0236L281.617 50.8689L284.878 52.4684Z" fill="white"/>
<path d="M366.84 60.6668L367.471 57.2598L367.957 60.554L369.469 59.494L368.467 61.1138L372.101 61.3787L368.731 61.8213L369.764 62.8715L367.914 61.9708L367.212 65.0491L366.962 62.1392L365.497 63.4183L366.561 61.6995L362.891 61.3945L366.034 60.9954L364.911 59.721L366.84 60.6668Z" fill="white"/>
<path d="M47.8739 107.059L48.5053 103.652L48.9909 106.946L50.5025 105.886L49.5012 107.506L53.1349 107.771L49.7645 108.213L50.7976 109.264L48.9478 108.363L48.2458 111.441L47.996 108.531L46.5312 109.81L47.5952 108.091L43.9248 107.787L47.0679 107.387L45.9448 106.113L47.8739 107.059Z" fill="white"/>
<path d="M18.1674 34.5087L19.0104 29.9579L19.6594 34.3579L21.6788 32.9419L20.3409 35.1058L25.1944 35.4594L20.6929 36.0507L22.0728 37.4534L19.6016 36.2502L18.6642 40.3622L18.3302 36.4754L16.3738 38.1838L17.7949 35.8877L12.8926 35.4807L17.0906 34.9475L15.5905 33.2453L18.1674 34.5087Z" fill="white"/>
<path d="M364.79 50.6374C366.519 50.6374 367.921 49.5011 367.921 48.0994C367.921 46.6976 366.519 45.5613 364.79 45.5613C363.062 45.5613 361.66 46.6976 361.66 48.0994C361.66 49.5011 363.062 50.6374 364.79 50.6374Z" fill="#D60100"/>
<path d="M14.1185 56.4393C15.8473 56.4393 17.2487 55.303 17.2487 53.9013C17.2487 52.4996 15.8473 51.3633 14.1185 51.3633C12.3897 51.3633 10.9883 52.4996 10.9883 53.9013C10.9883 55.303 12.3897 56.4393 14.1185 56.4393Z" fill="#D60100"/>
<path d="M336.666 105.447C336.932 104.273 335.973 103.147 334.525 102.932C333.078 102.717 331.689 103.494 331.423 104.668C331.158 105.841 332.116 106.968 333.564 107.183C335.012 107.398 336.401 106.621 336.666 105.447Z" fill="#476C19"/>
<path d="M66.4718 26.2329C67.9438 26.2329 69.137 25.2654 69.137 24.0719C69.137 22.8784 67.9438 21.9109 66.4718 21.9109C64.9999 21.9109 63.8066 22.8784 63.8066 24.0719C63.8066 25.2654 64.9999 26.2329 66.4718 26.2329Z" fill="#476C19"/>
<path d="M366.315 88.3752L362.908 81.5116L365.552 80.9257L372.936 91.16L368.462 92.1516L366.315 88.3752Z" fill="#476C19"/>
<path d="M105.006 107.148L96.457 104.561L97.7053 102.583L112.006 105.061L109.893 108.408L105.006 107.148Z" fill="#476C19"/>
<path d="M272.053 94.1391L276.659 97.062L278.361 92.1906L276.558 90.1609L272.053 94.1391Z" fill="#D60100"/>
<path d="M12.7686 107.062L17.3744 109.984L19.0765 105.113L17.2742 103.084L12.7686 107.062Z" fill="#D60100"/>
<path d="M27.4341 123.369L23.3228 120.042H27.4341H31.5454L27.4341 123.369Z" fill="#D60100"/>
<path d="M54.8652 123.369L50.7539 120.042H54.8652H58.9768L54.8652 123.369Z" fill="white"/>
<path d="M82.2988 123.369L78.1875 120.042H82.2988H86.4101L82.2988 123.369Z" fill="#D60100"/>
<path d="M109.725 123.369L105.613 120.042H109.725H113.836L109.725 123.369Z" fill="white"/>
<path d="M137.158 123.369L133.047 120.042H137.158H141.27L137.158 123.369Z" fill="#D60100"/>
<path d="M164.59 123.369L160.479 120.042H164.59H168.701L164.59 123.369Z" fill="white"/>
<path d="M192.021 123.369L187.91 120.042H192.021H196.133L192.021 123.369Z" fill="#D60100"/>
<path d="M219.453 123.369L215.342 120.042H219.453H223.565L219.453 123.369Z" fill="white"/>
<path d="M246.885 123.369L242.773 120.042H246.885H250.996L246.885 123.369Z" fill="#D60100"/>
<path d="M274.312 123.369L270.201 120.042H274.312H278.424L274.312 123.369Z" fill="white"/>
<path d="M301.746 123.369L297.635 120.042H301.746H305.858L301.746 123.369Z" fill="#D60100"/>
<path d="M329.176 123.369L325.064 120.042H329.176H333.287L329.176 123.369Z" fill="white"/>
<path d="M356.61 123.369L352.498 120.042H356.61H360.721L356.61 123.369Z" fill="#D60100"/>
<path d="M384.055 123.355V120.042H379.928L384.04 123.368L384.055 123.355Z" fill="white"/>
<path d="M0 123.355V120.042H4.12704L0.015415 123.368L0 123.355Z" fill="white"/>
<path d="M13.7155 119.095L0 130.195H13.7155H27.4313L13.7155 119.095Z" fill="#476C19"/>
<path d="M13.7173 122.981L9.60596 126.308H13.7173H17.8289L13.7173 122.981Z" fill="#E8B22B"/>
<path d="M41.1474 119.095L27.4316 130.195H41.1474H54.8629L41.1474 119.095Z" fill="#D60100"/>
<path d="M41.1468 122.981L37.0352 126.308H41.1468H45.2581L41.1468 122.981Z" fill="#E8B22B"/>
<path d="M68.581 119.095L54.8652 130.195H68.581H82.2965L68.581 119.095Z" fill="#476C19"/>
<path d="M68.5804 122.981L64.4688 126.308H68.5804H72.6917L68.5804 122.981Z" fill="#E8B22B"/>
<path d="M96.0107 119.095L82.2949 130.195H96.0107H109.726L96.0107 119.095Z" fill="#D60100"/>
<path d="M96.014 122.981L91.9023 126.308H96.014H100.125L96.014 122.981Z" fill="#E8B22B"/>
<path d="M123.444 119.095L109.729 130.195H123.444H137.16L123.444 119.095Z" fill="#476C19"/>
<path d="M123.442 122.981L119.33 126.308H123.442H127.553L123.442 122.981Z" fill="#E8B22B"/>
<path d="M150.875 119.095L137.159 130.195H150.875H164.59L150.875 119.095Z" fill="#D60100"/>
<path d="M150.875 122.981L146.764 126.308H150.875H154.987L150.875 122.981Z" fill="#E8B22B"/>
<path d="M178.303 119.095L164.587 130.195H178.303H192.018L178.303 119.095Z" fill="#476C19"/>
<path d="M178.305 122.981L174.193 126.308H178.305H182.416L178.305 122.981Z" fill="#E8B22B"/>
<path d="M205.732 119.095L192.017 130.195H205.732H219.448L205.732 119.095Z" fill="#D60100"/>
<path d="M205.734 122.981L201.622 126.308H205.734H209.845L205.734 122.981Z" fill="#E8B22B"/>
<path d="M233.169 119.095L219.453 130.195H233.169H246.884L233.169 119.095Z" fill="#476C19"/>
<path d="M233.17 122.981L229.059 126.308H233.17H237.282L233.17 122.981Z" fill="#E8B22B"/>
<path d="M260.6 119.095L246.884 130.195H260.6H274.315L260.6 119.095Z" fill="#D60100"/>
<path d="M260.597 122.981L256.485 126.308H260.597H264.708L260.597 122.981Z" fill="#E8B22B"/>
<path d="M288.033 119.095L274.317 130.195H288.033H301.749L288.033 119.095Z" fill="#476C19"/>
<path d="M288.029 122.981L283.917 126.308H288.029H292.14L288.029 122.981Z" fill="#E8B22B"/>
<path d="M315.459 119.095L301.743 130.195H315.459H329.175L315.459 119.095Z" fill="#D60100"/>
<path d="M315.458 122.981L311.347 126.308H315.458H319.569L315.458 122.981Z" fill="#E8B22B"/>
<path d="M342.89 119.095L329.175 130.195H342.89H356.606L342.89 119.095Z" fill="#476C19"/>
<path d="M342.89 122.981L338.778 126.308H342.89H347.001L342.89 122.981Z" fill="#E8B22B"/>
<path d="M370.324 119.095L356.608 130.195H370.324H384.04L370.324 119.095Z" fill="#D60100"/>
<path d="M370.323 122.981L366.212 126.308H370.323H374.435L370.323 122.981Z" fill="#E8B22B"/>
<path d="M356.623 6.82684L360.735 10.1541H356.623H352.512L356.623 6.82684Z" fill="#D60100"/>
<path d="M329.192 6.82684L333.303 10.1541H329.192H325.08L329.192 6.82684Z" fill="white"/>
<path d="M301.758 6.82684L305.869 10.1541H301.758H297.646L301.758 6.82684Z" fill="#D60100"/>
<path d="M274.331 6.82684L278.443 10.1541H274.331H270.22L274.331 6.82684Z" fill="white"/>
<path d="M246.896 6.82684L251.008 10.1541H246.896H242.785L246.896 6.82684Z" fill="#D60100"/>
<path d="M219.465 6.82684L223.576 10.1541H219.465H215.354L219.465 6.82684Z" fill="white"/>
<path d="M192.038 6.82684L196.15 10.1541H192.038H187.927L192.038 6.82684Z" fill="#D60100"/>
<path d="M164.604 6.82684L168.716 10.1541H164.604H160.493L164.604 6.82684Z" fill="white"/>
<path d="M137.171 6.82684L141.283 10.1541H137.171H133.06L137.171 6.82684Z" fill="#D60100"/>
<path d="M109.741 6.82684L113.853 10.1541H109.741H105.63L109.741 6.82684Z" fill="white"/>
<path d="M82.3076 6.82684L86.4189 10.1541H82.3076H78.1963L82.3076 6.82684Z" fill="#D60100"/>
<path d="M54.8779 6.82684L58.9895 10.1541H54.8779H50.7666L54.8779 6.82684Z" fill="white"/>
<path d="M27.4482 6.82684L31.5598 10.1541H27.4482H23.3369L27.4482 6.82684Z" fill="#D60100"/>
<path d="M0.00195312 6.84014V10.1531H4.12899L0.0173681 6.82764L0.00195312 6.84014Z" fill="white"/>
<path d="M384.055 6.84014V10.1531H379.928L384.04 6.82764L384.055 6.84014Z" fill="white"/>
<path d="M370.337 11.1011L384.052 0.0012207H370.337H356.621L370.337 11.1011Z" fill="#476C19"/>
<path d="M370.338 7.21482L374.449 3.88757H370.338H366.227L370.338 7.21482Z" fill="#E8B22B"/>
<path d="M342.91 11.1011L356.626 0.0012207H342.91H329.194L342.91 11.1011Z" fill="#D60100"/>
<path d="M342.909 7.21482L347.02 3.88757H342.909H338.798L342.909 7.21482Z" fill="#E8B22B"/>
<path d="M315.477 11.1011L329.192 0.00128174H315.477H301.761L315.477 11.1011Z" fill="#476C19"/>
<path d="M315.476 7.21482L319.587 3.88757H315.476H311.364L315.476 7.21482Z" fill="#E8B22B"/>
<path d="M288.043 11.1011L301.758 0.0012207H288.043H274.327L288.043 11.1011Z" fill="#D60100"/>
<path d="M288.042 7.21482L292.153 3.88757H288.042H283.931L288.042 7.21482Z" fill="#E8B22B"/>
<path d="M260.615 11.1011L274.331 0.0012207H260.615H246.899L260.615 11.1011Z" fill="#476C19"/>
<path d="M260.617 7.21482L264.729 3.88757H260.617H256.506L260.617 7.21482Z" fill="#E8B22B"/>
<path d="M233.184 11.1014L246.899 0.00152588H233.184H219.468L233.184 11.1014Z" fill="#D60100"/>
<path d="M233.184 7.21482L237.295 3.88757H233.184H229.072L233.184 7.21482Z" fill="#E8B22B"/>
<path d="M205.752 11.1011L219.467 0.0012207H205.752H192.036L205.752 11.1011Z" fill="#476C19"/>
<path d="M205.752 7.21482L209.864 3.88757H205.752H201.641L205.752 7.21482Z" fill="#E8B22B"/>
<path d="M178.32 11.1011L192.036 0.0012207H178.32H164.604L178.32 11.1011Z" fill="#D60100"/>
<path d="M178.318 7.21482L182.429 3.88757H178.318H174.206L178.318 7.21482Z" fill="#E8B22B"/>
<path d="M150.889 11.1011L164.604 0.00128174H150.889H137.173L150.889 11.1011Z" fill="#476C19"/>
<path d="M150.887 7.21482L154.998 3.88757H150.887H146.775L150.887 7.21482Z" fill="#E8B22B"/>
<path d="M123.461 11.1011L137.176 0.0012207H123.461H109.745L123.461 11.1011Z" fill="#D60100"/>
<path d="M123.458 7.21482L127.57 3.88757H123.458H119.347L123.458 7.21482Z" fill="#E8B22B"/>
<path d="M96.0254 11.1011L109.741 0.0012207H96.0254H82.3096L96.0254 11.1011Z" fill="#476C19"/>
<path d="M96.0247 7.21482L100.136 3.88757H96.0247H91.9131L96.0247 7.21482Z" fill="#E8B22B"/>
<path d="M68.5918 11.1011L82.3073 0.00128174H68.5918H54.876L68.5918 11.1011Z" fill="#D60100"/>
<path d="M68.598 7.21482L72.7093 3.88757H68.598H64.4863L68.598 7.21482Z" fill="#E8B22B"/>
<path d="M41.1665 11.1011L54.882 0.0012207H41.1665H27.4507L41.1665 11.1011Z" fill="#476C19"/>
<path d="M41.1663 7.21482L45.2776 3.88757H41.1663H37.0547L41.1663 7.21482Z" fill="#E8B22B"/>
<path d="M13.7329 11.1011L27.4484 0.0012207H13.7329H0.0170898L13.7329 11.1011Z" fill="#D60100"/>
<path d="M13.7303 7.21482L17.8416 3.88757H13.7303H9.61865L13.7303 7.21482Z" fill="#E8B22B"/>
<path d="M46.0347 14.9645C41.7418 15.0783 38.4061 18.8533 36.9282 23.7552C40.2694 23.4593 43.7402 23.3886 47.2525 23.5631C50.802 23.7396 54.2865 24.1556 57.6203 24.7891C55.3513 19.2078 50.789 14.8384 46.0347 14.9645Z" fill="#F28D15"/>
<path d="M47.7924 22.0036C49.5902 22.1192 51.3615 22.4831 53.105 22.8857C53.8285 23.0528 54.5411 23.2414 55.2412 23.4691C55.4137 21.9511 54.4854 19.8852 52.6617 18.0957C50.0654 15.5481 46.6405 14.5272 45.0121 15.8153C43.5513 16.9709 44.0335 19.5919 46.0221 21.9583C46.6124 21.953 47.203 21.9657 47.7924 22.0036Z" fill="#FAB316"/>
<path d="M74.2357 30.5274C73.7551 30.2587 73.2555 29.9928 72.7507 29.7369C68.4091 27.5369 63.228 25.855 57.6197 24.7894C54.2859 24.1559 50.8014 23.7399 47.2519 23.5635C43.7396 23.3889 40.2688 23.4596 36.9276 23.7555C28.5727 24.4955 21.0317 26.649 15.7028 29.9359C10.7352 32.9999 8.01511 36.7878 7.8365 40.89C7.6123 46.04 11.4252 51.0768 18.573 55.0726C19.0557 55.3426 19.5577 55.6099 20.0649 55.867C25.4621 58.6019 32.1617 60.5319 39.3667 61.4749C39.3397 61.2857 39.3125 61.0965 39.2853 60.9073C32.4084 60.0233 26.0188 58.2549 20.857 55.7644C20.365 55.527 19.8781 55.2802 19.4099 55.0308C12.4772 51.3404 8.77895 46.6887 8.99643 41.9323C9.1696 38.1436 11.8079 34.6453 16.6261 31.8156C23.8617 27.5659 35.301 25.3658 47.2264 25.9302C56.4607 26.3673 65.2441 28.3922 71.9583 31.6318C72.448 31.868 72.9326 32.1136 73.3987 32.3618C80.3313 36.052 84.0295 40.7038 83.812 45.4602C83.639 49.2487 81.0008 52.7469 76.1827 55.5767C72.7667 57.5829 68.4132 59.1317 63.5147 60.1492C63.5558 60.1932 63.5993 60.2357 63.6401 60.2799C64.1538 60.289 64.6702 60.3161 65.1878 60.3538C69.7729 59.2554 73.8519 57.6709 77.106 55.6638C82.0735 52.5998 84.7934 48.812 84.9718 44.7099C85.1961 39.5599 81.3832 34.523 74.2357 30.5274Z" fill="#FFE04E"/>
<path d="M35.4963 58.7499C26.4543 55.7734 20.254 49.8575 20.4706 43.4437C20.7612 34.8355 32.4972 28.5942 46.6836 29.5033C60.87 30.4123 72.1347 38.1276 71.844 46.7357C71.6498 52.4893 66.3385 57.1818 58.6037 59.3923C58.7098 59.4763 58.8195 59.5572 58.9243 59.6424C60.1739 59.4561 61.4448 59.3515 62.7306 59.3329C62.9978 59.6008 63.2571 59.8741 63.5137 60.1491C68.4122 59.1317 72.7657 57.5829 76.1817 55.5766C80.9998 52.7469 83.6379 49.2486 83.811 45.4601C84.0285 40.7037 80.3303 36.0519 73.3976 32.3617C72.9316 32.1136 72.4469 31.868 71.9573 31.6317C65.243 28.3921 56.4597 26.3673 47.2253 25.9302C35.3 25.3657 23.8606 27.5659 16.625 31.8155C11.8069 34.6452 9.16857 38.1436 8.9954 41.9322C8.77792 46.6885 12.4762 51.3404 19.4089 55.0306C19.8771 55.28 20.364 55.5269 20.856 55.7642C26.0178 58.2548 32.4074 60.0232 39.2843 60.9072C39.275 60.8426 39.2658 60.7779 39.2565 60.7133C37.8763 60.1949 36.6123 59.5305 35.4963 58.7499Z" fill="#FAB316"/>
<path d="M71.8492 46.7357C72.1399 38.1275 60.8751 30.4123 46.6887 29.5032C32.5023 28.5942 20.7664 34.8355 20.4757 43.4437C20.2592 49.8574 26.4594 55.7733 35.5014 58.7499C32.3306 56.5322 30.3639 53.3793 30.3705 49.979C29.8416 49.7693 29.4506 49.105 29.3426 48.0853C28.8796 47.3932 28.632 46.6081 28.5796 45.8711C28.3046 45.0585 28.1702 44.2226 28.199 43.374C28.342 39.1376 32.4368 35.7173 38.3059 34.2768C40.7983 33.6649 43.6142 33.4075 46.5784 33.597C51.164 33.8933 55.3178 35.1989 58.4412 37.1152C62.0909 39.3565 64.3342 42.4297 64.2236 45.6819C64.1846 46.822 63.8567 47.9022 63.2873 48.9016C63.0801 49.5349 62.717 50.1677 62.2039 50.7033C61.9104 51.6909 61.4033 52.2836 60.8437 52.4066C60.3288 55.202 58.4938 57.6111 55.8494 59.3108C56.5322 59.1351 57.2221 58.9812 57.9197 58.8545C58.1539 59.0297 58.3807 59.2115 58.6088 59.3922C66.3436 57.1817 71.6549 52.4893 71.8492 46.7357Z" fill="#F28D15"/>
<path d="M29.44 43.4749C30.5411 42.6804 31.9184 43.4369 32.5162 45.1646C32.5172 45.1677 32.518 45.1708 32.519 45.1739C32.9616 45.2272 33.4728 45.0327 34.038 44.3857C35.6203 42.5748 34.6089 40.589 34.6089 40.589C34.6089 40.589 37.1158 39.2797 36.4041 36.9693C37.0733 36.4079 37.8008 35.9023 38.5835 35.4681C41.3563 34.8272 44.4347 34.5954 47.6254 34.8681C50.2556 35.0934 52.7194 35.6455 54.9247 36.4458L54.9276 36.446C55.8076 37.0879 56.5953 37.8223 57.2762 38.6289C56.1472 40.7944 58.3794 42.4827 58.3794 42.4827C58.3794 42.4827 57.0185 44.2795 58.2454 46.3143C58.6836 47.0411 59.1516 47.3137 59.5976 47.3312C59.5991 47.3283 59.6005 47.3253 59.6021 47.3224C60.5081 45.7146 62.0041 45.187 62.9434 46.1439C63.5349 46.7466 63.6347 47.8248 63.2821 48.9019C63.8514 47.9024 64.1795 46.8223 64.2183 45.6821C64.329 42.4299 62.0857 39.3567 58.436 37.1155C55.3126 35.1991 51.1588 33.8935 46.5731 33.5972C43.6089 33.4076 40.793 33.6651 38.3006 34.277C32.4316 35.7175 28.3368 39.1379 28.1938 43.3742C28.1649 44.2229 28.2993 45.0588 28.5744 45.8713C28.5025 44.8574 28.8024 43.9349 29.44 43.4749Z" fill="#361310"/>
<path d="M71.717 78.1066C72.6754 84.04 73.0599 93.848 66.9795 100.025C67.2864 100.571 67.6162 101.123 67.9729 101.678C74.3888 94.8832 73.192 83.7745 71.9825 77.9803C71.9372 77.9572 71.8941 77.9329 71.8519 77.9073L71.717 78.1066Z" fill="#361310"/>
<path d="M27.2518 85.1942C26.5835 85.0666 25.8528 84.8752 25.0487 84.5989C24.6205 84.4517 24.2281 84.2937 23.8567 84.1298C22.852 95.0395 27.7906 103.921 40.5719 106.651C40.3618 105.765 40.1183 104.929 39.8561 104.154C30.0234 100.63 27.5159 91.7871 27.2518 85.1942Z" fill="#361310"/>
<path d="M59.1567 104.534C57.4569 105.034 55.5504 105.385 53.4089 105.553C52.2031 105.648 51.0532 105.694 49.9528 105.698C49.7618 106.273 49.6254 106.888 49.5312 107.519C51.1001 107.52 52.7454 107.455 54.4722 107.319C56.8979 107.128 59.016 106.698 60.8695 106.077C60.3322 105.513 59.7577 104.985 59.1567 104.534Z" fill="#361310"/>
<path d="M27.0308 77.2728C27.2338 77.4166 27.4556 77.5539 27.6878 77.6841C27.6716 77.3361 27.63 77.0058 27.5689 76.6901L27.0308 77.2728Z" fill="#361310"/>
<path d="M42.2847 115.763C40.0159 118.359 35.9584 119.851 35.96 119.849C35.9605 119.849 36.3158 121.253 40.5634 121.554C44.8166 121.865 46.5766 117.664 46.5708 117.66C46.5764 117.957 46.5817 118.254 46.5867 118.551C47.099 118.292 47.6111 118.032 48.1229 117.772C48.2171 117.092 48.1178 116.353 47.964 115.705C45.9993 115.927 43.6689 115.846 42.2847 115.763Z" fill="#361310"/>
<path d="M39.856 104.154C40.1182 104.928 40.3617 105.764 40.5718 106.651C41.1917 109.267 41.5108 112.336 41.0745 115.675C41.0744 115.674 41.544 115.719 42.2824 115.763C43.6666 115.845 45.997 115.927 47.9617 115.705C48.6479 115.628 49.2896 115.514 49.8304 115.349C49.858 115.338 48.9844 111.168 49.5296 107.519C49.6237 106.888 49.7602 106.273 49.9511 105.698C45.9362 105.712 42.6096 105.141 39.856 104.154Z" fill="#5B3952"/>
<path d="M67.7845 112.78C68.3565 112.69 68.9285 112.601 69.5004 112.511C69.3179 112.259 69.1353 112.009 68.9525 111.758C68.9526 111.749 72.9933 114.243 76.2118 111.442C79.4251 108.624 78.7913 107.176 78.7928 107.18C78.7928 107.185 74.6119 108.365 71.1434 107.583C70.1022 108.495 68.3092 109.978 66.6094 110.979C66.8975 111.604 67.285 112.272 67.7845 112.78Z" fill="#361310"/>
<path d="M59.1572 104.533C59.7582 104.985 60.3327 105.513 60.8701 106.077C63.2624 108.588 64.9189 111.784 64.8984 111.806C65.433 111.619 66.015 111.328 66.6085 110.978C68.3083 109.978 70.1013 108.495 71.1425 107.582C71.6978 107.096 72.0396 106.771 72.0383 106.769C70.4046 105.122 69.0661 103.386 67.9697 101.678C67.6131 101.122 67.2833 100.57 66.9763 100.024C65.0678 101.963 62.5228 103.544 59.1572 104.533Z" fill="#5B3952"/>
<path d="M38.3585 64.3269C39.2239 63.9707 40.2039 64.0773 40.9511 64.5525C41.056 64.4539 41.1629 64.358 41.2688 64.2607C40.7411 63.8528 40.1897 63.3863 39.5608 62.8269C39.5009 62.3979 39.4374 61.9692 39.3764 61.5403C38.6437 61.8014 37.9572 62.0838 37.3213 62.3829C37.3227 62.3879 37.58 63.2875 38.3585 64.3269Z" fill="#5B3952"/>
<path d="M39.5593 62.8272C40.1881 63.3865 40.7395 63.853 41.2674 64.261C42.0581 63.535 42.8757 62.8465 43.7216 62.2024C44.1306 62.2669 44.5353 62.3406 44.9354 62.4232C45.1619 62.2609 45.3913 62.1035 45.6214 61.9473C45.287 61.9371 44.9513 61.9216 44.6129 61.8947C42.7015 61.7424 40.8982 61.3304 39.2563 60.7137C39.2657 60.7784 39.2749 60.843 39.2842 60.9076C39.3114 61.0968 39.3386 61.286 39.3656 61.4752C39.3687 61.497 39.3719 61.5188 39.375 61.5406C39.436 61.9695 39.4994 62.3981 39.5593 62.8272Z" fill="#F4A257"/>
<path d="M27.2515 85.1938C27.5155 91.7867 30.023 100.629 39.8558 104.154C42.6094 105.141 45.936 105.712 49.951 105.698C51.0513 105.694 52.2013 105.648 53.4071 105.553C55.5486 105.384 57.4551 105.033 59.1549 104.533C62.5204 103.544 65.0654 101.963 66.9739 100.024C73.0543 93.8476 72.6698 84.0396 71.7114 78.1062L70.5686 79.7939C70.9347 85.7157 70.3427 92.9141 66.4984 97.9991C63.5817 101.859 59.1619 104.047 53.3665 104.502C52.21 104.595 51.0915 104.64 50.0137 104.64C43.189 104.64 37.9054 102.82 34.2818 99.2112C30.148 95.094 29.0558 89.5003 28.8917 85.3895C28.395 85.3709 27.8481 85.3077 27.2515 85.1938Z" fill="#F28D15"/>
<path d="M64.6805 96.4528C62.0157 100.018 58.0698 102.048 52.9487 102.48C51.7652 102.581 50.625 102.631 49.5282 102.631C43.3075 102.631 38.5194 101.022 35.2615 97.8282C31.6511 94.2893 30.57 89.388 30.408 85.3046C30.1099 85.3526 29.7859 85.3826 29.436 85.3915C29.5981 89.4124 30.6661 94.865 34.6847 98.8668C38.7605 102.928 45.0353 104.655 53.3251 104.002C58.9553 103.559 63.2397 101.442 66.0589 97.71C69.6754 92.9302 70.351 86.2183 70.0775 80.5263L69.3287 81.632C69.1546 81.8891 68.956 82.1154 68.7452 82.31C68.6116 87.3608 67.5844 92.5651 64.6805 96.4528Z" fill="#F28D15"/>
<path d="M29.8574 78.6505C30.2282 78.7854 30.5568 78.8931 30.8033 78.97C30.8729 78.4074 30.8901 77.8631 30.8612 77.3374L27.8861 72.4698L28.8303 71.9722C27.3382 69.9375 25.3803 68.5139 24.2023 67.7739C23.6823 68.1762 23.1786 68.6112 22.6992 69.0764C24.7178 69.9284 30.0296 72.7411 29.8574 78.6505Z" fill="#F28D15"/>
<path d="M33.9533 68.0329L34.3146 67.8425C34.6326 67.675 34.744 67.2999 34.5636 67.0047C34.3869 66.7156 34.496 66.3482 34.8074 66.1841L36.3285 65.3825C35.5551 64.534 34.6574 63.8039 33.7143 63.1719C32.8151 63.4259 31.7941 63.7528 30.7163 64.1677C31.7008 65.1435 32.8844 66.4605 33.9533 68.0329Z" fill="#F28D15"/>
<path d="M32.4364 69.1423C31.2522 67.3678 29.8917 65.9165 28.8792 64.9499C27.693 65.5031 26.4798 66.1669 25.3125 66.9616C26.6191 67.8248 28.5266 69.3048 30.0089 71.3511L32.197 70.198C32.1607 69.8307 32.2456 69.4627 32.4364 69.1423Z" fill="#F28D15"/>
<path d="M27.5728 76.6906C27.6339 77.0063 27.6755 77.3366 27.6917 77.6846C28.2134 77.9772 28.7869 78.2334 29.3201 78.445C29.3607 72.7778 24.0508 70.1644 22.3123 69.4636C21.9033 69.881 21.5133 70.3236 21.145 70.7913C21.145 70.7913 21.3719 70.8417 21.7361 70.9576C23.1833 71.418 26.8476 72.9414 27.5728 76.6906Z" fill="#F28D15"/>
<path d="M54.5848 89.5355C53.1685 90.5765 51.5489 91.1071 49.8103 91.1071C49.0385 91.1071 48.2423 91.004 47.4325 90.7928C44.4616 90.0233 41.8293 87.471 40.7243 84.29C40.7175 84.2704 40.713 84.2502 40.7063 84.2306L36.6733 86.3557C37.0377 89.0359 37.9626 91.7362 40.0121 93.6369C42.5686 96.0082 46.6119 96.9159 52.0337 96.335C55.0073 96.0157 57.293 94.7483 59.0235 92.46C61.6497 88.9883 62.5434 83.7034 62.6218 78.3908C61.5977 78.0379 60.5541 77.7882 59.5016 77.6489C59.5071 77.7445 59.5147 77.84 59.5191 77.9356C59.6978 81.7603 58.0594 86.9731 54.5848 89.5355Z" fill="#F28D15"/>
<path d="M49.1161 82.4349L45.8036 84.1804C45.4921 84.3445 45.0965 84.2432 44.9197 83.954C44.7393 83.6589 44.3353 83.5554 44.0175 83.7229L42.8898 84.3171C42.5072 84.5187 42.0832 84.5865 41.6777 84.5402C42.7848 87.2598 45.081 89.4004 47.6473 90.0656C50.0549 90.6892 52.2187 90.312 54.0738 88.9441C57.3372 86.5376 58.8727 81.6014 58.7049 77.9678C58.6984 77.8333 58.6883 77.6985 58.6797 77.5638C55.8145 77.3354 52.9145 77.8944 50.2241 79.2384C50.8 80.398 50.3339 81.7931 49.1161 82.4349Z" fill="#F28D15"/>
<path d="M66.4955 82.9106L65.6834 82.4365C65.2864 82.2048 65.2232 81.6152 65.4809 81.0127C65.4621 81.0152 65.4451 81.0229 65.4257 81.0229H65.4121C65.1874 81.018 65.0112 80.8443 65.0194 80.6356C65.025 80.4269 65.2117 80.2636 65.4365 80.271C65.5922 80.2746 65.7201 80.3616 65.784 80.4825L66.0803 80.0449C65.5687 79.7251 65.0469 79.4373 64.5175 79.1782C64.3477 84.5258 63.327 89.8325 60.5754 93.4703C58.5442 96.1559 55.744 97.7099 52.2531 98.0821C51.1212 98.2053 50.0406 98.2656 49.0115 98.2656C44.5674 98.2656 41.0982 97.1316 38.6717 94.881C35.649 92.0773 34.7445 87.9356 34.5972 84.2983C34.527 84.3141 34.4525 84.3258 34.3759 84.3354C34.4761 84.5093 34.5109 84.6864 34.4621 84.8531C34.2999 85.4073 33.2902 85.6349 32.2068 85.3614C32.049 85.3216 31.8995 85.2725 31.7578 85.2175C31.9019 89.0777 32.8991 93.6843 36.2452 96.9631C39.7767 100.426 45.3582 101.859 52.8274 101.228C57.5288 100.831 61.1415 98.9823 63.5681 95.7385C66.1377 92.2999 67.1332 87.6619 67.3335 83.0499C67.0263 83.0936 66.7373 83.0518 66.4955 82.9106Z" fill="#F28D15"/>
<path d="M37.0473 65.0031L38.1185 64.4386C38.1969 64.3973 38.2767 64.3603 38.3575 64.3271C37.579 63.2877 37.3216 62.3879 37.3202 62.383L37.3201 62.3824C37.3201 62.3824 36.2855 62.5157 34.6958 62.913C35.5407 63.5184 36.345 64.2093 37.0473 65.0031Z" fill="#F28D15"/>
<path d="M29.3159 78.4449C29.5025 78.519 29.6838 78.5877 29.8563 78.6503C30.0284 72.7409 24.7167 69.9282 22.6981 69.0762C22.5654 69.202 22.4354 69.3327 22.3081 69.4635C24.0466 70.1643 29.3565 72.7777 29.3159 78.4449Z" fill="#C74817"/>
<path d="M30.7588 69.5113C30.8347 69.5113 30.9133 69.4887 30.981 69.4485C31.1678 69.3328 31.222 69.099 31.0973 68.9254C30.9727 68.752 30.721 68.7041 30.5341 68.8173C30.3472 68.933 30.2957 69.1671 30.4176 69.3404C30.4962 69.4511 30.6262 69.5113 30.7588 69.5113Z" fill="#C74817"/>
<path d="M29.1643 67.7805C29.2455 67.8687 29.3592 67.9139 29.4757 67.9139C29.5677 67.9139 29.6599 67.8861 29.7357 67.8259C29.909 67.6902 29.9307 67.4537 29.7844 67.2953C29.6409 67.1345 29.3836 67.1143 29.213 67.2474C29.0424 67.3832 29.0207 67.6196 29.1643 67.7805Z" fill="#C74817"/>
<path d="M27.7223 66.3652C27.8008 66.4333 27.9011 66.4659 28.0013 66.4659C28.1096 66.4659 28.2153 66.4281 28.2964 66.3476C28.4507 66.1968 28.4427 65.9578 28.2802 65.8147C28.1151 65.6713 27.8605 65.6789 27.706 65.8321C27.5517 65.9831 27.5572 66.2218 27.7223 66.3652Z" fill="#C74817"/>
<path d="M33.752 86.4923V86.4898C33.7168 86.2836 33.5083 86.1453 33.2862 86.1755C33.0669 86.2082 32.9152 86.4017 32.9504 86.608C32.9803 86.7941 33.1535 86.9248 33.3486 86.9248L33.4135 86.9224C33.6356 86.8897 33.7873 86.6962 33.752 86.4923Z" fill="#C74817"/>
<path d="M34.2398 90.0556C34.0287 90.1261 33.9176 90.3398 33.9907 90.536C34.0476 90.6919 34.2047 90.7899 34.3726 90.7899C34.4186 90.7899 34.4646 90.7825 34.508 90.7697C34.7192 90.6995 34.8303 90.4856 34.7571 90.2869C34.684 90.091 34.4511 89.9879 34.2398 90.0556Z" fill="#C74817"/>
<path d="M34.1605 88.4133C34.1064 88.2097 33.887 88.0864 33.6703 88.1367C33.451 88.1871 33.3183 88.3907 33.3725 88.592C33.4157 88.7654 33.5836 88.8811 33.7651 88.8811C33.7976 88.8811 33.8301 88.8762 33.8627 88.8685C34.0793 88.8207 34.2147 88.6171 34.1605 88.4133Z" fill="#C74817"/>
<path d="M63.5846 90.8027C63.6279 90.8154 63.6739 90.8228 63.7173 90.8228C63.8853 90.8228 64.045 90.7249 64.1018 90.5689C64.1751 90.3727 64.0611 90.1566 63.85 90.0886C63.6387 90.0208 63.4057 90.1264 63.3328 90.3226C63.2595 90.5186 63.3735 90.7349 63.5846 90.8027Z" fill="#C74817"/>
<path d="M61.6971 94.3684C61.7619 94.406 61.8378 94.4237 61.9111 94.4237C62.0465 94.4237 62.179 94.3608 62.2549 94.2476C62.3741 94.0691 62.3144 93.8377 62.125 93.7272C61.9354 93.6165 61.6836 93.6717 61.567 93.8478C61.4479 94.0263 61.5048 94.2576 61.6971 94.3684Z" fill="#C74817"/>
<path d="M57.1817 97.8707H57.179C56.9838 97.9738 56.9162 98.2051 57.0299 98.3861C57.1031 98.5069 57.2412 98.5747 57.3821 98.5747C57.4498 98.5747 57.5201 98.5597 57.5823 98.5246C57.7775 98.4215 57.8452 98.1901 57.7341 98.0116C57.623 97.8303 57.3739 97.7675 57.1817 97.8707Z" fill="#C74817"/>
<path d="M60.647 96.0325C60.7634 96.0325 60.8771 95.987 60.9586 95.8991V95.9016C61.1019 95.7407 61.0831 95.5042 60.9125 95.3684C60.739 95.2326 60.4846 95.2528 60.3384 95.4139C60.1921 95.5723 60.2138 95.8085 60.3844 95.9443C60.4629 96.0047 60.555 96.0325 60.647 96.0325Z" fill="#C74817"/>
<path d="M59.1367 97.4385C59.2288 97.4385 59.3208 97.4083 59.3968 97.3479C59.5673 97.2146 59.5917 96.9759 59.4457 96.8175C59.3021 96.6589 59.0474 96.639 58.8742 96.7721C58.7036 96.9054 58.6793 97.1443 58.8256 97.3028C58.9067 97.3906 59.0204 97.4385 59.1367 97.4385Z" fill="#C74817"/>
<path d="M63.0916 91.9511C62.8885 91.8632 62.6473 91.9462 62.5526 92.1347C62.4577 92.3233 62.5471 92.5495 62.7502 92.635C62.8044 92.6603 62.8639 92.6704 62.9207 92.6704C63.0726 92.6704 63.2215 92.5898 63.2892 92.4516C63.3838 92.2629 63.2947 92.0392 63.0916 91.9511Z" fill="#C74817"/>
<path d="M64.2272 88.9016C64.2597 88.9092 64.2949 88.9141 64.3274 88.9141C64.5088 88.9141 64.6741 88.8009 64.7201 88.6299C64.777 88.4288 64.6442 88.2226 64.4276 88.1722C64.2083 88.1194 63.9888 88.2427 63.9346 88.4438H63.932C63.8778 88.6452 64.0106 88.8512 64.2272 88.9016Z" fill="#C74817"/>
<path d="M35.556 92.0899C35.4612 91.9013 35.2175 91.821 35.0144 91.9114C34.814 92.002 34.7273 92.2285 34.8248 92.417C34.8952 92.5501 35.0414 92.6307 35.1904 92.6307C35.2499 92.6307 35.3122 92.6181 35.369 92.5928C35.5695 92.5025 35.6561 92.276 35.556 92.0874V92.0899Z" fill="#C74817"/>
<path d="M64.7085 86.9605L64.7818 86.9679C64.974 86.9679 65.1447 86.8397 65.1798 86.6587C65.2203 86.4524 65.074 86.2564 64.8521 86.2186C64.6326 86.1808 64.4215 86.3166 64.3808 86.5229C64.3401 86.7265 64.4863 86.9251 64.7085 86.9605Z" fill="#C74817"/>
<path d="M65.0581 84.9964L65.1068 84.9991C65.3099 84.9991 65.4857 84.8581 65.5103 84.667C65.5373 84.4607 65.3802 84.2721 65.1554 84.2471C64.9335 84.2194 64.7304 84.3677 64.7032 84.574C64.6762 84.7803 64.836 84.9689 65.0581 84.9964Z" fill="#C74817"/>
<path d="M65.283 83.0125L65.3126 83.0149C65.5239 83.0149 65.7026 82.8641 65.7162 82.6655C65.7326 82.4567 65.5646 82.2758 65.3425 82.2605C65.1177 82.2455 64.9228 82.4015 64.9063 82.6102C64.8902 82.8162 65.0581 82.9975 65.283 83.0125Z" fill="#C74817"/>
<path d="M39.0978 97.31C39.2169 97.31 39.336 97.2621 39.4146 97.1715C39.5554 97.0082 39.5283 96.7717 39.355 96.6386C39.179 96.5102 38.9244 96.5328 38.7836 96.6963C38.6428 96.8571 38.6699 97.0961 38.8433 97.227C38.9189 97.2822 39.0083 97.31 39.0978 97.31Z" fill="#C74817"/>
<path d="M41.0638 97.7225C40.8689 97.6194 40.6198 97.6822 40.5113 97.8632C40.4004 98.0444 40.4681 98.2758 40.663 98.3789C40.7253 98.4116 40.7958 98.4265 40.8635 98.4265C41.0043 98.4265 41.1424 98.3588 41.2183 98.2355C41.3266 98.0545 41.2589 97.8257 41.0638 97.7225Z" fill="#C74817"/>
<path d="M55.3025 98.673C55.0914 98.7432 54.9803 98.9595 55.056 99.1557C55.1157 99.309 55.2729 99.4072 55.4379 99.4072C55.4839 99.4072 55.5299 99.3997 55.5762 99.3846V99.3819C55.7872 99.3117 55.8983 99.0978 55.8224 98.9018C55.7439 98.7056 55.5138 98.6024 55.3025 98.673Z" fill="#C74817"/>
<path d="M42.9488 98.537C42.7374 98.4641 42.5046 98.562 42.426 98.7558C42.3448 98.9518 42.4531 99.1706 42.6617 99.2435C42.7104 99.2587 42.7564 99.2661 42.8051 99.2661C42.9704 99.2661 43.1247 99.173 43.1844 99.0223C43.263 98.8287 43.1573 98.6099 42.9488 98.537Z" fill="#C74817"/>
<path d="M36.0248 93.6688C35.8351 93.782 35.7837 94.0158 35.9082 94.1919C35.9841 94.3026 36.1141 94.3604 36.2467 94.3604C36.3227 94.3604 36.4012 94.3427 36.4689 94.2999C36.6557 94.1843 36.71 93.9504 36.5852 93.7769C36.4635 93.6035 36.2116 93.5556 36.0248 93.6688Z" fill="#C74817"/>
<path d="M37.5495 95.9395C37.6471 95.9395 37.7445 95.9092 37.8203 95.8439C37.9883 95.7054 38.0018 95.4667 37.8529 95.3108C37.704 95.1549 37.4467 95.1424 37.2787 95.2806C37.1109 95.4213 37.0973 95.6578 37.2463 95.8138C37.3275 95.8967 37.4386 95.9395 37.5495 95.9395Z" fill="#C74817"/>
<path d="M44.9482 99.0883C44.7315 99.0431 44.512 99.1713 44.4634 99.3751C44.4146 99.5762 44.5528 99.7798 44.7721 99.8252C44.802 99.8301 44.8317 99.8326 44.8614 99.8326C45.0456 99.8326 45.2136 99.7145 45.2568 99.5384C45.3056 99.3373 45.1676 99.1337 44.9482 99.0883Z" fill="#C74817"/>
<path d="M51.2208 99.4223C50.996 99.44 50.8283 99.621 50.8471 99.8273C50.8635 100.026 51.0423 100.177 51.2533 100.177L51.2832 100.174C51.508 100.159 51.676 99.9756 51.6569 99.7693C51.6379 99.5606 51.443 99.4049 51.2208 99.4223Z" fill="#C74817"/>
<path d="M53.2968 99.1783C53.0773 99.2186 52.931 99.4146 52.9744 99.6208C53.0096 99.7993 53.1802 99.9251 53.3725 99.9251L53.4484 99.9202C53.6705 99.8799 53.8141 99.6837 53.7708 99.4774C53.73 99.2739 53.516 99.1381 53.2968 99.1783Z" fill="#C74817"/>
<path d="M47.0092 99.4004C46.7873 99.3778 46.5868 99.5285 46.5625 99.7348C46.5408 99.9436 46.7032 100.127 46.9254 100.15L46.9687 100.152C47.1745 100.152 47.3506 100.006 47.3723 99.8127C47.394 99.6066 47.2313 99.4205 47.0092 99.4004Z" fill="#C74817"/>
<path d="M49.113 99.5003C48.8885 99.4975 48.7041 99.666 48.7041 99.8748C48.7041 100.083 48.8855 100.252 49.1103 100.255C49.3352 100.255 49.5165 100.086 49.5165 99.8775C49.5166 99.6687 49.3378 99.5003 49.113 99.5003Z" fill="#C74817"/>
<path d="M28.8327 71.9722L30.0113 71.3511C28.529 69.3048 26.6215 67.8248 25.3149 66.9616C24.9385 67.2181 24.5675 67.4872 24.2046 67.7738C25.3825 68.5138 27.3405 69.9374 28.8327 71.9722Z" fill="#3F5C33"/>
<path d="M30.8013 78.9697C30.8743 78.9925 30.94 79.0125 30.9977 79.0298C31.0909 78.723 31.2329 78.4513 31.4066 78.2327L30.8592 77.3369C30.888 77.8627 30.8708 78.4071 30.8013 78.9697Z" fill="#3F5C33"/>
<path d="M63.5677 95.7383C61.1412 98.9821 57.5284 100.83 52.8271 101.228C45.3578 101.859 39.7763 100.425 36.2449 96.9629C32.8987 93.6841 31.9015 89.0775 31.7574 85.2173C31.6326 85.1688 31.5149 85.115 31.4051 85.057C31.1093 85.16 30.7773 85.2448 30.4082 85.3043C30.5702 89.3877 31.6513 94.289 35.2617 97.8279C38.5196 101.021 43.3077 102.631 49.5284 102.631C50.6252 102.631 51.7654 102.58 52.9489 102.48C58.07 102.047 62.0158 100.018 64.6807 96.4524C67.5846 92.5647 68.6118 87.3604 68.7455 82.3097C68.2997 82.7211 67.7962 82.9839 67.3331 83.0498C67.1329 87.6617 66.1374 92.2997 63.5677 95.7383Z" fill="#3F5C33"/>
<path d="M32.4381 69.1422C32.608 68.857 32.86 68.6094 33.1877 68.4368L33.9541 68.0329C32.8852 66.4606 31.7015 65.1436 30.717 64.1678C30.1186 64.4017 29.5038 64.6607 28.8809 64.9498C29.8934 65.9164 31.2539 67.3676 32.4381 69.1422Z" fill="white"/>
<path d="M52.0309 96.3344C46.6091 96.9153 42.5658 96.0075 40.0093 93.6362C37.9598 91.7355 37.0349 89.0353 36.6705 86.355L36.445 86.4739L35.0186 84.1402C34.899 84.208 34.7563 84.2617 34.5942 84.2982C34.7416 87.9356 35.6461 92.0772 38.6688 94.881C41.0952 97.1315 44.5644 98.2656 49.0085 98.2656C50.0377 98.2656 51.1182 98.2053 52.2502 98.0821C55.7411 97.7099 58.5413 96.1559 60.5724 93.4702C63.3241 89.8325 64.3448 84.5258 64.5146 79.1781C63.8926 78.8736 63.2598 78.611 62.6189 78.3901C62.5406 83.7027 61.6469 88.9877 59.0206 92.4594C57.2902 94.7477 55.0045 96.015 52.0309 96.3344Z" fill="white"/>
<path d="M54.0772 88.9446C52.2221 90.3125 50.0583 90.6897 47.6507 90.0661C45.0844 89.4009 42.7882 87.2603 41.6811 84.5407C41.3493 84.5028 41.0307 84.3879 40.7576 84.2029L40.7051 84.2305C40.7118 84.2502 40.7164 84.2704 40.7232 84.29C41.8281 87.471 44.4604 90.0233 47.4313 90.7928C48.2411 91.004 49.0373 91.1071 49.8091 91.1071C51.5478 91.1071 53.1673 90.5765 54.5837 89.5355C58.0582 86.973 59.6967 81.7603 59.518 77.9356C59.5135 77.84 59.506 77.7444 59.5004 77.6488C59.2285 77.6128 58.9559 77.5861 58.6831 77.5643C58.6917 77.6989 58.7018 77.8337 58.7083 77.9682C58.8762 81.6019 57.3406 86.5381 54.0772 88.9446Z" fill="#5B3952"/>
<path d="M36.3272 65.3818L37.0475 65.0023C36.3451 64.2086 35.5408 63.5176 34.6959 62.9122C34.3873 62.9876 34.0596 63.0731 33.7129 63.1712C34.6561 63.8032 35.5537 64.5333 36.3272 65.3818Z" fill="#5B3952"/>
<path d="M62.9399 46.1442C62.0007 45.1872 60.5048 45.7149 59.5987 47.3227C59.5971 47.3256 59.5957 47.3286 59.5942 47.3314C59.1481 47.3139 58.6802 47.0413 58.242 46.3145C57.015 44.2797 58.3759 42.4829 58.3759 42.4829C58.3759 42.4829 56.1438 40.7947 57.2727 38.6291C56.5919 37.8226 55.8042 37.0883 54.9241 36.4463L54.9213 36.4461C52.716 35.6458 50.2522 35.0937 47.6219 34.8683C44.4312 34.5957 41.3528 34.8275 38.5801 35.4684C37.7974 35.9026 37.0698 36.4082 36.4007 36.9696C37.1124 39.28 34.6055 40.5892 34.6055 40.5892C34.6055 40.5892 35.6169 42.5751 34.0346 44.386C33.4694 45.0329 32.9582 45.2275 32.5156 45.1742C32.5145 45.1711 32.5138 45.168 32.5128 45.1649C31.9149 43.4373 30.5376 42.6807 29.4366 43.4751C28.7989 43.9351 28.499 44.8576 28.571 45.8715C28.6233 46.6085 28.8709 47.3936 29.334 48.0857C29.442 49.1054 29.833 49.7697 30.3618 49.9794C30.3553 53.3797 32.322 56.5326 35.4928 58.7503C36.6088 59.5309 37.8728 60.1953 39.253 60.7137C40.895 61.3304 42.6982 61.7424 44.6096 61.8947C44.948 61.9216 45.2837 61.9371 45.6181 61.9472C46.4976 61.3501 47.4021 60.7954 48.3315 60.2895C48.7246 60.4231 49.1127 60.5648 49.4953 60.7143C50.6585 60.1254 51.8577 59.6105 53.0873 59.1738C53.4585 59.3713 53.8237 59.5761 54.1828 59.7875C54.7295 59.6121 55.2829 59.4548 55.8407 59.3113C58.4851 57.6115 60.3202 55.2025 60.835 52.4071C61.3946 52.2841 61.9018 51.6914 62.1952 50.7037C62.7083 50.1682 63.0713 49.5353 63.2787 48.9021C63.6312 47.825 63.5314 46.7468 62.9399 46.1442Z" fill="#F7B475"/>
<path d="M44.8855 58.9413C47.4213 59.1433 49.6095 58.2031 50.0028 56.804L40.2432 56.0735C40.4132 57.4945 42.3779 58.7415 44.8855 58.9413Z" fill="white"/>
<path d="M50.7646 50.0793C49.472 51.3322 47.1757 51.9541 44.822 51.5268C43.0742 51.2095 41.6636 50.3792 40.8446 49.3269C38.2189 50.1391 36.3678 51.9452 36.1065 54.955C36.0829 55.2261 36.0748 55.495 36.0785 55.7617L40.247 56.0737L50.0066 56.8041L54.335 57.1281C54.3846 56.8654 54.4231 56.5988 54.4466 56.3277C54.707 53.3277 53.2021 51.2732 50.7646 50.0793Z" fill="#361310"/>
<path d="M36.1602 41.9506C37.7021 40.5483 39.7407 40.7006 41.5142 41.7115C41.7608 41.8531 42.0197 41.9582 42.3331 41.8378C42.6455 41.7814 42.8309 41.3285 42.6521 40.9379C42.4408 40.4651 42.1583 40.2688 41.8555 40.1502C40.9565 39.7701 40.0244 39.5887 39.1061 39.6726C38.3429 39.7352 37.611 40.0708 36.98 40.5752C36.6361 40.8914 36.2856 41.3082 36.0274 41.7311C35.9465 41.8343 36.0648 42.029 36.1602 41.9506Z" fill="#361310"/>
<path d="M37.7593 44.2372C38.9799 43.6942 40.2746 43.3665 41.6123 43.8414C40.5532 42.8324 38.64 43.19 37.7593 44.2372Z" fill="#361310"/>
<path d="M46.427 60.0548C45.658 60.4323 44.8516 60.3229 44.0728 60.0787C44.6864 60.65 45.8682 60.7353 46.427 60.0548Z" fill="#361310"/>
<path d="M50.9047 40.7505C50.5846 40.8194 50.2702 40.9682 49.9753 41.4006C49.7274 41.7572 49.827 42.2328 50.1246 42.3378C50.4113 42.5061 50.6856 42.4435 50.9546 42.3429C52.8877 41.6273 54.9244 41.7997 56.1865 43.4254C56.2661 43.5177 56.4184 43.3445 56.3577 43.23C56.1809 42.7725 55.9119 42.3064 55.631 41.9403C55.1018 41.3435 54.4421 40.897 53.7015 40.7147C52.812 40.4868 51.8603 40.5181 50.9047 40.7505Z" fill="#361310"/>
<path d="M50.4648 44.4266C51.8701 44.1701 53.0858 44.6979 54.189 45.426C53.5133 44.2548 51.6936 43.5998 50.4648 44.4266Z" fill="#361310"/>
<path d="M47.0722 43.4363C43.8845 42.8576 40.7962 44.1995 40.1742 46.4336C39.8933 47.4428 40.1676 48.4597 40.8423 49.3266C41.6613 50.3789 43.0719 51.2093 44.8197 51.5265C47.1734 51.9538 49.4697 51.3319 50.7623 50.079C51.2203 49.635 51.5551 49.1137 51.7178 48.5292C52.3398 46.295 50.2599 44.0149 47.0722 43.4363Z" fill="#F39B6D"/>
<path d="M41.7527 47.179C42.0066 47.0281 42.2924 46.8983 42.6081 46.8C44.0151 46.3618 45.4955 46.6753 46.1201 47.4919C47.117 46.8992 47.5959 45.9624 47.2144 45.1514C46.7358 44.134 45.0868 43.7019 43.5314 44.1863C41.976 44.6707 41.1032 45.8883 41.5818 46.9058C41.6275 47.0029 41.6869 47.0928 41.7527 47.179Z" fill="#F9C5A7"/>
<path d="M60.3185 51.4638C60.3523 51.6673 60.4231 51.8622 60.4805 52.057C60.3361 51.19 60.4416 50.4171 60.7394 49.7467C61.159 49.4706 61.6196 49.3556 62.0863 49.5417C61.8112 49.1302 61.2929 49.1253 60.918 49.396C61.236 48.8453 61.6919 48.3733 62.2527 47.9882C61.0136 48.4125 60.0048 49.9533 60.3185 51.4638Z" fill="#361310"/>
<path d="M29.6646 46.9586C30.1586 46.849 30.5912 47.0351 30.9542 47.3736C31.1247 48.0813 31.0867 48.8596 30.7854 49.691C30.8778 49.5082 30.9833 49.3273 31.0538 49.1322C31.6401 47.6934 30.9286 46.0155 29.7855 45.4014C30.2675 45.8695 30.6301 46.4068 30.8425 46.9998C30.5227 46.6737 30.0111 46.5966 29.6646 46.9586Z" fill="#361310"/>
<path d="M72.7082 63.9012C72.4945 63.4918 72.2731 63.0849 72.0438 62.6808C70.7825 62.2613 69.5193 61.9357 68.2612 61.6995C68.0043 61.3321 67.74 60.9684 67.4682 60.6084C66.7062 60.4909 65.947 60.4089 65.191 60.3539C64.6734 60.3162 64.1571 60.2891 63.6434 60.28C63.6026 60.2357 63.5591 60.1933 63.518 60.1492C63.2614 59.8742 63.002 59.6009 62.7349 59.333C61.4491 59.3516 60.1782 59.4562 58.9286 59.6425C58.8238 59.5573 58.7141 59.4765 58.608 59.3924C58.3799 59.2117 58.153 59.0299 57.9188 58.8547C57.2212 58.9814 56.5313 59.1353 55.8486 59.311C55.2907 59.4545 54.7373 59.6118 54.1906 59.7872C53.8315 59.5758 53.4664 59.3711 53.0952 59.1735C51.8655 59.6102 50.6664 60.1252 49.5032 60.714C49.1205 60.5645 48.7324 60.4228 48.3393 60.2892C47.4099 60.7952 46.5054 61.3498 45.6259 61.947C45.3958 62.1032 45.1664 62.2606 44.9399 62.4229C44.5398 62.3403 44.1351 62.2665 43.7261 62.2021C42.8802 62.8461 42.0627 63.5347 41.2719 64.2607C41.1659 64.3579 41.059 64.4538 40.9541 64.5525C41.2789 64.7591 41.5609 65.0332 41.7683 65.3724L50.1278 79.0498C50.1656 79.1117 50.1983 79.1749 50.2299 79.2384C52.9204 77.8944 55.8203 77.3354 58.6855 77.5639C58.9583 77.5856 59.2308 77.6123 59.5029 77.6484C60.5553 77.7878 61.599 78.0374 62.6231 78.3903C63.264 78.6111 63.8968 78.8738 64.5187 79.1783C65.0481 79.4374 65.5699 79.7252 66.0815 80.045L75.7862 65.7133C75.869 65.591 75.9625 65.4837 76.0597 65.3837C74.949 64.8113 73.8303 64.3155 72.7082 63.9012Z" fill="#DAD6D3"/>
<path d="M72.7082 63.9012C72.4945 63.4918 72.2731 63.0849 72.0438 62.6808C70.7825 62.2613 69.5193 61.9357 68.2612 61.6995C68.0043 61.3321 67.74 60.9684 67.4682 60.6084C66.7062 60.4909 65.947 60.4089 65.191 60.3539C64.6734 60.3162 64.1571 60.2891 63.6434 60.28C63.6026 60.2357 63.5591 60.1933 63.518 60.1492C63.2614 59.8742 63.002 59.6009 62.7349 59.333C61.4491 59.3516 60.1782 59.4562 58.9286 59.6425C58.8238 59.5573 58.7141 59.4765 58.608 59.3924C58.3799 59.2117 58.153 59.0299 57.9188 58.8547C57.2212 58.9814 56.5313 59.1353 55.8486 59.311C55.2907 59.4545 54.7373 59.6118 54.1906 59.7872C53.8315 59.5758 53.4664 59.3711 53.0952 59.1735C51.8655 59.6102 50.6664 60.1252 49.5032 60.714C49.1205 60.5645 48.7324 60.4228 48.3393 60.2892C47.4099 60.7952 46.5054 61.3498 45.6259 61.947C45.3958 62.1032 45.1664 62.2606 44.9399 62.4229C44.5398 62.3403 44.1351 62.2665 43.7261 62.2021C42.8802 62.8461 42.0627 63.5347 41.2719 64.2607C41.1659 64.3579 41.059 64.4538 40.9541 64.5525C41.2789 64.7591 41.5609 65.0332 41.7683 65.3724L50.1278 79.0498C50.1656 79.1117 50.1983 79.1749 50.2299 79.2384C52.9204 77.8944 55.8203 77.3354 58.6855 77.5639C58.9583 77.5856 59.2308 77.6123 59.5029 77.6484C60.5553 77.7878 61.599 78.0374 62.6231 78.3903C63.264 78.6111 63.8968 78.8738 64.5187 79.1783C65.0481 79.4374 65.5699 79.7252 66.0815 80.045L75.7862 65.7133C75.869 65.591 75.9625 65.4837 76.0597 65.3837C74.949 64.8113 73.8303 64.3155 72.7082 63.9012Z" fill="#DAD6D3"/>
<path d="M48.7375 70.3682C47.7723 68.1139 46.746 65.7817 45.3833 63.7678C45.9569 66.2272 46.9557 68.5715 47.9388 70.8171C48.9602 73.0405 50.0772 75.3131 51.2902 77.4089C50.5679 75.0351 49.6652 72.6456 48.7375 70.3682Z" fill="#616160"/>
<path d="M52.2302 69.5145C51.7184 67.4555 51.1602 65.3244 50.2402 63.4135C50.3468 65.5879 50.8624 67.7301 51.3845 69.7868C51.9473 71.8298 52.5892 73.9264 53.3727 75.8791C53.1308 73.7504 52.7018 71.588 52.2302 69.5145Z" fill="#616160"/>
<path d="M55.1511 68.3014C54.9511 65.9573 54.717 63.5231 54.0763 61.2482C53.8482 63.6307 54.0453 66.0664 54.2607 68.4098C54.5185 70.7473 54.8494 73.1622 55.3348 75.4541C55.4082 73.0925 55.3084 70.6525 55.1511 68.3014Z" fill="#616160"/>
<path d="M58.9933 62.3829C58.4823 64.4748 58.3667 66.6851 58.2815 68.8174C58.2383 70.9514 58.2545 73.165 58.4454 75.2943C58.8158 73.196 59.0189 70.9982 59.157 68.8685C59.2528 66.7379 59.3246 64.5223 58.9933 62.3829Z" fill="#616160"/>
<path d="M62.6162 69.0899C63.1436 66.7804 63.6671 64.3717 63.762 61.9583C62.8239 64.1402 62.2677 66.5364 61.7554 68.8516C61.2848 71.1774 60.8582 73.6051 60.6113 75.9745C61.3964 73.7523 62.0469 71.3897 62.6162 69.0899Z" fill="#616160"/>
<path d="M63.6797 73.7432C65.4612 71.3106 66.9665 68.6305 67.6646 65.5491C65.7214 67.9009 64.5303 70.7648 63.6797 73.7432Z" fill="#616160"/>
<path d="M65.6045 77.0093C67.0385 75.3159 68.3845 73.4298 69.6362 71.5654C70.8518 69.6736 72.0931 67.6882 72.9394 65.5142C71.3816 67.1086 70.1086 69.065 68.9035 70.9665C67.7338 72.8963 66.5734 74.9379 65.6045 77.0093Z" fill="#616160"/>
<path d="M34.9912 82.8653C35.0112 82.8829 35.0298 82.9008 35.0485 82.9187L35.0133 82.8611C35.0062 82.8627 34.9984 82.8637 34.9912 82.8653Z" fill="#C74817"/>
<path d="M37.2296 78.7584L35.4958 79.6721L35.1455 79.099L36.8794 78.1853L36.7441 77.964L35.0103 78.8777L34.66 78.3046L36.3938 77.3909L35.787 76.398L34.0531 77.3116L33.7028 76.7386L35.4367 75.8249L35.3084 75.6149L33.5745 76.5286L33.2242 75.9555L34.9581 75.0418L34.8298 74.8319L33.0959 75.7455L32.7456 75.1725L34.4796 74.2588L33.7756 73.107L32.0417 74.0207L31.6914 73.4476L33.4253 72.5339L33.2901 72.3126L31.5562 73.2263L31.2059 72.6532L32.9398 71.7395L32.4518 70.9411L28.8809 72.8228L31.9205 77.796C32.1238 77.6892 32.3409 77.6439 32.5567 77.6778C32.5618 77.6786 32.5667 77.6804 32.5718 77.6813L33.7146 77.079L33.7443 77.1277L32.6563 77.7009C33.1933 77.8483 33.5438 78.4727 33.5519 79.2352L34.6718 78.645L34.7015 78.6937L33.5517 79.2995C33.5495 79.4434 33.5368 79.5911 33.5094 79.7416C33.4948 79.822 33.4757 79.9 33.4546 79.9766C33.6822 79.967 33.9264 79.9614 34.1787 79.955L35.1573 79.4394L35.187 79.4879L34.3072 79.9516C34.5033 79.9461 34.7024 79.9396 34.9009 79.9289C36.2838 79.8548 37.0932 79.6188 37.1288 80.1921C37.1317 80.2375 37.125 80.2824 37.1141 80.327L37.9267 79.8988L37.2296 78.7584ZM29.644 73.8873L29.6143 73.8386L31.2177 72.9937L31.2474 73.0424L29.644 73.8873ZM30.1295 74.6816L30.0998 74.633L31.7033 73.7881L31.7329 73.8367L30.1295 74.6816ZM31.1541 76.3579L32.7575 75.513L32.7872 75.5616L31.1838 76.4065L31.1541 76.3579ZM31.6624 77.1896L31.6326 77.141L33.236 76.296L33.2658 76.3447L31.6624 77.1896Z" fill="white"/>
<path d="M36.6258 85.502L40.1967 83.6203L39.7087 82.8219L37.9748 83.7355L37.6246 83.1625L39.3585 82.2488L39.2302 82.0388L37.4963 82.9525L37.146 82.3794L38.8799 81.4658L38.7515 81.2558L37.0177 82.1695L36.6674 81.5964L38.4013 80.6828L38.273 80.4728L36.5391 81.3865L36.3152 81.0202C36.0198 81.1459 35.6591 81.2451 35.2576 81.3062C35.3513 81.3744 35.4352 81.4457 35.5073 81.5192L36.2006 81.1539L36.2303 81.2025L35.5482 81.5619C35.7665 81.8014 35.8645 82.0595 35.7951 82.2965C35.7804 82.3467 35.7566 82.3932 35.7286 82.4378L36.6792 81.937L36.7089 81.9856L35.6426 82.5475C35.5012 82.6931 35.2827 82.8004 35.0117 82.8613L35.0473 82.9194C35.2314 83.0955 35.3494 83.2843 35.3836 83.4697L36.6258 85.502ZM35.5544 83.5649L37.1579 82.7199L37.1875 82.7685L35.5841 83.6135L35.5544 83.5649ZM36.033 84.3479L37.6364 83.503L37.6661 83.5516L36.0627 84.3965L36.033 84.3479Z" fill="white"/>
<path d="M32.9385 71.7379L31.2046 72.6517L31.5549 73.2247L33.2888 72.311L32.9385 71.7379Z" fill="#361310"/>
<path d="M34.4824 74.2577L32.7485 75.1714L33.0988 75.7445L34.8327 74.8307L34.4824 74.2577Z" fill="#361310"/>
<path d="M34.9565 75.0406L33.2227 75.9543L33.5729 76.5274L35.3068 75.6136L34.9565 75.0406Z" fill="#361310"/>
<path d="M35.4307 75.8246L33.6968 76.7382L34.047 77.3112L35.7809 76.3977L35.4307 75.8246Z" fill="#361310"/>
<path d="M36.5404 81.3863L38.2743 80.4726L37.924 79.8995L37.1114 80.3277C37.0475 80.5894 36.755 80.8333 36.3164 81.0199L36.5404 81.3863Z" fill="#361310"/>
<path d="M38.4072 80.6809L36.6733 81.5947L37.0236 82.1677L38.7575 81.254L38.4072 80.6809Z" fill="#361310"/>
<path d="M38.8833 81.4638L37.1494 82.3776L37.4997 82.9506L39.2336 82.0369L38.8833 81.4638Z" fill="#361310"/>
<path d="M39.3652 82.2457L37.6313 83.1594L37.9816 83.7325L39.7155 82.8188L39.3652 82.2457Z" fill="#361310"/>
<path d="M33.4287 72.5327L31.6948 73.4464L32.0451 74.0195L33.779 73.1057L33.4287 72.5327Z" fill="#361310"/>
<path d="M36.393 77.3898L34.6592 78.3035L35.0095 78.8765L36.7433 77.9628L36.393 77.3898Z" fill="#361310"/>
<path d="M36.8774 78.1823L35.1436 79.0961L35.4938 79.6691L37.2277 78.7554L36.8774 78.1823Z" fill="#361310"/>
<path d="M50.2241 79.2385C50.1926 79.175 50.1599 79.1118 50.122 79.0498L41.7625 65.3725C41.5551 65.0332 41.2731 64.7591 40.9483 64.5525C40.2012 64.0773 39.2211 63.9707 38.3558 64.327C38.275 64.3602 38.1952 64.3972 38.1168 64.4385L37.0457 65.0029L36.3254 65.3825L34.8042 66.184C34.4928 66.3481 34.3837 66.7154 34.5604 67.0046C34.7408 67.2998 34.6293 67.6749 34.3114 67.8424L33.9501 68.0328L33.1837 68.4367C32.856 68.6093 32.6041 68.8569 32.4342 69.1421C32.2434 69.4624 32.1584 69.8305 32.1948 70.1979L30.0066 71.3509L28.828 71.972L27.8838 72.4695L30.8588 77.3371L31.4063 78.2329C31.5568 78.0433 31.7304 77.8938 31.916 77.7964L28.8764 72.8232L32.4474 70.9415L32.9354 71.7399L33.2856 72.313L33.4209 72.5343L33.7711 73.1073L34.4751 74.2592L34.8254 74.8322L34.9537 75.0422L35.304 75.6153L35.4323 75.8253L35.7826 76.3983L36.3894 77.3913L36.7397 77.9644L36.875 78.1857L37.2252 78.7588L37.9223 79.8993L38.2726 80.4723L38.4009 80.6823L38.7511 81.2553L38.8795 81.4653L39.2297 82.0383L39.358 82.2483L39.7082 82.8214L40.1963 83.6198L36.6253 85.5015L35.3831 83.4691C35.3997 83.559 35.3989 83.6481 35.3736 83.7343C35.3248 83.901 35.1982 84.0376 35.0169 84.1404L36.4433 86.4741L36.6689 86.3552L40.7018 84.2301L40.7543 84.2025C41.0274 84.3874 41.346 84.5024 41.6778 84.5403C42.0833 84.5866 42.5073 84.5189 42.8899 84.3172L44.0176 83.723C44.3354 83.5555 44.7394 83.659 44.9198 83.9541C45.0965 84.2433 45.4922 84.3447 45.8037 84.1805L49.1162 82.435C50.3339 81.7932 50.8 80.3981 50.2241 79.2385Z" fill="#C74817"/>
<path d="M39.2004 65.2074L38.8833 65.3744C38.6943 65.474 38.8668 66.0876 39.2686 66.7451L47.573 80.3322C47.9748 80.9896 48.4537 81.4418 48.6426 81.3423L48.9597 81.1752C49.2639 81.0149 48.9861 80.0272 48.3393 78.9689L40.9222 66.8333C40.2754 65.7751 39.5045 65.0471 39.2004 65.2074Z" fill="#A23716"/>
<path d="M38.6387 68.0408C37.9919 66.9825 37.3443 66.1896 37.1923 66.2697L37.0337 66.3533C36.9392 66.403 37.1884 66.9763 37.5902 67.6337L45.8946 81.2209C46.2964 81.8783 46.6987 82.3708 46.7931 82.3211L46.9517 82.2375C47.1038 82.1574 46.7027 81.2346 46.0559 80.1763L38.6387 68.0408Z" fill="#A23716"/>
<path d="M31.2133 72.9957L29.6099 73.8407L29.6396 73.8893L31.243 73.0443L31.2133 72.9957Z" fill="#D9E3E6"/>
<path d="M31.698 73.7898L30.0942 74.6341L30.1239 74.6827L31.7277 73.8384L31.698 73.7898Z" fill="#D9E3E6"/>
<path d="M32.7533 75.5151L31.1499 76.3601L31.1796 76.4087L32.783 75.5637L32.7533 75.5151Z" fill="#D9E3E6"/>
<path d="M33.2333 76.2978L31.6299 77.1428L31.6596 77.1914L33.263 76.3464L33.2333 76.2978Z" fill="#D9E3E6"/>
<path d="M33.7132 77.0792L32.5703 77.6814C32.599 77.6864 32.6271 77.6935 32.6549 77.7011L33.7429 77.1278L33.7132 77.0792Z" fill="#D9E3E6"/>
<path d="M34.6689 78.6455L33.5491 79.2356C33.5493 79.2569 33.5491 79.2784 33.5488 79.3L34.6986 78.6941L34.6689 78.6455Z" fill="#D9E3E6"/>
<path d="M35.1875 79.4883L35.1578 79.4397L34.1792 79.9553C34.2218 79.9543 34.2647 79.9531 34.3077 79.9519L35.1875 79.4883Z" fill="#D9E3E6"/>
<path d="M36.2035 81.1536L35.5103 81.519C35.5242 81.5332 35.5382 81.5473 35.5512 81.5617L36.2333 81.2022L36.2035 81.1536Z" fill="#D9E3E6"/>
<path d="M36.7103 81.9848L36.6807 81.9362L35.7301 82.4371C35.7058 82.4757 35.6773 82.5124 35.644 82.5467L36.7103 81.9848Z" fill="#D9E3E6"/>
<path d="M37.1604 82.7187L35.5566 83.563L35.5863 83.6116L37.1901 82.7673L37.1604 82.7187Z" fill="#D9E3E6"/>
<path d="M37.6448 83.5019L36.041 84.3464L36.0707 84.395L37.6745 83.5505L37.6448 83.5019Z" fill="#D9E3E6"/>
<path d="M66.0763 80.0453L65.7801 80.4829C65.7162 80.362 65.5883 80.275 65.4325 80.2714C65.2077 80.2641 65.021 80.4274 65.0155 80.6361C65.0072 80.8448 65.1834 81.0184 65.4082 81.0233H65.4217C65.4412 81.0233 65.4581 81.0156 65.4769 81.0131C65.2192 81.6156 65.2824 82.2051 65.6794 82.437L66.4915 82.911C66.7333 83.0522 67.0223 83.094 67.3295 83.0504C67.7926 82.9845 68.2961 82.7217 68.7419 82.3103C68.9527 82.1157 69.1513 81.8894 69.3254 81.6323L70.0741 80.5266C70.3477 86.2186 69.672 92.9305 66.0556 97.7103C63.2364 101.442 58.952 103.559 53.3217 104.002C45.032 104.656 38.7571 102.928 34.6814 98.8671C30.6627 94.8653 29.5948 89.4127 29.4327 85.3918C29.2588 85.3962 29.0804 85.3968 28.8931 85.3899C29.0571 89.5007 30.1494 95.0944 34.2832 99.2116C37.9067 102.82 43.1904 104.641 50.015 104.641C51.0928 104.641 52.2113 104.595 53.3678 104.502C59.1632 104.047 63.583 101.859 66.4997 97.9995C70.344 92.9145 70.936 85.7161 70.5699 79.7943L71.7127 78.1066L71.8476 77.9074C71.28 77.5636 70.9953 77.0195 71.2036 76.5771C71.2785 76.4181 71.4126 76.2952 71.5789 76.2033C71.3159 75.8971 71.2177 75.5386 71.3632 75.2295C71.4895 74.9613 71.772 74.7847 72.1231 74.7149C71.9349 74.4385 71.8798 74.1325 72.006 73.8643C72.1322 73.5961 72.4147 73.4195 72.7659 73.3497C72.5778 73.0733 72.5226 72.7673 72.6488 72.4992C72.8965 71.9732 73.7419 71.7938 74.5371 72.0983C74.7948 72.197 75.0104 72.3368 75.1828 72.4954C75.4381 72.1633 75.7266 71.912 76.0022 71.7719L78.3405 68.3188C79.1266 67.1578 79.1324 65.848 78.3535 65.3933L77.5414 64.9192C77.1396 64.6847 76.53 64.8946 76.0545 65.384C75.9573 65.484 75.8638 65.5913 75.781 65.7136L66.0763 80.0453Z" fill="#C74817"/>
<path d="M47.4071 70.5878L44.7632 62.9501L43.8071 62.5881L47.4071 70.5878Z" fill="white"/>
<path d="M51.0343 69.8809L49.215 61.0801L48.3379 60.688L51.0343 69.8809Z" fill="white"/>
<path d="M54.2168 70.311C53.4696 65.7561 53.762 60.1453 53.762 60.1453L52.9824 59.723C52.8524 65.0321 54.2168 70.311 54.2168 70.311Z" fill="white"/>
<path d="M58.361 59.8384L57.6419 59.3318C56.823 64.5876 57.4915 69.9808 57.4915 69.9808C57.3416 65.3754 58.361 59.8384 58.361 59.8384Z" fill="white"/>
<path d="M63.1083 60.2124L62.4769 59.6135C60.8377 64.7011 61.071 70.311 61.071 70.311C61.6494 65.735 63.1083 60.2124 63.1083 60.2124Z" fill="white"/>
<path d="M63.7783 71.2616C65.2905 66.8733 67.8626 61.7128 67.8626 61.7128L67.3665 61.0126C64.7074 65.7142 63.7783 71.2616 63.7783 71.2616Z" fill="white"/>
<path d="M66.8887 73.1044C68.9411 68.9095 72.1429 64.0622 72.1429 64.0622L71.738 63.3132C68.5073 67.6951 66.8887 73.1044 66.8887 73.1044Z" fill="white"/>
<path d="M27.254 85.194C27.8507 85.3079 28.3976 85.3711 28.8943 85.3896C29.0816 85.3966 29.26 85.396 29.434 85.3915C29.7838 85.3826 30.1078 85.3526 30.4059 85.3047C30.7751 85.2453 31.107 85.1604 31.4028 85.0574C31.5127 85.1155 31.6303 85.1692 31.7552 85.2177C31.8968 85.2728 32.0464 85.3219 32.2041 85.3617C33.2875 85.6351 34.2973 85.4076 34.4595 84.8534C34.5083 84.6867 34.4734 84.5094 34.3733 84.3356C34.4498 84.326 34.5244 84.3144 34.5945 84.2985C34.7565 84.2619 34.8993 84.2084 35.0189 84.1405C35.2001 84.0376 35.3268 83.9011 35.3756 83.7343C35.4009 83.6482 35.4017 83.5591 35.3851 83.4692C35.3509 83.2837 35.2329 83.0949 35.0488 82.9189C35.0299 82.9008 35.0111 82.8827 34.9909 82.865C34.9982 82.8634 35.006 82.8624 35.0133 82.8608C35.2843 82.7999 35.5027 82.6926 35.6442 82.547C35.6775 82.5126 35.706 82.476 35.7302 82.4373C35.7582 82.3927 35.7821 82.3462 35.7967 82.2961C35.8661 82.0591 35.7682 81.8009 35.5498 81.5614C35.5368 81.5471 35.5228 81.5329 35.5089 81.5187C35.4367 81.4452 35.3529 81.3739 35.2591 81.3057C35.6607 81.2447 36.0213 81.1454 36.3167 81.0197C36.7553 80.833 37.0478 80.5891 37.1117 80.3274C37.1227 80.2829 37.1293 80.238 37.1265 80.1926C37.0908 79.6193 36.2815 79.8552 34.8986 79.9294C34.7001 79.94 34.501 79.9466 34.3048 79.952C34.2618 79.9532 34.219 79.9543 34.1763 79.9555C33.924 79.9619 33.6798 79.9675 33.4522 79.9771C33.4733 79.9004 33.4924 79.8225 33.507 79.742C33.5344 79.5916 33.5471 79.4438 33.5493 79.3C33.5496 79.2784 33.5497 79.2569 33.5495 79.2356C33.5414 78.4731 33.191 77.8488 32.654 77.7014C32.6262 77.6937 32.5982 77.6867 32.5694 77.6817C32.5642 77.6808 32.5594 77.679 32.5543 77.6782C32.3385 77.6443 32.1214 77.6897 31.9181 77.7965C31.7324 77.8939 31.5589 78.0434 31.4083 78.233C31.2346 78.4516 31.0927 78.7233 30.9994 79.0301C30.9418 79.0128 30.876 78.9928 30.803 78.97C30.5564 78.8931 30.2279 78.7853 29.8571 78.6504C29.6847 78.5877 29.5033 78.5191 29.3167 78.4451C28.7835 78.2335 28.2101 77.9772 27.6884 77.6847C27.4561 77.5544 27.2343 77.4172 27.0313 77.2734L27.5695 76.6907C26.8443 72.9415 23.18 71.4181 21.7328 70.9576C20.7367 72.3041 19.9203 73.884 19.4061 75.7383C19.4061 75.7383 17.1725 81.1782 23.8591 84.1297C24.2304 84.2936 24.6228 84.4516 25.0511 84.5988C25.8551 84.875 26.5857 85.0664 27.254 85.194Z" fill="#F7B475"/>
<path d="M75.185 72.4954C75.0127 72.3368 74.7971 72.197 74.5393 72.0983C73.7441 71.7937 72.8987 71.9732 72.651 72.4992C72.5248 72.7674 72.58 73.0734 72.7681 73.3497C72.417 73.4195 72.1345 73.5962 72.0082 73.8643C71.882 74.1325 71.9372 74.4385 72.1253 74.7149C71.7741 74.7847 71.4917 74.9613 71.3655 75.2295C71.2199 75.5386 71.318 75.8972 71.5811 76.2033C71.4148 76.2952 71.2807 76.4181 71.2058 76.5771C70.9975 77.0195 71.2822 77.5636 71.8499 77.9074C71.8921 77.9329 71.9352 77.9573 71.9805 77.9804C72.0503 78.0161 72.1206 78.0517 72.1972 78.081C72.4186 78.1658 72.6428 78.2095 72.858 78.2222C72.8958 78.2711 72.934 78.3202 72.9808 78.3617C73.0422 78.4159 73.1164 78.4557 73.1898 78.495C73.4966 78.6592 73.7988 78.7036 74.1489 78.7336C74.7228 78.7826 75.3969 78.7197 75.9536 78.3078C76.489 77.9117 76.8431 77.289 77.1208 76.6826C77.4056 76.0606 77.5685 75.4169 77.4457 74.8075C77.3479 74.3221 77.0912 73.9326 76.7516 73.6486C77.1781 72.7902 77.1785 71.9466 76.7298 71.7086C76.5306 71.6029 76.2739 71.635 76.0046 71.7719C75.7287 71.9121 75.4403 72.1633 75.185 72.4954Z" fill="#F7B475"/>
</svg>
