<svg width="42" height="42" viewBox="0 0 42 42" fill="none" xmlns="http://www.w3.org/2000/svg">
<path d="M36.6667 0C37.8822 0 39.048 0.482885 39.9076 1.34243C40.7671 2.20197 41.25 3.36776 41.25 4.58333V36.6667C41.25 37.8822 40.7671 39.048 39.9076 39.9076C39.048 40.7671 37.8822 41.25 36.6667 41.25H4.58333C3.36776 41.25 2.20197 40.7671 1.34243 39.9076C0.482885 39.048 0 37.8822 0 36.6667V4.58333C0 3.36776 0.482885 2.20197 1.34243 1.34243C2.20197 0.482885 3.36776 0 4.58333 0H36.6667ZM35.5208 35.5208V23.375C35.5208 21.3936 34.7337 19.4934 33.3327 18.0923C31.9316 16.6913 30.0314 15.9042 28.05 15.9042C26.1021 15.9042 23.8333 17.0958 22.7333 18.8833V16.3396H16.3396V35.5208H22.7333V24.2229C22.7333 22.4583 24.1542 21.0146 25.9188 21.0146C26.7697 21.0146 27.5857 21.3526 28.1874 21.9543C28.7891 22.556 29.1271 23.372 29.1271 24.2229V35.5208H35.5208ZM8.89167 12.7417C9.91275 12.7417 10.892 12.336 11.614 11.614C12.336 10.892 12.7417 9.91275 12.7417 8.89167C12.7417 6.76042 11.0229 5.01875 8.89167 5.01875C7.86451 5.01875 6.87941 5.42679 6.1531 6.1531C5.42679 6.87941 5.01875 7.86451 5.01875 8.89167C5.01875 11.0229 6.76042 12.7417 8.89167 12.7417ZM12.0771 35.5208V16.3396H5.72917V35.5208H12.0771Z" fill="white"/>
</svg>
